<svg xmlns="http://www.w3.org/2000/svg" xmlns:xlink="http://www.w3.org/1999/xlink" contentStyleType="text/css" height="1340px" preserveAspectRatio="none" style="width:749px;height:1340px;background:#FFFFFF;" version="1.1" viewBox="0 0 749 1340" width="749px" zoomAndPan="magnify"><defs/><g><!--cluster input--><g id="cluster_input"><path d="M19.5,7 L723.5,7 A12.5,12.5 0 0 1 736,19.5 L736,58.9063 L7,58.9063 L7,19.5 A12.5,12.5 0 0 1 19.5,7 " fill="#F2F2F2" style="stroke:#F2F2F2;stroke-width:1.0;"/><rect fill="none" height="206" rx="12.5" ry="12.5" style="stroke:#000000;stroke-width:0.5;" width="729" x="7" y="7"/><line style="stroke:#000000;stroke-width:0.5;" x1="7" x2="736" y1="58.9063" y2="58.9063"/><line style="stroke:#000000;stroke-width:0.5;" x1="7" x2="736" y1="32.9531" y2="32.9531"/><text fill="#000000" font-family="Fira Code" font-size="18" lengthAdjust="spacing" textLength="46" x="138.5" y="27.708">Input</text><text fill="#000000" font-family="Fira Code" font-size="18" lengthAdjust="spacing" textLength="466" x="12" y="52.1611">- `path_*()` functions assist with giving correct paths</text></g><!--cluster cps--><g id="cluster_cps"><path d="M146.5,295 L654.5,295 A12.5,12.5 0 0 1 667,307.5 L667,388.8125 L134,388.8125 L134,307.5 A12.5,12.5 0 0 1 146.5,295 " fill="#F2F2F2" style="stroke:#F2F2F2;stroke-width:1.0;"/><rect fill="none" height="783" rx="12.5" ry="12.5" style="stroke:#000000;stroke-width:0.5;" width="533" x="134" y="295"/><line style="stroke:#000000;stroke-width:0.5;" x1="134" x2="667" y1="388.8125" y2="388.8125"/><line style="stroke:#000000;stroke-width:0.5;" x1="134" x2="667" y1="320.9531" y2="320.9531"/><text fill="#000000" font-family="Fira Code" font-size="18" lengthAdjust="spacing" textLength="229" x="286" y="316.708">edit_package_properties()</text><text fill="#000000" font-family="Fira Code" font-size="18" lengthAdjust="spacing" textLength="315" x="139" y="340.1611">- Required arg: path and properties</text><text fill="#000000" font-family="Fira Code" font-size="18" lengthAdjust="spacing" textLength="413" x="139" y="361.1143">- Takes the current properties file and updates</text><text fill="#000000" font-family="Fira Code" font-size="18" lengthAdjust="spacing" textLength="313" x="151" y="382.0674">the properties with the given fields</text></g><g id="input.path"><rect fill="#F2F2F2" height="124.7656" rx="12.5" ry="12.5" style="stroke:#000000;stroke-width:0.5;" width="344" x="23" y="72"/><line style="stroke:#000000;stroke-width:0.5;" x1="23" x2="367" y1="102.9531" y2="102.9531"/><text fill="#000000" font-family="Fira Code" font-size="18" lengthAdjust="spacing" textLength="39" x="175.5" y="93.708">path</text><text fill="#000000" font-family="Fira Code" font-size="18" lengthAdjust="spacing" textLength="284" x="28" y="124.6611">- Path to `datapackage.json` file</text><text fill="#000000" font-family="Fira Code" font-size="18" lengthAdjust="spacing" textLength="257" x="40" y="145.6143">in the package `&lt;id&gt;` folder</text><text fill="#000000" font-family="Fira Code" font-size="18" lengthAdjust="spacing" textLength="324" x="28" y="166.5674">- User may or may not have directly</text><text fill="#000000" font-family="Fira Code" font-size="18" lengthAdjust="spacing" textLength="175" x="40" y="187.5205">edited the JSON file</text></g><g id="input.properties"><rect fill="#F2F2F2" height="82.8594" rx="12.5" ry="12.5" style="stroke:#000000;stroke-width:0.5;" width="318" x="402" y="93"/><line style="stroke:#000000;stroke-width:0.5;" x1="402" x2="720" y1="123.9531" y2="123.9531"/><text fill="#000000" font-family="Fira Code" font-size="18" lengthAdjust="spacing" textLength="91" x="515.5" y="114.708">properties</text><text fill="#000000" font-family="Fira Code" font-size="18" lengthAdjust="spacing" textLength="254" x="407" y="145.6611">- JSON object of the package</text><text fill="#000000" font-family="Fira Code" font-size="18" lengthAdjust="spacing" textLength="286" x="419" y="166.6143">following the Data Package spec</text></g><text fill="#000000" font-family="Fira Code" font-size="18" lengthAdjust="spacing" textLength="77" x="162.5" y="272.7549">arg_path</text><ellipse cx="201" cy="295" fill="#F2F2F2" rx="6" ry="6" style="stroke:#000000;stroke-width:1.5;"/><text fill="#000000" font-family="Fira Code" font-size="18" lengthAdjust="spacing" textLength="129" x="493" y="272.7549">arg_properties</text><ellipse cx="557.5" cy="295" fill="#F2F2F2" rx="6" ry="6" style="stroke:#000000;stroke-width:1.5;"/><g id="cps.vif"><rect fill="#F2F2F2" height="82.8594" rx="12.5" ry="12.5" style="stroke:#000000;stroke-width:0.5;" width="222" x="150" y="451"/><line style="stroke:#000000;stroke-width:0.5;" x1="150" x2="372" y1="481.9531" y2="481.9531"/><text fill="#000000" font-family="Fira Code" font-size="18" lengthAdjust="spacing" textLength="124" x="199" y="472.708">verify_is_file()</text><text fill="#000000" font-family="Fira Code" font-size="18" lengthAdjust="spacing" textLength="180" x="155" y="503.6611">- Required arg: path</text><text fill="#000000" font-family="Fira Code" font-size="18" lengthAdjust="spacing" textLength="202" x="155" y="524.6143">- Output: path or Error</text></g><g id="cps.cpp"><rect fill="#F2F2F2" height="166.6719" rx="12.5" ry="12.5" style="stroke:#000000;stroke-width:0.5;" width="265" x="385.5" y="612"/><line style="stroke:#000000;stroke-width:0.5;" x1="385.5" x2="650.5" y1="642.9531" y2="642.9531"/><text fill="#000000" font-family="Fira Code" font-size="18" lengthAdjust="spacing" textLength="245" x="395.5" y="633.708">check_package_properties()</text><text fill="#000000" font-family="Fira Code" font-size="18" lengthAdjust="spacing" textLength="232" x="390.5" y="664.6611">- Required arg: properties</text><text fill="#000000" font-family="Fira Code" font-size="18" lengthAdjust="spacing" textLength="208" x="390.5" y="685.6143">- Output: JSON or Error</text><text fill="#000000" font-family="Fira Code" font-size="18" lengthAdjust="spacing" textLength="194" x="390.5" y="706.5674">- Checks that all fields</text><text fill="#000000" font-family="Fira Code" font-size="18" lengthAdjust="spacing" textLength="199" x="402.5" y="727.5205">and values match spec</text><text fill="#000000" font-family="Fira Code" font-size="18" lengthAdjust="spacing" textLength="198" x="390.5" y="748.4736">- Checks that required</text><text fill="#000000" font-family="Fira Code" font-size="18" lengthAdjust="spacing" textLength="154" x="402.5" y="769.4268">fields are present</text></g><g id="cps.rp"><rect fill="#F2F2F2" height="82.8594" rx="12.5" ry="12.5" style="stroke:#000000;stroke-width:0.5;" width="200" x="150" y="654"/><line style="stroke:#000000;stroke-width:0.5;" x1="150" x2="350" y1="684.9531" y2="684.9531"/><text fill="#000000" font-family="Fira Code" font-size="18" lengthAdjust="spacing" textLength="154" x="173" y="675.708">read_properties()</text><text fill="#000000" font-family="Fira Code" font-size="18" lengthAdjust="spacing" textLength="180" x="155" y="706.6611">- Required arg: path</text><text fill="#000000" font-family="Fira Code" font-size="18" lengthAdjust="spacing" textLength="131" x="155" y="727.6143">- Output: JSON</text></g><g id="cps.jp"><rect fill="#F2F2F2" height="124.7656" rx="12.5" ry="12.5" style="stroke:#000000;stroke-width:0.5;" width="345" x="210.5" y="857"/><line style="stroke:#000000;stroke-width:0.5;" x1="210.5" x2="555.5" y1="887.9531" y2="887.9531"/><text fill="#000000" font-family="Fira Code" font-size="18" lengthAdjust="spacing" textLength="146" x="310" y="878.708">join_properties()</text><text fill="#000000" font-family="Fira Code" font-size="18" lengthAdjust="spacing" textLength="314" x="215.5" y="909.6611">- Required args: current_properties</text><text fill="#000000" font-family="Fira Code" font-size="18" lengthAdjust="spacing" textLength="176" x="227.5" y="930.6143">and new_properties</text><text fill="#000000" font-family="Fira Code" font-size="18" lengthAdjust="spacing" textLength="131" x="215.5" y="951.5674">- Output: JSON</text><text fill="#000000" font-family="Fira Code" font-size="18" lengthAdjust="spacing" textLength="325" x="215.5" y="972.5205">- New properties overwrite old ones</text></g><text fill="#000000" font-family="Fira Code" font-size="18" lengthAdjust="spacing" textLength="56" x="354.5" y="1100.708">return</text><ellipse cx="382.5" cy="1078" fill="#F2F2F2" rx="6" ry="6" style="stroke:#000000;stroke-width:1.5;"/><line style="stroke:#000000;stroke-width:1.5;" x1="386.8891" x2="379.1109" y1="1082.3891" y2="1074.6109"/><line style="stroke:#000000;stroke-width:1.5;" x1="386.8891" x2="379.1109" y1="1074.6109" y2="1082.3891"/><path d="M204.5,1157 L561.5,1157 A12.5,12.5 0 0 1 574,1169.5 L574,1187.9531 L192,1187.9531 L192,1169.5 A12.5,12.5 0 0 1 204.5,1157 " fill="#F2F2F2" style="stroke:#F2F2F2;stroke-width:1.0;"/><rect fill="none" height="177.7188" rx="12.5" ry="12.5" style="stroke:#000000;stroke-width:0.5;" width="382" x="192" y="1157"/><line style="stroke:#000000;stroke-width:0.5;" x1="192" x2="574" y1="1187.9531" y2="1187.9531"/><text fill="#000000" font-family="Fira Code" font-size="18" lengthAdjust="spacing" textLength="61" x="352.5" y="1178.708">Output</text><g id="output.json_output"><rect fill="#F2F2F2" height="124.7656" rx="12.5" ry="12.5" style="stroke:#000000;stroke-width:0.5;" width="361" x="204" y="1199.9531"/><line style="stroke:#000000;stroke-width:0.5;" x1="204" x2="565" y1="1230.9063" y2="1230.9063"/><text fill="#000000" font-family="Fira Code" font-size="18" lengthAdjust="spacing" textLength="45" x="362" y="1221.6611">JSON</text><text fill="#000000" font-family="Fira Code" font-size="18" lengthAdjust="spacing" textLength="341" x="209" y="1252.6143">- JSON object of the package following</text><text fill="#000000" font-family="Fira Code" font-size="18" lengthAdjust="spacing" textLength="199" x="221" y="1273.5674">the Data Package spec</text><text fill="#000000" font-family="Fira Code" font-size="18" lengthAdjust="spacing" textLength="336" x="209" y="1294.5205">- Use `write_package_properties()` to</text><text fill="#000000" font-family="Fira Code" font-size="18" lengthAdjust="spacing" textLength="285" x="221" y="1315.4736">save back to `datapackage.json`</text></g><!--link path to arg_path--><g id="link_path_arg_path"><path d="M197.34,197.23 C198.71,233.39 200.0422,268.6743 200.5822,282.8843 " fill="none" id="path-to-arg_path" style="stroke:#000000;stroke-width:1.0;"/><polygon fill="#000000" points="200.81,288.88,204.4653,279.7346,200.6201,283.8836,196.4711,280.0384,200.81,288.88" style="stroke:#000000;stroke-width:1.0;"/><text fill="#000000" font-family="sans-serif" font-size="14" lengthAdjust="spacing" textLength="78" x="200" y="242.9951">path object</text></g><!--link properties to arg_properties--><g id="link_properties_arg_properties"><path d="M560.23,176.32 C559.48,215.58 558.5446,265.4311 558.2146,282.7111 " fill="none" id="properties-to-arg_properties" style="stroke:#000000;stroke-width:1.0;"/><polygon fill="#000000" points="558.1,288.71,562.2711,279.788,558.1955,283.7109,554.2726,279.6353,558.1,288.71" style="stroke:#000000;stroke-width:1.0;"/><text fill="#000000" font-family="sans-serif" font-size="14" lengthAdjust="spacing" textLength="80" x="560" y="242.9951">JSON object</text></g><!--link arg_path to vif--><g id="link_arg_path_vif"><path d="M202.6,301.23 C209.03,322.18 231.5488,395.5543 246.7088,444.9243 " fill="none" id="arg_path-to-vif" style="stroke:#000000;stroke-width:1.0;"/><polygon fill="#000000" points="248.47,450.66,249.6519,440.8823,247.0023,445.8803,242.0043,443.2306,248.47,450.66" style="stroke:#000000;stroke-width:1.0;"/></g><!--link arg_properties to cpp--><g id="link_arg_properties_cpp"><path d="M557.49,301.04 C554.32,332.66 537.5393,499.87 526.9193,605.66 " fill="none" id="arg_properties-to-cpp" style="stroke:#000000;stroke-width:1.0;"/><polygon fill="#000000" points="526.32,611.63,531.199,603.0746,526.8194,606.655,523.239,602.2755,526.32,611.63" style="stroke:#000000;stroke-width:1.0;"/></g><!--link vif to rp--><g id="link_vif_rp"><path d="M205.4,534.37 C197.1,543.15 189.75,553.11 185,564 C171.64,594.62 185.6053,623.664 205.8853,649.164 " fill="none" id="vif-to-rp" style="stroke:#000000;stroke-width:1.0;"/><polygon fill="#000000" points="209.62,653.86,207.1486,644.3263,206.5078,649.9467,200.8873,649.3058,209.62,653.86" style="stroke:#000000;stroke-width:1.0;"/><text fill="#000000" font-family="sans-serif" font-size="14" lengthAdjust="spacing" textLength="78" x="186" y="577.9951">path object</text></g><!--link rp to jp--><g id="link_rp_jp"><path d="M274.39,737.22 C294.42,770.64 320.0066,813.3529 342.8666,851.5129 " fill="none" id="rp-to-jp" style="stroke:#000000;stroke-width:1.0;"/><polygon fill="#000000" points="345.95,856.66,344.7563,846.8837,343.3805,852.3708,337.8935,850.995,345.95,856.66" style="stroke:#000000;stroke-width:1.0;"/><text fill="#000000" font-family="sans-serif" font-size="14" lengthAdjust="spacing" textLength="80" x="325" y="822.9951">JSON object</text></g><!--link cpp to jp--><g id="link_cpp_jp"><path d="M467.73,779.16 C452.06,804.93 438.1883,827.7539 423.5583,851.8039 " fill="none" id="cpp-to-jp" style="stroke:#000000;stroke-width:1.0;"/><polygon fill="#000000" points="420.44,856.93,428.5348,851.3198,423.0386,852.6583,421.7,847.1621,420.44,856.93" style="stroke:#000000;stroke-width:1.0;"/><text fill="#000000" font-family="sans-serif" font-size="14" lengthAdjust="spacing" textLength="80" x="447" y="822.9951">JSON object</text></g><!--link jp to return--><g id="link_jp_return"><path d="M383,982.35 C383,1017.55 383,1051.39 383,1065.61 " fill="none" id="jp-to-return" style="stroke:#000000;stroke-width:1.0;"/><polygon fill="#000000" points="383,1071.61,387,1062.61,383,1066.61,379,1062.61,383,1071.61" style="stroke:#000000;stroke-width:1.0;"/><text fill="#000000" font-family="sans-serif" font-size="14" lengthAdjust="spacing" textLength="80" x="384" y="1025.9951">JSON object</text></g><!--link return to output--><g id="link_return_output"><path d="M383,1084.15 C383,1095.86 383,1119.88 383,1150.86 " fill="none" id="return-to-output" style="stroke:#000000;stroke-width:1.0;"/><polygon fill="#000000" points="383,1156.86,387,1147.86,383,1151.86,379,1147.86,383,1156.86" style="stroke:#000000;stroke-width:1.0;"/></g><!--SRC=[VLHDRzim3BtxLt2vx0D8Sm-A04EtmtPeYttS1ZYgpCHoRKcJv6J1qFy-KhOhPN6RGwA8rEDxZvJUX1ex18zOIU4HTivqK8TW_NgrSk9ujLUXxXzwZquQ7L27AscwrPI_jCuqA4FQY7YhJYXT53w8WB3uecqV5Y0yA5x1tmB6rHgMiBKYrEM7T- -tiEkr3CfeJxbU-G17AWvxTL1w3z8uHvM0qttn5ZwwVTyH7mzB_X0cHoBaFI-2WMqbWh12FeezNZNUQ2gXMlobkJuGKnY3iBrMrOQYfgtGvL0_IJXquWHc-D4cG2qE29LYDks9mR1I0Qi8-FNxtMqimY3EM7H1eMUa634Fx1QONLwT8QXoQuwiamEVY3Uf6BXvYx9uUdRphW-JdIOkevzZa8l44AijXpX5it_mEfT4X5dDSxd48vTWUtJaGZdYb4ayTpOOXlDit0Cbp3Sd4ycEpa95STBwA9f_kVmt_DrJEoeGRhyUUYTqbVcVvVuGZ-YZCDdJGEcGfSN6nQEz9NRe9m-ob3YIl4TZYPfEO5lvuha3nA2C1Awl2TkTxetIORCvZoUq_xAcoLikDmbfL3IqwsoiKbxQMkVDJRmM1tHgTogLBrdaQEH1xIY3lb-mCGiEOpTnSV3PESCtvPacSs6yL5BMA1zVwwADVR5pnSzRPyye308JXIb-m_MujoA0QDknDzn3Rkb1j3tvquaWwscEvqwwaKYybH61AF48eATUJOhFUy1Iacw7ehgKwrYjioyxxIvLZlvpYHZD1o7LQsXwBkirNA-vh4UFqJZvsPd998t7yipxPfRKk7kBntmQ3SrOV0I0db4mEW8GRwOVJ-IJEPW_6ygT3BtJ2xucVrH8TwaPJWxX2-1ncpF65_2f-0S0]--></g></svg>
