<svg xmlns="http://www.w3.org/2000/svg" xmlns:xlink="http://www.w3.org/1999/xlink" contentStyleType="text/css" height="1340px" preserveAspectRatio="none" style="width:758px;height:1340px;background:#FFFFFF;" version="1.1" viewBox="0 0 758 1340" width="758px" zoomAndPan="magnify"><defs/><g><!--cluster input--><g id="cluster_input"><path d="M19.5,7 L732.5,7 A12.5,12.5 0 0 1 745,19.5 L745,58.9063 L7,58.9063 L7,19.5 A12.5,12.5 0 0 1 19.5,7 " fill="#F2F2F2" style="stroke:#F2F2F2;stroke-width:1.0;"/><rect fill="none" height="206" rx="12.5" ry="12.5" style="stroke:#000000;stroke-width:0.5;" width="738" x="7" y="7"/><line style="stroke:#000000;stroke-width:0.5;" x1="7" x2="745" y1="58.9063" y2="58.9063"/><line style="stroke:#000000;stroke-width:0.5;" x1="7" x2="745" y1="32.9531" y2="32.9531"/><text fill="#000000" font-family="Fira Code" font-size="18" lengthAdjust="spacing" textLength="46.6084" x="137" y="27.708">Input</text><text fill="#000000" font-family="Fira Code" font-size="18" lengthAdjust="spacing" textLength="478.7842" x="12" y="52.1611">- `path_*()` functions assist with giving correct paths</text></g><!--cluster cps--><g id="cluster_cps"><path d="M115.5,295 L717.5,295 A12.5,12.5 0 0 1 730,307.5 L730,388.8125 L103,388.8125 L103,307.5 A12.5,12.5 0 0 1 115.5,295 " fill="#F2F2F2" style="stroke:#F2F2F2;stroke-width:1.0;"/><rect fill="none" height="783" rx="12.5" ry="12.5" style="stroke:#000000;stroke-width:0.5;" width="627" x="103" y="295"/><line style="stroke:#000000;stroke-width:0.5;" x1="103" x2="730" y1="388.8125" y2="388.8125"/><line style="stroke:#000000;stroke-width:0.5;" x1="103" x2="730" y1="320.9531" y2="320.9531"/><text fill="#000000" font-family="Fira Code" font-size="18" lengthAdjust="spacing" textLength="258.1348" x="287.4326" y="316.708">create_package_properties()</text><text fill="#000000" font-family="Fira Code" font-size="18" lengthAdjust="spacing" textLength="319.377" x="108" y="340.1611">- Required arg: path and properties</text><text fill="#000000" font-family="Fira Code" font-size="18" lengthAdjust="spacing" textLength="512.042" x="108" y="361.1143">- Takes previously created properties template and adds</text><text fill="#000000" font-family="Fira Code" font-size="18" lengthAdjust="spacing" textLength="520.9102" x="119.4434" y="382.0674">(at least) the required properties for a valid data package</text></g><g id="input.path"><rect fill="#F2F2F2" height="124.7656" rx="12.5" ry="12.5" style="stroke:#000000;stroke-width:0.5;" width="345.5732" x="23" y="72"/><line style="stroke:#000000;stroke-width:0.5;" x1="23" x2="368.5732" y1="102.9531" y2="102.9531"/><text fill="#000000" font-family="Fira Code" font-size="18" lengthAdjust="spacing" textLength="40.9219" x="175.3257" y="93.708">path</text><text fill="#000000" font-family="Fira Code" font-size="18" lengthAdjust="spacing" textLength="292.5879" x="28" y="124.6611">- Path to `datapackage.json` file</text><text fill="#000000" font-family="Fira Code" font-size="18" lengthAdjust="spacing" textLength="261.9844" x="39.4434" y="145.6143">in the package `&lt;id&gt;` folder</text><text fill="#000000" font-family="Fira Code" font-size="18" lengthAdjust="spacing" textLength="325.5732" x="28" y="166.5674">- User may or may not have directly</text><text fill="#000000" font-family="Fira Code" font-size="18" lengthAdjust="spacing" textLength="175.5439" x="39.4434" y="187.5205">edited the JSON file</text></g><g id="input.properties"><rect fill="#F2F2F2" height="82.8594" rx="12.5" ry="12.5" style="stroke:#000000;stroke-width:0.5;" width="325.2793" x="404.5" y="93"/><line style="stroke:#000000;stroke-width:0.5;" x1="404.5" x2="729.7793" y1="123.9531" y2="123.9531"/><text fill="#000000" font-family="Fira Code" font-size="18" lengthAdjust="spacing" textLength="92.25" x="521.0146" y="114.708">properties</text><text fill="#000000" font-family="Fira Code" font-size="18" lengthAdjust="spacing" textLength="258.1348" x="409.5" y="145.6611">- JSON object of the package</text><text fill="#000000" font-family="Fira Code" font-size="18" lengthAdjust="spacing" textLength="293.8359" x="420.9434" y="166.6143">following the Data Package spec</text></g><text fill="#000000" font-family="Fira Code" font-size="18" lengthAdjust="spacing" textLength="79.7783" x="156.6108" y="272.7549">arg_path</text><ellipse cx="196.5" cy="295" fill="#F2F2F2" rx="6" ry="6" style="stroke:#000000;stroke-width:1.5;"/><text fill="#000000" font-family="Fira Code" font-size="18" lengthAdjust="spacing" textLength="131.1064" x="500.4468" y="272.7549">arg_properties</text><ellipse cx="566" cy="295" fill="#F2F2F2" rx="6" ry="6" style="stroke:#000000;stroke-width:1.5;"/><g id="cps.vif"><rect fill="#F2F2F2" height="82.8594" rx="12.5" ry="12.5" style="stroke:#000000;stroke-width:0.5;" width="221.8936" x="119" y="472"/><line style="stroke:#000000;stroke-width:0.5;" x1="119" x2="340.8936" y1="502.9531" y2="502.9531"/><text fill="#000000" font-family="Fira Code" font-size="18" lengthAdjust="spacing" textLength="124.9541" x="167.4697" y="493.708">verify_is_file()</text><text fill="#000000" font-family="Fira Code" font-size="18" lengthAdjust="spacing" textLength="181.8193" x="124" y="524.6611">- Required arg: path</text><text fill="#000000" font-family="Fira Code" font-size="18" lengthAdjust="spacing" textLength="201.8936" x="124" y="545.6143">- Output: path or Error</text></g><g id="cps.vpp"><rect fill="#F2F2F2" height="124.7656" rx="12.5" ry="12.5" style="stroke:#000000;stroke-width:0.5;" width="271.7188" x="410" y="451"/><line style="stroke:#000000;stroke-width:0.5;" x1="410" x2="681.7188" y1="481.9531" y2="481.9531"/><text fill="#000000" font-family="Fira Code" font-size="18" lengthAdjust="spacing" textLength="251.7188" x="420" y="472.708">verify_package_properties()</text><text fill="#000000" font-family="Fira Code" font-size="18" lengthAdjust="spacing" textLength="233.1475" x="415" y="503.6611">- Required arg: properties</text><text fill="#000000" font-family="Fira Code" font-size="18" lengthAdjust="spacing" textLength="205.3389" x="415" y="524.6143">- Output: JSON or Error</text><text fill="#000000" font-family="Fira Code" font-size="18" lengthAdjust="spacing" textLength="199.9336" x="415" y="545.5674">- Checks that all fields</text><text fill="#000000" font-family="Fira Code" font-size="18" lengthAdjust="spacing" textLength="208.2744" x="426.4434" y="566.5205">and values match spec</text></g><g id="cps.vrp"><rect fill="#F2F2F2" height="124.7656" rx="12.5" ry="12.5" style="stroke:#000000;stroke-width:0.5;" width="356.9287" x="356.5" y="654"/><line style="stroke:#000000;stroke-width:0.5;" x1="356.5" x2="713.4287" y1="684.9531" y2="684.9531"/><text fill="#000000" font-family="Fira Code" font-size="18" lengthAdjust="spacing" textLength="336.9287" x="366.5" y="675.708">verify_required_package_properties()</text><text fill="#000000" font-family="Fira Code" font-size="18" lengthAdjust="spacing" textLength="233.1475" x="361.5" y="706.6611">- Required arg: properties</text><text fill="#000000" font-family="Fira Code" font-size="18" lengthAdjust="spacing" textLength="205.3389" x="361.5" y="727.6143">- Output: JSON or Error</text><text fill="#000000" font-family="Fira Code" font-size="18" lengthAdjust="spacing" textLength="255.1113" x="361.5" y="748.5674">- Checks that required fields</text><text fill="#000000" font-family="Fira Code" font-size="18" lengthAdjust="spacing" textLength="91.6084" x="372.9434" y="769.5205">are added</text></g><g id="cps.rp"><rect fill="#F2F2F2" height="82.8594" rx="12.5" ry="12.5" style="stroke:#000000;stroke-width:0.5;" width="201.8193" x="119" y="675"/><line style="stroke:#000000;stroke-width:0.5;" x1="119" x2="320.8193" y1="705.9531" y2="705.9531"/><text fill="#000000" font-family="Fira Code" font-size="18" lengthAdjust="spacing" textLength="156.2256" x="141.7969" y="696.708">read_properties()</text><text fill="#000000" font-family="Fira Code" font-size="18" lengthAdjust="spacing" textLength="181.8193" x="124" y="727.6611">- Required arg: path</text><text fill="#000000" font-family="Fira Code" font-size="18" lengthAdjust="spacing" textLength="130.8955" x="124" y="748.6143">- Output: JSON</text></g><g id="cps.up"><rect fill="#F2F2F2" height="124.7656" rx="12.5" ry="12.5" style="stroke:#000000;stroke-width:0.5;" width="342.3213" x="193" y="857"/><line style="stroke:#000000;stroke-width:0.5;" x1="193" x2="535.3213" y1="887.9531" y2="887.9531"/><text fill="#000000" font-family="Fira Code" font-size="18" lengthAdjust="spacing" textLength="178.7168" x="274.8022" y="878.708">update_properties()</text><text fill="#000000" font-family="Fira Code" font-size="18" lengthAdjust="spacing" textLength="317.1709" x="198" y="909.6611">- Required args: current_properties</text><text fill="#000000" font-family="Fira Code" font-size="18" lengthAdjust="spacing" textLength="178.04" x="209.4434" y="930.6143">and new_properties</text><text fill="#000000" font-family="Fira Code" font-size="18" lengthAdjust="spacing" textLength="130.8955" x="198" y="951.5674">- Output: JSON</text><text fill="#000000" font-family="Fira Code" font-size="18" lengthAdjust="spacing" textLength="322.3213" x="198" y="972.5205">- New properties overwrite old ones</text></g><text fill="#000000" font-family="Fira Code" font-size="18" lengthAdjust="spacing" textLength="55.749" x="335.6255" y="1100.708">return</text><ellipse cx="363.5" cy="1078" fill="#F2F2F2" rx="6" ry="6" style="stroke:#000000;stroke-width:1.5;"/><line style="stroke:#000000;stroke-width:1.5;" x1="367.8891" x2="360.1109" y1="1082.3891" y2="1074.6109"/><line style="stroke:#000000;stroke-width:1.5;" x1="367.8891" x2="360.1109" y1="1074.6109" y2="1082.3891"/><path d="M183.5,1157 L544.2773,1157 A12.5,12.5 0 0 1 556.7773,1169.5 L556.7773,1187.9531 L171,1187.9531 L171,1169.5 A12.5,12.5 0 0 1 183.5,1157 " fill="#F2F2F2" style="stroke:#F2F2F2;stroke-width:1.0;"/><rect fill="none" height="177.7188" rx="12.5" ry="12.5" style="stroke:#000000;stroke-width:0.5;" width="385.7773" x="171" y="1157"/><line style="stroke:#000000;stroke-width:0.5;" x1="171" x2="556.7773" y1="1187.9531" y2="1187.9531"/><text fill="#000000" font-family="Fira Code" font-size="18" lengthAdjust="spacing" textLength="62.5254" x="332.626" y="1178.708">Output</text><g id="output.json_output"><rect fill="#F2F2F2" height="124.7656" rx="12.5" ry="12.5" style="stroke:#000000;stroke-width:0.5;" width="364.7773" x="183" y="1199.9531"/><line style="stroke:#000000;stroke-width:0.5;" x1="183" x2="547.7773" y1="1230.9063" y2="1230.9063"/><text fill="#000000" font-family="Fira Code" font-size="18" lengthAdjust="spacing" textLength="44.3672" x="343.2051" y="1221.6611">JSON</text><text fill="#000000" font-family="Fira Code" font-size="18" lengthAdjust="spacing" textLength="344.7773" x="188" y="1252.6143">- JSON object of the package following</text><text fill="#000000" font-family="Fira Code" font-size="18" lengthAdjust="spacing" textLength="207.1934" x="199.4434" y="1273.5674">the Data Package spec</text><text fill="#000000" font-family="Fira Code" font-size="18" lengthAdjust="spacing" textLength="339.2139" x="188" y="1294.5205">- Use `write_package_properties()` to</text><text fill="#000000" font-family="Fira Code" font-size="18" lengthAdjust="spacing" textLength="297.5186" x="199.4434" y="1315.4736">save back to `datapackage.json`</text></g><!--link path to arg_path--><g id="link_path_arg_path"><path d="M196.39,197.23 C196.62,233.39 196.842,268.6701 196.932,282.8801 " fill="none" id="path-to-arg_path" style="stroke:#000000;stroke-width:1.0;"/><polygon fill="#000000" points="196.97,288.88,200.9129,279.8548,196.9383,283.8801,192.9131,279.9055,196.97,288.88" style="stroke:#000000;stroke-width:1.0;"/><text fill="#000000" font-family="sans-serif" font-size="14" lengthAdjust="spacing" textLength="79.4199" x="197" y="242.9951">path object</text></g><!--link properties to arg_properties--><g id="link_properties_arg_properties"><path d="M566.74,176.32 C566.49,215.58 566.1782,265.4301 566.0682,282.7101 " fill="none" id="properties-to-arg_properties" style="stroke:#000000;stroke-width:1.0;"/><polygon fill="#000000" points="566.03,288.71,570.0872,279.7356,566.0618,283.7101,562.0874,279.6847,566.03,288.71" style="stroke:#000000;stroke-width:1.0;"/><text fill="#000000" font-family="sans-serif" font-size="14" lengthAdjust="spacing" textLength="82.0996" x="567" y="242.9951">JSON object</text></g><!--link arg_path to vif--><g id="link_arg_path_vif"><path d="M197.82,301.35 C201.34,324.47 214.546,411.1085 222.866,465.6985 " fill="none" id="arg_path-to-vif" style="stroke:#000000;stroke-width:1.0;"/><polygon fill="#000000" points="223.77,471.63,226.3683,462.1301,223.0167,466.6871,218.4596,463.3354,223.77,471.63" style="stroke:#000000;stroke-width:1.0;"/></g><!--link arg_properties to vpp--><g id="link_arg_properties_vpp"><path d="M565.51,301.35 C563.62,321.73 557.3013,390.1354 552.2513,444.8654 " fill="none" id="arg_properties-to-vpp" style="stroke:#000000;stroke-width:1.0;"/><polygon fill="#000000" points="551.7,450.84,556.51,442.2456,552.1594,445.8611,548.5438,441.5105,551.7,450.84" style="stroke:#000000;stroke-width:1.0;"/></g><!--link vpp to vrp--><g id="link_vpp_vrp"><path d="M542.62,576.17 C541.27,600.87 540.0477,623.269 538.6977,647.949 " fill="none" id="vpp-to-vrp" style="stroke:#000000;stroke-width:1.0;"/><polygon fill="#000000" points="538.37,653.94,542.8556,645.1719,538.6431,648.9475,534.8675,644.735,538.37,653.94" style="stroke:#000000;stroke-width:1.0;"/><text fill="#000000" font-family="sans-serif" font-size="14" lengthAdjust="spacing" textLength="82.0996" x="541" y="619.9951">JSON object</text></g><!--link vif to rp--><g id="link_vif_rp"><path d="M227.98,555.18 C226.24,590.05 224.0474,634.0374 222.3174,668.8974 " fill="none" id="vif-to-rp" style="stroke:#000000;stroke-width:1.0;"/><polygon fill="#000000" points="222.02,674.89,226.4612,666.0993,222.2678,669.8961,218.471,665.7028,222.02,674.89" style="stroke:#000000;stroke-width:1.0;"/><text fill="#000000" font-family="sans-serif" font-size="14" lengthAdjust="spacing" textLength="79.4199" x="226" y="619.9951">path object</text></g><!--link rp to up--><g id="link_rp_up"><path d="M249.14,758.18 C269.44,786.51 293.3845,819.9434 316.3645,852.0034 " fill="none" id="rp-to-up" style="stroke:#000000;stroke-width:1.0;"/><polygon fill="#000000" points="319.86,856.88,317.8679,847.2347,316.9471,852.8161,311.3657,851.8954,319.86,856.88" style="stroke:#000000;stroke-width:1.0;"/><text fill="#000000" font-family="sans-serif" font-size="14" lengthAdjust="spacing" textLength="82.0996" x="297" y="822.9951">JSON object</text></g><!--link vrp to up--><g id="link_vrp_up"><path d="M482.53,779.17 C461.52,803.87 441.2583,827.6904 420.2583,852.3704 " fill="none" id="vrp-to-up" style="stroke:#000000;stroke-width:1.0;"/><polygon fill="#000000" points="416.37,856.94,425.2488,852.6777,419.6102,853.132,419.156,847.4934,416.37,856.94" style="stroke:#000000;stroke-width:1.0;"/><text fill="#000000" font-family="sans-serif" font-size="14" lengthAdjust="spacing" textLength="82.0996" x="455" y="822.9951">JSON object</text></g><!--link up to return--><g id="link_up_return"><path d="M364,982.35 C364,1017.55 364,1051.39 364,1065.61 " fill="none" id="up-to-return" style="stroke:#000000;stroke-width:1.0;"/><polygon fill="#000000" points="364,1071.61,368,1062.61,364,1066.61,360,1062.61,364,1071.61" style="stroke:#000000;stroke-width:1.0;"/><text fill="#000000" font-family="sans-serif" font-size="14" lengthAdjust="spacing" textLength="82.0996" x="365" y="1025.9951">JSON object</text></g><!--link return to output--><g id="link_return_output"><path d="M364,1084.15 C364,1095.86 364,1119.88 364,1150.86 " fill="none" id="return-to-output" style="stroke:#000000;stroke-width:1.0;"/><polygon fill="#000000" points="364,1156.86,368,1147.86,364,1151.86,360,1147.86,364,1156.86" style="stroke:#000000;stroke-width:1.0;"/></g><!--SRC=[XLLBRvj04BxpAwQ-DAda-6v5bggsX_QGH7tSAk4DEpQRm2xT1wvLvRztPW6pCIJnmIRCyCttc2NlV8arWaEKXN08EsjgABrlt7grik9mjLU-3FV1eIsCzgZzLM7grT2_RAnvmCAFDoBUgXPAPvdpmYCilkec-0K81uglu5y6_TKQbh1jX2_p3nUNMzW5NNXbjADUfvo70ms7lMgLtaDXhAL9mEqkUmyVxJxKnCV1aZ-4oPK8USSNti1M2YyQKJoAFLuzEADfXAhmj-RvG4oXByBsMiaDLKqbqQPGlqWurE88fllHnaCfMWIfc4rrP32KogECWDz-tDx48GnYJOFMAtIC52lcdjq2iqkdCmHDhio1TNBXC_4c5Hqtrs2HFPtSl0r-iDF4o-XdN-GXiSHgywvErUGlU9tBI8HPpNEPuf5Bi3rOSY7lSV9HF2Vh3SCvDkwU6kR3IKGM5iKBO55UqRWect-Pm7Vy4oWG2SBkrrrwGiiaWQJtftX4HoLibGckEa8tBEq6ZtLJCHD64L8wfdyXF5GedB-CnjXXPlBSZjP4G2ig9O7r3RPcfuY8O1xvNL_JyjhZdL7QRpRFwoFWMTUmcilbPaJg1NTvFjkxiM-yjKxJ7tajMhHgTyoLotbzUvzRjQCE-dx1vQJOxUN0nS8NQmqVfHDDvi9uav4lfjms3GzechdfQRH3oy2XKpXo6EgVIYmUATsIaXHLHGSLgovRpfbY2sHGBNnH3fj-PbxKGAmc6ePbU4MCZMBissBi6sBiLCnf5nD55dbpKVRw8_Nuw7p-T0Zab7KaFS-vYt-6RByKF31Mq-qSvuL6nYD-FZ7mn32TI2_H8j2_0EsJPuReD1xoPoQ6MLhztHiyf8V4K8RnvGNq-WUZ8u3j70ldXdN-pvPIBtsmUi6dzw_oun4FtPDTUGBSt-QE_itzbFq7]--></g></svg>