<svg xmlns="http://www.w3.org/2000/svg" xmlns:xlink="http://www.w3.org/1999/xlink" contentStyleType="text/css" height="1172px" preserveAspectRatio="none" style="width:559px;height:1172px;background:#FFFFFF;" version="1.1" viewBox="0 0 559 1172" width="559px" zoomAndPan="magnify"><defs/><g><!--cluster input--><g id="cluster_input"><path d="M24.5,7 L493.5,7 A12.5,12.5 0 0 1 506,19.5 L506,58.9063 L12,58.9063 L12,19.5 A12.5,12.5 0 0 1 24.5,7 " fill="#F2F2F2" style="stroke:#F2F2F2;stroke-width:1.0;"/><rect fill="none" height="164" rx="12.5" ry="12.5" style="stroke:#000000;stroke-width:0.5;" width="494" x="12" y="7"/><line style="stroke:#000000;stroke-width:0.5;" x1="12" x2="506" y1="58.9063" y2="58.9063"/><line style="stroke:#000000;stroke-width:0.5;" x1="12" x2="506" y1="32.9531" y2="32.9531"/><text fill="#000000" font-family="Fira Code" font-size="18" lengthAdjust="spacing" textLength="46.6084" x="20" y="27.708">Input</text><text fill="#000000" font-family="Fira Code" font-size="18" lengthAdjust="spacing" textLength="478.7842" x="17" y="52.1611">- `path_*()` functions assist with giving correct paths</text></g><!--cluster wrdtr--><g id="cluster_wrdtr"><path d="M19.5,236 L533.5,236 A12.5,12.5 0 0 1 546,248.5 L546,287.9063 L7,287.9063 L7,248.5 A12.5,12.5 0 0 1 19.5,236 " fill="#F2F2F2" style="stroke:#F2F2F2;stroke-width:1.0;"/><rect fill="none" height="737" rx="12.5" ry="12.5" style="stroke:#000000;stroke-width:0.5;" width="539" x="7" y="236"/><line style="stroke:#000000;stroke-width:0.5;" x1="7" x2="546" y1="287.9063" y2="287.9063"/><line style="stroke:#000000;stroke-width:0.5;" x1="7" x2="546" y1="261.9531" y2="261.9531"/><text fill="#000000" font-family="Fira Code" font-size="18" lengthAdjust="spacing" textLength="265.7109" x="143.6445" y="257.708">write_resource_data_to_raw()</text><text fill="#000000" font-family="Fira Code" font-size="18" lengthAdjust="spacing" textLength="317.5928" x="12" y="281.1611">- Required arg: path and data_path</text></g><g id="input.path"><rect fill="#F2F2F2" height="82.8594" rx="12.5" ry="12.5" style="stroke:#000000;stroke-width:0.5;" width="233.0381" x="29.5" y="72"/><line style="stroke:#000000;stroke-width:0.5;" x1="29.5" x2="262.5381" y1="102.9531" y2="102.9531"/><text fill="#000000" font-family="Fira Code" font-size="18" lengthAdjust="spacing" textLength="40.9219" x="125.5581" y="93.708">path</text><text fill="#000000" font-family="Fira Code" font-size="18" lengthAdjust="spacing" textLength="213.0381" x="34.5" y="124.6611">- Path to resource &lt;id&gt;</text><text fill="#000000" font-family="Fira Code" font-size="18" lengthAdjust="spacing" textLength="52.251" x="45.9434" y="145.6143">folder</text></g><g id="input.data_path"><rect fill="#F2F2F2" height="82.8594" rx="12.5" ry="12.5" style="stroke:#000000;stroke-width:0.5;" width="189.1631" x="297.5" y="72"/><line style="stroke:#000000;stroke-width:0.5;" x1="297.5" x2="486.6631" y1="102.9531" y2="102.9531"/><text fill="#000000" font-family="Fira Code" font-size="18" lengthAdjust="spacing" textLength="90.4658" x="346.8486" y="93.708">data_path</text><text fill="#000000" font-family="Fira Code" font-size="18" lengthAdjust="spacing" textLength="151.7695" x="302.5" y="124.6611">- Path to file that</text><text fill="#000000" font-family="Fira Code" font-size="18" lengthAdjust="spacing" textLength="157.7197" x="313.9434" y="145.6143">contains the data</text></g><text fill="#000000" font-family="Fira Code" font-size="18" lengthAdjust="spacing" textLength="79.7783" x="97.6108" y="213.7549">arg_path</text><ellipse cx="137.5" cy="236" fill="#F2F2F2" rx="6" ry="6" style="stroke:#000000;stroke-width:1.5;"/><text fill="#000000" font-family="Fira Code" font-size="18" lengthAdjust="spacing" textLength="129.3223" x="328.8389" y="213.7549">arg_data_path</text><ellipse cx="393.5" cy="236" fill="#F2F2F2" rx="6" ry="6" style="stroke:#000000;stroke-width:1.5;"/><g id="wrdtr.vid"><rect fill="#F2F2F2" height="82.8594" rx="12.5" ry="12.5" style="stroke:#000000;stroke-width:0.5;" width="221.8936" x="23" y="570"/><line style="stroke:#000000;stroke-width:0.5;" x1="23" x2="244.8936" y1="600.9531" y2="600.9531"/><text fill="#000000" font-family="Fira Code" font-size="18" lengthAdjust="spacing" textLength="121.3682" x="73.2627" y="591.708">verify_is_dir()</text><text fill="#000000" font-family="Fira Code" font-size="18" lengthAdjust="spacing" textLength="181.8193" x="28" y="622.6611">- Required arg: path</text><text fill="#000000" font-family="Fira Code" font-size="18" lengthAdjust="spacing" textLength="201.8936" x="28" y="643.6143">- Output: path or Error</text></g><g id="wrdtr.vif"><rect fill="#F2F2F2" height="82.8594" rx="12.5" ry="12.5" style="stroke:#000000;stroke-width:0.5;" width="221.8936" x="292" y="367"/><line style="stroke:#000000;stroke-width:0.5;" x1="292" x2="513.8936" y1="397.9531" y2="397.9531"/><text fill="#000000" font-family="Fira Code" font-size="18" lengthAdjust="spacing" textLength="124.9541" x="340.4697" y="388.708">verify_is_file()</text><text fill="#000000" font-family="Fira Code" font-size="18" lengthAdjust="spacing" textLength="181.8193" x="297" y="419.6611">- Required arg: path</text><text fill="#000000" font-family="Fira Code" font-size="18" lengthAdjust="spacing" textLength="201.8936" x="297" y="440.6143">- Output: path or Error</text></g><g id="wrdtr.crfp"><rect fill="#F2F2F2" height="166.6719" rx="12.5" ry="12.5" style="stroke:#000000;stroke-width:0.5;" width="249.0869" x="280.5" y="528"/><line style="stroke:#000000;stroke-width:0.5;" x1="280.5" x2="529.5869" y1="558.9531" y2="558.9531"/><text fill="#000000" font-family="Fira Code" font-size="18" lengthAdjust="spacing" textLength="200.0654" x="305.0107" y="549.708">create_raw_file_path()</text><text fill="#000000" font-family="Fira Code" font-size="18" lengthAdjust="spacing" textLength="181.8193" x="285.5" y="580.6611">- Required arg: path</text><text fill="#000000" font-family="Fira Code" font-size="18" lengthAdjust="spacing" textLength="188.6396" x="285.5" y="601.6143">- Output: path object</text><text fill="#000000" font-family="Fira Code" font-size="18" lengthAdjust="spacing" textLength="170.1914" x="285.5" y="622.5674">- Internally creates</text><text fill="#000000" font-family="Fira Code" font-size="18" lengthAdjust="spacing" textLength="217.6436" x="296.9434" y="643.5205">`timestamp` and `uuid`</text><text fill="#000000" font-family="Fira Code" font-size="18" lengthAdjust="spacing" textLength="193.2012" x="285.5" y="664.4736">- Uses `data_path` to</text><text fill="#000000" font-family="Fira Code" font-size="18" lengthAdjust="spacing" textLength="123.3457" x="296.9434" y="685.4268">get extension</text></g><g id="wrdtr.wcf"><rect fill="#F2F2F2" height="103.8125" rx="12.5" ry="12.5" style="stroke:#000000;stroke-width:0.5;" width="411.7197" x="70" y="773"/><line style="stroke:#000000;stroke-width:0.5;" x1="70" x2="481.7197" y1="803.9531" y2="803.9531"/><text fill="#000000" font-family="Fira Code" font-size="18" lengthAdjust="spacing" textLength="214.3125" x="168.7036" y="794.708">write_compressed_file()</text><text fill="#000000" font-family="Fira Code" font-size="18" lengthAdjust="spacing" textLength="391.7197" x="75" y="825.6611">- Required arg: input_path and output_path</text><text fill="#000000" font-family="Fira Code" font-size="18" lengthAdjust="spacing" textLength="188.6396" x="75" y="846.6143">- Output: path object</text><text fill="#000000" font-family="Fira Code" font-size="18" lengthAdjust="spacing" textLength="307.7842" x="75" y="867.5674">- Internally uses gzip compression</text></g><text fill="#000000" font-family="Fira Code" font-size="18" lengthAdjust="spacing" textLength="55.749" x="247.6255" y="995.708">return</text><ellipse cx="275.5" cy="973" fill="#F2F2F2" rx="6" ry="6" style="stroke:#000000;stroke-width:1.5;"/><line style="stroke:#000000;stroke-width:1.5;" x1="279.8891" x2="272.1109" y1="977.3891" y2="969.6109"/><line style="stroke:#000000;stroke-width:1.5;" x1="279.8891" x2="272.1109" y1="969.6109" y2="977.3891"/><path d="M25,1052 L527.4482,1052 A12.5,12.5 0 0 1 539.9482,1064.5 L539.9482,1082.9531 L12.5,1082.9531 L12.5,1064.5 A12.5,12.5 0 0 1 25,1052 " fill="#F2F2F2" style="stroke:#F2F2F2;stroke-width:1.0;"/><rect fill="none" height="114.8594" rx="12.5" ry="12.5" style="stroke:#000000;stroke-width:0.5;" width="527.4482" x="12.5" y="1052"/><line style="stroke:#000000;stroke-width:0.5;" x1="12.5" x2="539.9482" y1="1082.9531" y2="1082.9531"/><text fill="#000000" font-family="Fira Code" font-size="18" lengthAdjust="spacing" textLength="62.5254" x="244.9614" y="1073.708">Output</text><g id="output.raw_file"><rect fill="#F2F2F2" height="61.9063" rx="12.5" ry="12.5" style="stroke:#000000;stroke-width:0.5;" width="506.4482" x="24.5" y="1094.9531"/><line style="stroke:#000000;stroke-width:0.5;" x1="24.5" x2="530.9482" y1="1125.9063" y2="1125.9063"/><text fill="#000000" font-family="Fira Code" font-size="18" lengthAdjust="spacing" textLength="486.4482" x="34.5" y="1116.6611">/resources/&lt;id&gt;/raw/&lt;timestamp&gt;-&lt;uuid&gt;.&lt;ext&gt;.gz</text><text fill="#000000" font-family="Fira Code" font-size="18" lengthAdjust="spacing" textLength="331.6553" x="29.5" y="1147.6143">Raw folder with assigned ID (e.g. '1')</text></g><!--link path to arg_path--><g id="link_path_arg_path"><path d="M143.29,155.3 C141.44,183.15 139.5763,211.2431 138.7363,223.9331 " fill="none" id="path-to-arg_path" style="stroke:#000000;stroke-width:1.0;"/><polygon fill="#000000" points="138.34,229.92,142.9257,221.2038,138.6702,224.9309,134.9432,220.6755,138.34,229.92" style="stroke:#000000;stroke-width:1.0;"/></g><!--link data_path to arg_data_path--><g id="link_data_path_arg_data_path"><path d="M392.68,155.3 C393.14,183.15 393.596,211.2309 393.816,223.9209 " fill="none" id="data_path-to-arg_data_path" style="stroke:#000000;stroke-width:1.0;"/><polygon fill="#000000" points="393.92,229.92,397.7634,220.852,393.8333,224.9208,389.7646,220.9907,393.92,229.92" style="stroke:#000000;stroke-width:1.0;"/></g><!--link arg_path to vid--><g id="link_arg_path_vid"><path d="M137.94,242.28 C137.56,277.66 135.4439,475.5203 134.5039,563.7803 " fill="none" id="arg_path-to-vid" style="stroke:#000000;stroke-width:1.0;"/><polygon fill="#000000" points="134.44,569.78,138.5356,560.8231,134.4932,564.7803,130.5361,560.7379,134.44,569.78" style="stroke:#000000;stroke-width:1.0;"/><text fill="#000000" font-family="sans-serif" font-size="14" lengthAdjust="spacing" textLength="79.4199" x="138" y="413.4951">path object</text></g><!--link arg_data_path to vif--><g id="link_arg_data_path_vif"><path d="M394.28,242.29 C395.26,260.84 398.2838,318.1183 400.5338,360.7583 " fill="none" id="arg_data_path-to-vif" style="stroke:#000000;stroke-width:1.0;"/><polygon fill="#000000" points="400.85,366.75,404.3702,357.5517,400.5865,361.7569,396.3813,357.9733,400.85,366.75" style="stroke:#000000;stroke-width:1.0;"/><text fill="#000000" font-family="sans-serif" font-size="14" lengthAdjust="spacing" textLength="79.4199" x="398" y="297.9951">path object</text></g><!--link vif to crfp--><g id="link_vif_crfp"><path d="M403.4,450.18 C403.63,472.54 403.8496,495.1303 404.1196,521.9503 " fill="none" id="vif-to-crfp" style="stroke:#000000;stroke-width:1.0;"/><polygon fill="#000000" points="404.18,527.95,408.0892,518.9102,404.1297,522.9503,400.0896,518.9907,404.18,527.95" style="stroke:#000000;stroke-width:1.0;"/><text fill="#000000" font-family="sans-serif" font-size="14" lengthAdjust="spacing" textLength="79.4199" x="404" y="493.9951">path object</text></g><!--link crfp to wcf--><g id="link_crfp_wcf"><path d="M354.57,695.18 C338.6,721.36 324.5441,744.4075 310.3341,767.7075 " fill="none" id="crfp-to-wcf" style="stroke:#000000;stroke-width:1.0;"/><polygon fill="#000000" points="307.21,772.83,315.3111,767.2289,309.8134,768.5612,308.4811,763.0635,307.21,772.83" style="stroke:#000000;stroke-width:1.0;"/><text fill="#000000" font-family="sans-serif" font-size="14" lengthAdjust="spacing" textLength="79.4199" x="333" y="738.9951">path object</text></g><!--link vid to wcf--><g id="link_vid_wcf"><path d="M161.38,653.28 C184.27,687.37 213.6855,731.1886 238.3255,767.8886 " fill="none" id="vid-to-wcf" style="stroke:#000000;stroke-width:1.0;"/><polygon fill="#000000" points="241.67,772.87,239.9742,763.1682,238.8829,768.7188,233.3323,767.6275,241.67,772.87" style="stroke:#000000;stroke-width:1.0;"/><text fill="#000000" font-family="sans-serif" font-size="14" lengthAdjust="spacing" textLength="79.4199" x="218" y="738.9951">path object</text></g><!--link wcf to return--><g id="link_wcf_return"><path d="M276,877.06 C276,911.27 276,946.56 276,960.85 " fill="none" id="wcf-to-return" style="stroke:#000000;stroke-width:1.0;"/><polygon fill="#000000" points="276,966.85,280,957.85,276,961.85,272,957.85,276,966.85" style="stroke:#000000;stroke-width:1.0;"/><text fill="#000000" font-family="sans-serif" font-size="14" lengthAdjust="spacing" textLength="79.4199" x="277" y="920.9951">path object</text></g><!--link return to output--><g id="link_return_output"><path d="M276,979.11 C276,991.25 276,1016.98 276,1045.99 " fill="none" id="return-to-output" style="stroke:#000000;stroke-width:1.0;"/><polygon fill="#000000" points="276,1051.99,280,1042.99,276,1046.99,272,1042.99,276,1051.99" style="stroke:#000000;stroke-width:1.0;"/></g><!--SRC=[XLJ1Rjim3BtdAxXSsWv8Z5sB8C20xT3JYWAx3R0rctOqn997qKtReVy-Kh8TPtEt7191VEHxZoBpZW_O8WJ4gZG1eIRVme6v2xTPHkQqRImV-kzzG2gzOtIyBNsRZVXDH_u7bdo-YFMorbYtMWKsZB2-SrtFQp01h9xWrmg6qorieEWC7_BtrpS5rBqhsNeN11jiO3W9EJJsqRe6IayaJA3miBg2ZzJqhUW9iD6FrDH8B7cl1_P067nF9SBELljl3g3snmf9e9LXaoj-3g_j4O4FXXMgRiL4a0kCyDNhPEXBpwCZ7u_HqX3CHjQGAQqsCTknRL7YRRVVxFfUhhSxVEBzjdc9LGIJAxjK6OzYvC6S1iMf4TgKnc45Tv_W6hVD5gu-NDtCT9t8CkOZVnvDii-bvFLDv3bHnHJ5ffEwVy2VlIMfQgYvJJqqhZftQ3LP4q2yWTrE-axFzzuwtkylubFQdw3nVJQR_LHe_X1JO85u_OXaw-VSXhooD7Xvj9K0vFiD5xDWUg_1d2VuJEHr2YP3oft02V9TPtgHNvzc4b17ZlfV0kh_2hZiGCfOLb4I6dtVOK9Yqg2bfBeJeFwyhMQANif9DBFmdUmvENCyFaEY3BeGnJJ3HHoGGkUucETz3HYWcFmKibEQs22333kw8AizD4Mj3ddBNjCeorzD9-CSi9et_bHgu-LxmMhyNycdAKxhEGxRcBBiVupExFVgg7cn7OnAaeKeNJsadCiwEaZBiRCzGkx9hNL9dYoV5qbpD3V5_oezN2iYELkz_WO0]--></g></svg>