<?xml version="1.0" encoding="us-ascii" standalone="no"?><svg xmlns="http://www.w3.org/2000/svg" xmlns:xlink="http://www.w3.org/1999/xlink" contentStyleType="text/css" height="1240px" preserveAspectRatio="none" style="width:2887px;height:1240px;background:#FFFFFF;" version="1.1" viewBox="0 0 2887 1240" width="2887px" zoomAndPan="magnify"><defs/><g><!--cluster input--><g id="cluster_input"><path d="M2197.5,7 L2783.5,7 A12.5,12.5 0 0 1 2796,19.5 L2796,79.8594 L2185,79.8594 L2185,19.5 A12.5,12.5 0 0 1 2197.5,7 " fill="#F2F2F2" style="stroke:#F2F2F2;stroke-width:1.0;"/><rect fill="none" height="206" rx="12.5" ry="12.5" style="stroke:#000000;stroke-width:0.5;" width="611" x="2185" y="7"/><line style="stroke:#000000;stroke-width:0.5;" x1="2185" x2="2796" y1="79.8594" y2="79.8594"/><line style="stroke:#000000;stroke-width:0.5;" x1="2185" x2="2796" y1="32.9531" y2="32.9531"/><text fill="#000000" font-family="Fira Code" font-size="18" lengthAdjust="spacing" textLength="46" x="2268.5" y="27.708">Input</text><text fill="#000000" font-family="Fira Code" font-size="18" lengthAdjust="spacing" textLength="444" x="2190" y="52.1611">Args package_id and resource_id are not included,</text><text fill="#000000" font-family="Fira Code" font-size="18" lengthAdjust="spacing" textLength="221" x="2190" y="73.1143">as they are only integers</text></g><!--cluster output--><g id="cluster_output"><path d="M551.5,1070 L1691.5,1070 A12.5,12.5 0 0 1 1704,1082.5 L1704,1121.9063 L539,1121.9063 L539,1082.5 A12.5,12.5 0 0 1 551.5,1070 " fill="#F2F2F2" style="stroke:#F2F2F2;stroke-width:1.0;"/><rect fill="none" height="164" rx="12.5" ry="12.5" style="stroke:#000000;stroke-width:0.5;" width="1165" x="539" y="1070"/><line style="stroke:#000000;stroke-width:0.5;" x1="539" x2="1704" y1="1121.9063" y2="1121.9063"/><line style="stroke:#000000;stroke-width:0.5;" x1="539" x2="1704" y1="1095.9531" y2="1095.9531"/><text fill="#000000" font-family="Fira Code" font-size="18" lengthAdjust="spacing" textLength="61" x="945.5" y="1090.708">Output</text><text fill="#000000" font-family="Fira Code" font-size="18" lengthAdjust="spacing" textLength="352" x="544" y="1115.1611">The package parent folder is shown as /</text></g><!--cluster prc--><g id="cluster_prc"><path d="M19.5,279 L2663.5,279 A12.5,12.5 0 0 1 2676,291.5 L2676,351.8594 L7,351.8594 L7,291.5 A12.5,12.5 0 0 1 19.5,279 " fill="#F2F2F2" style="stroke:#F2F2F2;stroke-width:1.0;"/><rect fill="none" height="741" rx="12.5" ry="12.5" style="stroke:#000000;stroke-width:0.5;" width="2669" x="7" y="279"/><line style="stroke:#000000;stroke-width:0.5;" x1="7" x2="2676" y1="351.8594" y2="351.8594"/><line style="stroke:#000000;stroke-width:0.5;" x1="7" x2="2676" y1="304.9531" y2="304.9531"/><text fill="#000000" font-family="Fira Code" font-size="18" lengthAdjust="spacing" textLength="237" x="1075.5" y="299.708">package_resource_create()</text><text fill="#000000" font-family="Fira Code" font-size="18" lengthAdjust="spacing" textLength="386" x="12" y="324.1611">- Required arguments: package_id and path</text><text fill="#000000" font-family="Fira Code" font-size="18" lengthAdjust="spacing" textLength="532" x="12" y="345.1143">- Optional argument: properties object or manual user input</text></g><!--cluster rrc--><g id="cluster_rrc"><path d="M2196.5,394 L2639.5,394 A12.5,12.5 0 0 1 2652,406.5 L2652,419.9531 L2184,419.9531 L2184,406.5 A12.5,12.5 0 0 1 2196.5,394 " fill="#F2F2F2" style="stroke:#F2F2F2;stroke-width:1.0;"/><rect fill="none" height="299" rx="12.5" ry="12.5" style="stroke:#000000;stroke-width:0.5;" width="468" x="2184" y="394"/><line style="stroke:#000000;stroke-width:0.5;" x1="2184" x2="2652" y1="419.9531" y2="419.9531"/><text fill="#000000" font-family="Fira Code" font-size="18" lengthAdjust="spacing" textLength="199" x="2318.5" y="414.708">resource_raw_create()</text></g><!--cluster rdc--><g id="cluster_rdc"><path d="M43.5,394 L1083.5,394 A12.5,12.5 0 0 1 1096,406.5 L1096,419.9531 L31,419.9531 L31,406.5 A12.5,12.5 0 0 1 43.5,394 " fill="#F2F2F2" style="stroke:#F2F2F2;stroke-width:1.0;"/><rect fill="none" height="602" rx="12.5" ry="12.5" style="stroke:#000000;stroke-width:0.5;" width="1065" x="31" y="394"/><line style="stroke:#000000;stroke-width:0.5;" x1="31" x2="1096" y1="419.9531" y2="419.9531"/><text fill="#000000" font-family="Fira Code" font-size="18" lengthAdjust="spacing" textLength="203" x="462" y="414.708">resource_data_create()</text></g><!--cluster pu--><g id="cluster_pu"><path d="M1132.5,373 L2147.5,373 A12.5,12.5 0 0 1 2160,385.5 L2160,398.9531 L1120,398.9531 L1120,385.5 A12.5,12.5 0 0 1 1132.5,373 " fill="#F2F2F2" style="stroke:#F2F2F2;stroke-width:1.0;"/><rect fill="none" height="481" rx="12.5" ry="12.5" style="stroke:#000000;stroke-width:0.5;" width="1040" x="1120" y="373"/><line style="stroke:#000000;stroke-width:0.5;" x1="1120" x2="2160" y1="398.9531" y2="398.9531"/><text fill="#000000" font-family="Fira Code" font-size="18" lengthAdjust="spacing" textLength="175" x="1552.5" y="393.708">properties_update()</text></g><g id="input.path"><rect fill="#F2F2F2" height="61.9063" rx="12.5" ry="12.5" style="stroke:#000000;stroke-width:0.5;" width="280" x="2201" y="114"/><line style="stroke:#000000;stroke-width:0.5;" x1="2201" x2="2481" y1="144.9531" y2="144.9531"/><text fill="#000000" font-family="Fira Code" font-size="18" lengthAdjust="spacing" textLength="39" x="2321.5" y="135.708">path</text><text fill="#000000" font-family="Fira Code" font-size="18" lengthAdjust="spacing" textLength="260" x="2206" y="166.6611">Path to the file with data in it</text></g><g id="input.properties"><rect fill="#F2F2F2" height="103.8125" rx="12.5" ry="12.5" style="stroke:#000000;stroke-width:0.5;" width="264" x="2516" y="93"/><line style="stroke:#000000;stroke-width:0.5;" x1="2516" x2="2780" y1="123.9531" y2="123.9531"/><text fill="#000000" font-family="Fira Code" font-size="18" lengthAdjust="spacing" textLength="91" x="2602.5" y="114.708">properties</text><text fill="#000000" font-family="Fira Code" font-size="18" lengthAdjust="spacing" textLength="244" x="2521" y="145.6611">(Optional) JSON object with</text><text fill="#000000" font-family="Fira Code" font-size="18" lengthAdjust="spacing" textLength="236" x="2521" y="166.6143">key-value pairs that match</text><text fill="#000000" font-family="Fira Code" font-size="18" lengthAdjust="spacing" textLength="161" x="2521" y="187.5674">data package spec</text></g><g id="output.file_sql"><rect fill="#F2F2F2" height="82.8594" rx="12.5" ry="12.5" style="stroke:#000000;stroke-width:0.5;" width="247" x="555.5" y="1135"/><line style="stroke:#000000;stroke-width:0.5;" x1="555.5" x2="802.5" y1="1165.9531" y2="1165.9531"/><text fill="#000000" font-family="Fira Code" font-size="18" lengthAdjust="spacing" textLength="137" x="610.5" y="1156.708">/database.sqlite</text><text fill="#000000" font-family="Fira Code" font-size="18" lengthAdjust="spacing" textLength="227" x="560.5" y="1187.6611">The SQLite database with</text><text fill="#000000" font-family="Fira Code" font-size="18" lengthAdjust="spacing" textLength="202" x="560.5" y="1208.6143">the resources as tables</text></g><g id="output.file_dpj"><rect fill="#F2F2F2" height="82.8594" rx="12.5" ry="12.5" style="stroke:#000000;stroke-width:0.5;" width="219" x="1155.5" y="1135"/><line style="stroke:#000000;stroke-width:0.5;" x1="1155.5" x2="1374.5" y1="1165.9531" y2="1165.9531"/><text fill="#000000" font-family="Fira Code" font-size="18" lengthAdjust="spacing" textLength="157" x="1186.5" y="1156.708">/datapackage.json</text><text fill="#000000" font-family="Fira Code" font-size="18" lengthAdjust="spacing" textLength="165" x="1160.5" y="1187.6611">JSON file following</text><text fill="#000000" font-family="Fira Code" font-size="18" lengthAdjust="spacing" textLength="199" x="1160.5" y="1208.6143">the Data Package spec</text></g><g id="output.file_rid"><rect fill="#F2F2F2" height="82.8594" rx="12.5" ry="12.5" style="stroke:#000000;stroke-width:0.5;" width="282" x="838" y="1135"/><line style="stroke:#000000;stroke-width:0.5;" x1="838" x2="1120" y1="1165.9531" y2="1165.9531"/><text fill="#000000" font-family="Fira Code" font-size="18" lengthAdjust="spacing" textLength="262" x="848" y="1156.708">/resources/&lt;id&gt;/data.parquet</text><text fill="#000000" font-family="Fira Code" font-size="18" lengthAdjust="spacing" textLength="201" x="843" y="1187.6611">Parquet file for tabular</text><text fill="#000000" font-family="Fira Code" font-size="18" lengthAdjust="spacing" textLength="202" x="843" y="1208.6143">data to act as a backup</text></g><g id="output.file_rir"><rect fill="#F2F2F2" height="61.9063" rx="12.5" ry="12.5" style="stroke:#000000;stroke-width:0.5;" width="278" x="1410" y="1145.5"/><line style="stroke:#000000;stroke-width:0.5;" x1="1410" x2="1688" y1="1176.4531" y2="1176.4531"/><text fill="#000000" font-family="Fira Code" font-size="18" lengthAdjust="spacing" textLength="240" x="1429" y="1167.208">/resources/&lt;id&gt;/raw/*.gzip</text><text fill="#000000" font-family="Fira Code" font-size="18" lengthAdjust="spacing" textLength="258" x="1415" y="1198.1611">Untouched raw file with data</text></g><g id="prc.rrc.pfrr"><rect fill="#F2F2F2" height="61.9063" rx="12.5" ry="12.5" style="stroke:#000000;stroke-width:0.5;" width="332" x="2200" y="433"/><line style="stroke:#000000;stroke-width:0.5;" x1="2200" x2="2532" y1="463.9531" y2="463.9531"/><text fill="#000000" font-family="Fira Code" font-size="18" lengthAdjust="spacing" textLength="218" x="2257" y="454.708">path_file_resource_raw()</text><text fill="#000000" font-family="Fira Code" font-size="18" lengthAdjust="spacing" textLength="312" x="2205" y="485.6611">Create the file path for the raw file</text></g><g id="prc.rrc.wrr"><rect fill="#F2F2F2" height="61.9063" rx="12.5" ry="12.5" style="stroke:#000000;stroke-width:0.5;" width="437" x="2199.5" y="615"/><line style="stroke:#000000;stroke-width:0.5;" x1="2199.5" x2="2636.5" y1="645.9531" y2="645.9531"/><text fill="#000000" font-family="Fira Code" font-size="18" lengthAdjust="spacing" textLength="190" x="2323" y="636.708">write_resource_raw()</text><text fill="#000000" font-family="Fira Code" font-size="18" lengthAdjust="spacing" textLength="417" x="2204.5" y="667.6611">- Required arguments: input_path, output_path</text></g><g id="prc.rdc.pfrd"><rect fill="#F2F2F2" height="61.9063" rx="12.5" ry="12.5" style="stroke:#000000;stroke-width:0.5;" width="336" x="744" y="615"/><line style="stroke:#000000;stroke-width:0.5;" x1="744" x2="1080" y1="645.9531" y2="645.9531"/><text fill="#000000" font-family="Fira Code" font-size="18" lengthAdjust="spacing" textLength="222" x="801" y="636.708">path_file_resource_data()</text><text fill="#000000" font-family="Fira Code" font-size="18" lengthAdjust="spacing" textLength="316" x="749" y="667.6611">Create the file path for the data file</text></g><g id="prc.rdc.pfpd"><rect fill="#F2F2F2" height="61.9063" rx="12.5" ry="12.5" style="stroke:#000000;stroke-width:0.5;" width="376" x="47" y="433"/><line style="stroke:#000000;stroke-width:0.5;" x1="47" x2="423" y1="463.9531" y2="463.9531"/><text fill="#000000" font-family="Fira Code" font-size="18" lengthAdjust="spacing" textLength="257" x="106.5" y="454.708">path_file_package_database()</text><text fill="#000000" font-family="Fira Code" font-size="18" lengthAdjust="spacing" textLength="356" x="52" y="485.6611">Create the file path for the database file</text></g><g id="prc.rdc.rr"><rect fill="#F2F2F2" height="61.9063" rx="12.5" ry="12.5" style="stroke:#000000;stroke-width:0.5;" width="399" x="570.5" y="433"/><line style="stroke:#000000;stroke-width:0.5;" x1="570.5" x2="969.5" y1="463.9531" y2="463.9531"/><text fill="#000000" font-family="Fira Code" font-size="18" lengthAdjust="spacing" textLength="187" x="676.5" y="454.708">read_resource_data()</text><text fill="#000000" font-family="Fira Code" font-size="18" lengthAdjust="spacing" textLength="379" x="575.5" y="485.6611">- Required arguments: path, file_extension</text></g><g id="prc.rdc.rpd"><rect fill="#F2F2F2" height="61.9063" rx="12.5" ry="12.5" style="stroke:#000000;stroke-width:0.5;" width="265" x="84.5" y="615"/><line style="stroke:#000000;stroke-width:0.5;" x1="84.5" x2="349.5" y1="645.9531" y2="645.9531"/><text fill="#000000" font-family="Fira Code" font-size="18" lengthAdjust="spacing" textLength="222" x="106" y="636.708">read_package_database()</text><text fill="#000000" font-family="Fira Code" font-size="18" lengthAdjust="spacing" textLength="245" x="89.5" y="667.6611">- Required arguments: path</text></g><g id="prc.rdc.vrd"><rect fill="#F2F2F2" height="103.8125" rx="12.5" ry="12.5" style="stroke:#000000;stroke-width:0.5;" width="324" x="385" y="594"/><line style="stroke:#000000;stroke-width:0.5;" x1="385" x2="709" y1="624.9531" y2="624.9531"/><text fill="#000000" font-family="Fira Code" font-size="18" lengthAdjust="spacing" textLength="199" x="447.5" y="615.708">verify_resource_data()</text><text fill="#000000" font-family="Fira Code" font-size="18" lengthAdjust="spacing" textLength="304" x="390" y="646.6611">- Required arguments: json_object</text><text fill="#000000" font-family="Fira Code" font-size="18" lengthAdjust="spacing" textLength="244" x="390" y="667.6143">- Checks against full spec of</text><text fill="#000000" font-family="Fira Code" font-size="18" lengthAdjust="spacing" textLength="116" x="402" y="688.5674">data package</text></g><g id="prc.rdc.cdt"><rect fill="#F2F2F2" height="61.9063" rx="12.5" ry="12.5" style="stroke:#000000;stroke-width:0.5;" width="354" x="244" y="776"/><line style="stroke:#000000;stroke-width:0.5;" x1="244" x2="598" y1="806.9531" y2="806.9531"/><text fill="#000000" font-family="Fira Code" font-size="18" lengthAdjust="spacing" textLength="210" x="316" y="797.708">create_database_table()</text><text fill="#000000" font-family="Fira Code" font-size="18" lengthAdjust="spacing" textLength="334" x="249" y="828.6611">- Required arguments: data, database</text></g><g id="prc.rdc.wrd"><rect fill="#F2F2F2" height="61.9063" rx="12.5" ry="12.5" style="stroke:#000000;stroke-width:0.5;" width="315" x="754.5" y="776"/><line style="stroke:#000000;stroke-width:0.5;" x1="754.5" x2="1069.5" y1="806.9531" y2="806.9531"/><text fill="#000000" font-family="Fira Code" font-size="18" lengthAdjust="spacing" textLength="194" x="815" y="797.708">write_resource_data()</text><text fill="#000000" font-family="Fira Code" font-size="18" lengthAdjust="spacing" textLength="295" x="759.5" y="828.6611">- Required arguments: data, path</text></g><g id="prc.rdc.wpd"><rect fill="#F2F2F2" height="61.9063" rx="12.5" ry="12.5" style="stroke:#000000;stroke-width:0.5;" width="375" x="233.5" y="918"/><line style="stroke:#000000;stroke-width:0.5;" x1="233.5" x2="608.5" y1="948.9531" y2="948.9531"/><text fill="#000000" font-family="Fira Code" font-size="18" lengthAdjust="spacing" textLength="229" x="306.5" y="939.708">write_package_database()</text><text fill="#000000" font-family="Fira Code" font-size="18" lengthAdjust="spacing" textLength="355" x="238.5" y="970.6611">- Required arguments: json_object, path</text></g><g id="prc.pu.pfpp"><rect fill="#F2F2F2" height="82.8594" rx="12.5" ry="12.5" style="stroke:#000000;stroke-width:0.5;" width="290" x="1854" y="604.5"/><line style="stroke:#000000;stroke-width:0.5;" x1="1854" x2="2144" y1="635.4531" y2="635.4531"/><text fill="#000000" font-family="Fira Code" font-size="18" lengthAdjust="spacing" textLength="270" x="1864" y="626.208">path_file_package_properties()</text><text fill="#000000" font-family="Fira Code" font-size="18" lengthAdjust="spacing" textLength="239" x="1859" y="657.1611">Create the file path for the</text><text fill="#000000" font-family="Fira Code" font-size="18" lengthAdjust="spacing" textLength="124" x="1871" y="678.1143">properties file</text></g><g id="prc.pu.rrp"><rect fill="#F2F2F2" height="61.9063" rx="12.5" ry="12.5" style="stroke:#000000;stroke-width:0.5;" width="265" x="1854.5" y="433"/><line style="stroke:#000000;stroke-width:0.5;" x1="1854.5" x2="2119.5" y1="463.9531" y2="463.9531"/><text fill="#000000" font-family="Fira Code" font-size="18" lengthAdjust="spacing" textLength="240" x="1867" y="454.708">read_resource_properties()</text><text fill="#000000" font-family="Fira Code" font-size="18" lengthAdjust="spacing" textLength="245" x="1859.5" y="485.6611">- Required arguments: path</text></g><g id="prc.pu.gpd"><rect fill="#F2F2F2" height="103.8125" rx="12.5" ry="12.5" style="stroke:#000000;stroke-width:0.5;" width="277" x="1536.5" y="412"/><line style="stroke:#000000;stroke-width:0.5;" x1="1536.5" x2="1813.5" y1="442.9531" y2="442.9531"/><text fill="#000000" font-family="Fira Code" font-size="18" lengthAdjust="spacing" textLength="190" x="1580" y="433.708">get_properties_data()</text><text fill="#000000" font-family="Fira Code" font-size="18" lengthAdjust="spacing" textLength="237" x="1541.5" y="464.6611">- Required argument: path</text><text fill="#000000" font-family="Fira Code" font-size="18" lengthAdjust="spacing" textLength="257" x="1541.5" y="485.6143">- Gets the schema properties</text><text fill="#000000" font-family="Fira Code" font-size="18" lengthAdjust="spacing" textLength="211" x="1553.5" y="506.5674">from the data in the file</text></g><g id="prc.pu.vrp"><rect fill="#F2F2F2" height="103.8125" rx="12.5" ry="12.5" style="stroke:#000000;stroke-width:0.5;" width="324" x="1495" y="594"/><line style="stroke:#000000;stroke-width:0.5;" x1="1495" x2="1819" y1="624.9531" y2="624.9531"/><text fill="#000000" font-family="Fira Code" font-size="18" lengthAdjust="spacing" textLength="252" x="1531" y="615.708">verify_resource_properties()</text><text fill="#000000" font-family="Fira Code" font-size="18" lengthAdjust="spacing" textLength="304" x="1500" y="646.6611">- Required arguments: json_object</text><text fill="#000000" font-family="Fira Code" font-size="18" lengthAdjust="spacing" textLength="302" x="1500" y="667.6143">- Checks against resources spec of</text><text fill="#000000" font-family="Fira Code" font-size="18" lengthAdjust="spacing" textLength="116" x="1512" y="688.5674">data package</text></g><g id="prc.pu.vpp"><rect fill="#F2F2F2" height="103.8125" rx="12.5" ry="12.5" style="stroke:#000000;stroke-width:0.5;" width="324" x="1136" y="594"/><line style="stroke:#000000;stroke-width:0.5;" x1="1136" x2="1460" y1="624.9531" y2="624.9531"/><text fill="#000000" font-family="Fira Code" font-size="18" lengthAdjust="spacing" textLength="247" x="1174.5" y="615.708">verify_package_properties()</text><text fill="#000000" font-family="Fira Code" font-size="18" lengthAdjust="spacing" textLength="304" x="1141" y="646.6611">- Required arguments: json_object</text><text fill="#000000" font-family="Fira Code" font-size="18" lengthAdjust="spacing" textLength="288" x="1141" y="667.6143">- Checks against full spec of data</text><text fill="#000000" font-family="Fira Code" font-size="18" lengthAdjust="spacing" textLength="72" x="1153" y="688.5674">package</text></g><g id="prc.pu.wrp"><rect fill="#F2F2F2" height="61.9063" rx="12.5" ry="12.5" style="stroke:#000000;stroke-width:0.5;" width="375" x="1358.5" y="776"/><line style="stroke:#000000;stroke-width:0.5;" x1="1358.5" x2="1733.5" y1="806.9531" y2="806.9531"/><text fill="#000000" font-family="Fira Code" font-size="18" lengthAdjust="spacing" textLength="247" x="1422.5" y="797.708">write_resource_properties()</text><text fill="#000000" font-family="Fira Code" font-size="18" lengthAdjust="spacing" textLength="355" x="1363.5" y="828.6611">- Required arguments: json_object, path</text></g><!--link path to gpd--><g id="link_path_gpd"><path d="M2200.96,157.25 C2094.44,171.12 1947.8,202.07 1837,271 C1780.34,306.25 1736.8034,362.9151 1708.3234,406.8551 " fill="none" id="path-to-gpd" style="stroke:#000000;stroke-width:1.0;"/><polygon fill="#000000" points="1705.06,411.89,1713.3117,406.5133,1707.7795,407.6943,1706.5985,402.1621,1705.06,411.89" style="stroke:#000000;stroke-width:1.0;"/><text fill="#000000" font-family="sans-serif" font-size="14" lengthAdjust="spacing" textLength="33" x="1912" y="250.9951">JSON</text></g><!--link gpd to vrp--><g id="link_gpd_vrp"><path d="M1669.89,516.1 C1667.46,540.42 1665.1587,563.4699 1662.7187,587.7999 " fill="none" id="gpd-to-vrp" style="stroke:#000000;stroke-width:1.0;"/><polygon fill="#000000" points="1662.12,593.77,1666.9981,585.2141,1662.6189,588.795,1659.038,584.4158,1662.12,593.77" style="stroke:#000000;stroke-width:1.0;"/><text fill="#000000" font-family="sans-serif" font-size="14" lengthAdjust="spacing" textLength="33" x="1667" y="559.9951">JSON</text></g><!--link properties to vrp--><g id="link_properties_vrp"><path d="M2668.49,197.31 C2699.9,285.43 2746.94,465.5 2652,564 C2620.56,596.62 1881.76,586.94 1837,594 C1831.22,594.91 1831.2625,594.8195 1825.3725,595.9495 " fill="none" id="properties-to-vrp" style="stroke:#000000;stroke-width:1.0;"/><polygon fill="#000000" points="1819.48,597.08,1829.0725,599.3126,1824.3904,596.1379,1827.5651,591.4559,1819.48,597.08" style="stroke:#000000;stroke-width:1.0;"/><text fill="#000000" font-family="sans-serif" font-size="14" lengthAdjust="spacing" textLength="170" x="2709" y="460.9951">JSON: Optionally requires</text><text fill="#000000" font-family="sans-serif" font-size="14" lengthAdjust="spacing" textLength="160" x="2714" y="477.292">user input\confirmation</text></g><!--link vrp to wrp--><g id="link_vrp_wrp"><path d="M1621.27,698.18 C1603.4,723.78 1585.8153,748.9708 1570.5353,770.8508 " fill="none" id="vrp-to-wrp" style="stroke:#000000;stroke-width:1.0;"/><polygon fill="#000000" points="1567.1,775.77,1575.5325,770.6814,1569.9628,771.6707,1568.9735,766.101,1567.1,775.77" style="stroke:#000000;stroke-width:1.0;"/><text fill="#000000" font-family="sans-serif" font-size="14" lengthAdjust="spacing" textLength="33" x="1599" y="741.9951">JSON</text></g><!--link pfpp to wrp--><g id="link_pfpp_wrp"><path d="M1883.52,687.53 C1805.01,715.09 1708.5213,748.9526 1637.2513,773.9726 " fill="none" id="pfpp-to-wrp" style="stroke:#000000;stroke-width:1.0;"/><polygon fill="#000000" points="1631.59,775.96,1641.4069,776.753,1636.3077,774.3038,1638.757,769.2046,1631.59,775.96" style="stroke:#000000;stroke-width:1.0;"/><text fill="#000000" font-family="sans-serif" font-size="14" lengthAdjust="spacing" textLength="78" x="1759" y="741.9951">Path object</text></g><!--link path to wrr--><g id="link_path_wrr"><path d="M2406.18,176.1 C2461.33,203.07 2533.91,242.64 2550,271 C2603.72,365.72 2592.25,415.64 2550,516 C2532.66,557.2 2499.8224,588.2033 2469.1524,611.1733 " fill="none" id="path-to-wrr" style="stroke:#000000;stroke-width:1.0;"/><polygon fill="#000000" points="2464.35,614.77,2473.9515,612.5765,2468.352,611.7727,2469.1558,606.1733,2464.35,614.77" style="stroke:#000000;stroke-width:1.0;"/><text fill="#000000" font-family="sans-serif" font-size="14" lengthAdjust="spacing" textLength="78" x="2587" y="468.9951">Path object</text></g><!--link pfrr to wrr--><g id="link_pfrr_wrr"><path d="M2374.7,495.13 C2384.3,528.35 2397.9945,575.7458 2407.6045,609.0058 " fill="none" id="pfrr-to-wrr" style="stroke:#000000;stroke-width:1.0;"/><polygon fill="#000000" points="2409.27,614.77,2410.6146,605.0134,2407.8821,609.9665,2402.929,607.234,2409.27,614.77" style="stroke:#000000;stroke-width:1.0;"/><text fill="#000000" font-family="sans-serif" font-size="14" lengthAdjust="spacing" textLength="78" x="2394" y="559.9951">Path object</text></g><!--link wrr to file_rir--><g id="link_wrr_file_rir"><path d="M2386.43,677.29 C2339.52,721.33 2247.53,804.1 2160,862 C1975.04,984.34 1741.8075,1091.9962 1625.0775,1143.0362 " fill="none" id="wrr-to-file_rir" style="stroke:#000000;stroke-width:1.0;"/><polygon fill="#000000" points="1619.58,1145.44,1629.4287,1145.4993,1624.1612,1143.4369,1626.2237,1138.1694,1619.58,1145.44" style="stroke:#000000;stroke-width:1.0;"/><text fill="#000000" font-family="sans-serif" font-size="14" lengthAdjust="spacing" textLength="23" x="2143" y="883.9951">File</text></g><!--link properties to rrp--><g id="link_properties_rrp"><path d="M2557.69,197.01 C2538.75,206.11 2518.57,214.69 2499,221 C2364.09,264.5 2310.7,207.44 2184,271 C2106.95,309.65 2044.2014,384.4361 2011.7714,428.0261 " fill="none" id="properties-to-rrp" style="stroke:#000000;stroke-width:1.0;"/><polygon fill="#000000" points="2008.19,432.84,2016.7714,428.0068,2011.1745,428.8284,2010.3529,423.2316,2008.19,432.84" style="stroke:#000000;stroke-width:1.0;"/><text fill="#000000" font-family="sans-serif" font-size="14" lengthAdjust="spacing" textLength="90" x="2469" y="242.9951">JSON: If given</text><text fill="#000000" font-family="sans-serif" font-size="14" lengthAdjust="spacing" textLength="87" x="2470.5" y="259.292">as argument</text></g><!--link rrp to vpp--><g id="link_rrp_vpp"><path d="M1915.98,495.03 C1860.55,517.3 1781.11,546.69 1709,564 C1608.33,588.17 1579.41,573.17 1478,594 C1472.11,595.21 1471.9904,595.1786 1465.9704,596.5486 " fill="none" id="rrp-to-vpp" style="stroke:#000000;stroke-width:1.0;"/><polygon fill="#000000" points="1460.12,597.88,1469.7832,599.7832,1464.9953,596.7705,1468.008,591.9826,1460.12,597.88" style="stroke:#000000;stroke-width:1.0;"/><text fill="#000000" font-family="sans-serif" font-size="14" lengthAdjust="spacing" textLength="33" x="1772" y="559.9951">JSON</text></g><!--link vpp to wrp--><g id="link_vpp_wrp"><path d="M1377.83,698.18 C1417.76,723.78 1459.6684,750.6525 1493.8084,772.5325 " fill="none" id="vpp-to-wrp" style="stroke:#000000;stroke-width:1.0;"/><polygon fill="#000000" points="1498.86,775.77,1493.441,767.546,1494.6503,773.0721,1489.1243,774.2815,1498.86,775.77" style="stroke:#000000;stroke-width:1.0;"/><text fill="#000000" font-family="sans-serif" font-size="14" lengthAdjust="spacing" textLength="33" x="1452" y="741.9951">JSON</text></g><!--link wrp to file_dpj--><g id="link_wrp_file_dpj"><path d="M1523,838.07 C1472.74,903.82 1356.6642,1055.6135 1299.7442,1130.0635 " fill="none" id="wrp-to-file_dpj" style="stroke:#000000;stroke-width:1.0;"/><polygon fill="#000000" points="1296.1,1134.83,1304.744,1130.1097,1299.1368,1130.8579,1298.3886,1125.2507,1296.1,1134.83" style="stroke:#000000;stroke-width:1.0;"/><text fill="#000000" font-family="sans-serif" font-size="14" lengthAdjust="spacing" textLength="23" x="1461" y="953.9951">File</text></g><!--link pfpd to rpd--><g id="link_pfpd_rpd"><path d="M231.99,495.13 C228.66,528.35 223.9477,575.5398 220.6177,608.7998 " fill="none" id="pfpd-to-rpd" style="stroke:#000000;stroke-width:1.0;"/><polygon fill="#000000" points="220.02,614.77,224.8967,606.2133,220.5181,609.7949,216.9365,605.4163,220.02,614.77" style="stroke:#000000;stroke-width:1.0;"/><text fill="#000000" font-family="sans-serif" font-size="14" lengthAdjust="spacing" textLength="78" x="228" y="559.9951">Path object</text></g><!--link rpd to cdt--><g id="link_rpd_cdt"><path d="M255.85,677.28 C292.15,705.57 341.3074,743.8918 377.5574,772.1418 " fill="none" id="rpd-to-cdt" style="stroke:#000000;stroke-width:1.0;"/><polygon fill="#000000" points="382.29,775.83,377.6499,767.1427,378.3462,772.7565,372.7323,773.4528,382.29,775.83" style="stroke:#000000;stroke-width:1.0;"/><text fill="#000000" font-family="sans-serif" font-size="14" lengthAdjust="spacing" textLength="75" x="345" y="741.9951">DataFrame</text></g><!--link path to rr--><g id="link_path_rr"><path d="M2200.91,153.33 C1924.53,168.93 1318.62,209.15 1120,271 C1000.23,308.3 879.784,385.4016 816.604,429.3916 " fill="none" id="path-to-rr" style="stroke:#000000;stroke-width:1.0;"/><polygon fill="#000000" points="811.68,432.82,821.3516,430.96,815.7833,429.963,816.7804,424.3947,811.68,432.82" style="stroke:#000000;stroke-width:1.0;"/><text fill="#000000" font-family="sans-serif" font-size="14" lengthAdjust="spacing" textLength="78" x="1319" y="250.9951">Path object</text></g><!--link rr to vrd--><g id="link_rr_vrd"><path d="M732.67,495.13 C699.32,522.05 654.4287,558.2813 614.8987,590.1913 " fill="none" id="rr-to-vrd" style="stroke:#000000;stroke-width:1.0;"/><polygon fill="#000000" points="610.23,593.96,619.7455,591.4194,614.1206,590.8194,614.7205,585.1944,610.23,593.96" style="stroke:#000000;stroke-width:1.0;"/><text fill="#000000" font-family="sans-serif" font-size="14" lengthAdjust="spacing" textLength="75" x="666" y="559.9951">DataFrame</text></g><!--link vrd to cdt--><g id="link_vrd_cdt"><path d="M506.44,698.18 C486.15,723.78 466.0166,749.1876 448.6766,771.0676 " fill="none" id="vrd-to-cdt" style="stroke:#000000;stroke-width:1.0;"/><polygon fill="#000000" points="444.95,775.77,453.6749,771.2009,448.0555,771.8514,447.4051,766.232,444.95,775.77" style="stroke:#000000;stroke-width:1.0;"/><text fill="#000000" font-family="sans-serif" font-size="14" lengthAdjust="spacing" textLength="75" x="482" y="741.9951">DataFrame</text></g><!--link cdt to wpd--><g id="link_cdt_wpd"><path d="M421,838.03 C421,861.49 421,887.96 421,911.53 " fill="none" id="cdt-to-wpd" style="stroke:#000000;stroke-width:1.0;"/><polygon fill="#000000" points="421,917.53,425,908.53,421,912.53,417,908.53,421,917.53" style="stroke:#000000;stroke-width:1.0;"/><text fill="#000000" font-family="sans-serif" font-size="14" lengthAdjust="spacing" textLength="75" x="422" y="883.9951">DataFrame</text></g><!--link pfpd to wpd--><g id="link_pfpd_wpd"><path d="M171.32,495.1 C133.46,516.78 88.71,549.97 67,594 C45.97,636.65 48.94,657.01 67,701 C113.11,813.31 237.0499,880.1598 325.9399,915.7498 " fill="none" id="pfpd-to-wpd" style="stroke:#000000;stroke-width:1.0;"/><polygon fill="#000000" points="331.51,917.98,324.6416,910.9213,326.8682,916.1215,321.668,918.3481,331.51,917.98" style="stroke:#000000;stroke-width:1.0;"/><text fill="#000000" font-family="sans-serif" font-size="14" lengthAdjust="spacing" textLength="78" x="91" y="741.9951">Path object</text></g><!--link wpd to file_sql--><g id="link_wpd_file_sql"><path d="M455.53,980.18 C501.11,1020.02 577.0221,1086.3717 627.9421,1130.8717 " fill="none" id="wpd-to-file_sql" style="stroke:#000000;stroke-width:1.0;"/><polygon fill="#000000" points="632.46,1134.82,628.3154,1125.8857,628.6951,1131.5298,623.051,1131.9095,632.46,1134.82" style="stroke:#000000;stroke-width:1.0;"/><text fill="#000000" font-family="sans-serif" font-size="14" lengthAdjust="spacing" textLength="23" x="536" y="1049.9951">File</text></g><!--link vrd to wrd--><g id="link_vrd_wrd"><path d="M664.25,698.07 C723.24,723.77 787.2093,751.6437 837.5493,773.5737 " fill="none" id="vrd-to-wrd" style="stroke:#000000;stroke-width:1.0;"/><polygon fill="#000000" points="843.05,775.97,836.3965,768.7084,838.4661,773.9731,833.2014,776.0427,843.05,775.97" style="stroke:#000000;stroke-width:1.0;"/><text fill="#000000" font-family="sans-serif" font-size="14" lengthAdjust="spacing" textLength="75" x="773" y="741.9951">DataFrame</text></g><!--link pfrd to wrd--><g id="link_pfrd_wrd"><path d="M912,677.28 C912,705.57 912,741.58 912,769.83 " fill="none" id="pfrd-to-wrd" style="stroke:#000000;stroke-width:1.0;"/><polygon fill="#000000" points="912,775.83,916,766.83,912,770.83,908,766.83,912,775.83" style="stroke:#000000;stroke-width:1.0;"/><text fill="#000000" font-family="sans-serif" font-size="14" lengthAdjust="spacing" textLength="78" x="913" y="741.9951">Path object</text></g><!--link wrd to file_rid--><g id="link_wrd_file_rid"><path d="M917.48,838.07 C929.47,903.82 956.9333,1054.4774 970.5133,1128.9274 " fill="none" id="wrd-to-file_rid" style="stroke:#000000;stroke-width:1.0;"/><polygon fill="#000000" points="971.59,1134.83,973.9101,1125.2583,970.6928,1129.9112,966.0399,1126.6939,971.59,1134.83" style="stroke:#000000;stroke-width:1.0;"/><text fill="#000000" font-family="sans-serif" font-size="14" lengthAdjust="spacing" textLength="23" x="952" y="953.9951">File</text></g><!--SRC=[ZLTBR-Cs4BxxLx1xILB4zjqe0XHPkDYYs6oRFWvDOJ0YBJEHHOQah4qN_U-T6P8IBKjESh52SkQR-UR1uNT-9_UIEIb5mPraMwltREUzSQlbql9sKIg_QnuR9ssXQozhloZqVfdEputLJxBm_GBfM-wvgcSpzwngmotVitlFlLo3WbjTQSiUAruyZsr_vc3CMbdERhMGe04ts8TFjMdy1yOTK_Z5lirO_5gn7stfc05zl9GR9HYl1RFIwSOMuNyhMQqzd2-gHaXn_L237Z3pbRPqNRt2dfUbj6vsWUgQFRZfs1p_0CXmlmESB_ZZDKgohQeaQu4P9hZd8CwKnvDM6sczaWxENzuPhtJDgolsy_tTPwOVaIYIUgYVvUlymAj6WdPbqHpksPxx0lP8PNI8EIEBsNyT4NUDJqne-YGgukUA_RwJdIGm2swmhQw4j4mvvdQwhL5o2I9HtnB17Y5k2_TIAIz9CtgtWV_XMFgCkkz__GKEiIGKdK564kCE5S1k9Tri01CDMpmvNVSumZmb7FW472AB20RJAzsgkWmG7v6NBpal6K27l_n1YHl2Mm03ButqFPPL8c719yMKJYGuYvOt5RSn211j3Y43SSuU0RWnPo2XM9RVByf_bSa1RGze0V2Fskkcs4b8KTuEqYWBSqhdBeyBAs7ZyefK6rjGsF5tnURiD_dIA2inrMFkheO5WJcSIQJKx2HMUUx6J0Kwzhnku1HMVwYt6LG85SAsgGlKqVFHsGgU7TjhextTKRHc4rZ9X99tMslfC7w0jRUagYyxAaUA5QPTP944mBQ_BEPdPbo7sUBE65uRuLf26sUJVDyWydKijara568sGW66Sy21G0u6vBatI44rFIiYiIBUOeMIbsWP1qZ9aUgump09mxmBWtf0mBa0thWOzmpKY56d8lDdY0-Kaz7oAzm-3gDwedl27nlTiUJDD01Q_wUqQliwcZa7sXfru123Sh3J2DZkDg6aZixUxcJn39sbXAlIGGjggegw6jFRXvgn_1P00pzsV8zH77Aj8s137JWQMOW03B-JHgBWTHVJsKabkJEbbF7HHZxQCtm4gC3xYTA9IBOnagrv5y-z-gFox5lSfZ4YwwVDQMcUBvnUKryw9fMEUQDqCBfPjnsjd-doEO6sriGgCkUpd1haJtZRZO2KqcUgyvYMaVjoYljEVNy6K6Z4OWxkkZtFt4NdQSRi-XGCJuccOEAW5DriiX9Fk3WG5uSpJ1nNOpevgCL-c9aioA5DavbneCGuc7URPCnRxO5CeIoArenVVUFLUc9WIvorx-FiclNttl0oYmCph8UhU_xtJWaXwtzkmkrr4I-letKJryrmtOojOowUN3KPBjP0Tjm6xVPO2TmwrF5vfR09d2XYx6B8VelZEOpGyYj4m0Cx48IKmDUC96mWpZ6XyV73dclTLbAKs0HqK-xeKCgP23rvfw1zQvXzgML0QNeOWlEUiPUUKpvUXWAxIi-K-Vmc5Y6EqRDGaRWOCZqkPfgEzrRTP0YFekJHGztFVm_m2Dmg2o-La6CeYYhQ8_NO0_jLofAOtrsUflaQ1xXA5qbVvqIOndBHb5KJcstSouRjTUoizz3pyl5ssnNuAHSsu-BJbfNg86jwCAPwcCKiGzvCvlJ1Z33HnfFPysQTj_i-XvpNy1Y5lEdku9Jzyvium1pxQ-DUkDLnEbZ3Irhc78wm54aACqWkX2lZwd2573D3cSw-TiI-DkvbByWk7kGhS1hVL3rwQqynZhQ6CHTvp4N2WERqFm00]--></g></svg>