<?xml version="1.0" encoding="us-ascii" standalone="no"?><svg xmlns="http://www.w3.org/2000/svg" xmlns:xlink="http://www.w3.org/1999/xlink" contentStyleType="text/css" height="1431px" preserveAspectRatio="none" style="width:2392px;height:1431px;background:#FFFFFF;" version="1.1" viewBox="0 0 2392 1431" width="2392px" zoomAndPan="magnify"><defs/><g><!--cluster input--><g id="cluster_input"><path d="M1294.5,7 L1915.5,7 A12.5,12.5 0 0 1 1928,19.5 L1928,79.8594 L1282,79.8594 L1282,19.5 A12.5,12.5 0 0 1 1294.5,7 " fill="#F2F2F2" style="stroke:#F2F2F2;stroke-width:1.0;"/><rect fill="none" height="222" rx="12.5" ry="12.5" style="stroke:#000000;stroke-width:0.5;" width="646" x="1282" y="7"/><line style="stroke:#000000;stroke-width:0.5;" x1="1282" x2="1928" y1="79.8594" y2="79.8594"/><line style="stroke:#000000;stroke-width:0.5;" x1="1282" x2="1928" y1="32.9531" y2="32.9531"/><text fill="#000000" font-family="Fira Code" font-size="18" lengthAdjust="spacing" textLength="46" x="1383" y="27.708">Input</text><text fill="#000000" font-family="Fira Code" font-size="18" lengthAdjust="spacing" textLength="444" x="1287" y="52.1611">Args package_id and resource_id are not included,</text><text fill="#000000" font-family="Fira Code" font-size="18" lengthAdjust="spacing" textLength="221" x="1287" y="73.1143">as they are only integers</text></g><!--cluster output--><g id="cluster_output"><path d="M72.5,1245 L1246.5,1245 A12.5,12.5 0 0 1 1259,1257.5 L1259,1296.9063 L60,1296.9063 L60,1257.5 A12.5,12.5 0 0 1 72.5,1245 " fill="#F2F2F2" style="stroke:#F2F2F2;stroke-width:1.0;"/><rect fill="none" height="180" rx="12.5" ry="12.5" style="stroke:#000000;stroke-width:0.5;" width="1199" x="60" y="1245"/><line style="stroke:#000000;stroke-width:0.5;" x1="60" x2="1259" y1="1296.9063" y2="1296.9063"/><line style="stroke:#000000;stroke-width:0.5;" x1="60" x2="1259" y1="1270.9531" y2="1270.9531"/><text fill="#000000" font-family="Fira Code" font-size="18" lengthAdjust="spacing" textLength="61" x="483.5" y="1265.708">Output</text><text fill="#000000" font-family="Fira Code" font-size="18" lengthAdjust="spacing" textLength="352" x="65" y="1290.1611">The package parent folder is shown as /</text></g><!--cluster prc--><g id="cluster_prc"><path d="M40.5,311 L2366.5,311 A12.5,12.5 0 0 1 2379,323.5 L2379,383.8594 L28,383.8594 L28,323.5 A12.5,12.5 0 0 1 40.5,311 " fill="#F2F2F2" style="stroke:#F2F2F2;stroke-width:1.0;"/><rect fill="none" height="868" rx="12.5" ry="12.5" style="stroke:#000000;stroke-width:0.5;" width="2351" x="28" y="311"/><line style="stroke:#000000;stroke-width:0.5;" x1="28" x2="2379" y1="383.8594" y2="383.8594"/><line style="stroke:#000000;stroke-width:0.5;" x1="28" x2="2379" y1="336.9531" y2="336.9531"/><text fill="#000000" font-family="Fira Code" font-size="18" lengthAdjust="spacing" textLength="237" x="931" y="331.708">package_resource_create()</text><text fill="#000000" font-family="Fira Code" font-size="18" lengthAdjust="spacing" textLength="506" x="33" y="356.1611">- Required arguments: package_id, resource_id, and path</text><text fill="#000000" font-family="Fira Code" font-size="18" lengthAdjust="spacing" textLength="545" x="33" y="377.1143">- Optional argument is properties object or manual user input</text></g><g id="input.path"><rect fill="#F2F2F2" height="61.9063" rx="12.5" ry="12.5" style="stroke:#000000;stroke-width:0.5;" width="280" x="1624" y="122"/><line style="stroke:#000000;stroke-width:0.5;" x1="1624" x2="1904" y1="152.9531" y2="152.9531"/><text fill="#000000" font-family="Fira Code" font-size="18" lengthAdjust="spacing" textLength="39" x="1744.5" y="143.708">path</text><text fill="#000000" font-family="Fira Code" font-size="18" lengthAdjust="spacing" textLength="260" x="1629" y="174.6611">Path to the file with data in it</text></g><g id="input.properties"><rect fill="#F2F2F2" height="103.8125" rx="12.5" ry="12.5" style="stroke:#000000;stroke-width:0.5;" width="264" x="1325" y="101"/><line style="stroke:#000000;stroke-width:0.5;" x1="1325" x2="1589" y1="131.9531" y2="131.9531"/><text fill="#000000" font-family="Fira Code" font-size="18" lengthAdjust="spacing" textLength="91" x="1411.5" y="122.708">properties</text><text fill="#000000" font-family="Fira Code" font-size="18" lengthAdjust="spacing" textLength="244" x="1330" y="153.6611">(Optional) JSON object with</text><text fill="#000000" font-family="Fira Code" font-size="18" lengthAdjust="spacing" textLength="236" x="1330" y="174.6143">key-value pairs that match</text><text fill="#000000" font-family="Fira Code" font-size="18" lengthAdjust="spacing" textLength="161" x="1330" y="195.5674">data package spec</text></g><g id="output.file_sql"><rect fill="#F2F2F2" height="82.8594" rx="12.5" ry="12.5" style="stroke:#000000;stroke-width:0.5;" width="247" x="733.5" y="1318"/><line style="stroke:#000000;stroke-width:0.5;" x1="733.5" x2="980.5" y1="1348.9531" y2="1348.9531"/><text fill="#000000" font-family="Fira Code" font-size="18" lengthAdjust="spacing" textLength="137" x="788.5" y="1339.708">/database.sqlite</text><text fill="#000000" font-family="Fira Code" font-size="18" lengthAdjust="spacing" textLength="227" x="738.5" y="1370.6611">The SQLite database with</text><text fill="#000000" font-family="Fira Code" font-size="18" lengthAdjust="spacing" textLength="202" x="738.5" y="1391.6143">the resources as tables</text></g><g id="output.file_dpj"><rect fill="#F2F2F2" height="82.8594" rx="12.5" ry="12.5" style="stroke:#000000;stroke-width:0.5;" width="219" x="1015.5" y="1318"/><line style="stroke:#000000;stroke-width:0.5;" x1="1015.5" x2="1234.5" y1="1348.9531" y2="1348.9531"/><text fill="#000000" font-family="Fira Code" font-size="18" lengthAdjust="spacing" textLength="157" x="1046.5" y="1339.708">/datapackage.json</text><text fill="#000000" font-family="Fira Code" font-size="18" lengthAdjust="spacing" textLength="165" x="1020.5" y="1370.6611">JSON file following</text><text fill="#000000" font-family="Fira Code" font-size="18" lengthAdjust="spacing" textLength="199" x="1020.5" y="1391.6143">the Data Package spec</text></g><g id="output.file_rid"><rect fill="#F2F2F2" height="82.8594" rx="12.5" ry="12.5" style="stroke:#000000;stroke-width:0.5;" width="282" x="416" y="1318"/><line style="stroke:#000000;stroke-width:0.5;" x1="416" x2="698" y1="1348.9531" y2="1348.9531"/><text fill="#000000" font-family="Fira Code" font-size="18" lengthAdjust="spacing" textLength="262" x="426" y="1339.708">/resources/&lt;id&gt;/data.parquet</text><text fill="#000000" font-family="Fira Code" font-size="18" lengthAdjust="spacing" textLength="201" x="421" y="1370.6611">Parquet file for tabular</text><text fill="#000000" font-family="Fira Code" font-size="18" lengthAdjust="spacing" textLength="202" x="421" y="1391.6143">data to act as a backup</text></g><g id="output.file_rir"><rect fill="#F2F2F2" height="61.9063" rx="12.5" ry="12.5" style="stroke:#000000;stroke-width:0.5;" width="278" x="103" y="1328.5"/><line style="stroke:#000000;stroke-width:0.5;" x1="103" x2="381" y1="1359.4531" y2="1359.4531"/><text fill="#000000" font-family="Fira Code" font-size="18" lengthAdjust="spacing" textLength="240" x="122" y="1350.208">/resources/&lt;id&gt;/raw/*.gzip</text><text fill="#000000" font-family="Fira Code" font-size="18" lengthAdjust="spacing" textLength="258" x="108" y="1381.1611">Untouched raw file with data</text></g><g id="prc.pfrr"><rect fill="#F2F2F2" height="61.9063" rx="12.5" ry="12.5" style="stroke:#000000;stroke-width:0.5;" width="332" x="71" y="426"/><line style="stroke:#000000;stroke-width:0.5;" x1="71" x2="403" y1="456.9531" y2="456.9531"/><text fill="#000000" font-family="Fira Code" font-size="18" lengthAdjust="spacing" textLength="218" x="128" y="447.708">path_file_resource_raw()</text><text fill="#000000" font-family="Fira Code" font-size="18" lengthAdjust="spacing" textLength="312" x="76" y="478.6611">Create the file path for the raw file</text></g><g id="prc.pfrd"><rect fill="#F2F2F2" height="61.9063" rx="12.5" ry="12.5" style="stroke:#000000;stroke-width:0.5;" width="336" x="438" y="426"/><line style="stroke:#000000;stroke-width:0.5;" x1="438" x2="774" y1="456.9531" y2="456.9531"/><text fill="#000000" font-family="Fira Code" font-size="18" lengthAdjust="spacing" textLength="222" x="495" y="447.708">path_file_resource_data()</text><text fill="#000000" font-family="Fira Code" font-size="18" lengthAdjust="spacing" textLength="316" x="443" y="478.6611">Create the file path for the data file</text></g><g id="prc.pfpd"><rect fill="#F2F2F2" height="61.9063" rx="12.5" ry="12.5" style="stroke:#000000;stroke-width:0.5;" width="376" x="809" y="426"/><line style="stroke:#000000;stroke-width:0.5;" x1="809" x2="1185" y1="456.9531" y2="456.9531"/><text fill="#000000" font-family="Fira Code" font-size="18" lengthAdjust="spacing" textLength="257" x="868.5" y="447.708">path_file_package_database()</text><text fill="#000000" font-family="Fira Code" font-size="18" lengthAdjust="spacing" textLength="356" x="814" y="478.6611">Create the file path for the database file</text></g><g id="prc.pfpp"><rect fill="#F2F2F2" height="61.9063" rx="12.5" ry="12.5" style="stroke:#000000;stroke-width:0.5;" width="389" x="1040.5" y="539"/><line style="stroke:#000000;stroke-width:0.5;" x1="1040.5" x2="1429.5" y1="569.9531" y2="569.9531"/><text fill="#000000" font-family="Fira Code" font-size="18" lengthAdjust="spacing" textLength="270" x="1100" y="560.708">path_file_package_properties()</text><text fill="#000000" font-family="Fira Code" font-size="18" lengthAdjust="spacing" textLength="369" x="1045.5" y="591.6611">Create the file path for the properties file</text></g><g id="prc.gpd"><rect fill="#F2F2F2" height="103.8125" rx="12.5" ry="12.5" style="stroke:#000000;stroke-width:0.5;" width="277" x="1520.5" y="405"/><line style="stroke:#000000;stroke-width:0.5;" x1="1520.5" x2="1797.5" y1="435.9531" y2="435.9531"/><text fill="#000000" font-family="Fira Code" font-size="18" lengthAdjust="spacing" textLength="190" x="1564" y="426.708">get_properties_data()</text><text fill="#000000" font-family="Fira Code" font-size="18" lengthAdjust="spacing" textLength="237" x="1525.5" y="457.6611">- Required argument: path</text><text fill="#000000" font-family="Fira Code" font-size="18" lengthAdjust="spacing" textLength="257" x="1525.5" y="478.6143">- Gets the schema properties</text><text fill="#000000" font-family="Fira Code" font-size="18" lengthAdjust="spacing" textLength="211" x="1537.5" y="499.5674">from the data in the file</text></g><g id="prc.rrp"><rect fill="#F2F2F2" height="61.9063" rx="12.5" ry="12.5" style="stroke:#000000;stroke-width:0.5;" width="265" x="1220.5" y="426"/><line style="stroke:#000000;stroke-width:0.5;" x1="1220.5" x2="1485.5" y1="456.9531" y2="456.9531"/><text fill="#000000" font-family="Fira Code" font-size="18" lengthAdjust="spacing" textLength="240" x="1233" y="447.708">read_resource_properties()</text><text fill="#000000" font-family="Fira Code" font-size="18" lengthAdjust="spacing" textLength="245" x="1225.5" y="478.6611">- Required arguments: path</text></g><g id="prc.rpd"><rect fill="#F2F2F2" height="61.9063" rx="12.5" ry="12.5" style="stroke:#000000;stroke-width:0.5;" width="265" x="605.5" y="641.5"/><line style="stroke:#000000;stroke-width:0.5;" x1="605.5" x2="870.5" y1="672.4531" y2="672.4531"/><text fill="#000000" font-family="Fira Code" font-size="18" lengthAdjust="spacing" textLength="222" x="627" y="663.208">read_package_database()</text><text fill="#000000" font-family="Fira Code" font-size="18" lengthAdjust="spacing" textLength="245" x="610.5" y="694.1611">- Required arguments: path</text></g><g id="prc.rr"><rect fill="#F2F2F2" height="61.9063" rx="12.5" ry="12.5" style="stroke:#000000;stroke-width:0.5;" width="399" x="905.5" y="641.5"/><line style="stroke:#000000;stroke-width:0.5;" x1="905.5" x2="1304.5" y1="672.4531" y2="672.4531"/><text fill="#000000" font-family="Fira Code" font-size="18" lengthAdjust="spacing" textLength="140" x="1035" y="663.208">read_resource()</text><text fill="#000000" font-family="Fira Code" font-size="18" lengthAdjust="spacing" textLength="379" x="910.5" y="694.1611">- Required arguments: path, file_extension</text></g><g id="prc.wrr"><rect fill="#F2F2F2" height="61.9063" rx="12.5" ry="12.5" style="stroke:#000000;stroke-width:0.5;" width="437" x="59.5" y="641.5"/><line style="stroke:#000000;stroke-width:0.5;" x1="59.5" x2="496.5" y1="672.4531" y2="672.4531"/><text fill="#000000" font-family="Fira Code" font-size="18" lengthAdjust="spacing" textLength="190" x="183" y="663.208">write_resource_raw()</text><text fill="#000000" font-family="Fira Code" font-size="18" lengthAdjust="spacing" textLength="417" x="64.5" y="694.1611">- Required arguments: input_path, output_path</text></g><g id="prc.wrp"><rect fill="#F2F2F2" height="61.9063" rx="12.5" ry="12.5" style="stroke:#000000;stroke-width:0.5;" width="375" x="1398.5" y="802.5"/><line style="stroke:#000000;stroke-width:0.5;" x1="1398.5" x2="1773.5" y1="833.4531" y2="833.4531"/><text fill="#000000" font-family="Fira Code" font-size="18" lengthAdjust="spacing" textLength="247" x="1462.5" y="824.208">write_resource_properties()</text><text fill="#000000" font-family="Fira Code" font-size="18" lengthAdjust="spacing" textLength="355" x="1403.5" y="855.1611">- Required arguments: json_object, path</text></g><g id="prc.wrd"><rect fill="#F2F2F2" height="61.9063" rx="12.5" ry="12.5" style="stroke:#000000;stroke-width:0.5;" width="315" x="341.5" y="953"/><line style="stroke:#000000;stroke-width:0.5;" x1="341.5" x2="656.5" y1="983.9531" y2="983.9531"/><text fill="#000000" font-family="Fira Code" font-size="18" lengthAdjust="spacing" textLength="194" x="402" y="974.708">write_resource_data()</text><text fill="#000000" font-family="Fira Code" font-size="18" lengthAdjust="spacing" textLength="295" x="346.5" y="1005.6611">- Required arguments: data, path</text></g><g id="prc.wpd"><rect fill="#F2F2F2" height="61.9063" rx="12.5" ry="12.5" style="stroke:#000000;stroke-width:0.5;" width="375" x="669.5" y="1093"/><line style="stroke:#000000;stroke-width:0.5;" x1="669.5" x2="1044.5" y1="1123.9531" y2="1123.9531"/><text fill="#000000" font-family="Fira Code" font-size="18" lengthAdjust="spacing" textLength="229" x="742.5" y="1114.708">write_package_database()</text><text fill="#000000" font-family="Fira Code" font-size="18" lengthAdjust="spacing" textLength="355" x="674.5" y="1145.6611">- Required arguments: json_object, path</text></g><g id="prc.vrp"><rect fill="#F2F2F2" height="82.8594" rx="12.5" ry="12.5" style="stroke:#000000;stroke-width:0.5;" width="444" x="1911" y="631"/><line style="stroke:#000000;stroke-width:0.5;" x1="1911" x2="2355" y1="661.9531" y2="661.9531"/><text fill="#000000" font-family="Fira Code" font-size="18" lengthAdjust="spacing" textLength="252" x="2007" y="652.708">verify_resource_properties()</text><text fill="#000000" font-family="Fira Code" font-size="18" lengthAdjust="spacing" textLength="304" x="1916" y="683.6611">- Required arguments: json_object</text><text fill="#000000" font-family="Fira Code" font-size="18" lengthAdjust="spacing" textLength="424" x="1916" y="704.6143">- Checks against resources spec of data package</text></g><g id="prc.vpp"><rect fill="#F2F2F2" height="82.8594" rx="12.5" ry="12.5" style="stroke:#000000;stroke-width:0.5;" width="386" x="1490" y="631"/><line style="stroke:#000000;stroke-width:0.5;" x1="1490" x2="1876" y1="661.9531" y2="661.9531"/><text fill="#000000" font-family="Fira Code" font-size="18" lengthAdjust="spacing" textLength="247" x="1559.5" y="652.708">verify_package_properties()</text><text fill="#000000" font-family="Fira Code" font-size="18" lengthAdjust="spacing" textLength="304" x="1495" y="683.6611">- Required arguments: json_object</text><text fill="#000000" font-family="Fira Code" font-size="18" lengthAdjust="spacing" textLength="366" x="1495" y="704.6143">- Checks against full spec of data package</text></g><g id="prc.vrd"><rect fill="#F2F2F2" height="82.8594" rx="12.5" ry="12.5" style="stroke:#000000;stroke-width:0.5;" width="386" x="733" y="792"/><line style="stroke:#000000;stroke-width:0.5;" x1="733" x2="1119" y1="822.9531" y2="822.9531"/><text fill="#000000" font-family="Fira Code" font-size="18" lengthAdjust="spacing" textLength="199" x="826.5" y="813.708">verify_resource_data()</text><text fill="#000000" font-family="Fira Code" font-size="18" lengthAdjust="spacing" textLength="304" x="738" y="844.6611">- Required arguments: json_object</text><text fill="#000000" font-family="Fira Code" font-size="18" lengthAdjust="spacing" textLength="366" x="738" y="865.6143">- Checks against full spec of data package</text></g><g id="prc.cdt"><rect fill="#F2F2F2" height="61.9063" rx="12.5" ry="12.5" style="stroke:#000000;stroke-width:0.5;" width="354" x="749" y="953"/><line style="stroke:#000000;stroke-width:0.5;" x1="749" x2="1103" y1="983.9531" y2="983.9531"/><text fill="#000000" font-family="Fira Code" font-size="18" lengthAdjust="spacing" textLength="210" x="821" y="974.708">create_database_table()</text><text fill="#000000" font-family="Fira Code" font-size="18" lengthAdjust="spacing" textLength="334" x="754" y="1005.6611">- Required arguments: data, database</text></g><!--link pfrr to pfrd--><!--link pfrd to pfpd--><!--link pfpd to pfpp--><!--link pfpd to gpd--><!--link rrp to rpd--><!--link rpd to rr--><!--link path to gpd--><g id="link_path_gpd"><path d="M1753.55,184.06 C1736.08,234.3 1700.69,336.08 1678.51,399.88 " fill="none" id="path-to-gpd" style="stroke:#000000;stroke-width:1.0;"/><polygon fill="#000000" points="1676.81,404.78,1683.5489,397.5976,1678.4554,400.0585,1675.9945,394.965,1676.81,404.78" style="stroke:#000000;stroke-width:1.0;"/><text fill="#000000" font-family="sans-serif" font-size="14" lengthAdjust="spacing" textLength="33" x="1729" y="274.9951">JSON</text></g><!--link gpd to vrp--><g id="link_gpd_vrp"><path d="M1772.23,509 C1853.3,545.51 1961.21,594.12 2037.83,628.63 " fill="none" id="gpd-to-vrp" style="stroke:#000000;stroke-width:1.0;"/><polygon fill="#000000" points="2042.83,630.89,2036.2536,623.5585,2038.2675,628.8447,2032.9812,630.8585,2042.83,630.89" style="stroke:#000000;stroke-width:1.0;"/><text fill="#000000" font-family="sans-serif" font-size="14" lengthAdjust="spacing" textLength="33" x="1967" y="574.9951">JSON</text></g><!--link properties to vrp--><g id="link_properties_vrp"><path d="M1525.27,205.22 C1549.79,220.88 1578.46,236.26 1607,245 C1641.89,255.68 1734.66,249.68 1771,253 C1840.89,259.38 2034.47,245.28 2084,295 C2171.96,383.31 2156.71,546.59 2142.73,625.89 " fill="none" id="properties-to-vrp" style="stroke:#000000;stroke-width:1.0;"/><polygon fill="#000000" points="2141.81,630.99,2147.3429,622.8422,2142.6969,626.0693,2139.4698,621.4232,2141.81,630.99" style="stroke:#000000;stroke-width:1.0;"/><text fill="#000000" font-family="sans-serif" font-size="14" lengthAdjust="spacing" textLength="170" x="2154" y="453.9951">JSON: Optionally requires</text><text fill="#000000" font-family="sans-serif" font-size="14" lengthAdjust="spacing" textLength="160" x="2159" y="470.292">user input\confirmation</text></g><!--link vrp to wrp--><g id="link_vrp_wrp"><path d="M1993.55,714.03 C1900.51,741.08 1779.97,776.12 1694.18,801.06 " fill="none" id="vrp-to-wrp" style="stroke:#000000;stroke-width:1.0;"/><polygon fill="#000000" points="1689.35,802.46,1699.11,803.78,1694.15,801.06,1696.87,796.1,1689.35,802.46" style="stroke:#000000;stroke-width:1.0;"/><text fill="#000000" font-family="sans-serif" font-size="14" lengthAdjust="spacing" textLength="33" x="1876" y="757.9951">JSON</text></g><!--link pfpp to wrp--><g id="link_pfpp_wrp"><path d="M1283.63,601.26 C1296.61,610.2 1310.28,620.44 1322,631 C1358.06,663.5 1356.09,682.47 1393,714 C1432.5,747.74 1482.64,778.22 1521.91,799.82 " fill="none" id="pfpp-to-wrp" style="stroke:#000000;stroke-width:1.0;"/><polygon fill="#000000" points="1526.65,802.4,1520.6751,794.5706,1522.2638,799.9997,1516.8346,801.5885,1526.65,802.4" style="stroke:#000000;stroke-width:1.0;"/><text fill="#000000" font-family="sans-serif" font-size="14" lengthAdjust="spacing" textLength="78" x="1394" y="677.4951">Path object</text></g><!--link path to wrr--><g id="link_path_wrr"><path d="M1777.13,184.21 C1788.84,212.36 1805.54,255.78 1815,295 C1831.03,361.44 1893.75,552.1 1846,601 C1821.58,626.01 622.85,628.32 588,631 C556.02,633.46 522.29,636.95 489.32,640.85 " fill="none" id="path-to-wrr" style="stroke:#000000;stroke-width:1.0;"/><polygon fill="#000000" points="484.04,641.48,493.4554,644.3696,489.0038,640.8792,492.4941,636.4275,484.04,641.48" style="stroke:#000000;stroke-width:1.0;"/><text fill="#000000" font-family="sans-serif" font-size="14" lengthAdjust="spacing" textLength="78" x="1863" y="461.9951">Path object</text></g><!--link pfrr to wrr--><g id="link_pfrr_wrr"><path d="M242.79,488.14 C250.26,527.05 263.24,594.66 271.19,636.01 " fill="none" id="pfrr-to-wrr" style="stroke:#000000;stroke-width:1.0;"/><polygon fill="#000000" points="272.18,641.17,274.4125,631.5775,271.2379,636.2596,266.5558,633.0849,272.18,641.17" style="stroke:#000000;stroke-width:1.0;"/><text fill="#000000" font-family="sans-serif" font-size="14" lengthAdjust="spacing" textLength="78" x="265" y="574.9951">Path object</text></g><!--link wrr to file_rir--><g id="link_wrr_file_rir"><path d="M272.85,703.58 C267.85,735.48 261,787.39 261,832.5 C261,832.5 261,832.5 261,1125 C261,1195.49 252.29,1277.56 246.67,1323.22 " fill="none" id="wrr-to-file_rir" style="stroke:#000000;stroke-width:1.0;"/><polygon fill="#000000" points="246.03,1328.34,251.1064,1319.9002,246.6449,1323.378,243.1672,1318.9164,246.03,1328.34" style="stroke:#000000;stroke-width:1.0;"/><text fill="#000000" font-family="sans-serif" font-size="14" lengthAdjust="spacing" textLength="23" x="262" y="988.9951">File</text></g><!--link properties to rrp--><g id="link_properties_rrp"><path d="M1439.36,205.23 C1418.25,266.53 1383.47,367.53 1365.15,420.72 " fill="none" id="properties-to-rrp" style="stroke:#000000;stroke-width:1.0;"/><polygon fill="#000000" points="1363.43,425.71,1370.1232,418.485,1365.0454,420.9781,1362.5522,415.9003,1363.43,425.71" style="stroke:#000000;stroke-width:1.0;"/><text fill="#000000" font-family="sans-serif" font-size="14" lengthAdjust="spacing" textLength="90" x="1422" y="266.9951">JSON: If given</text><text fill="#000000" font-family="sans-serif" font-size="14" lengthAdjust="spacing" textLength="87" x="1423.5" y="283.292">as argument</text></g><!--link rrp to vpp--><g id="link_rrp_vpp"><path d="M1399.58,488.14 C1455.97,524.62 1551.36,586.33 1615.72,627.97 " fill="none" id="rrp-to-vpp" style="stroke:#000000;stroke-width:1.0;"/><polygon fill="#000000" points="1620.3,630.94,1614.932,622.6826,1616.1071,628.2161,1610.5737,629.3912,1620.3,630.94" style="stroke:#000000;stroke-width:1.0;"/><text fill="#000000" font-family="sans-serif" font-size="14" lengthAdjust="spacing" textLength="33" x="1567" y="574.9951">JSON</text></g><!--link vpp to wrp--><g id="link_vpp_wrp"><path d="M1658.27,714.03 C1642.47,739.93 1622.2,773.16 1607.15,797.83 " fill="none" id="vpp-to-wrp" style="stroke:#000000;stroke-width:1.0;"/><polygon fill="#000000" points="1604.4,802.33,1612.51,796.7417,1607.0101,798.0654,1605.6865,792.5655,1604.4,802.33" style="stroke:#000000;stroke-width:1.0;"/><text fill="#000000" font-family="sans-serif" font-size="14" lengthAdjust="spacing" textLength="33" x="1638" y="757.9951">JSON</text></g><!--link wrp to file_dpj--><g id="link_wrp_file_dpj"><path d="M1559.56,864.55 C1482.21,952.48 1256.05,1209.54 1164.33,1313.8 " fill="none" id="wrp-to-file_dpj" style="stroke:#000000;stroke-width:1.0;"/><polygon fill="#000000" points="1160.86,1317.74,1169.8134,1313.6368,1164.1676,1313.9904,1163.8141,1308.3446,1160.86,1317.74" style="stroke:#000000;stroke-width:1.0;"/><text fill="#000000" font-family="sans-serif" font-size="14" lengthAdjust="spacing" textLength="23" x="1398" y="1058.9951">File</text></g><!--link pfpd to rpd--><g id="link_pfpd_rpd"><path d="M960.44,488.14 C912.56,527.6 828.87,596.6 778.92,637.77 " fill="none" id="pfpd-to-rpd" style="stroke:#000000;stroke-width:1.0;"/><polygon fill="#000000" points="774.79,641.17,784.2823,638.5438,778.6521,637.9945,779.2014,632.3643,774.79,641.17" style="stroke:#000000;stroke-width:1.0;"/><text fill="#000000" font-family="sans-serif" font-size="14" lengthAdjust="spacing" textLength="78" x="900" y="574.9951">Path object</text></g><!--link rpd to cdt--><g id="link_rpd_cdt"><path d="M842.5,703.52 C857.69,707.36 873.2,710.99 888,714 C1001.65,737.1 1103.39,681.01 1137,792 C1147.69,827.31 1156.25,843.53 1137,875 C1115.48,910.19 1078.45,934.39 1041.37,950.8 " fill="none" id="rpd-to-cdt" style="stroke:#000000;stroke-width:1.0;"/><polygon fill="#000000" points="1036.38,952.96,1046.2284,953.0543,1040.9683,950.9732,1043.0495,945.7131,1036.38,952.96" style="stroke:#000000;stroke-width:1.0;"/><text fill="#000000" font-family="sans-serif" font-size="14" lengthAdjust="spacing" textLength="75" x="1149" y="838.4951">DataFrame</text></g><!--link path to rr--><g id="link_path_rr"><path d="M1832.82,184.05 C1876.83,207.36 1930.31,244.27 1956,295 C2018.68,418.8 2014.78,532.69 1894,601 C1837.83,632.77 1378.05,623.18 1314,631 C1293.45,633.51 1271.89,636.86 1250.74,640.56 " fill="none" id="path-to-rr" style="stroke:#000000;stroke-width:1.0;"/><polygon fill="#000000" points="1245.67,641.46,1255.2302,643.8271,1250.5932,640.587,1253.8333,635.95,1245.67,641.46" style="stroke:#000000;stroke-width:1.0;"/><text fill="#000000" font-family="sans-serif" font-size="14" lengthAdjust="spacing" textLength="78" x="1997" y="461.9951">Path object</text></g><!--link rr to vrd--><g id="link_rr_vrd"><path d="M1070.91,703.78 C1044.02,727.67 1006.13,761.33 975.83,788.23 " fill="none" id="rr-to-vrd" style="stroke:#000000;stroke-width:1.0;"/><polygon fill="#000000" points="971.8,791.82,981.1841,788.8304,975.537,788.4982,975.8692,782.8511,971.8,791.82" style="stroke:#000000;stroke-width:1.0;"/><text fill="#000000" font-family="sans-serif" font-size="14" lengthAdjust="spacing" textLength="75" x="1021" y="757.9951">DataFrame</text></g><!--link vrd to cdt--><g id="link_vrd_cdt"><path d="M926,875.08 C926,897.82 926,925.9 926,947.72 " fill="none" id="vrd-to-cdt" style="stroke:#000000;stroke-width:1.0;"/><polygon fill="#000000" points="926,952.84,930,943.84,926,947.84,922,943.84,926,952.84" style="stroke:#000000;stroke-width:1.0;"/><text fill="#000000" font-family="sans-serif" font-size="14" lengthAdjust="spacing" textLength="75" x="927" y="918.9951">DataFrame</text></g><!--link cdt to wpd--><g id="link_cdt_wpd"><path d="M910.86,1015.28 C900.12,1036.77 885.68,1065.65 874.45,1088.1 " fill="none" id="cdt-to-wpd" style="stroke:#000000;stroke-width:1.0;"/><polygon fill="#000000" points="872.11,1092.79,879.7206,1086.5387,874.3518,1088.3207,872.5698,1082.9519,872.11,1092.79" style="stroke:#000000;stroke-width:1.0;"/><text fill="#000000" font-family="sans-serif" font-size="14" lengthAdjust="spacing" textLength="75" x="897" y="1058.9951">DataFrame</text></g><!--link pfpd to wpd--><g id="link_pfpd_wpd"><path d="M891.52,488.09 C782.41,521.61 623.09,578.06 588,631 C567.62,661.75 579.52,678.1 588,714 C591.42,728.51 597.87,730 603,744 C623.64,800.27 600.86,825.74 635,875 C648.48,894.45 663.56,887.06 679,905 C714.4,946.13 699,971.92 732,1015 C753.93,1043.64 784.49,1070.2 809.9,1089.82 " fill="none" id="pfpd-to-wpd" style="stroke:#000000;stroke-width:1.0;"/><polygon fill="#000000" points="813.93,1092.91,809.2187,1084.2611,809.961,1089.869,804.3531,1090.6114,813.93,1092.91" style="stroke:#000000;stroke-width:1.0;"/><text fill="#000000" font-family="sans-serif" font-size="14" lengthAdjust="spacing" textLength="78" x="636" y="838.4951">Path object</text></g><!--link wpd to file_sql--><g id="link_wpd_file_sql"><path d="M857,1155.05 C857,1195.02 857,1266.04 857,1312.71 " fill="none" id="wpd-to-file_sql" style="stroke:#000000;stroke-width:1.0;"/><polygon fill="#000000" points="857,1317.99,861,1308.99,857,1312.99,853,1308.99,857,1317.99" style="stroke:#000000;stroke-width:1.0;"/><text fill="#000000" font-family="sans-serif" font-size="14" lengthAdjust="spacing" textLength="23" x="858" y="1216.9951">File</text></g><!--link vrd to wrd--><g id="link_vrd_wrd"><path d="M809.32,875.08 C740.37,899.06 654.33,928.98 590.35,951.23 " fill="none" id="vrd-to-wrd" style="stroke:#000000;stroke-width:1.0;"/><polygon fill="#000000" points="585.39,952.95,595.205,953.7655,590.1115,951.3046,592.5724,946.2111,585.39,952.95" style="stroke:#000000;stroke-width:1.0;"/><text fill="#000000" font-family="sans-serif" font-size="14" lengthAdjust="spacing" textLength="75" x="714" y="918.9951">DataFrame</text></g><!--link pfrd to wrd--><g id="link_pfrd_wrd"><path d="M585.28,488.27 C576.16,502.98 566.14,521.27 560,539 C509.54,684.76 500.65,871.02 499.21,947.65 " fill="none" id="pfrd-to-wrd" style="stroke:#000000;stroke-width:1.0;"/><polygon fill="#000000" points="499.12,952.98,503.2737,944.0499,499.2057,947.9807,495.2749,943.9128,499.12,952.98" style="stroke:#000000;stroke-width:1.0;"/><text fill="#000000" font-family="sans-serif" font-size="14" lengthAdjust="spacing" textLength="78" x="516" y="757.9951">Path object</text></g><!--link wrd to file_rid--><g id="link_wrd_file_rid"><path d="M503.7,1015.25 C513.86,1080.67 537.92,1235.66 549.93,1312.98 " fill="none" id="wrd-to-file_rid" style="stroke:#000000;stroke-width:1.0;"/><polygon fill="#000000" points="550.7,1317.96,553.2643,1308.4508,549.929,1313.0198,545.36,1309.6845,550.7,1317.96" style="stroke:#000000;stroke-width:1.0;"/><text fill="#000000" font-family="sans-serif" font-size="14" lengthAdjust="spacing" textLength="23" x="532" y="1128.9951">File</text></g><!--link input to prc--><!--link prc to output--><!--SRC=[bLVRRkCs47ttLx3xacpXoxjH12YoIB55iTbkUdbe2eCHAPc9B38aPMswwBztPaXAj2CvRXuIXPSpCsVEaCFl_5Rk97DIYe8xoKghTsphlN7hrShoRbaflsqVMYTjeHil6xyiz6wLrY-CrO-oyCC0uQrsN3MpcNjIZU6MxzYTvrxU0C2rhhLb3pKldiQcFt5mvaPPpgwra8204-pTnyQq_XtZZYdyOjzcB7wjsO-sSim07g_aHWd66y6iTBgrHVZVIjPe3-kBkXLIpEyRm04tNsXAD_KBp7bPIUi0zW81snq4wjW2Vs3CSBy5Iv_nZzUubvMgbgm3RfZWdWC0KnvNMcsazKewM7zvQxpI3Q_Viv_lRZyn_O1KqQxxvac-BFQyRYMWAuiESSzst1SmHv0n9EQCB6R_zbJSjZvneUcJo8YVQ_RRLlOxWLi8WvMw5j8ovPZRwgx1dIlO4l5MQEm1ChTqpxNoaf0nkWty3ylIPyI- -_KNMCJIfXWCCf8uTmW0ixLqioCpqR7bezFDO4UOnsG7Fi4EaKK4W-krxbHJ1HCVa9VFEI-PWTx-wWSbhiZU4XXuRgKVR5abaYtuf9pIYcJEekTjpMrC0cIRGyfWEsSFOBWr9qn2kQo-NrR_A9CRj8D12mP_RxnkYwq4aVBkI4PPcfEWUoKNLiB4vNk2DhQWjEFVDLkmB_AvLLQYsADsrrb9pFDwc5E1eAAp_Kce_NvKIwRbg5oWPyUR5jRXUH0gS4OrGwLHjas1E4FXzC7uxIPma1o1u5CifKMAy0_uSarX3YL6fKTvGOb5ncOdeP790Li4RF4MDgLx4ZoHcNJVuvk0Ryx2fufvqyR0-s3512lcBIjPpf8T8dRnrrO98Pk_hmuuEHWUGZaSDYF35Iocn7-HN4md7bmLGs9U1MOjOiFl4o86dHxXJUJ2al-MCd4-M7AkzuWSEWan3-Kily9jw23gMOmXesVm9H-qWRAVyBYPOgoIFkCfrt95cDLKVEjKqsa5cA5hZZauRNOyayPzmy8zt-iUhg-af-3ZdnPF-KalEvmUA-QE2EnEC4Y7nYRm66wjpL5UZi1VgQOZrNGdL8FtooQSMNDs6ZqZkAEwwEoqW73n1E24A3jAMdT2bAE-Nh0_f5NboqW6BjZrLXPFiM5GU7D1deTEvA1jw9tS4zm9KlT4wluyKhELqHbUGSFdVDO4e7scomEdPgyScZppzdJixCtP_fXHVygshizqPKmIUvB4tegpMH7_sml8DQ-LuAFrTd4CrL7M7PDV0Sw3Bu2OodZEQ8SDRZecDBRXxAdHNIr5XNU6RgijBKgnHzEJqTFY3_tTDNKWXEwaL_-6-hy8KmYa1dw_KLTfSx1v0uqVNMjm8dhe0FEhRISz9nelmzdsFlNeYyLLFF-mXuo78Gu6kSR13EbmRjqtGl0cI3JUDqEpSmzle59PQDFnt0zLW13T0JpUqyCejKPH8TdPcjfBx6bgNIJ4FenmXkQRqrK-CTd5kQpNlEdFypkuS_9-hkmhzJKVDkFZOyagjPSDlPbInj9zXzoPBF2z6M6ZYokp_dvmYxg7GRxEQtYHWMHxAQJEOt4LR_R3c6sS2-92cTx0SrBcF8um5OaAnPflmf5nE1oXqCpndjw_RiI_BivbZwWi9nGjy1eV5eFzphwsSZ1rd7cHPruaA_2Q28_aHTxGsMA6RNy-5kxXsNy0]--></g></svg>