<?xml version="1.0" encoding="us-ascii" standalone="no"?><svg xmlns="http://www.w3.org/2000/svg" xmlns:xlink="http://www.w3.org/1999/xlink" contentStyleType="text/css" height="1169px" preserveAspectRatio="none" style="width:1292px;height:1169px;background:#FFFFFF;" version="1.1" viewBox="0 0 1292 1169" width="1292px" zoomAndPan="magnify"><defs/><g><!--cluster input--><g id="cluster_input"><path d="M680.5,7 L1266.5,7 A12.5,12.5 0 0 1 1279,19.5 L1279,32.9531 L668,32.9531 L668,19.5 A12.5,12.5 0 0 1 680.5,7 " fill="#F2F2F2" style="stroke:#F2F2F2;stroke-width:1.0;"/><rect fill="none" height="159" rx="12.5" ry="12.5" style="stroke:#000000;stroke-width:0.5;" width="611" x="668" y="7"/><line style="stroke:#000000;stroke-width:0.5;" x1="668" x2="1279" y1="32.9531" y2="32.9531"/><text fill="#000000" font-family="Fira Code" font-size="18" lengthAdjust="spacing" textLength="46" x="950.5" y="27.708">Input</text></g><!--cluster output--><g id="cluster_output"><path d="M36.5,999 L1135.5,999 A12.5,12.5 0 0 1 1148,1011.5 L1148,1050.9063 L24,1050.9063 L24,1011.5 A12.5,12.5 0 0 1 36.5,999 " fill="#F2F2F2" style="stroke:#F2F2F2;stroke-width:1.0;"/><rect fill="none" height="164" rx="12.5" ry="12.5" style="stroke:#000000;stroke-width:0.5;" width="1124" x="24" y="999"/><line style="stroke:#000000;stroke-width:0.5;" x1="24" x2="1148" y1="1050.9063" y2="1050.9063"/><line style="stroke:#000000;stroke-width:0.5;" x1="24" x2="1148" y1="1024.9531" y2="1024.9531"/><text fill="#000000" font-family="Fira Code" font-size="18" lengthAdjust="spacing" textLength="61" x="410" y="1019.708">Output</text><text fill="#000000" font-family="Fira Code" font-size="18" lengthAdjust="spacing" textLength="352" x="29" y="1044.1611">The package parent folder is shown as /</text></g><!--cluster pc--><g id="cluster_pc"><path d="M19.5,216 L1191.5,216 A12.5,12.5 0 0 1 1204,228.5 L1204,288.8594 L7,288.8594 L7,228.5 A12.5,12.5 0 0 1 19.5,216 " fill="#F2F2F2" style="stroke:#F2F2F2;stroke-width:1.0;"/><rect fill="none" height="750" rx="12.5" ry="12.5" style="stroke:#000000;stroke-width:0.5;" width="1197" x="7" y="216"/><line style="stroke:#000000;stroke-width:0.5;" x1="7" x2="1204" y1="288.8594" y2="288.8594"/><line style="stroke:#000000;stroke-width:0.5;" x1="7" x2="1204" y1="241.9531" y2="241.9531"/><text fill="#000000" font-family="Fira Code" font-size="18" lengthAdjust="spacing" textLength="151" x="339.5" y="236.708">package_create()</text><text fill="#000000" font-family="Fira Code" font-size="18" lengthAdjust="spacing" textLength="245" x="12" y="261.1611">- Required arguments: path</text><text fill="#000000" font-family="Fira Code" font-size="18" lengthAdjust="spacing" textLength="532" x="12" y="282.1143">- Optional argument: properties object or manual user input</text></g><!--cluster udc--><g id="cluster_udc"><path d="M43.5,310 L462.5,310 A12.5,12.5 0 0 1 475,322.5 L475,361.9063 L31,361.9063 L31,322.5 A12.5,12.5 0 0 1 43.5,310 " fill="#F2F2F2" style="stroke:#F2F2F2;stroke-width:1.0;"/><rect fill="none" height="632" rx="12.5" ry="12.5" style="stroke:#000000;stroke-width:0.5;" width="444" x="31" y="310"/><line style="stroke:#000000;stroke-width:0.5;" x1="31" x2="475" y1="361.9063" y2="361.9063"/><line style="stroke:#000000;stroke-width:0.5;" x1="31" x2="475" y1="335.9531" y2="335.9531"/><text fill="#000000" font-family="Fira Code" font-size="18" lengthAdjust="spacing" textLength="238" x="39" y="330.708">package_database_create()</text><text fill="#000000" font-family="Fira Code" font-size="18" lengthAdjust="spacing" textLength="428" x="36" y="355.1611">- Includes user roles and admin user information</text></g><!--cluster ppc--><g id="cluster_ppc"><path d="M511.5,315 L1167.5,315 A12.5,12.5 0 0 1 1180,327.5 L1180,340.9531 L499,340.9531 L499,327.5 A12.5,12.5 0 0 1 511.5,315 " fill="#F2F2F2" style="stroke:#F2F2F2;stroke-width:1.0;"/><rect fill="none" height="481" rx="12.5" ry="12.5" style="stroke:#000000;stroke-width:0.5;" width="681" x="499" y="315"/><line style="stroke:#000000;stroke-width:0.5;" x1="499" x2="1180" y1="340.9531" y2="340.9531"/><text fill="#000000" font-family="Fira Code" font-size="18" lengthAdjust="spacing" textLength="251" x="714" y="335.708">package_properties_create()</text></g><g id="input.path"><rect fill="#F2F2F2" height="61.9063" rx="12.5" ry="12.5" style="stroke:#000000;stroke-width:0.5;" width="280" x="684" y="67"/><line style="stroke:#000000;stroke-width:0.5;" x1="684" x2="964" y1="97.9531" y2="97.9531"/><text fill="#000000" font-family="Fira Code" font-size="18" lengthAdjust="spacing" textLength="39" x="804.5" y="88.708">path</text><text fill="#000000" font-family="Fira Code" font-size="18" lengthAdjust="spacing" textLength="260" x="689" y="119.6611">Path to the file with data in it</text></g><g id="input.properties"><rect fill="#F2F2F2" height="103.8125" rx="12.5" ry="12.5" style="stroke:#000000;stroke-width:0.5;" width="264" x="999" y="46"/><line style="stroke:#000000;stroke-width:0.5;" x1="999" x2="1263" y1="76.9531" y2="76.9531"/><text fill="#000000" font-family="Fira Code" font-size="18" lengthAdjust="spacing" textLength="91" x="1085.5" y="67.708">properties</text><text fill="#000000" font-family="Fira Code" font-size="18" lengthAdjust="spacing" textLength="244" x="1004" y="98.6611">(Optional) JSON object with</text><text fill="#000000" font-family="Fira Code" font-size="18" lengthAdjust="spacing" textLength="236" x="1004" y="119.6143">key-value pairs that match</text><text fill="#000000" font-family="Fira Code" font-size="18" lengthAdjust="spacing" textLength="161" x="1004" y="140.5674">data package spec</text></g><g id="output.file_sql"><rect fill="#F2F2F2" height="61.9063" rx="12.5" ry="12.5" style="stroke:#000000;stroke-width:0.5;" width="430" x="40" y="1074.5"/><line style="stroke:#000000;stroke-width:0.5;" x1="40" x2="470" y1="1105.4531" y2="1105.4531"/><text fill="#000000" font-family="Fira Code" font-size="18" lengthAdjust="spacing" textLength="137" x="186.5" y="1096.208">/database.sqlite</text><text fill="#000000" font-family="Fira Code" font-size="18" lengthAdjust="spacing" textLength="410" x="45" y="1127.1611">The SQLite database with users and user roles</text></g><g id="output.file_dpj"><rect fill="#F2F2F2" height="82.8594" rx="12.5" ry="12.5" style="stroke:#000000;stroke-width:0.5;" width="219" x="505.5" y="1064"/><line style="stroke:#000000;stroke-width:0.5;" x1="505.5" x2="724.5" y1="1094.9531" y2="1094.9531"/><text fill="#000000" font-family="Fira Code" font-size="18" lengthAdjust="spacing" textLength="157" x="536.5" y="1085.708">/datapackage.json</text><text fill="#000000" font-family="Fira Code" font-size="18" lengthAdjust="spacing" textLength="165" x="510.5" y="1116.6611">JSON file following</text><text fill="#000000" font-family="Fira Code" font-size="18" lengthAdjust="spacing" textLength="199" x="510.5" y="1137.6143">the Data Package spec</text></g><g id="output.file_rm"><rect fill="#F2F2F2" height="61.9063" rx="12.5" ry="12.5" style="stroke:#000000;stroke-width:0.5;" width="372" x="760" y="1074.5"/><line style="stroke:#000000;stroke-width:0.5;" x1="760" x2="1132" y1="1105.4531" y2="1105.4531"/><text fill="#000000" font-family="Fira Code" font-size="18" lengthAdjust="spacing" textLength="117" x="887.5" y="1096.208">/README.md</text><text fill="#000000" font-family="Fira Code" font-size="18" lengthAdjust="spacing" textLength="352" x="765" y="1127.1611">README file based on datapackage.json</text></g><g id="pc.udc.pfpd"><rect fill="#F2F2F2" height="61.9063" rx="12.5" ry="12.5" style="stroke:#000000;stroke-width:0.5;" width="376" x="67" y="375"/><line style="stroke:#000000;stroke-width:0.5;" x1="67" x2="443" y1="405.9531" y2="405.9531"/><text fill="#000000" font-family="Fira Code" font-size="18" lengthAdjust="spacing" textLength="257" x="126.5" y="396.708">path_file_package_database()</text><text fill="#000000" font-family="Fira Code" font-size="18" lengthAdjust="spacing" textLength="356" x="72" y="427.6611">Create the file path for the database file</text></g><g id="pc.udc.cdt"><rect fill="#F2F2F2" height="61.9063" rx="12.5" ry="12.5" style="stroke:#000000;stroke-width:0.5;" width="304" x="103" y="557"/><line style="stroke:#000000;stroke-width:0.5;" x1="103" x2="407" y1="587.9531" y2="587.9531"/><text fill="#000000" font-family="Fira Code" font-size="18" lengthAdjust="spacing" textLength="157" x="176.5" y="578.708">create_database()</text><text fill="#000000" font-family="Fira Code" font-size="18" lengthAdjust="spacing" textLength="284" x="108" y="609.6611">- Required arguments: database</text></g><g id="pc.udc.cut"><rect fill="#F2F2F2" height="61.9063" rx="12.5" ry="12.5" style="stroke:#000000;stroke-width:0.5;" width="304" x="103" y="718"/><line style="stroke:#000000;stroke-width:0.5;" x1="103" x2="407" y1="748.9531" y2="748.9531"/><text fill="#000000" font-family="Fira Code" font-size="18" lengthAdjust="spacing" textLength="178" x="166" y="739.708">create_user_tables()</text><text fill="#000000" font-family="Fira Code" font-size="18" lengthAdjust="spacing" textLength="284" x="108" y="770.6611">- Required arguments: database</text></g><g id="pc.udc.wpd"><rect fill="#F2F2F2" height="82.8594" rx="12.5" ry="12.5" style="stroke:#000000;stroke-width:0.5;" width="375" x="67.5" y="843"/><line style="stroke:#000000;stroke-width:0.5;" x1="67.5" x2="442.5" y1="873.9531" y2="873.9531"/><text fill="#000000" font-family="Fira Code" font-size="18" lengthAdjust="spacing" textLength="229" x="140.5" y="864.708">write_package_database()</text><text fill="#000000" font-family="Fira Code" font-size="18" lengthAdjust="spacing" textLength="355" x="72.5" y="895.6611">- Required arguments: json_object, path</text><text fill="#000000" font-family="Fira Code" font-size="18" lengthAdjust="spacing" textLength="292" x="72.5" y="916.6143">- Writes to the package database</text></g><g id="pc.ppc.gpd"><rect fill="#F2F2F2" height="103.8125" rx="12.5" ry="12.5" style="stroke:#000000;stroke-width:0.5;" width="277" x="712.5" y="354"/><line style="stroke:#000000;stroke-width:0.5;" x1="712.5" x2="989.5" y1="384.9531" y2="384.9531"/><text fill="#000000" font-family="Fira Code" font-size="18" lengthAdjust="spacing" textLength="241" x="730.5" y="375.708">get_properties_from_data()</text><text fill="#000000" font-family="Fira Code" font-size="18" lengthAdjust="spacing" textLength="237" x="717.5" y="406.6611">- Required argument: path</text><text fill="#000000" font-family="Fira Code" font-size="18" lengthAdjust="spacing" textLength="257" x="717.5" y="427.6143">- Gets the schema properties</text><text fill="#000000" font-family="Fira Code" font-size="18" lengthAdjust="spacing" textLength="211" x="729.5" y="448.5674">from the data in the file</text></g><g id="pc.ppc.pfpp"><rect fill="#F2F2F2" height="82.8594" rx="12.5" ry="12.5" style="stroke:#000000;stroke-width:0.5;" width="290" x="515" y="546.5"/><line style="stroke:#000000;stroke-width:0.5;" x1="515" x2="805" y1="577.4531" y2="577.4531"/><text fill="#000000" font-family="Fira Code" font-size="18" lengthAdjust="spacing" textLength="270" x="525" y="568.208">path_file_package_properties()</text><text fill="#000000" font-family="Fira Code" font-size="18" lengthAdjust="spacing" textLength="239" x="520" y="599.1611">Create the file path for the</text><text fill="#000000" font-family="Fira Code" font-size="18" lengthAdjust="spacing" textLength="124" x="532" y="620.1143">properties file</text></g><g id="pc.ppc.vpp"><rect fill="#F2F2F2" height="103.8125" rx="12.5" ry="12.5" style="stroke:#000000;stroke-width:0.5;" width="324" x="840" y="536"/><line style="stroke:#000000;stroke-width:0.5;" x1="840" x2="1164" y1="566.9531" y2="566.9531"/><text fill="#000000" font-family="Fira Code" font-size="18" lengthAdjust="spacing" textLength="247" x="878.5" y="557.708">verify_package_properties()</text><text fill="#000000" font-family="Fira Code" font-size="18" lengthAdjust="spacing" textLength="304" x="845" y="588.6611">- Required arguments: json_object</text><text fill="#000000" font-family="Fira Code" font-size="18" lengthAdjust="spacing" textLength="288" x="845" y="609.6143">- Checks against full spec of data</text><text fill="#000000" font-family="Fira Code" font-size="18" lengthAdjust="spacing" textLength="72" x="857" y="630.5674">package</text></g><g id="pc.ppc.wpp"><rect fill="#F2F2F2" height="61.9063" rx="12.5" ry="12.5" style="stroke:#000000;stroke-width:0.5;" width="375" x="660.5" y="718"/><line style="stroke:#000000;stroke-width:0.5;" x1="660.5" x2="1035.5" y1="748.9531" y2="748.9531"/><text fill="#000000" font-family="Fira Code" font-size="18" lengthAdjust="spacing" textLength="242" x="727" y="739.708">write_package_properties()</text><text fill="#000000" font-family="Fira Code" font-size="18" lengthAdjust="spacing" textLength="355" x="665.5" y="770.6611">- Required arguments: json_object, path</text></g><!--link pfpd to cdt--><g id="link_pfpd_cdt"><path d="M255,437.13 C255,470.35 255,517.51 255,550.77 " fill="none" id="pfpd-to-cdt" style="stroke:#000000;stroke-width:1.0;"/><polygon fill="#000000" points="255,556.77,259,547.77,255,551.77,251,547.77,255,556.77" style="stroke:#000000;stroke-width:1.0;"/></g><!--link cdt to cut--><g id="link_cdt_cut"><path d="M255,619.28 C255,647.57 255,683.58 255,711.83 " fill="none" id="cdt-to-cut" style="stroke:#000000;stroke-width:1.0;"/><polygon fill="#000000" points="255,717.83,259,708.83,255,712.83,251,708.83,255,717.83" style="stroke:#000000;stroke-width:1.0;"/></g><!--link cut to wpd--><g id="link_cut_wpd"><path d="M255,780.29 C255,798.83 255,816.79 255,836.95 " fill="none" id="cut-to-wpd" style="stroke:#000000;stroke-width:1.0;"/><polygon fill="#000000" points="255,842.95,259,833.95,255,837.95,251,833.95,255,842.95" style="stroke:#000000;stroke-width:1.0;"/></g><!--link wpd to file_sql--><g id="link_wpd_file_sql"><path d="M255,926.18 C255,969.1 255,1029.75 255,1068.25 " fill="none" id="wpd-to-file_sql" style="stroke:#000000;stroke-width:1.0;"/><polygon fill="#000000" points="255,1074.25,259,1065.25,255,1069.25,251,1065.25,255,1074.25" style="stroke:#000000;stroke-width:1.0;"/></g><!--link path to gpd--><g id="link_path_gpd"><path d="M826.66,129.18 C831.28,181.5 840.2934,283.6132 845.9534,347.8532 " fill="none" id="path-to-gpd" style="stroke:#000000;stroke-width:1.0;"/><polygon fill="#000000" points="846.48,353.83,849.6747,344.5137,846.0412,348.8493,841.7055,345.2158,846.48,353.83" style="stroke:#000000;stroke-width:1.0;"/><text fill="#000000" font-family="sans-serif" font-size="14" lengthAdjust="spacing" textLength="33" x="833" y="195.9951">JSON</text></g><!--link gpd to vpp--><g id="link_gpd_vpp"><path d="M893.87,458.1 C914.27,482.42 934.7528,506.8442 955.1728,531.1742 " fill="none" id="gpd-to-vpp" style="stroke:#000000;stroke-width:1.0;"/><polygon fill="#000000" points="959.03,535.77,956.308,526.3048,955.8156,531.9401,950.1802,531.4478,959.03,535.77" style="stroke:#000000;stroke-width:1.0;"/><text fill="#000000" font-family="sans-serif" font-size="14" lengthAdjust="spacing" textLength="33" x="932" y="501.9951">JSON</text></g><!--link properties to vpp--><g id="link_properties_vpp"><path d="M1117.44,150.3 C1092.66,244.03 1041.8938,436.0994 1017.1038,529.8494 " fill="none" id="properties-to-vpp" style="stroke:#000000;stroke-width:1.0;"/><polygon fill="#000000" points="1015.57,535.65,1021.7379,527.9716,1016.8482,530.8161,1014.0037,525.9265,1015.57,535.65" style="stroke:#000000;stroke-width:1.0;"/><text fill="#000000" font-family="sans-serif" font-size="14" lengthAdjust="spacing" textLength="170" x="1102" y="402.9951">JSON: Optionally requires</text><text fill="#000000" font-family="sans-serif" font-size="14" lengthAdjust="spacing" textLength="160" x="1107" y="419.292">user input\confirmation</text></g><!--link pfpp to wpp--><g id="link_pfpp_wpp"><path d="M707.93,629.53 C740.45,657.04 778.1789,688.9453 807.7489,713.9553 " fill="none" id="pfpp-to-wpp" style="stroke:#000000;stroke-width:1.0;"/><polygon fill="#000000" points="812.33,717.83,808.0414,708.9639,808.5124,714.6011,802.8752,715.0721,812.33,717.83" style="stroke:#000000;stroke-width:1.0;"/><text fill="#000000" font-family="sans-serif" font-size="14" lengthAdjust="spacing" textLength="78" x="777" y="683.9951">Path object</text></g><!--link vpp to wpp--><g id="link_vpp_wpp"><path d="M952.43,640.18 C927.63,665.78 902.6452,691.5809 881.4452,713.4609 " fill="none" id="vpp-to-wpp" style="stroke:#000000;stroke-width:1.0;"/><polygon fill="#000000" points="877.27,717.77,886.4054,714.0898,880.7493,714.1791,880.66,708.523,877.27,717.77" style="stroke:#000000;stroke-width:1.0;"/><text fill="#000000" font-family="sans-serif" font-size="14" lengthAdjust="spacing" textLength="33" x="921" y="683.9951">JSON</text></g><!--link wpp to file_dpj--><g id="link_wpp_file_dpj"><path d="M828.13,780.22 C786.26,843.93 692.2056,987.0361 644.9656,1058.9061 " fill="none" id="wpp-to-file_dpj" style="stroke:#000000;stroke-width:1.0;"/><polygon fill="#000000" points="641.67,1063.92,649.956,1058.5963,644.4163,1059.7418,643.2708,1054.2021,641.67,1063.92" style="stroke:#000000;stroke-width:1.0;"/><text fill="#000000" font-family="sans-serif" font-size="14" lengthAdjust="spacing" textLength="23" x="786" y="889.4951">File</text></g><!--link wpp to file_rm--><g id="link_wpp_file_rm"><path d="M856.36,780.22 C874.87,847.2 917.5708,1001.667 936.0708,1068.567 " fill="none" id="wpp-to-file_rm" style="stroke:#000000;stroke-width:1.0;"/><polygon fill="#000000" points="937.67,1074.35,939.1265,1064.6094,936.3374,1069.5309,931.4159,1066.7417,937.67,1074.35" style="stroke:#000000;stroke-width:1.0;"/><text fill="#000000" font-family="sans-serif" font-size="14" lengthAdjust="spacing" textLength="23" x="910" y="889.4951">File</text></g><!--SRC=[bLPHJzim47xFhxZn0aXh-vw7JHFGZMcZ3D3sWbIvYPk49d6mdKPeuh_lxcmdQIc2yK1T-tpVTv-_i_l1vhAIOAHC4s4ahBMg8BUsCV5ifaKtpGgRjwlMI9sesihQJXDLpKByfD7gGIPscE1yiqeKTHIPJL4tGeiARgsmSeu9pbIfDAnAaMmEBLy993Clj80pbKhCG0jmT5athJq2OQ2W4VoDZk6BpjeA-HYOq5y4q0YRGmpNz64L81DO5wM43ak0L5Y1kw6m5AbL8xKjfC7uaqLZ2rMByXI-towkGAse8jvrNs_aqsGhobPYza8RJ2eiLC8ckCOf6wn4PAXW8vFekMUyQ6sWh7Y8d24COxZBPRyJ9S0oOAtAL6ee39XSTJNjdE4Mdsz6O2iKU6eUoy9ApapLBV4xXeMXpttxwmS6GTZa9A13D23gb4UWLIbDj0VXIKqVZAe7ZBHv21WuH0mMYiL5sgNgYZgxhqdmSzBaUgp92E3cuilvpujfbGwPTHKIwmhpkWYNcOYde6hOvpMIsKyl4otn-yaf9suI5Xi_OfZ0ZNni2usPH31Cp4uP8iBvzn7ns23U3kZQIjGjHh5uxCC8RNZ6oFrX1iM7gWF5iBBBjKqTMVeaBfTrKhOfmWv7n2ScqWhDww7NIgC5aJE9EpjsZZycjunGRRvaNVVnWqZh9kKDD41eNqVVDDnC2CGplOzeoOEUXxbTO5VTFbgIMWx2prSFfPVkG3egV8dBA4V8sFgCxJioKY1IlbkSBsBufZf85NGICcbVI4g6ev9Py1clTha2nyFmabVqCrNkjFYZgTjsXUXexZNrEoz-nzeVPazMNphtVGoE7NOmf0dtt07xFHzmvs3hb_uSrlQwYTl9rVaL1Tkj4YKSxwJdWslrcpDVP_PQdV5GMOX14AUpIV0j4IFIzpMu1ofuaYxqu5ZCyH_TC2GT-g49_T2yqG_4OtH3XAPWzDzI5-kdFVmjJxuEllNOMuP-qmuxiMUvJ3PuIMJuv1fyHjgov8iNr9erOh8Ek2VvjbzVKEmynUvz57l7eWsVqOXpV2HOFlOMFXU3PLSGyHqqcNpY-o6YV_m5MvpQcyRKC9qFwf-zmta7Z_EPqGvdBNgqeimdSVBnrEWeTrVY_caedq2xWj64mmDmZx-9raMuZDavZcmJVeVu0uksEqiCs_cfqRCw9oVjpFEhoDF_0000]--></g></svg>