<?xml version="1.0" encoding="us-ascii" standalone="no"?><svg xmlns="http://www.w3.org/2000/svg" xmlns:xlink="http://www.w3.org/1999/xlink" contentStyleType="text/css" height="723px" preserveAspectRatio="none" style="width:422px;height:723px;background:#FFFFFF;" version="1.1" viewBox="0 0 422 723" width="422px" zoomAndPan="magnify"><defs/><g><!--cluster cpt--><g id="cluster_cpt"><path d="M19.5,47.6982 L396.5,47.6982 A12.5,12.5 0 0 1 409,60.1982 L409,99.6045 L7,99.6045 L7,60.1982 A12.5,12.5 0 0 1 19.5,47.6982 " fill="#F2F2F2" style="stroke:#F2F2F2;stroke-width:1.0;"/><rect fill="none" height="645" rx="12.5" ry="12.5" style="stroke:#000000;stroke-width:0.5;" width="402" x="7" y="47.6982"/><line style="stroke:#000000;stroke-width:0.5;" x1="7" x2="409" y1="99.6045" y2="99.6045"/><line style="stroke:#000000;stroke-width:0.5;" x1="7" x2="409" y1="73.6514" y2="73.6514"/><text fill="#000000" font-family="Fira Code" font-size="18" lengthAdjust="spacing" textLength="258" x="79" y="69.4063">create_properties_template()</text><text fill="#000000" font-family="Fira Code" font-size="18" lengthAdjust="spacing" textLength="370" x="12" y="92.8594">- Required arg: path to where to save file</text></g><text fill="#000000" font-family="Fira Code" font-size="18" lengthAdjust="spacing" textLength="29" x="56.5" y="25.4531">arg</text><ellipse cx="71" cy="47.6982" fill="#F2F2F2" rx="6" ry="6" style="stroke:#000000;stroke-width:1.5;"/><g id="cpt.url"><rect fill="#F2F2F2" height="82.8594" rx="12.5" ry="12.5" style="stroke:#000000;stroke-width:0.5;" width="265" x="107.5" y="149.6982"/><line style="stroke:#000000;stroke-width:0.5;" x1="107.5" x2="372.5" y1="180.6514" y2="180.6514"/><text fill="#000000" font-family="Fira Code" font-size="18" lengthAdjust="spacing" textLength="245" x="117.5" y="171.4063">DATA_PACKAGE_SPEC_URL</text><text fill="#000000" font-family="Fira Code" font-size="18" lengthAdjust="spacing" textLength="245" x="112.5" y="202.3594">- Variable of the URL to the</text><text fill="#000000" font-family="Fira Code" font-size="18" lengthAdjust="spacing" textLength="167" x="124.5" y="223.3125">Data Package Spec</text></g><g id="cpt.su"><rect fill="#F2F2F2" height="124.7656" rx="12.5" ry="12.5" style="stroke:#000000;stroke-width:0.5;" width="187" x="126.5" y="310.6982"/><line style="stroke:#000000;stroke-width:0.5;" x1="126.5" x2="313.5" y1="341.6514" y2="341.6514"/><text fill="#000000" font-family="Fira Code" font-size="18" lengthAdjust="spacing" textLength="104" x="168" y="332.4063">scrape_url()</text><text fill="#000000" font-family="Fira Code" font-size="18" lengthAdjust="spacing" textLength="165" x="131.5" y="363.3594">- Required arg: url</text><text fill="#000000" font-family="Fira Code" font-size="18" lengthAdjust="spacing" textLength="131" x="131.5" y="384.3125">- Output: JSON</text><text fill="#000000" font-family="Fira Code" font-size="18" lengthAdjust="spacing" textLength="167" x="131.5" y="405.2656">- Scrapes the JSON</text><text fill="#000000" font-family="Fira Code" font-size="18" lengthAdjust="spacing" textLength="125" x="143.5" y="426.2188">using web API</text></g><g id="cpt.wf"><rect fill="#F2F2F2" height="82.8594" rx="12.5" ry="12.5" style="stroke:#000000;stroke-width:0.5;" width="294" x="48" y="513.6982"/><line style="stroke:#000000;stroke-width:0.5;" x1="48" x2="342" y1="544.6514" y2="544.6514"/><text fill="#000000" font-family="Fira Code" font-size="18" lengthAdjust="spacing" textLength="97" x="146.5" y="535.4063">write_file()</text><text fill="#000000" font-family="Fira Code" font-size="18" lengthAdjust="spacing" textLength="274" x="53" y="566.3594">- Required arg: string and path</text><text fill="#000000" font-family="Fira Code" font-size="18" lengthAdjust="spacing" textLength="125" x="53" y="587.3125">- Output: path</text></g><text fill="#000000" font-family="Fira Code" font-size="18" lengthAdjust="spacing" textLength="56" x="166.5" y="715.4063">return</text><ellipse cx="194.5" cy="692.6982" fill="#F2F2F2" rx="6" ry="6" style="stroke:#000000;stroke-width:1.5;"/><line style="stroke:#000000;stroke-width:1.5;" x1="198.8891" x2="191.1109" y1="697.0873" y2="689.3092"/><line style="stroke:#000000;stroke-width:1.5;" x1="198.8891" x2="191.1109" y1="689.3092" y2="697.0873"/><!--link url to su--><g id="link_url_su"><path d="M235.46,233.0382 C232.91,255.9682 230.3531,279.065 227.5031,304.695 " fill="none" id="url-to-su" style="stroke:#000000;stroke-width:1.0;"/><polygon fill="#000000" points="226.84,310.6582,231.8101,302.1554,227.3926,305.6889,223.8592,301.2713,226.84,310.6582" style="stroke:#000000;stroke-width:1.0;"/><text fill="#000000" font-family="sans-serif" font-size="14" lengthAdjust="spacing" textLength="39" x="232" y="276.6934">string</text></g><!--link arg to wf--><g id="link_arg_wf"><path d="M70.51,53.9482 C67.49,88.6882 53.17,288.6382 109,435.6982 C119.83,464.2182 135.5824,487.4094 153.3224,508.9194 " fill="none" id="arg-to-wf" style="stroke:#000000;stroke-width:1.0;"/><polygon fill="#000000" points="157.14,513.5482,154.4996,504.0599,153.9587,509.6909,148.3278,509.15,157.14,513.5482" style="stroke:#000000;stroke-width:1.0;"/><text fill="#000000" font-family="sans-serif" font-size="14" lengthAdjust="spacing" textLength="78" x="74" y="276.6934">path object</text></g><!--link su to wf--><g id="link_su_wf"><path d="M211.43,435.8882 C207.87,461.5382 204.6553,484.6553 201.4753,507.5553 " fill="none" id="su-to-wf" style="stroke:#000000;stroke-width:1.0;"/><polygon fill="#000000" points="200.65,513.4982,205.8499,505.134,201.3377,508.5458,197.9259,504.0336,200.65,513.4982" style="stroke:#000000;stroke-width:1.0;"/><text fill="#000000" font-family="sans-serif" font-size="14" lengthAdjust="spacing" textLength="80" x="207" y="479.6934">JSON object</text></g><!--link wf to return--><g id="link_wf_return"><path d="M195,596.8482 C195,629.2782 195,665.6282 195,680.3682 " fill="none" id="wf-to-return" style="stroke:#000000;stroke-width:1.0;"/><polygon fill="#000000" points="195,686.3682,199,677.3682,195,681.3682,191,677.3682,195,686.3682" style="stroke:#000000;stroke-width:1.0;"/><text fill="#000000" font-family="sans-serif" font-size="14" lengthAdjust="spacing" textLength="78" x="196" y="640.6934">path object</text></g><!--SRC=[RL5DJm913BtlhwYSz03S2I7P835-H3QiUZBP34DXH_TZx7HSZV6_sraM5XDERVfU-rxR2ywnH7286wqSmfRg4d9cwoRZCQbcj3ES-xLtIBgk62iUwReS7_X3I_KRQkuBxRnngKmLHOuL8mmqeSHCg1Q93RgCiRI5r2wl1g0SQClm4q4R9p245NvuGxW1HRi9MCKvS0rDZeGXSUfJZ9e28-dPQmWHfbDnHzz9RIgUpNfiS1q_nLaIp-_ZcqMM9ejvzhnwQ8Kz5I2y48BkYoAZrWL2lGNP0uGMz2HzhG2k5Ij8b7vNEuJKeZwHS9gKnKm6TIiv7q1_PXtXzD3Ii_KyWRjq-TXNqtQQQpq49AXxPweTDBY6EBdjF0-7itsBOnBqn4z3HYuURjJvQRO2DjipVlQzeAfDU-cUTl3MLSE9Ws2BjZ-fr-7rUzj79FWz84S_XEof2X_wCdpo8Ea8ZHtyV-nlz0S0]--></g></svg>