<?xml version="1.0" encoding="us-ascii" standalone="no"?><svg xmlns="http://www.w3.org/2000/svg" xmlns:xlink="http://www.w3.org/1999/xlink" contentStyleType="text/css" height="1713px" preserveAspectRatio="none" style="width:630px;height:1713px;background:#FFFFFF;" version="1.1" viewBox="0 0 630 1713" width="630px" zoomAndPan="magnify"><defs/><g><!--cluster input--><g id="cluster_input"><path d="M47.5,7 L589.5,7 A12.5,12.5 0 0 1 602,19.5 L602,58.9063 L35,58.9063 L35,19.5 A12.5,12.5 0 0 1 47.5,7 " fill="#F2F2F2" style="stroke:#F2F2F2;stroke-width:1.0;"/><rect fill="none" height="164" rx="12.5" ry="12.5" style="stroke:#000000;stroke-width:0.5;" width="567" x="35" y="7"/><line style="stroke:#000000;stroke-width:0.5;" x1="35" x2="602" y1="58.9063" y2="58.9063"/><line style="stroke:#000000;stroke-width:0.5;" x1="35" x2="602" y1="32.9531" y2="32.9531"/><text fill="#000000" font-family="Fira Code" font-size="18" lengthAdjust="spacing" textLength="46" x="85.5" y="27.708">Input</text><text fill="#000000" font-family="Fira Code" font-size="18" lengthAdjust="spacing" textLength="466" x="40" y="52.1611">- `path_*()` functions assist with giving correct paths</text></g><!--cluster crp--><g id="cluster_crp"><path d="M19.5,236 L604.5,236 A12.5,12.5 0 0 1 617,248.5 L617,329.8125 L7,329.8125 L7,248.5 A12.5,12.5 0 0 1 19.5,236 " fill="#F2F2F2" style="stroke:#F2F2F2;stroke-width:1.0;"/><rect fill="none" height="1215" rx="12.5" ry="12.5" style="stroke:#000000;stroke-width:0.5;" width="610" x="7" y="236"/><line style="stroke:#000000;stroke-width:0.5;" x1="7" x2="617" y1="329.8125" y2="329.8125"/><line style="stroke:#000000;stroke-width:0.5;" x1="7" x2="617" y1="261.9531" y2="261.9531"/><text fill="#000000" font-family="Fira Code" font-size="18" lengthAdjust="spacing" textLength="256" x="184" y="257.708">create_resource_properties()</text><text fill="#000000" font-family="Fira Code" font-size="18" lengthAdjust="spacing" textLength="180" x="12" y="281.1611">- Required arg: path</text><text fill="#000000" font-family="Fira Code" font-size="18" lengthAdjust="spacing" textLength="436" x="12" y="302.1143">- Conditional args: data_path or properties object</text><text fill="#000000" font-family="Fira Code" font-size="18" lengthAdjust="spacing" textLength="499" x="12" y="323.0674">- Either data_path or properties must be given, not both</text></g><g id="input.path"><rect fill="#F2F2F2" height="82.8594" rx="12.5" ry="12.5" style="stroke:#000000;stroke-width:0.5;" width="167" x="50.5" y="72"/><line style="stroke:#000000;stroke-width:0.5;" x1="50.5" x2="217.5" y1="102.9531" y2="102.9531"/><text fill="#000000" font-family="Fira Code" font-size="18" lengthAdjust="spacing" textLength="39" x="114.5" y="93.708">path</text><text fill="#000000" font-family="Fira Code" font-size="18" lengthAdjust="spacing" textLength="146" x="55.5" y="124.6611">- Path to specific</text><text fill="#000000" font-family="Fira Code" font-size="18" lengthAdjust="spacing" textLength="135" x="67.5" y="145.6143">resource folder</text></g><g id="input.data_path"><rect fill="#F2F2F2" height="82.8594" rx="12.5" ry="12.5" style="stroke:#000000;stroke-width:0.5;" width="174" x="253" y="72"/><line style="stroke:#000000;stroke-width:0.5;" x1="253" x2="427" y1="102.9531" y2="102.9531"/><text fill="#000000" font-family="Fira Code" font-size="18" lengthAdjust="spacing" textLength="86" x="297" y="93.708">data_path</text><text fill="#000000" font-family="Fira Code" font-size="18" lengthAdjust="spacing" textLength="154" x="258" y="124.6611">- Path to file with</text><text fill="#000000" font-family="Fira Code" font-size="18" lengthAdjust="spacing" textLength="78" x="270" y="145.6143">data in it</text></g><g id="input.properties"><rect fill="#F2F2F2" height="82.8594" rx="12.5" ry="12.5" style="stroke:#000000;stroke-width:0.5;" width="123" x="462.5" y="72"/><line style="stroke:#000000;stroke-width:0.5;" x1="462.5" x2="585.5" y1="102.9531" y2="102.9531"/><text fill="#000000" font-family="Fira Code" font-size="18" lengthAdjust="spacing" textLength="91" x="478.5" y="93.708">properties</text><text fill="#000000" font-family="Fira Code" font-size="18" lengthAdjust="spacing" textLength="81" x="467.5" y="124.6611">- JSON of</text><text fill="#000000" font-family="Fira Code" font-size="18" lengthAdjust="spacing" textLength="91" x="479.5" y="145.6143">properties</text></g><text fill="#000000" font-family="Fira Code" font-size="18" lengthAdjust="spacing" textLength="77" x="95.5" y="213.7549">arg_path</text><ellipse cx="134" cy="236" fill="#F2F2F2" rx="6" ry="6" style="stroke:#000000;stroke-width:1.5;"/><text fill="#000000" font-family="Fira Code" font-size="18" lengthAdjust="spacing" textLength="124" x="295" y="213.7549">arg_data_path</text><ellipse cx="357" cy="236" fill="#F2F2F2" rx="6" ry="6" style="stroke:#000000;stroke-width:1.5;"/><text fill="#000000" font-family="Fira Code" font-size="18" lengthAdjust="spacing" textLength="129" x="453" y="213.7549">arg_properties</text><ellipse cx="517.5" cy="236" fill="#F2F2F2" rx="6" ry="6" style="stroke:#000000;stroke-width:1.5;"/><g id="crp.vid"><rect fill="#F2F2F2" height="82.8594" rx="12.5" ry="12.5" style="stroke:#000000;stroke-width:0.5;" width="222" x="23" y="947"/><line style="stroke:#000000;stroke-width:0.5;" x1="23" x2="245" y1="977.9531" y2="977.9531"/><text fill="#000000" font-family="Fira Code" font-size="18" lengthAdjust="spacing" textLength="121" x="73.5" y="968.708">verify_is_dir()</text><text fill="#000000" font-family="Fira Code" font-size="18" lengthAdjust="spacing" textLength="180" x="28" y="999.6611">- Required arg: path</text><text fill="#000000" font-family="Fira Code" font-size="18" lengthAdjust="spacing" textLength="202" x="28" y="1020.6143">- Output: path or Error</text></g><g id="crp.crrdp"><rect fill="#F2F2F2" height="103.8125" rx="12.5" ry="12.5" style="stroke:#000000;stroke-width:0.5;" width="379" x="22.5" y="1091"/><line style="stroke:#000000;stroke-width:0.5;" x1="22.5" x2="401.5" y1="1121.9531" y2="1121.9531"/><text fill="#000000" font-family="Fira Code" font-size="18" lengthAdjust="spacing" textLength="328" x="48" y="1112.708">create_relative_resource_data_path()</text><text fill="#000000" font-family="Fira Code" font-size="18" lengthAdjust="spacing" textLength="359" x="27.5" y="1143.6611">- Required arg: absolute path from input</text><text fill="#000000" font-family="Fira Code" font-size="18" lengthAdjust="spacing" textLength="199" x="27.5" y="1164.6143">- Output: relative path</text><text fill="#000000" font-family="Fira Code" font-size="18" lengthAdjust="spacing" textLength="293" x="39.5" y="1185.5674">(e.g. `resources/1/data.parquet`)</text></g><g id="elem_condition_input"><polygon fill="#F1F1F1" points="426,454,438,466,426,478,414,466,426,454" style="stroke:#181818;stroke-width:0.5;"/></g><g id="crp.vrp"><rect fill="#F2F2F2" height="103.8125" rx="12.5" ry="12.5" style="stroke:#000000;stroke-width:0.5;" width="272" x="147" y="669"/><line style="stroke:#000000;stroke-width:0.5;" x1="147" x2="419" y1="699.9531" y2="699.9531"/><text fill="#000000" font-family="Fira Code" font-size="18" lengthAdjust="spacing" textLength="252" x="157" y="690.708">verify_resource_properties()</text><text fill="#000000" font-family="Fira Code" font-size="18" lengthAdjust="spacing" textLength="232" x="152" y="721.6611">- Required arg: properties</text><text fill="#000000" font-family="Fira Code" font-size="18" lengthAdjust="spacing" textLength="208" x="152" y="742.6143">- Output: JSON or Error</text><text fill="#000000" font-family="Fira Code" font-size="18" lengthAdjust="spacing" textLength="188" x="152" y="763.5674">- Checks against spec</text></g><g id="crp.vif"><rect fill="#F2F2F2" height="82.8594" rx="12.5" ry="12.5" style="stroke:#000000;stroke-width:0.5;" width="222" x="343" y="556"/><line style="stroke:#000000;stroke-width:0.5;" x1="343" x2="565" y1="586.9531" y2="586.9531"/><text fill="#000000" font-family="Fira Code" font-size="18" lengthAdjust="spacing" textLength="124" x="392" y="577.708">verify_is_file()</text><text fill="#000000" font-family="Fira Code" font-size="18" lengthAdjust="spacing" textLength="180" x="348" y="608.6611">- Required arg: path</text><text fill="#000000" font-family="Fira Code" font-size="18" lengthAdjust="spacing" textLength="202" x="348" y="629.6143">- Output: path or Error</text></g><g id="crp.vsf"><rect fill="#F2F2F2" height="82.8594" rx="12.5" ry="12.5" style="stroke:#000000;stroke-width:0.5;" width="274" x="319" y="803"/><line style="stroke:#000000;stroke-width:0.5;" x1="319" x2="593" y1="833.9531" y2="833.9531"/><text fill="#000000" font-family="Fira Code" font-size="18" lengthAdjust="spacing" textLength="254" x="329" y="824.708">verify_is_supported_format()</text><text fill="#000000" font-family="Fira Code" font-size="18" lengthAdjust="spacing" textLength="180" x="324" y="855.6611">- Required arg: path</text><text fill="#000000" font-family="Fira Code" font-size="18" lengthAdjust="spacing" textLength="202" x="324" y="876.6143">- Output: path or Error</text></g><g id="crp.erp"><rect fill="#F2F2F2" height="82.8594" rx="12.5" ry="12.5" style="stroke:#000000;stroke-width:0.5;" width="283" x="317.5" y="947"/><line style="stroke:#000000;stroke-width:0.5;" x1="317.5" x2="600.5" y1="977.9531" y2="977.9531"/><text fill="#000000" font-family="Fira Code" font-size="18" lengthAdjust="spacing" textLength="263" x="327.5" y="968.708">extract_resource_properties()</text><text fill="#000000" font-family="Fira Code" font-size="18" lengthAdjust="spacing" textLength="180" x="322.5" y="999.6611">- Required arg: path</text><text fill="#000000" font-family="Fira Code" font-size="18" lengthAdjust="spacing" textLength="131" x="322.5" y="1020.6143">- Output: JSON</text></g><g id="elem_condition_output"><polygon fill="#F1F1F1" points="448,1131,460,1143,448,1155,436,1143,448,1131" style="stroke:#181818;stroke-width:0.5;"/></g><g id="crp.erpf"><rect fill="#F2F2F2" height="82.8594" rx="12.5" ry="12.5" style="stroke:#000000;stroke-width:0.5;" width="370" x="144" y="1289"/><line style="stroke:#000000;stroke-width:0.5;" x1="144" x2="514" y1="1319.9531" y2="1319.9531"/><text fill="#000000" font-family="Fira Code" font-size="18" lengthAdjust="spacing" textLength="281" x="188.5" y="1310.708">edit_resource_properties_field()</text><text fill="#000000" font-family="Fira Code" font-size="18" lengthAdjust="spacing" textLength="350" x="149" y="1341.6611">- Required args: properties, field, value</text><text fill="#000000" font-family="Fira Code" font-size="18" lengthAdjust="spacing" textLength="131" x="149" y="1362.6143">- Output: JSON</text></g><text fill="#000000" font-family="Fira Code" font-size="18" lengthAdjust="spacing" textLength="56" x="300.5" y="1473.708">return</text><ellipse cx="328.5" cy="1451" fill="#F2F2F2" rx="6" ry="6" style="stroke:#000000;stroke-width:1.5;"/><line style="stroke:#000000;stroke-width:1.5;" x1="332.8891" x2="325.1109" y1="1455.3891" y2="1447.6109"/><line style="stroke:#000000;stroke-width:1.5;" x1="332.8891" x2="325.1109" y1="1447.6109" y2="1455.3891"/><path d="M148,1530 L510,1530 A12.5,12.5 0 0 1 522.5,1542.5 L522.5,1560.9531 L135.5,1560.9531 L135.5,1542.5 A12.5,12.5 0 0 1 148,1530 " fill="#F2F2F2" style="stroke:#F2F2F2;stroke-width:1.0;"/><rect fill="none" height="177.7188" rx="12.5" ry="12.5" style="stroke:#000000;stroke-width:0.5;" width="387" x="135.5" y="1530"/><line style="stroke:#000000;stroke-width:0.5;" x1="135.5" x2="522.5" y1="1560.9531" y2="1560.9531"/><text fill="#000000" font-family="Fira Code" font-size="18" lengthAdjust="spacing" textLength="61" x="298.5" y="1551.708">Output</text><g id="output.json_output"><rect fill="#F2F2F2" height="124.7656" rx="12.5" ry="12.5" style="stroke:#000000;stroke-width:0.5;" width="366" x="147.5" y="1572.9531"/><line style="stroke:#000000;stroke-width:0.5;" x1="147.5" x2="513.5" y1="1603.9063" y2="1603.9063"/><text fill="#000000" font-family="Fira Code" font-size="18" lengthAdjust="spacing" textLength="45" x="308" y="1594.6611">JSON</text><text fill="#000000" font-family="Fira Code" font-size="18" lengthAdjust="spacing" textLength="346" x="152.5" y="1625.6143">- JSON object of the resource following</text><text fill="#000000" font-family="Fira Code" font-size="18" lengthAdjust="spacing" textLength="199" x="164.5" y="1646.5674">the Data Package spec</text><text fill="#000000" font-family="Fira Code" font-size="18" lengthAdjust="spacing" textLength="341" x="152.5" y="1667.5205">- Use `write_resource_properties()` to</text><text fill="#000000" font-family="Fira Code" font-size="18" lengthAdjust="spacing" textLength="285" x="164.5" y="1688.4736">save back to `datapackage.json`</text></g><!--link path to data_path--><!--link data_path to properties--><!--link path to arg_path--><g id="link_path_arg_path"><path d="M134,155.3 C134,183.15 134,211.23 134,223.92 " fill="none" id="path-to-arg_path" style="stroke:#000000;stroke-width:1.0;"/><polygon fill="#000000" points="134,229.92,138,220.92,134,224.92,130,220.92,134,229.92" style="stroke:#000000;stroke-width:1.0;"/></g><!--link data_path to arg_data_path--><g id="link_data_path_arg_data_path"><path d="M345.76,155.3 C349.69,183.15 353.652,211.2888 355.442,223.9788 " fill="none" id="data_path-to-arg_data_path" style="stroke:#000000;stroke-width:1.0;"/><polygon fill="#000000" points="356.28,229.92,358.9837,220.4495,355.5816,224.969,351.0621,221.5669,356.28,229.92" style="stroke:#000000;stroke-width:1.0;"/></g><!--link properties to arg_properties--><g id="link_properties_arg_properties"><path d="M521.97,155.3 C520.58,183.15 519.1922,211.2376 518.5522,223.9276 " fill="none" id="properties-to-arg_properties" style="stroke:#000000;stroke-width:1.0;"/><polygon fill="#000000" points="518.25,229.92,522.6982,221.1329,518.5018,224.9263,514.7084,220.7299,518.25,229.92" style="stroke:#000000;stroke-width:1.0;"/></g><!--link arg_path to vid--><g id="link_arg_path_vid"><path d="M134,242.3 C134,254.9 134,287.65 134,315 C134,315 134,315 134,845.5 C134,879.64 134,912.41 134,940.8 " fill="none" id="arg_path-to-vid" style="stroke:#000000;stroke-width:1.0;"/><polygon fill="#000000" points="134,946.8,138,937.8,134,941.8,130,937.8,134,946.8" style="stroke:#000000;stroke-width:1.0;"/></g><!--link vid to crrdp--><g id="link_vid_crrdp"><path d="M154.9,1030.37 C164.42,1048.98 173.058,1065.8681 183.138,1085.5781 " fill="none" id="vid-to-crrdp" style="stroke:#000000;stroke-width:1.0;"/><polygon fill="#000000" points="185.87,1090.92,185.3334,1081.0858,183.5934,1086.4684,178.2108,1084.7284,185.87,1090.92" style="stroke:#000000;stroke-width:1.0;"/></g><!--link arg_properties to condition_input--><g id="link_arg_properties_condition_input"><path d="M515.91,242.19 C503.92,271.89 446.3256,414.6361 431.5456,451.2561 " fill="none" id="arg_properties-to-condition_input" style="stroke:#000000;stroke-width:1.0;"/><polygon fill="#000000" points="429.3,456.82,436.3777,449.9712,431.1714,452.1834,428.9592,446.977,429.3,456.82" style="stroke:#000000;stroke-width:1.0;"/></g><!--link condition_input to vrp--><g id="link_condition_input_vrp"><path d="M419.76,472.01 C416.91,474.1 413.42,476.4 410,478 C364.86,499.07 333.89,469.73 302,508 C282.37,531.56 280.1115,607.7108 281.0115,662.5508 " fill="none" id="condition_input-to-vrp" style="stroke:#000000;stroke-width:1.0;"/><polygon fill="#000000" points="281.11,668.55,284.9618,659.4856,281.028,663.5507,276.9629,659.6168,281.11,668.55" style="stroke:#000000;stroke-width:1.0;"/><text fill="#000000" font-family="sans-serif" font-size="14" lengthAdjust="spacing" textLength="123" x="303" y="521.9951">If properties given</text></g><!--link arg_data_path to condition_input--><g id="link_arg_data_path_condition_input"><path d="M359.98,242.21 C369.08,258.36 396.69,309.29 410,355 C420.36,390.58 423.7993,428.6721 425.0593,448.4921 " fill="none" id="arg_data_path-to-condition_input" style="stroke:#000000;stroke-width:1.0;"/><polygon fill="#000000" points="425.44,454.48,428.8609,445.2444,425.1228,449.4901,420.8771,445.7519,425.44,454.48" style="stroke:#000000;stroke-width:1.0;"/></g><!--link condition_input to vif--><g id="link_condition_input_vif"><path d="M428.01,476.31 C431.56,492.73 437.8637,521.8452 443.9137,549.8652 " fill="none" id="condition_input-to-vif" style="stroke:#000000;stroke-width:1.0;"/><polygon fill="#000000" points="445.18,555.73,447.1904,546.0885,444.1247,550.8426,439.3706,547.7769,445.18,555.73" style="stroke:#000000;stroke-width:1.0;"/><text fill="#000000" font-family="sans-serif" font-size="14" lengthAdjust="spacing" textLength="120" x="439" y="521.9951">If data_path given</text></g><!--link vif to vsf--><g id="link_vif_vsf"><path d="M454.33,639.23 C454.7,684.54 455.251,751.3202 455.621,796.6702 " fill="none" id="vif-to-vsf" style="stroke:#000000;stroke-width:1.0;"/><polygon fill="#000000" points="455.67,802.67,459.5964,793.6377,455.6292,797.6702,451.5967,793.7029,455.67,802.67" style="stroke:#000000;stroke-width:1.0;"/></g><!--link vsf to erp--><g id="link_vsf_erp"><path d="M456.86,886.19 C457.26,905.2 457.6138,921.7913 458.0138,940.8013 " fill="none" id="vsf-to-erp" style="stroke:#000000;stroke-width:1.0;"/><polygon fill="#000000" points="458.14,946.8,461.9498,937.7178,458.0348,941.8011,453.9516,937.8861,458.14,946.8" style="stroke:#000000;stroke-width:1.0;"/></g><!--link erp to condition_output--><g id="link_erp_condition_output"><path d="M456.05,1030.37 C453.58,1064.6 450.6623,1105.0756 449.1823,1125.5656 " fill="none" id="erp-to-condition_output" style="stroke:#000000;stroke-width:1.0;"/><polygon fill="#000000" points="448.75,1131.55,453.388,1122.8616,449.1102,1126.563,445.4088,1122.2852,448.75,1131.55" style="stroke:#000000;stroke-width:1.0;"/></g><!--link vrp to condition_output--><g id="link_vrp_condition_output"><path d="M279.83,773.14 C276.08,849.56 273.34,988.96 300,1030 C332.38,1079.84 376.07,1049.9 419,1091 C431.95,1103.4 438.6201,1117.26 442.8901,1128.21 " fill="none" id="vrp-to-condition_output" style="stroke:#000000;stroke-width:1.0;"/><polygon fill="#000000" points="445.07,1133.8,445.5269,1123.9617,443.2535,1129.1417,438.0735,1126.8682,445.07,1133.8" style="stroke:#000000;stroke-width:1.0;"/></g><!--link crrdp to erpf--><g id="link_crrdp_erpf"><path d="M244.28,1195.18 C262.88,1224.67 282.7396,1256.1548 300.0996,1283.6848 " fill="none" id="crrdp-to-erpf" style="stroke:#000000;stroke-width:1.0;"/><polygon fill="#000000" points="303.3,1288.76,301.8829,1279.0136,300.633,1284.5307,295.116,1283.2808,303.3,1288.76" style="stroke:#000000;stroke-width:1.0;"/><text fill="#000000" font-family="sans-serif" font-size="14" lengthAdjust="spacing" textLength="99" x="285" y="1238.9951">Update `path`</text><text fill="#000000" font-family="sans-serif" font-size="14" lengthAdjust="spacing" textLength="58" x="305.5" y="1255.292">property</text></g><!--link condition_output to erpf--><g id="link_condition_output_erpf"><path d="M445.02,1152.24 C437.76,1171.74 417.93,1221.89 393,1259 C386.18,1269.15 381.9245,1274.8352 373.6745,1284.1652 " fill="none" id="condition_output-to-erpf" style="stroke:#000000;stroke-width:1.0;"/><polygon fill="#000000" points="369.7,1288.66,378.6583,1284.5675,373.0121,1284.9143,372.6652,1279.2681,369.7,1288.66" style="stroke:#000000;stroke-width:1.0;"/></g><!--link erpf to return--><g id="link_erpf_return"><path d="M329,1372.28 C329,1399.33 329,1426.08 329,1438.7 " fill="none" id="erpf-to-return" style="stroke:#000000;stroke-width:1.0;"/><polygon fill="#000000" points="329,1444.7,333,1435.7,329,1439.7,325,1435.7,329,1444.7" style="stroke:#000000;stroke-width:1.0;"/></g><!--link return to output--><g id="link_return_output"><path d="M329,1457.15 C329,1468.86 329,1492.88 329,1523.86 " fill="none" id="return-to-output" style="stroke:#000000;stroke-width:1.0;"/><polygon fill="#000000" points="329,1529.86,333,1520.86,329,1524.86,325,1520.86,329,1529.86" style="stroke:#000000;stroke-width:1.0;"/></g><!--SRC=[XLPDRzim3BtdLsYzh1kQ1Bi6GO2Xww4xhCM6djR1LcJQKUjOBYKxBOR-zv7obvolvP0e9lduI3un-U0si0LX0H8bBOWKpLPid2ljOZv7kPjbscsgTMK1bIaS56wcp7RU-KzBD4-WtF30uystKXUJYNNIWRYuBShANGXfXUQJ-3iHxMaXfY8kfTj4doy_nIAj2kMqAIpvMcsTs55oaUbQ5vbG1f4o2NQtau_YAsRLblXOCUKNORB5GzxpmHbXIr0wrUgn40B1cWeLLMZo193S4-baT12JwXnyNWvY5w8gj6DuD2MWqs1zmFTVTp-4ITbji7GifhytEacW-BCQqenI1Wv1z7lVixlATKqp_kYxrXevjJSzMLD4ZPsimRU0uPhdGqG5JMRKXTpigA_CdotVkDHxgPvb1hvnHm0VI23n3hM3g0EA1lOyGMSOpyeQn9gmkA4n5rqsm3D6Z8Co5O8yXUOhL5ZwolcJAVo4bqeZ949YjX1jMplZjIaIpGAIETlj8cYumN20JLU2q1kQEE19_sr5Qbm3Qn6AAr4O-cOeTpyJIjV4BPUaINoxDxfmgzN8Fe2VSGgIxddrsfgk-dHZJRM6K741N1ytw6sGL0seqxT8soZHsFQ-rWavqFlfpdV6HgxDOsxT3QBXEzQtXPCptf2n7tqk7NLrq41FlvS09gKV5NqUeIBNrkGLGVf4Ve7vxJ8AwGXswRmpQ_KIPjbCn5rsE_yoPmApKk9B1Ix-r5R91JHC-X9K9xUesMRBfTeOhS1FT6-MFdpiVzZzqzUWHkv0VVmIXDkdS-dgRNR0C93EVhq1zKnxDgD5JT9kB_n-HNvgFk8s3QNahy6ahN8imFyMIHBZ7TjhBFKDJizfB3shiQEaVGoH7iZrd0_esAei3Jf8ejJWLhgEclNKx3bgzZmrfk7f4DIG6LuTIkNEZ1lykE7SpeCZWsuPSKP6E2BKTfcFbCf8uydrloZrALDG31cELK93XZmPwacRJ8VDjA62huGFknArp2i8G_RgR6vsMobxF9G9y_7_9kB7eeLy6-cZhRwB2gf0S1KM5xnoNxKRzh87P__6OIBQWt_MzkBz7m00]--></g></svg>