<?xml version="1.0" encoding="us-ascii" standalone="no"?><svg xmlns="http://www.w3.org/2000/svg" xmlns:xlink="http://www.w3.org/1999/xlink" contentStyleType="text/css" height="1751px" preserveAspectRatio="none" style="width:689px;height:1751px;background:#FFFFFF;" version="1.1" viewBox="0 0 689 1751" width="689px" zoomAndPan="magnify"><defs/><g><!--cluster cps--><g id="cluster_cps"><path d="M19.5,188 L663.5,188 A12.5,12.5 0 0 1 676,200.5 L676,239.9063 L7,239.9063 L7,200.5 A12.5,12.5 0 0 1 19.5,188 " fill="#F2F2F2" style="stroke:#F2F2F2;stroke-width:1.0;"/><rect fill="none" height="1179" rx="12.5" ry="12.5" style="stroke:#000000;stroke-width:0.5;" width="669" x="7" y="188"/><line style="stroke:#000000;stroke-width:0.5;" x1="7" x2="676" y1="239.9063" y2="239.9063"/><line style="stroke:#000000;stroke-width:0.5;" x1="7" x2="676" y1="213.9531" y2="213.9531"/><text fill="#000000" font-family="Fira Code" font-size="18" lengthAdjust="spacing" textLength="240" x="221.5" y="209.708">create_package_structure()</text><text fill="#000000" font-family="Fira Code" font-size="18" lengthAdjust="spacing" textLength="245" x="12" y="233.1611">- Required arguments: path</text></g><text fill="#000000" font-family="Fira Code" font-size="18" lengthAdjust="spacing" textLength="29" x="283.5" y="165.7549">arg</text><ellipse cx="298" cy="188" fill="#F2F2F2" rx="6" ry="6" style="stroke:#000000;stroke-width:1.5;"/><g id="cps.vid"><rect fill="#F2F2F2" height="82.8594" rx="12.5" ry="12.5" style="stroke:#000000;stroke-width:0.5;" width="222" x="187" y="259"/><line style="stroke:#000000;stroke-width:0.5;" x1="187" x2="409" y1="289.9531" y2="289.9531"/><text fill="#000000" font-family="Fira Code" font-size="18" lengthAdjust="spacing" textLength="178" x="209" y="280.708">verify_is_directory()</text><text fill="#000000" font-family="Fira Code" font-size="18" lengthAdjust="spacing" textLength="180" x="192" y="311.6611">- Required arg: path</text><text fill="#000000" font-family="Fira Code" font-size="18" lengthAdjust="spacing" textLength="202" x="192" y="332.6143">- Output: path or Error</text></g><g id="cps.gi"><rect fill="#F2F2F2" height="103.8125" rx="12.5" ry="12.5" style="stroke:#000000;stroke-width:0.5;" width="424" x="86" y="402"/><line style="stroke:#000000;stroke-width:0.5;" x1="86" x2="510" y1="432.9531" y2="432.9531"/><text fill="#000000" font-family="Fira Code" font-size="18" lengthAdjust="spacing" textLength="76" x="260" y="423.708">get_ids()</text><text fill="#000000" font-family="Fira Code" font-size="18" lengthAdjust="spacing" textLength="348" x="91" y="454.6611">- Required arg: path to packages folder</text><text fill="#000000" font-family="Fira Code" font-size="18" lengthAdjust="spacing" textLength="243" x="91" y="475.6143">- Output: list of existing IDs</text><text fill="#000000" font-family="Fira Code" font-size="18" lengthAdjust="spacing" textLength="392" x="103" y="496.5674">(if no existing IDs, an empty list is returned)</text></g><g id="cps.cni"><rect fill="#F2F2F2" height="82.8594" rx="12.5" ry="12.5" style="stroke:#000000;stroke-width:0.5;" width="318" x="139" y="566"/><line style="stroke:#000000;stroke-width:0.5;" x1="139" x2="457" y1="596.9531" y2="596.9531"/><text fill="#000000" font-family="Fira Code" font-size="18" lengthAdjust="spacing" textLength="144" x="226" y="587.708">create_next_id()</text><text fill="#000000" font-family="Fira Code" font-size="18" lengthAdjust="spacing" textLength="298" x="144" y="618.6611">- Required arg: list of existing IDs</text><text fill="#000000" font-family="Fira Code" font-size="18" lengthAdjust="spacing" textLength="106" x="144" y="639.6143">- Output: ID</text></g><g id="cps.cpd"><rect fill="#F2F2F2" height="82.8594" rx="12.5" ry="12.5" style="stroke:#000000;stroke-width:0.5;" width="382" x="107" y="709"/><line style="stroke:#000000;stroke-width:0.5;" x1="107" x2="489" y1="739.9531" y2="739.9531"/><text fill="#000000" font-family="Fira Code" font-size="18" lengthAdjust="spacing" textLength="184" x="206" y="730.708">create_package_dir()</text><text fill="#000000" font-family="Fira Code" font-size="18" lengthAdjust="spacing" textLength="362" x="112" y="761.6611">- Required arg: ID to assign for directory</text><text fill="#000000" font-family="Fira Code" font-size="18" lengthAdjust="spacing" textLength="308" x="112" y="782.6143">- Output: path of created directory</text></g><g id="cps.crd"><rect fill="#F2F2F2" height="82.8594" rx="12.5" ry="12.5" style="stroke:#000000;stroke-width:0.5;" width="328" x="23" y="995"/><line style="stroke:#000000;stroke-width:0.5;" x1="23" x2="351" y1="1025.9531" y2="1025.9531"/><text fill="#000000" font-family="Fira Code" font-size="18" lengthAdjust="spacing" textLength="197" x="88.5" y="1016.708">create_resources_dir()</text><text fill="#000000" font-family="Fira Code" font-size="18" lengthAdjust="spacing" textLength="258" x="28" y="1047.6611">- Required arg: package path</text><text fill="#000000" font-family="Fira Code" font-size="18" lengthAdjust="spacing" textLength="308" x="28" y="1068.6143">- Output: path of created directory</text></g><g id="cps.cpt"><rect fill="#F2F2F2" height="82.8594" rx="12.5" ry="12.5" style="stroke:#000000;stroke-width:0.5;" width="278" x="342" y="852"/><line style="stroke:#000000;stroke-width:0.5;" x1="342" x2="620" y1="882.9531" y2="882.9531"/><text fill="#000000" font-family="Fira Code" font-size="18" lengthAdjust="spacing" textLength="258" x="352" y="873.708">create_properties_template()</text><text fill="#000000" font-family="Fira Code" font-size="18" lengthAdjust="spacing" textLength="258" x="347" y="904.6611">- Required arg: package path</text><text fill="#000000" font-family="Fira Code" font-size="18" lengthAdjust="spacing" textLength="191" x="347" y="925.6143">- Output: JSON object</text></g><g id="cps.wpp"><rect fill="#F2F2F2" height="82.8594" rx="12.5" ry="12.5" style="stroke:#000000;stroke-width:0.5;" width="274" x="386" y="995"/><line style="stroke:#000000;stroke-width:0.5;" x1="386" x2="660" y1="1025.9531" y2="1025.9531"/><text fill="#000000" font-family="Fira Code" font-size="18" lengthAdjust="spacing" textLength="242" x="402" y="1016.708">write_package_properties()</text><text fill="#000000" font-family="Fira Code" font-size="18" lengthAdjust="spacing" textLength="246" x="391" y="1047.6611">- Required arg: JSON object</text><text fill="#000000" font-family="Fira Code" font-size="18" lengthAdjust="spacing" textLength="254" x="391" y="1068.6143">- Output: path of created file</text></g><g id="cps.wpr"><rect fill="#F2F2F2" height="82.8594" rx="12.5" ry="12.5" style="stroke:#000000;stroke-width:0.5;" width="353" x="223.5" y="1138"/><line style="stroke:#000000;stroke-width:0.5;" x1="223.5" x2="576.5" y1="1168.9531" y2="1168.9531"/><text fill="#000000" font-family="Fira Code" font-size="18" lengthAdjust="spacing" textLength="219" x="290.5" y="1159.708">write_package_readme()</text><text fill="#000000" font-family="Fira Code" font-size="18" lengthAdjust="spacing" textLength="333" x="228.5" y="1190.6611">- Required arg: path of properties file</text><text fill="#000000" font-family="Fira Code" font-size="18" lengthAdjust="spacing" textLength="254" x="228.5" y="1211.6143">- Output: path of created file</text></g><rect fill="#555555" height="8" style="stroke:none;stroke-width:1.0;" width="80" x="360" y="1281"/><text fill="#000000" font-family="Fira Code" font-size="18" lengthAdjust="spacing" textLength="56" x="371.5" y="1389.708">return</text><ellipse cx="399.5" cy="1367" fill="#F2F2F2" rx="6" ry="6" style="stroke:#000000;stroke-width:1.5;"/><line style="stroke:#000000;stroke-width:1.5;" x1="403.8891" x2="396.1109" y1="1371.3891" y2="1363.6109"/><line style="stroke:#000000;stroke-width:1.5;" x1="403.8891" x2="396.1109" y1="1363.6109" y2="1371.3891"/><path d="M135.5,7 L460.5,7 A12.5,12.5 0 0 1 473,19.5 L473,37.9531 L123,37.9531 L123,19.5 A12.5,12.5 0 0 1 135.5,7 " fill="#F2F2F2" style="stroke:#F2F2F2;stroke-width:1.0;"/><rect fill="none" height="114.8594" rx="12.5" ry="12.5" style="stroke:#000000;stroke-width:0.5;" width="350" x="123" y="7"/><line style="stroke:#000000;stroke-width:0.5;" x1="123" x2="473" y1="37.9531" y2="37.9531"/><text fill="#000000" font-family="Fira Code" font-size="18" lengthAdjust="spacing" textLength="46" x="275" y="28.708">Input</text><g id="input.path"><rect fill="#F2F2F2" height="61.9063" rx="12.5" ry="12.5" style="stroke:#000000;stroke-width:0.5;" width="329" x="135" y="49.9531"/><line style="stroke:#000000;stroke-width:0.5;" x1="135" x2="464" y1="80.9063" y2="80.9063"/><text fill="#000000" font-family="Fira Code" font-size="18" lengthAdjust="spacing" textLength="39" x="280" y="71.6611">path</text><text fill="#000000" font-family="Fira Code" font-size="18" lengthAdjust="spacing" textLength="309" x="140" y="102.6143">Path to where packages are stored</text></g><path d="M224,1445 L576,1445 A12.5,12.5 0 0 1 588.5,1457.5 L588.5,1501.9063 L211.5,1501.9063 L211.5,1457.5 A12.5,12.5 0 0 1 224,1445 " fill="#F2F2F2" style="stroke:#F2F2F2;stroke-width:1.0;"/><rect fill="none" height="300.9063" rx="12.5" ry="12.5" style="stroke:#000000;stroke-width:0.5;" width="377" x="211.5" y="1445"/><line style="stroke:#000000;stroke-width:0.5;" x1="211.5" x2="588.5" y1="1501.9063" y2="1501.9063"/><line style="stroke:#000000;stroke-width:0.5;" x1="211.5" x2="588.5" y1="1475.9531" y2="1475.9531"/><text fill="#000000" font-family="Fira Code" font-size="18" lengthAdjust="spacing" textLength="61" x="369.5" y="1466.708">Output</text><text fill="#000000" font-family="Fira Code" font-size="18" lengthAdjust="spacing" textLength="352" x="216.5" y="1492.6611">The package parent folder is shown as /</text><g id="output.prop_file"><rect fill="#F2F2F2" height="50" rx="12.5" ry="12.5" style="stroke:#000000;stroke-width:0.5;" width="315" x="223.5" y="1513.9063"/><line style="stroke:#000000;stroke-width:0.5;" x1="223.5" x2="538.5" y1="1544.8594" y2="1544.8594"/><text fill="#000000" font-family="Fira Code" font-size="18" lengthAdjust="spacing" textLength="295" x="233.5" y="1535.6143">/packages/&lt;id&gt;/datapackage.json</text></g><g id="output.readme"><rect fill="#F2F2F2" height="50" rx="12.5" ry="12.5" style="stroke:#000000;stroke-width:0.5;" width="275" x="243.5" y="1599.9063"/><line style="stroke:#000000;stroke-width:0.5;" x1="243.5" x2="518.5" y1="1630.8594" y2="1630.8594"/><text fill="#000000" font-family="Fira Code" font-size="18" lengthAdjust="spacing" textLength="255" x="253.5" y="1621.6143">/packages/&lt;id&gt;/README.md</text></g><g id="output.rfolder"><rect fill="#F2F2F2" height="50" rx="12.5" ry="12.5" style="stroke:#000000;stroke-width:0.5;" width="255" x="253.5" y="1685.9063"/><line style="stroke:#000000;stroke-width:0.5;" x1="253.5" x2="508.5" y1="1716.8594" y2="1716.8594"/><text fill="#000000" font-family="Fira Code" font-size="18" lengthAdjust="spacing" textLength="235" x="263.5" y="1707.6143">/packages/&lt;id&gt;/resources/</text></g><!--link prop_file to readme--><!--link readme to rfolder--><!--link input to arg--><g id="link_input_arg"><path d="M298,122.34 C298,146.55 298,165.59 298,176 " fill="none" id="input-to-arg" style="stroke:#000000;stroke-width:1.0;"/><polygon fill="#000000" points="298,182,302,173,298,177,294,173,298,182" style="stroke:#000000;stroke-width:1.0;"/></g><!--link arg to vid--><g id="link_arg_vid"><path d="M298,194.04 C298,205.43 298,228.14 298,252.73 " fill="none" id="arg-to-vid" style="stroke:#000000;stroke-width:1.0;"/><polygon fill="#000000" points="298,258.73,302,249.73,298,253.73,294,249.73,298,258.73" style="stroke:#000000;stroke-width:1.0;"/></g><!--link vid to gi--><g id="link_vid_gi"><path d="M298,342.1 C298,360.51 298,376.47 298,395.98 " fill="none" id="vid-to-gi" style="stroke:#000000;stroke-width:1.0;"/><polygon fill="#000000" points="298,401.98,302,392.98,298,396.98,294,392.98,298,401.98" style="stroke:#000000;stroke-width:1.0;"/></g><!--link gi to cni--><g id="link_gi_cni"><path d="M298,506.29 C298,525.69 298,541.49 298,559.79 " fill="none" id="gi-to-cni" style="stroke:#000000;stroke-width:1.0;"/><polygon fill="#000000" points="298,565.79,302,556.79,298,560.79,294,556.79,298,565.79" style="stroke:#000000;stroke-width:1.0;"/></g><!--link cni to cpd--><g id="link_cni_cpd"><path d="M298,649.28 C298,667.99 298,684.11 298,702.81 " fill="none" id="cni-to-cpd" style="stroke:#000000;stroke-width:1.0;"/><polygon fill="#000000" points="298,708.81,302,699.81,298,703.81,294,699.81,298,708.81" style="stroke:#000000;stroke-width:1.0;"/></g><!--link cpd to crd--><g id="link_cpd_crd"><path d="M282.1,792.19 C261,846.18 226.1442,935.3417 205.0542,989.3017 " fill="none" id="cpd-to-crd" style="stroke:#000000;stroke-width:1.0;"/><polygon fill="#000000" points="202.87,994.89,209.8718,987.9636,204.6901,990.2331,202.4207,985.0514,202.87,994.89" style="stroke:#000000;stroke-width:1.0;"/></g><!--link cpd to cpt--><g id="link_cpd_cpt"><path d="M350.93,792.28 C375.21,810.99 399.1672,829.448 423.4372,848.148 " fill="none" id="cpd-to-cpt" style="stroke:#000000;stroke-width:1.0;"/><polygon fill="#000000" points="428.19,851.81,423.5021,843.1484,424.2293,848.7583,418.6194,849.4855,428.19,851.81" style="stroke:#000000;stroke-width:1.0;"/></g><!--link cpt to wpp--><g id="link_cpt_wpp"><path d="M493.15,935.28 C498.72,953.99 503.5972,970.3597 509.1672,989.0597 " fill="none" id="cpt-to-wpp" style="stroke:#000000;stroke-width:1.0;"/><polygon fill="#000000" points="510.88,994.81,512.1444,985.0426,509.4527,990.0181,504.4772,987.3264,510.88,994.81" style="stroke:#000000;stroke-width:1.0;"/></g><!--link wpp to wpr--><g id="link_wpp_wpr"><path d="M487.42,1078.28 C471.1,1096.99 455.7538,1114.5883 439.4438,1133.2883 " fill="none" id="wpp-to-wpr" style="stroke:#000000;stroke-width:1.0;"/><polygon fill="#000000" points="435.5,1137.81,444.4302,1133.6566,438.7865,1134.0419,438.4013,1128.3982,435.5,1137.81" style="stroke:#000000;stroke-width:1.0;"/></g><!--link crd to join--><g id="link_crd_join"><path d="M179.47,1078.37 C174.42,1119.05 173.68,1181.03 206,1221 C243.3,1267.12 308.856,1279.4226 353.866,1282.7126 " fill="none" id="crd-to-join" style="stroke:#000000;stroke-width:1.0;"/><polygon fill="#000000" points="359.85,1283.15,351.1655,1278.5045,354.8633,1282.7855,350.5823,1286.4833,359.85,1283.15" style="stroke:#000000;stroke-width:1.0;"/></g><!--link wpp to join--><g id="link_wpp_join"><path d="M559.9,1078.02 C591.03,1117.3 625.83,1177.2 594,1221 C558.92,1269.27 491.9705,1280.9523 446.2005,1283.5323 " fill="none" id="wpp-to-join" style="stroke:#000000;stroke-width:1.0;"/><polygon fill="#000000" points="440.21,1283.87,449.4209,1287.3571,445.2021,1283.5886,448.9706,1279.3698,440.21,1283.87" style="stroke:#000000;stroke-width:1.0;"/></g><!--link wpr to join--><g id="link_wpr_join"><path d="M400,1221.11 C400,1244.67 400,1265.46 400,1274.68 " fill="none" id="wpr-to-join" style="stroke:#000000;stroke-width:1.0;"/><polygon fill="#000000" points="400,1280.68,404,1271.68,400,1275.68,396,1271.68,400,1280.68" style="stroke:#000000;stroke-width:1.0;"/></g><!--link join to return--><g id="link_join_return"><path d="M400,1289.04 C400,1301.03 400,1339.13 400,1354.6 " fill="none" id="join-to-return" style="stroke:#000000;stroke-width:1.0;"/><polygon fill="#000000" points="400,1360.6,404,1351.6,400,1355.6,396,1351.6,400,1360.6" style="stroke:#000000;stroke-width:1.0;"/></g><!--link return to output--><g id="link_return_output"><path d="M400,1373.16 C400,1384.32 400,1406.35 400,1438.85 " fill="none" id="return-to-output" style="stroke:#000000;stroke-width:1.0;"/><polygon fill="#000000" points="400,1444.85,404,1435.85,400,1439.85,396,1435.85,400,1444.85" style="stroke:#000000;stroke-width:1.0;"/></g><!--SRC=[ZLLDRzim3BtdLt2zh0MM-1uK0Ogc1J9WRT7kjWs1QYcssbZoABbfCEo_ZzI7dI09rXniINnwxvcKc4- -Leq2fvGiXLEmGjj0xNthfaM1OZEfjA-xvyufBAtnolX9QPiYuySjsXTL-c4Xy1MDq6OqSg_Qj0950qzUU7LB17U2r6ur2hYsKX640t2sC6tdpq0uq3o2FwFFS8LLrv2WWp7_HW2jy3LCuO5VtiAcLgXeiNmLbN8WQEAyHIL7VtlY-yvdPXk6H0rvE8NlTKz0RoGrMDcrL0ZQWQljnl3EWhOalYBB5PTQpWefl4WhanTdJH2YdBJBbLwhaziURwxctsucZGnuL48sfy6edEsmf6b4HuCZpaSMeWpzgBMKoloQ3NHni1zBcuS4bOJoQfaabyvZL_eErVb5K2jR5pB6xocCuL7zxZIbcBATgZCDPHdrzYa0bvSKmUs3rSRFPXIALHsFPnmUi6Tl2lLgkzHkAOcrfEfja_2RbWIZvu5i4Xo2iSPn6Ip23Q95YhCJbcIgGR9IVgcbIpALfaYbJuZmAUlFLqfT3y-oQ-qys1MeTnfeKy5YxduQW7Ez0cFtbh-0CA2Qrc_ZBit5fsmR9I_I1x5XCZNuJGKowfrzvx8OzatF8yQF-Ta1PzkBUVmK5cIw0yLy9AWo_M6GuIWSgybYpiaIpkdAKAeG-eBkRDclr0gYajp7ckIfbOUU-hkmwmg3Apn-KlBT3YScWpxaeut5OFh3tD3DK-Wr6V5KppMjzJdoORF_W9i4ocw-FjtVWNtcVhghJuI3_WRrJca66qbzqxQ4fUSHzNtwZ3cLYjI_s2ExOE9JBcAVwHrWOCTJLueq1jjP9kF_uuPDHpSiqljveJv3FOTVeTl4rNYpk1UzQp-q8Zu3pC7e7Sf-YhlJmCppI1QQQc3bjVWlGhtq7m00]--></g></svg>