<?xml version="1.0" encoding="us-ascii" standalone="no"?><svg xmlns="http://www.w3.org/2000/svg" xmlns:xlink="http://www.w3.org/1999/xlink" contentStyleType="text/css" height="1403px" preserveAspectRatio="none" style="width:486px;height:1403px;background:#FFFFFF;" version="1.1" viewBox="0 0 486 1403" width="486px" zoomAndPan="magnify"><defs/><g><!--cluster crs--><g id="cluster_crs"><path d="M19.5,256 L396.5,256 A12.5,12.5 0 0 1 409,268.5 L409,307.9063 L7,307.9063 L7,268.5 A12.5,12.5 0 0 1 19.5,256 " fill="#F2F2F2" style="stroke:#F2F2F2;stroke-width:1.0;"/><rect fill="none" height="804" rx="12.5" ry="12.5" style="stroke:#000000;stroke-width:0.5;" width="402" x="7" y="256"/><line style="stroke:#000000;stroke-width:0.5;" x1="7" x2="409" y1="307.9063" y2="307.9063"/><line style="stroke:#000000;stroke-width:0.5;" x1="7" x2="409" y1="281.9531" y2="281.9531"/><text fill="#000000" font-family="Fira Code" font-size="18" lengthAdjust="spacing" textLength="245" x="85.5" y="277.708">create_resource_structure()</text><text fill="#000000" font-family="Fira Code" font-size="18" lengthAdjust="spacing" textLength="237" x="12" y="301.1611">- Required argument: path</text></g><text fill="#000000" font-family="Fira Code" font-size="18" lengthAdjust="spacing" textLength="29" x="193.5" y="233.7549">arg</text><ellipse cx="208" cy="256" fill="#F2F2F2" rx="6" ry="6" style="stroke:#000000;stroke-width:1.5;"/><g id="crs.vid"><rect fill="#F2F2F2" height="82.8594" rx="12.5" ry="12.5" style="stroke:#000000;stroke-width:0.5;" width="209" x="103.5" y="327"/><line style="stroke:#000000;stroke-width:0.5;" x1="103.5" x2="312.5" y1="357.9531" y2="357.9531"/><text fill="#000000" font-family="Fira Code" font-size="18" lengthAdjust="spacing" textLength="178" x="119" y="348.708">verify_is_directory()</text><text fill="#000000" font-family="Fira Code" font-size="18" lengthAdjust="spacing" textLength="167" x="108.5" y="379.6611">Required arg: path</text><text fill="#000000" font-family="Fira Code" font-size="18" lengthAdjust="spacing" textLength="189" x="108.5" y="400.6143">Output: path or Error</text></g><g id="crs.gri"><rect fill="#F2F2F2" height="82.8594" rx="12.5" ry="12.5" style="stroke:#000000;stroke-width:0.5;" width="360" x="28" y="470"/><line style="stroke:#000000;stroke-width:0.5;" x1="28" x2="388" y1="500.9531" y2="500.9531"/><text fill="#000000" font-family="Fira Code" font-size="18" lengthAdjust="spacing" textLength="162" x="127" y="491.708">get_resource_ids()</text><text fill="#000000" font-family="Fira Code" font-size="18" lengthAdjust="spacing" textLength="340" x="33" y="522.6611">Required arg: path to resources folder</text><text fill="#000000" font-family="Fira Code" font-size="18" lengthAdjust="spacing" textLength="322" x="33" y="543.6143">Output: list of existing IDs (or None)</text></g><g id="crs.cri"><rect fill="#F2F2F2" height="82.8594" rx="12.5" ry="12.5" style="stroke:#000000;stroke-width:0.5;" width="305" x="55.5" y="613"/><line style="stroke:#000000;stroke-width:0.5;" x1="55.5" x2="360.5" y1="643.9531" y2="643.9531"/><text fill="#000000" font-family="Fira Code" font-size="18" lengthAdjust="spacing" textLength="181" x="117.5" y="634.708">create_resource_id()</text><text fill="#000000" font-family="Fira Code" font-size="18" lengthAdjust="spacing" textLength="285" x="60.5" y="665.6611">Required arg: list of existing IDs</text><text fill="#000000" font-family="Fira Code" font-size="18" lengthAdjust="spacing" textLength="93" x="60.5" y="686.6143">Output: ID</text></g><g id="crs.crd"><rect fill="#F2F2F2" height="82.8594" rx="12.5" ry="12.5" style="stroke:#000000;stroke-width:0.5;" width="369" x="23.5" y="756"/><line style="stroke:#000000;stroke-width:0.5;" x1="23.5" x2="392.5" y1="786.9531" y2="786.9531"/><text fill="#000000" font-family="Fira Code" font-size="18" lengthAdjust="spacing" textLength="189" x="113.5" y="777.708">create_resource_dir()</text><text fill="#000000" font-family="Fira Code" font-size="18" lengthAdjust="spacing" textLength="349" x="28.5" y="808.6611">Required arg: ID to assign for directory</text><text fill="#000000" font-family="Fira Code" font-size="18" lengthAdjust="spacing" textLength="295" x="28.5" y="829.6143">Output: path of created directory</text></g><g id="crs.crrd"><rect fill="#F2F2F2" height="82.8594" rx="12.5" ry="12.5" style="stroke:#000000;stroke-width:0.5;" width="320" x="33" y="899"/><line style="stroke:#000000;stroke-width:0.5;" x1="33" x2="353" y1="929.9531" y2="929.9531"/><text fill="#000000" font-family="Fira Code" font-size="18" lengthAdjust="spacing" textLength="232" x="77" y="920.708">create_resource_raw_dir()</text><text fill="#000000" font-family="Fira Code" font-size="18" lengthAdjust="spacing" textLength="300" x="38" y="951.6611">Required arg: path to resource ID</text><text fill="#000000" font-family="Fira Code" font-size="18" lengthAdjust="spacing" textLength="295" x="38" y="972.6143">Output: path of created directory</text></g><text fill="#000000" font-family="Fira Code" font-size="18" lengthAdjust="spacing" textLength="56" x="255.5" y="1082.708">return</text><ellipse cx="283.5" cy="1060" fill="#F2F2F2" rx="6" ry="6" style="stroke:#000000;stroke-width:1.5;"/><line style="stroke:#000000;stroke-width:1.5;" x1="287.8891" x2="280.1109" y1="1064.3891" y2="1056.6109"/><line style="stroke:#000000;stroke-width:1.5;" x1="287.8891" x2="280.1109" y1="1056.6109" y2="1064.3891"/><path d="M97.5,7 L318.5,7 A12.5,12.5 0 0 1 331,19.5 L331,84.8594 L85,84.8594 L85,19.5 A12.5,12.5 0 0 1 97.5,7 " fill="#F2F2F2" style="stroke:#F2F2F2;stroke-width:1.0;"/><rect fill="none" height="182.7188" rx="12.5" ry="12.5" style="stroke:#000000;stroke-width:0.5;" width="246" x="85" y="7"/><line style="stroke:#000000;stroke-width:0.5;" x1="85" x2="331" y1="84.8594" y2="84.8594"/><line style="stroke:#000000;stroke-width:0.5;" x1="85" x2="331" y1="37.9531" y2="37.9531"/><text fill="#000000" font-family="Fira Code" font-size="18" lengthAdjust="spacing" textLength="46" x="185" y="28.708">Input</text><text fill="#000000" font-family="Fira Code" font-size="18" lengthAdjust="spacing" textLength="216" x="90" y="54.6611">'path_*()' functions assist</text><text fill="#000000" font-family="Fira Code" font-size="18" lengthAdjust="spacing" textLength="221" x="90" y="75.6143">with giving correct paths</text><g id="input.path"><rect fill="#F2F2F2" height="82.8594" rx="12.5" ry="12.5" style="stroke:#000000;stroke-width:0.5;" width="188" x="97" y="96.8594"/><line style="stroke:#000000;stroke-width:0.5;" x1="97" x2="285" y1="127.8125" y2="127.8125"/><text fill="#000000" font-family="Fira Code" font-size="18" lengthAdjust="spacing" textLength="39" x="171.5" y="118.5674">path</text><text fill="#000000" font-family="Fira Code" font-size="18" lengthAdjust="spacing" textLength="146" x="102" y="149.5205">Path to resource</text><text fill="#000000" font-family="Fira Code" font-size="18" lengthAdjust="spacing" textLength="168" x="102" y="170.4736">folder in a package</text></g><path d="M108,1138 L460,1138 A12.5,12.5 0 0 1 472.5,1150.5 L472.5,1215.8594 L95.5,1215.8594 L95.5,1150.5 A12.5,12.5 0 0 1 108,1138 " fill="#F2F2F2" style="stroke:#F2F2F2;stroke-width:1.0;"/><rect fill="none" height="259.7656" rx="12.5" ry="12.5" style="stroke:#000000;stroke-width:0.5;" width="377" x="95.5" y="1138"/><line style="stroke:#000000;stroke-width:0.5;" x1="95.5" x2="472.5" y1="1215.8594" y2="1215.8594"/><line style="stroke:#000000;stroke-width:0.5;" x1="95.5" x2="472.5" y1="1168.9531" y2="1168.9531"/><text fill="#000000" font-family="Fira Code" font-size="18" lengthAdjust="spacing" textLength="61" x="253.5" y="1159.708">Output</text><text fill="#000000" font-family="Fira Code" font-size="18" lengthAdjust="spacing" textLength="352" x="100.5" y="1185.6611">The package parent folder is shown as /</text><text fill="#000000" font-family="Fira Code" font-size="18" lengthAdjust="spacing" textLength="174" x="100.5" y="1206.6143">Output: list of paths</text><g id="output.folder_id"><rect fill="#F2F2F2" height="61.9063" rx="12.5" ry="12.5" style="stroke:#000000;stroke-width:0.5;" width="307" x="128" y="1227.8594"/><line style="stroke:#000000;stroke-width:0.5;" x1="128" x2="435" y1="1258.8125" y2="1258.8125"/><text fill="#000000" font-family="Fira Code" font-size="18" lengthAdjust="spacing" textLength="149" x="207" y="1249.5674">/resources/&lt;id&gt;/</text><text fill="#000000" font-family="Fira Code" font-size="18" lengthAdjust="spacing" textLength="287" x="133" y="1280.5205">Folder with assigned ID (e.g. '1')</text></g><g id="output.folder_raw"><rect fill="#F2F2F2" height="61.9063" rx="12.5" ry="12.5" style="stroke:#000000;stroke-width:0.5;" width="348" x="107.5" y="1325.8594"/><line style="stroke:#000000;stroke-width:0.5;" x1="107.5" x2="455.5" y1="1356.8125" y2="1356.8125"/><text fill="#000000" font-family="Fira Code" font-size="18" lengthAdjust="spacing" textLength="189" x="187" y="1347.5674">/resources/&lt;id&gt;/raw/</text><text fill="#000000" font-family="Fira Code" font-size="18" lengthAdjust="spacing" textLength="328" x="112.5" y="1378.5205">Raw folder with assigned ID (e.g. '1')</text></g><!--link folder_id to folder_raw--><!--link input to arg--><g id="link_input_arg"><path d="M208,190.4 C208,212.34 208,232.83 208,244.63 " fill="none" id="input-to-arg" style="stroke:#000000;stroke-width:1.0;"/><polygon fill="#000000" points="208,249.69,212,240.69,208,244.69,204,240.69,208,249.69" style="stroke:#000000;stroke-width:1.0;"/></g><!--link arg to vid--><g id="link_arg_vid"><path d="M208,262.04 C208,272.63 208,298.19 208,321.49 " fill="none" id="arg-to-vid" style="stroke:#000000;stroke-width:1.0;"/><polygon fill="#000000" points="208,326.73,212,317.73,208,321.73,204,317.73,208,326.73" style="stroke:#000000;stroke-width:1.0;"/></g><!--link vid to gri--><g id="link_vid_gri"><path d="M208,410.28 C208,427.24 208,447 208,464.47 " fill="none" id="vid-to-gri" style="stroke:#000000;stroke-width:1.0;"/><polygon fill="#000000" points="208,469.81,212,460.81,208,464.81,204,460.81,208,469.81" style="stroke:#000000;stroke-width:1.0;"/></g><!--link gri to cri--><g id="link_gri_cri"><path d="M208,553.28 C208,570.24 208,590 208,607.47 " fill="none" id="gri-to-cri" style="stroke:#000000;stroke-width:1.0;"/><polygon fill="#000000" points="208,612.81,212,603.81,208,607.81,204,603.81,208,612.81" style="stroke:#000000;stroke-width:1.0;"/></g><!--link cri to crd--><g id="link_cri_crd"><path d="M208,696.28 C208,713.24 208,733 208,750.47 " fill="none" id="cri-to-crd" style="stroke:#000000;stroke-width:1.0;"/><polygon fill="#000000" points="208,755.81,212,746.81,208,750.81,204,746.81,208,755.81" style="stroke:#000000;stroke-width:1.0;"/></g><!--link crd to crrd--><g id="link_crd_crrd"><path d="M203.66,839.28 C201.86,856.24 199.76,876 197.9,893.47 " fill="none" id="crd-to-crrd" style="stroke:#000000;stroke-width:1.0;"/><polygon fill="#000000" points="197.33,898.81,202.2591,890.2833,197.8586,893.838,194.304,889.4375,197.33,898.81" style="stroke:#000000;stroke-width:1.0;"/></g><!--link crrd to return--><g id="link_crrd_return"><path d="M224.57,982.27 C243.37,1006.53 265.67,1035.33 276.85,1049.77 " fill="none" id="crrd-to-return" style="stroke:#000000;stroke-width:1.0;"/><polygon fill="#000000" points="279.95,1053.77,277.5964,1044.2065,276.8862,1049.8186,271.2741,1049.1085,279.95,1053.77" style="stroke:#000000;stroke-width:1.0;"/></g><!--link crd to return--><g id="link_crd_return"><path d="M308.89,839.05 C333.56,854.05 356.9,873.75 371,899 C390.71,934.31 388.6,953.58 371,990 C354.9,1023.32 314.03,1045.46 294.59,1054.46 " fill="none" id="crd-to-return" style="stroke:#000000;stroke-width:1.0;"/><polygon fill="#000000" points="289.71,1056.65,299.5588,1056.6185,294.2725,1054.6047,296.2864,1049.3185,289.71,1056.65" style="stroke:#000000;stroke-width:1.0;"/></g><!--link return to output--><g id="link_return_output"><path d="M284,1066.09 C284,1076.72 284,1102.79 284,1132.75 " fill="none" id="return-to-output" style="stroke:#000000;stroke-width:1.0;"/><polygon fill="#000000" points="284,1137.99,288,1128.99,284,1132.99,280,1128.99,284,1137.99" style="stroke:#000000;stroke-width:1.0;"/></g><!--SRC=[ZLHDRzim3BtdLt2z91dW6Bi6GO2YNO5SkgBRRHq2LQ9jhOcKKNBIODX_7oNB7qspTZbOj4Y-z_H4vuElS8lW49KK3g4WkuNA-vsRvpc9mwpKlgeVQuSahV5e_4pQRTxMPpkoFr7wVYFYvLkXpMZadhJP2H9R-Eg5nni6kB8RI_2u4VBfNFfMi9WRJGAkh49620cuM9bTxIz0ED0XWjyZID4SnZlXg_N7oNGCHMsarzOuhdJQ-GTpOFLGwhqs9KXBn58XrBlH62wfhBTy80TP-35ao33YNLYy1K9dQvBuO0gxKKXC2OABv9CeSVIdK_Ubzgqy6yEeBuLp-5PXsyGhCIEqU0vSPGycTER3bWPn3Xi-1DWYIGP8X7chpEKBhPPvf6umrrfnNHSprat35Pq8jfG65QokOOApSWRZJ-FfwD_8F04lqFczX-SNnh_dP_4-nr1Kbdslj59eVYo7mBsZaf3NTIjcxJpLqjU4asbK8yb5ZyCwXmpkyLUjYJb5kjDvjAm_6E_3Oi49EjvPRVnosKrGbYr3Uc327aaNnxLsQwN3n5Ww9jvzT7SVVHro9hesrLvVd2SUzyz4bZWRL0Iw0DFJbUZxashb4bT9ccluUPPhE9_jxNJbf-E3pno4Js1rxM32WcwjmIaalK5H8EiLdTglLUUxZgw_rdIEgYjjzQokayH0AT-aPESxJXM1NdlE0yOkDFF65X1qrzKrlBo90XeQTLBP2b9l2E81VI4ggIBrxlKqnqwb_oT89K53HOJy0PWmnS_QzqCSSKDran-qTnkfC-mr_p3yfVq5]--></g></svg>