<?xml version="1.0" encoding="us-ascii" standalone="no"?><svg xmlns="http://www.w3.org/2000/svg" xmlns:xlink="http://www.w3.org/1999/xlink" contentStyleType="text/css" height="1957px" preserveAspectRatio="none" style="width:728px;height:1957px;background:#FFFFFF;" version="1.1" viewBox="0 0 728 1957" width="728px" zoomAndPan="magnify"><defs/><g><!--cluster cps--><g id="cluster_cps"><path d="M19.5,236 L656.5,236 A12.5,12.5 0 0 1 669,248.5 L669,287.9063 L7,287.9063 L7,248.5 A12.5,12.5 0 0 1 19.5,236 " fill="#F2F2F2" style="stroke:#F2F2F2;stroke-width:1.0;"/><rect fill="none" height="1508" rx="12.5" ry="12.5" style="stroke:#000000;stroke-width:0.5;" width="662" x="7" y="236"/><line style="stroke:#000000;stroke-width:0.5;" x1="7" x2="669" y1="287.9063" y2="287.9063"/><line style="stroke:#000000;stroke-width:0.5;" x1="7" x2="669" y1="261.9531" y2="261.9531"/><text fill="#000000" font-family="Fira Code" font-size="18" lengthAdjust="spacing" textLength="240" x="218" y="257.708">create_package_structure()</text><text fill="#000000" font-family="Fira Code" font-size="18" lengthAdjust="spacing" textLength="180" x="12" y="281.1611">- Required arg: path</text></g><text fill="#000000" font-family="Fira Code" font-size="18" lengthAdjust="spacing" textLength="29" x="324.5" y="213.7549">arg</text><ellipse cx="339" cy="236" fill="#F2F2F2" rx="6" ry="6" style="stroke:#000000;stroke-width:1.5;"/><g id="cps.vid"><rect fill="#F2F2F2" height="82.8594" rx="12.5" ry="12.5" style="stroke:#000000;stroke-width:0.5;" width="222" x="228" y="338"/><line style="stroke:#000000;stroke-width:0.5;" x1="228" x2="450" y1="368.9531" y2="368.9531"/><text fill="#000000" font-family="Fira Code" font-size="18" lengthAdjust="spacing" textLength="178" x="250" y="359.708">verify_is_directory()</text><text fill="#000000" font-family="Fira Code" font-size="18" lengthAdjust="spacing" textLength="180" x="233" y="390.6611">- Required arg: path</text><text fill="#000000" font-family="Fira Code" font-size="18" lengthAdjust="spacing" textLength="202" x="233" y="411.6143">- Output: path or Error</text></g><g id="cps.gi"><rect fill="#F2F2F2" height="103.8125" rx="12.5" ry="12.5" style="stroke:#000000;stroke-width:0.5;" width="263" x="207.5" y="482"/><line style="stroke:#000000;stroke-width:0.5;" x1="207.5" x2="470.5" y1="512.9531" y2="512.9531"/><text fill="#000000" font-family="Fira Code" font-size="18" lengthAdjust="spacing" textLength="76" x="301" y="503.708">get_ids()</text><text fill="#000000" font-family="Fira Code" font-size="18" lengthAdjust="spacing" textLength="180" x="212.5" y="534.6611">- Required arg: path</text><text fill="#000000" font-family="Fira Code" font-size="18" lengthAdjust="spacing" textLength="243" x="212.5" y="555.6143">- Output: list of existing IDs</text><text fill="#000000" font-family="Fira Code" font-size="18" lengthAdjust="spacing" textLength="223" x="224.5" y="576.5674">(otherwise an empty list)</text></g><g id="cps.cni"><rect fill="#F2F2F2" height="82.8594" rx="12.5" ry="12.5" style="stroke:#000000;stroke-width:0.5;" width="318" x="180" y="647"/><line style="stroke:#000000;stroke-width:0.5;" x1="180" x2="498" y1="677.9531" y2="677.9531"/><text fill="#000000" font-family="Fira Code" font-size="18" lengthAdjust="spacing" textLength="144" x="267" y="668.708">create_next_id()</text><text fill="#000000" font-family="Fira Code" font-size="18" lengthAdjust="spacing" textLength="298" x="185" y="699.6611">- Required arg: list of existing IDs</text><text fill="#000000" font-family="Fira Code" font-size="18" lengthAdjust="spacing" textLength="106" x="185" y="720.6143">- Output: ID</text></g><g id="cps.cpp"><rect fill="#F2F2F2" height="82.8594" rx="12.5" ry="12.5" style="stroke:#000000;stroke-width:0.5;" width="465" x="106.5" y="791"/><line style="stroke:#000000;stroke-width:0.5;" x1="106.5" x2="571.5" y1="821.9531" y2="821.9531"/><text fill="#000000" font-family="Fira Code" font-size="18" lengthAdjust="spacing" textLength="199" x="239.5" y="812.708">create_package_path()</text><text fill="#000000" font-family="Fira Code" font-size="18" lengthAdjust="spacing" textLength="445" x="111.5" y="843.6611">- Required arg: path and ID to assign for directory</text><text fill="#000000" font-family="Fira Code" font-size="18" lengthAdjust="spacing" textLength="308" x="111.5" y="864.6143">- Output: path of created directory</text></g><g id="cps.cd"><rect fill="#F2F2F2" height="103.8125" rx="12.5" ry="12.5" style="stroke:#000000;stroke-width:0.5;" width="280" x="23" y="935"/><line style="stroke:#000000;stroke-width:0.5;" x1="23" x2="303" y1="965.9531" y2="965.9531"/><text fill="#000000" font-family="Fira Code" font-size="18" lengthAdjust="spacing" textLength="111" x="107.5" y="956.708">create_dirs()</text><text fill="#000000" font-family="Fira Code" font-size="18" lengthAdjust="spacing" textLength="260" x="28" y="987.6611">- Required arg: A list of paths</text><text fill="#000000" font-family="Fira Code" font-size="18" lengthAdjust="spacing" textLength="205" x="28" y="1008.6143">- Output: A list of paths</text><text fill="#000000" font-family="Fira Code" font-size="18" lengthAdjust="spacing" textLength="190" x="40" y="1029.5674">of created directories</text></g><g id="cps.cpt"><rect fill="#F2F2F2" height="82.8594" rx="12.5" ry="12.5" style="stroke:#000000;stroke-width:0.5;" width="278" x="375" y="945.5"/><line style="stroke:#000000;stroke-width:0.5;" x1="375" x2="653" y1="976.4531" y2="976.4531"/><text fill="#000000" font-family="Fira Code" font-size="18" lengthAdjust="spacing" textLength="258" x="385" y="967.208">create_properties_template()</text><text fill="#000000" font-family="Fira Code" font-size="18" lengthAdjust="spacing" textLength="180" x="380" y="998.1611">- Required arg: path</text><text fill="#000000" font-family="Fira Code" font-size="18" lengthAdjust="spacing" textLength="191" x="380" y="1019.1143">- Output: JSON object</text></g><g id="cps.crt"><rect fill="#F2F2F2" height="82.8594" rx="12.5" ry="12.5" style="stroke:#000000;stroke-width:0.5;" width="266" x="350" y="1182"/><line style="stroke:#000000;stroke-width:0.5;" x1="350" x2="616" y1="1212.9531" y2="1212.9531"/><text fill="#000000" font-family="Fira Code" font-size="18" lengthAdjust="spacing" textLength="192" x="387" y="1203.708">create_readme_text()</text><text fill="#000000" font-family="Fira Code" font-size="18" lengthAdjust="spacing" textLength="246" x="355" y="1234.6611">- Required arg: JSON object</text><text fill="#000000" font-family="Fira Code" font-size="18" lengthAdjust="spacing" textLength="136" x="355" y="1255.6143">- Output: string</text></g><g id="cps.crp"><rect fill="#F2F2F2" height="82.8594" rx="12.5" ry="12.5" style="stroke:#000000;stroke-width:0.5;" width="252" x="26" y="1182"/><line style="stroke:#000000;stroke-width:0.5;" x1="26" x2="278" y1="1212.9531" y2="1212.9531"/><text fill="#000000" font-family="Fira Code" font-size="18" lengthAdjust="spacing" textLength="195" x="54.5" y="1203.708">create_readme_path()</text><text fill="#000000" font-family="Fira Code" font-size="18" lengthAdjust="spacing" textLength="180" x="31" y="1234.6611">- Required arg: path</text><text fill="#000000" font-family="Fira Code" font-size="18" lengthAdjust="spacing" textLength="232" x="31" y="1255.6143">- Output: path to README</text></g><g id="cps.cprop"><rect fill="#F2F2F2" height="82.8594" rx="12.5" ry="12.5" style="stroke:#000000;stroke-width:0.5;" width="266" x="193" y="1069"/><line style="stroke:#000000;stroke-width:0.5;" x1="193" x2="459" y1="1099.9531" y2="1099.9531"/><text fill="#000000" font-family="Fira Code" font-size="18" lengthAdjust="spacing" textLength="218" x="217" y="1090.708">create_properties_path()</text><text fill="#000000" font-family="Fira Code" font-size="18" lengthAdjust="spacing" textLength="180" x="198" y="1121.6611">- Required arg: path</text><text fill="#000000" font-family="Fira Code" font-size="18" lengthAdjust="spacing" textLength="246" x="198" y="1142.6143">- Output: path to properties</text></g><g id="cps.wf"><rect fill="#F2F2F2" height="166.6719" rx="12.5" ry="12.5" style="stroke:#000000;stroke-width:0.5;" width="362" x="217" y="1412"/><line style="stroke:#000000;stroke-width:0.5;" x1="217" x2="579" y1="1442.9531" y2="1442.9531"/><text fill="#000000" font-family="Fira Code" font-size="18" lengthAdjust="spacing" textLength="97" x="349.5" y="1433.708">write_file()</text><text fill="#000000" font-family="Fira Code" font-size="18" lengthAdjust="spacing" textLength="342" x="222" y="1464.6611">- Required args: string (including JSON</text><text fill="#000000" font-family="Fira Code" font-size="18" lengthAdjust="spacing" textLength="180" x="234" y="1485.6143">as a string) and path</text><text fill="#000000" font-family="Fira Code" font-size="18" lengthAdjust="spacing" textLength="254" x="222" y="1506.5674">- Output: path of created file</text><text fill="#000000" font-family="Fira Code" font-size="18" lengthAdjust="spacing" textLength="317" x="222" y="1527.5205">- Only one string and path at a time</text><text fill="#000000" font-family="Fira Code" font-size="18" lengthAdjust="spacing" textLength="320" x="222" y="1548.4736">- Used multiple times for each write</text><text fill="#000000" font-family="Fira Code" font-size="18" lengthAdjust="spacing" textLength="85" x="234" y="1569.4268">operation</text></g><rect fill="#555555" height="8" style="stroke:none;stroke-width:1.0;" width="80" x="443" y="1326"/><rect fill="#555555" height="8" style="stroke:none;stroke-width:1.0;" width="80" x="274" y="1326"/><rect fill="#555555" height="8" style="stroke:none;stroke-width:1.0;" width="80" x="358" y="1657"/><text fill="#000000" font-family="Fira Code" font-size="18" lengthAdjust="spacing" textLength="56" x="369.5" y="1766.708">return</text><ellipse cx="397.5" cy="1744" fill="#F2F2F2" rx="6" ry="6" style="stroke:#000000;stroke-width:1.5;"/><line style="stroke:#000000;stroke-width:1.5;" x1="401.8891" x2="394.1109" y1="1748.3891" y2="1740.6109"/><line style="stroke:#000000;stroke-width:1.5;" x1="401.8891" x2="394.1109" y1="1740.6109" y2="1748.3891"/><path d="M167.5,7 L510.5,7 A12.5,12.5 0 0 1 523,19.5 L523,84.8594 L155,84.8594 L155,19.5 A12.5,12.5 0 0 1 167.5,7 " fill="#F2F2F2" style="stroke:#F2F2F2;stroke-width:1.0;"/><rect fill="none" height="161.7656" rx="12.5" ry="12.5" style="stroke:#000000;stroke-width:0.5;" width="368" x="155" y="7"/><line style="stroke:#000000;stroke-width:0.5;" x1="155" x2="523" y1="84.8594" y2="84.8594"/><line style="stroke:#000000;stroke-width:0.5;" x1="155" x2="523" y1="37.9531" y2="37.9531"/><text fill="#000000" font-family="Fira Code" font-size="18" lengthAdjust="spacing" textLength="46" x="316" y="28.708">Input</text><text fill="#000000" font-family="Fira Code" font-size="18" lengthAdjust="spacing" textLength="294" x="160" y="54.6611">- Use `path_*()` functions to help</text><text fill="#000000" font-family="Fira Code" font-size="18" lengthAdjust="spacing" textLength="178" x="160" y="75.6143">create correct paths</text><g id="input.path"><rect fill="#F2F2F2" height="61.9063" rx="12.5" ry="12.5" style="stroke:#000000;stroke-width:0.5;" width="342" x="167" y="96.8594"/><line style="stroke:#000000;stroke-width:0.5;" x1="167" x2="509" y1="127.8125" y2="127.8125"/><text fill="#000000" font-family="Fira Code" font-size="18" lengthAdjust="spacing" textLength="39" x="318.5" y="118.5674">path</text><text fill="#000000" font-family="Fira Code" font-size="18" lengthAdjust="spacing" textLength="322" x="172" y="149.5205">- Path to where packages are stored</text></g><path d="M93.5,1823 L702.5,1823 A12.5,12.5 0 0 1 715,1835.5 L715,1879.9063 L81,1879.9063 L81,1835.5 A12.5,12.5 0 0 1 93.5,1823 " fill="#F2F2F2" style="stroke:#F2F2F2;stroke-width:1.0;"/><rect fill="none" height="128.9063" rx="12.5" ry="12.5" style="stroke:#000000;stroke-width:0.5;" width="634" x="81" y="1823"/><line style="stroke:#000000;stroke-width:0.5;" x1="81" x2="715" y1="1879.9063" y2="1879.9063"/><line style="stroke:#000000;stroke-width:0.5;" x1="81" x2="715" y1="1853.9531" y2="1853.9531"/><text fill="#000000" font-family="Fira Code" font-size="18" lengthAdjust="spacing" textLength="61" x="367.5" y="1844.708">Output</text><text fill="#000000" font-family="Fira Code" font-size="18" lengthAdjust="spacing" textLength="365" x="86" y="1870.6611">- The package parent folder is shown as /</text><g id="output.properties_file"><rect fill="#F2F2F2" height="50" rx="12.5" ry="12.5" style="stroke:#000000;stroke-width:0.5;" width="315" x="93" y="1891.9063"/><line style="stroke:#000000;stroke-width:0.5;" x1="93" x2="408" y1="1922.8594" y2="1922.8594"/><text fill="#000000" font-family="Fira Code" font-size="18" lengthAdjust="spacing" textLength="295" x="103" y="1913.6143">/packages/&lt;id&gt;/datapackage.json</text></g><g id="output.readme"><rect fill="#F2F2F2" height="50" rx="12.5" ry="12.5" style="stroke:#000000;stroke-width:0.5;" width="275" x="426" y="1891.9063"/><line style="stroke:#000000;stroke-width:0.5;" x1="426" x2="701" y1="1922.8594" y2="1922.8594"/><text fill="#000000" font-family="Fira Code" font-size="18" lengthAdjust="spacing" textLength="255" x="436" y="1913.6143">/packages/&lt;id&gt;/README.md</text></g><!--link input to arg--><g id="link_input_arg"><path d="M339,169.26 C339,191.35 339,212.55 339,224.65 " fill="none" id="input-to-arg" style="stroke:#000000;stroke-width:1.0;"/><polygon fill="#000000" points="339,229.82,343,220.82,339,224.82,335,220.82,339,229.82" style="stroke:#000000;stroke-width:1.0;"/></g><!--link arg to vid--><g id="link_arg_vid"><path d="M339,242.04 C339,256.43 339,298.88 339,332.65 " fill="none" id="arg-to-vid" style="stroke:#000000;stroke-width:1.0;"/><polygon fill="#000000" points="339,337.99,343,328.99,339,332.99,335,328.99,339,337.99" style="stroke:#000000;stroke-width:1.0;"/></g><!--link vid to gi--><g id="link_vid_gi"><path d="M339,421.37 C339,438.38 339,458.42 339,476.79 " fill="none" id="vid-to-gi" style="stroke:#000000;stroke-width:1.0;"/><polygon fill="#000000" points="339,481.92,343,472.92,339,476.92,335,472.92,339,481.92" style="stroke:#000000;stroke-width:1.0;"/></g><!--link gi to cni--><g id="link_gi_cni"><path d="M339,586.2 C339,604.08 339,624.03 339,641.46 " fill="none" id="gi-to-cni" style="stroke:#000000;stroke-width:1.0;"/><polygon fill="#000000" points="339,646.79,343,637.79,339,641.79,335,637.79,339,646.79" style="stroke:#000000;stroke-width:1.0;"/></g><!--link cni to cpp--><g id="link_cni_cpp"><path d="M339,730.19 C339,747.42 339,767.59 339,785.37 " fill="none" id="cni-to-cpp" style="stroke:#000000;stroke-width:1.0;"/><polygon fill="#000000" points="339,790.8,343,781.8,339,785.8,335,781.8,339,790.8" style="stroke:#000000;stroke-width:1.0;"/></g><!--link cpp to cd--><g id="link_cpp_cd"><path d="M291.84,874.37 C271.61,891.89 247.69,912.62 225.98,931.43 " fill="none" id="cpp-to-cd" style="stroke:#000000;stroke-width:1.0;"/><polygon fill="#000000" points="221.95,934.92,231.3689,932.0416,225.7261,931.6426,226.1251,925.9999,221.95,934.92" style="stroke:#000000;stroke-width:1.0;"/></g><!--link cpp to cpt--><g id="link_cpp_cpt"><path d="M385.9,874.37 C409.83,895.22 438.96,920.61 463.4,941.9 " fill="none" id="cpp-to-cpt" style="stroke:#000000;stroke-width:1.0;"/><polygon fill="#000000" points="467.28,945.28,463.1216,936.3521,463.51,941.9956,457.8665,942.384,467.28,945.28" style="stroke:#000000;stroke-width:1.0;"/></g><!--link cpt to crt--><g id="link_cpt_crt"><path d="M508.64,1028.58 C503.19,1069.77 494.77,1133.44 489.08,1176.49 " fill="none" id="cpt-to-crt" style="stroke:#000000;stroke-width:1.0;"/><polygon fill="#000000" points="488.4,1181.63,493.5242,1173.2192,489.043,1176.6715,485.5907,1172.1903,488.4,1181.63" style="stroke:#000000;stroke-width:1.0;"/></g><!--link cd to crp--><g id="link_cd_crp"><path d="M160.6,1039.17 C158.68,1080.19 156,1137.22 154.15,1176.73 " fill="none" id="cd-to-crp" style="stroke:#000000;stroke-width:1.0;"/><polygon fill="#000000" points="153.9,1181.94,158.308,1173.1326,154.129,1176.9452,150.3164,1172.7663,153.9,1181.94" style="stroke:#000000;stroke-width:1.0;"/></g><!--link cpp to cprop--><g id="link_cpp_cprop"><path d="M337.08,874.22 C334.7,924.78 330.65,1010.76 328.16,1063.6 " fill="none" id="cpp-to-cprop" style="stroke:#000000;stroke-width:1.0;"/><polygon fill="#000000" points="327.93,1068.61,332.3619,1059.8147,328.1726,1063.6159,324.3713,1059.4265,327.93,1068.61" style="stroke:#000000;stroke-width:1.0;"/></g><!--link cpt to str_input--><g id="link_cpt_str_input"><path d="M555.86,1028.76 C608.25,1084.85 685.22,1187.66 634,1265 C608.3,1303.8 553.86,1319.15 517.85,1325.17 " fill="none" id="cpt-to-str_input" style="stroke:#000000;stroke-width:1.0;"/><polygon fill="#000000" points="512.68,1325.99,522.1975,1328.5232,517.6176,1325.2028,520.938,1320.623,512.68,1325.99" style="stroke:#000000;stroke-width:1.0;"/></g><!--link crt to str_input--><g id="link_crt_str_input"><path d="M483,1265.2 C483,1285.5 483,1308.25 483,1320.34 " fill="none" id="crt-to-str_input" style="stroke:#000000;stroke-width:1.0;"/><polygon fill="#000000" points="483,1325.63,487,1316.63,483,1320.63,479,1316.63,483,1325.63" style="stroke:#000000;stroke-width:1.0;"/></g><!--link cprop to path_input--><g id="link_cprop_path_input"><path d="M323.76,1152.15 C320.84,1204.97 315.95,1293.63 314.45,1320.82 " fill="none" id="cprop-to-path_input" style="stroke:#000000;stroke-width:1.0;"/><polygon fill="#000000" points="314.17,1325.9,318.6533,1317.1308,314.4418,1320.9074,310.6652,1316.6959,314.17,1325.9" style="stroke:#000000;stroke-width:1.0;"/></g><!--link crp to path_input--><g id="link_crp_path_input"><path d="M215.1,1265.2 C249.2,1287.2 287.77,1312.08 304.93,1323.15 " fill="none" id="crp-to-path_input" style="stroke:#000000;stroke-width:1.0;"/><polygon fill="#000000" points="309.18,1325.89,303.7922,1317.6455,304.9806,1323.1761,299.45,1324.3645,309.18,1325.89" style="stroke:#000000;stroke-width:1.0;"/></g><!--link str_input to wf--><g id="link_str_input_wf"><path d="M481.38,1334.12 C476.32,1343.84 460.2,1374.86 443.46,1407.06 " fill="none" id="str_input-to-wf" style="stroke:#000000;stroke-width:1.0;"/><polygon fill="#000000" points="440.99,1411.82,448.7035,1405.6961,443.3058,1407.3886,441.6133,1401.9909,440.99,1411.82" style="stroke:#000000;stroke-width:1.0;"/><text fill="#000000" font-family="sans-serif" font-size="14" lengthAdjust="spacing" textLength="78" x="465" y="1377.9951">string input</text></g><!--link path_input to wf--><g id="link_path_input_wf"><path d="M315.6,1334.12 C320.6,1343.84 336.53,1374.86 353.08,1407.06 " fill="none" id="path_input-to-wf" style="stroke:#000000;stroke-width:1.0;"/><polygon fill="#000000" points="355.52,1411.82,354.9596,1401.9871,353.2326,1407.3739,347.8458,1405.6469,355.52,1411.82" style="stroke:#000000;stroke-width:1.0;"/><text fill="#000000" font-family="sans-serif" font-size="14" lengthAdjust="spacing" textLength="70" x="339" y="1377.9951">path input</text></g><!--link wf to as_list--><g id="link_wf_as_list"><path d="M398,1579.21 C398,1608.61 398,1637.84 398,1651.7 " fill="none" id="wf-to-as_list" style="stroke:#000000;stroke-width:1.0;"/><polygon fill="#000000" points="398,1656.93,402,1647.93,398,1651.93,394,1647.93,398,1656.93" style="stroke:#000000;stroke-width:1.0;"/><text fill="#000000" font-family="sans-serif" font-size="14" lengthAdjust="spacing" textLength="95" x="399" y="1622.9951">Convert to list</text></g><!--link as_list to return--><g id="link_as_list_return"><path d="M398,1665.08 C398,1676.18 398,1714.51 398,1732.94 " fill="none" id="as_list-to-return" style="stroke:#000000;stroke-width:1.0;"/><polygon fill="#000000" points="398,1737.97,402,1728.97,398,1732.97,394,1728.97,398,1737.97" style="stroke:#000000;stroke-width:1.0;"/></g><!--link return to output--><g id="link_return_output"><path d="M398,1750.04 C398,1761.3 398,1789.74 398,1817.76 " fill="none" id="return-to-output" style="stroke:#000000;stroke-width:1.0;"/><polygon fill="#000000" points="398,1822.98,402,1813.98,398,1817.98,394,1813.98,398,1822.98" style="stroke:#000000;stroke-width:1.0;"/></g><!--SRC=[VLN1Rjim3BtdAxXUbWveV0-20CNQGmTiBRhjLi1JRTbMPqiU9JS9XltxI5codIPk3x5AKdoFZvJqmLMoaM2bp3DX9HHe6gYSQ-qwIL3iLgLoLVVSMOcPqKvgjyfCayJugnRDYypSQF3vaaOelLXO9vo4YplTTku2X0N5A_YxW7wrXYluIQ2_Mk6gzDFoyXSKdSwSCjg2Cr39kdtI6KfEanb4GWAEjOkFS8rbrn0V2rVyHpdP0vppWHUqVrT9b6JEVejIMX3qZtK6PRxuDv2xxrnaP_pIqmjBJlQZ6bBG5maH2bFd4a5Pi9NPQTwRqAQGCOc0oKRbsoGNJWJBwiKQxQ58jbQYKzAcXQhbxER7s-kRhxUh9lUxI8YyaHFolJHfs9DQXrtcEfJBIn-VjTPNmrykvL7-wHILJqgKQo_NOa0c4smsL1qU7epIRhkDNI9zj-mUOozU9QhYa2gRvegROl0G85zLJc7qEmSuEdlbUpCOX5j4W-Hd9Wp9gKR8KhfKvJR0b8eyfPe72Rw8KIlhm1GWzxHGkeIx6_ka0PQ6vXLtYePGQ91Dwmu-zZBmP1w4DT88YckvPpfHPyrqwFSCdtF8a-18yEwc9ys0dEu4CVQOwnlQs_hcjZCoK4av9UQJ8AnLfQR1HHWwDjbxt8e2UipyE5O7TeHwmeu2Osio7e3iNF-l1p7wCpo4HVWt0ToWCsJeq0Jgdav-HglnT3dgQKssGJBdzxhvoOdEIEhBz_jlO9xvbfl2Kg8JtFvy4kRUHJpqc_0Stfl4U0nBPvcc9V3nY3YFE1qAz4E1xJiLufckqv3qbqtVbXwnVLVRer4aioTBt_UqZUwts6FQ8v4vwqXXXueOy8KPO7S5ENV52Q2D-i5IwQpkSbwotZnIj4y4zwK_8e5So3Dt5i8z7QDqVG2ZPSI9UK0uokvKCucb9ow7fgkTQclfVTQVH2co2dnDVjAfVi5F7sqSIgRiQNy9RpOlT2txMxbt-JTpnYTiwa_IYGCbFG-QB_gzSl6UdmpPW1ScyiJc6yZM4JvCr8bnvCukhqKGAqPCIXX2l8WneDVGlp-XeZLyDfgU7yT3mnP-C8AFu_e2oHWgPLl_cDEp-Hy0]--></g></svg>