<?xml version="1.0" encoding="us-ascii" standalone="no"?><svg xmlns="http://www.w3.org/2000/svg" xmlns:xlink="http://www.w3.org/1999/xlink" contentStyleType="text/css" height="1232px" preserveAspectRatio="none" style="width:422px;height:1232px;background:#FFFFFF;" version="1.1" viewBox="0 0 422 1232" width="422px" zoomAndPan="magnify"><defs/><g><!--cluster cpt--><g id="cluster_cpt"><path d="M19.5,47.6982 L396.5,47.6982 A12.5,12.5 0 0 1 409,60.1982 L409,99.6045 L7,99.6045 L7,60.1982 A12.5,12.5 0 0 1 19.5,47.6982 " fill="#F2F2F2" style="stroke:#F2F2F2;stroke-width:1.0;"/><rect fill="none" height="1154" rx="12.5" ry="12.5" style="stroke:#000000;stroke-width:0.5;" width="402" x="7" y="47.6982"/><line style="stroke:#000000;stroke-width:0.5;" x1="7" x2="409" y1="99.6045" y2="99.6045"/><line style="stroke:#000000;stroke-width:0.5;" x1="7" x2="409" y1="73.6514" y2="73.6514"/><text fill="#000000" font-family="Fira Code" font-size="18" lengthAdjust="spacing" textLength="258" x="79" y="69.4063">create_properties_template()</text><text fill="#000000" font-family="Fira Code" font-size="18" lengthAdjust="spacing" textLength="370" x="12" y="92.8594">- Required arg: path to where to save file</text></g><text fill="#000000" font-family="Fira Code" font-size="18" lengthAdjust="spacing" textLength="29" x="35.5" y="25.4531">arg</text><ellipse cx="50" cy="47.6982" fill="#F2F2F2" rx="6" ry="6" style="stroke:#000000;stroke-width:1.5;"/><g id="cpt.url"><rect fill="#F2F2F2" height="82.8594" rx="12.5" ry="12.5" style="stroke:#000000;stroke-width:0.5;" width="265" x="101.5" y="273.6982"/><line style="stroke:#000000;stroke-width:0.5;" x1="101.5" x2="366.5" y1="304.6514" y2="304.6514"/><text fill="#000000" font-family="Fira Code" font-size="18" lengthAdjust="spacing" textLength="245" x="111.5" y="295.4063">DATA_PACKAGE_SPEC_URL</text><text fill="#000000" font-family="Fira Code" font-size="18" lengthAdjust="spacing" textLength="245" x="106.5" y="326.3594">- Variable of the URL to the</text><text fill="#000000" font-family="Fira Code" font-size="18" lengthAdjust="spacing" textLength="167" x="118.5" y="347.3125">Data Package Spec</text></g><g id="cpt.su"><rect fill="#F2F2F2" height="103.8125" rx="12.5" ry="12.5" style="stroke:#000000;stroke-width:0.5;" width="318" x="75" y="434.6982"/><line style="stroke:#000000;stroke-width:0.5;" x1="75" x2="393" y1="465.6514" y2="465.6514"/><text fill="#000000" font-family="Fira Code" font-size="18" lengthAdjust="spacing" textLength="104" x="182" y="456.4063">scrape_url()</text><text fill="#000000" font-family="Fira Code" font-size="18" lengthAdjust="spacing" textLength="165" x="80" y="487.3594">- Required arg: url</text><text fill="#000000" font-family="Fira Code" font-size="18" lengthAdjust="spacing" textLength="131" x="80" y="508.3125">- Output: JSON</text><text fill="#000000" font-family="Fira Code" font-size="18" lengthAdjust="spacing" textLength="298" x="80" y="529.2656">- Scrapes the JSON using web API</text></g><g id="cpt.dpf"><rect fill="#F2F2F2" height="103.8125" rx="12.5" ry="12.5" style="stroke:#000000;stroke-width:0.5;" width="286" x="83" y="616.6982"/><line style="stroke:#000000;stroke-width:0.5;" x1="83" x2="369" y1="647.6514" y2="647.6514"/><text fill="#000000" font-family="Fira Code" font-size="18" lengthAdjust="spacing" textLength="189" x="131.5" y="638.4063">drop_property_field()</text><text fill="#000000" font-family="Fira Code" font-size="18" lengthAdjust="spacing" textLength="226" x="88" y="669.3594">- Required arg: json, field</text><text fill="#000000" font-family="Fira Code" font-size="18" lengthAdjust="spacing" textLength="131" x="88" y="690.3125">- Output: JSON</text><text fill="#000000" font-family="Fira Code" font-size="18" lengthAdjust="spacing" textLength="266" x="88" y="711.2656">- Drop any fields we don't use</text></g><g id="cpt.epf"><rect fill="#F2F2F2" height="145.7188" rx="12.5" ry="12.5" style="stroke:#000000;stroke-width:0.5;" width="202" x="100" y="798.6982"/><line style="stroke:#000000;stroke-width:0.5;" x1="100" x2="302" y1="829.6514" y2="829.6514"/><text fill="#000000" font-family="Fira Code" font-size="18" lengthAdjust="spacing" textLength="182" x="110" y="820.4063">edit_property_field()</text><text fill="#000000" font-family="Fira Code" font-size="18" lengthAdjust="spacing" textLength="182" x="105" y="851.3594">- Required arg: json,</text><text fill="#000000" font-family="Fira Code" font-size="18" lengthAdjust="spacing" textLength="98" x="117" y="872.3125">field, value</text><text fill="#000000" font-family="Fira Code" font-size="18" lengthAdjust="spacing" textLength="131" x="105" y="893.2656">- Output: JSON</text><text fill="#000000" font-family="Fira Code" font-size="18" lengthAdjust="spacing" textLength="177" x="105" y="914.2188">- Edit field values to</text><text fill="#000000" font-family="Fira Code" font-size="18" lengthAdjust="spacing" textLength="138" x="117" y="935.1719">defaults we use</text></g><g id="cpt.wf"><rect fill="#F2F2F2" height="82.8594" rx="12.5" ry="12.5" style="stroke:#000000;stroke-width:0.5;" width="294" x="38" y="1022.6982"/><line style="stroke:#000000;stroke-width:0.5;" x1="38" x2="332" y1="1053.6514" y2="1053.6514"/><text fill="#000000" font-family="Fira Code" font-size="18" lengthAdjust="spacing" textLength="97" x="136.5" y="1044.4063">write_file()</text><text fill="#000000" font-family="Fira Code" font-size="18" lengthAdjust="spacing" textLength="274" x="43" y="1075.3594">- Required arg: string and path</text><text fill="#000000" font-family="Fira Code" font-size="18" lengthAdjust="spacing" textLength="125" x="43" y="1096.3125">- Output: path</text></g><text fill="#000000" font-family="Fira Code" font-size="18" lengthAdjust="spacing" textLength="56" x="156.5" y="1224.4063">return</text><ellipse cx="184.5" cy="1201.6982" fill="#F2F2F2" rx="6" ry="6" style="stroke:#000000;stroke-width:1.5;"/><line style="stroke:#000000;stroke-width:1.5;" x1="188.8891" x2="181.1109" y1="1206.0873" y2="1198.3092"/><line style="stroke:#000000;stroke-width:1.5;" x1="188.8891" x2="181.1109" y1="1198.3092" y2="1206.0873"/><!--link url to su--><g id="link_url_su"><path d="M234,356.7982 C234,380.1082 234,403.5982 234,428.4882 " fill="none" id="url-to-su" style="stroke:#000000;stroke-width:1.0;"/><polygon fill="#000000" points="234,434.4882,238,425.4882,234,429.4882,230,425.4882,234,434.4882" style="stroke:#000000;stroke-width:1.0;"/><text fill="#000000" font-family="sans-serif" font-size="14" lengthAdjust="spacing" textLength="39" x="235" y="400.6934">string</text></g><!--link su to dpf--><g id="link_su_dpf"><path d="M231.73,538.7982 C230.65,563.1182 229.6261,586.1441 228.5461,610.4741 " fill="none" id="su-to-dpf" style="stroke:#000000;stroke-width:1.0;"/><polygon fill="#000000" points="228.28,616.4682,232.6752,607.6545,228.5017,611.4732,224.683,607.2997,228.28,616.4682" style="stroke:#000000;stroke-width:1.0;"/><text fill="#000000" font-family="sans-serif" font-size="14" lengthAdjust="spacing" textLength="80" x="231" y="582.6934">JSON object</text></g><!--link dpf to epf--><g id="link_dpf_epf"><path d="M219.63,720.9382 C216.69,744.5482 213.8885,767.0239 210.6985,792.7439 " fill="none" id="dpf-to-epf" style="stroke:#000000;stroke-width:1.0;"/><polygon fill="#000000" points="209.96,798.6982,215.0373,790.259,210.5754,793.7363,207.0982,789.2743,209.96,798.6982" style="stroke:#000000;stroke-width:1.0;"/><text fill="#000000" font-family="sans-serif" font-size="14" lengthAdjust="spacing" textLength="80" x="216" y="764.6934">JSON object</text></g><!--link arg to wf--><g id="link_arg_wf"><path d="M50,53.8282 C50,64.9382 50,92.0082 50,114.6982 C50,114.6982 50,114.6982 50,316.1982 C50,432.0782 39,460.8182 39,576.6982 C39,576.6982 39,576.6982 39,872.6982 C39,934.1582 82.8825,984.1711 123.9625,1018.8011 " fill="none" id="arg-to-wf" style="stroke:#000000;stroke-width:1.0;"/><polygon fill="#000000" points="128.55,1022.6682,124.2469,1013.8091,124.7271,1019.4456,119.0907,1019.9258,128.55,1022.6682" style="stroke:#000000;stroke-width:1.0;"/><text fill="#000000" font-family="sans-serif" font-size="14" lengthAdjust="spacing" textLength="78" x="49" y="400.6934">path object</text></g><!--link epf to wf--><g id="link_epf_wf"><path d="M194.95,944.7182 C192.74,971.0582 190.8118,993.9493 188.9118,1016.5893 " fill="none" id="epf-to-wf" style="stroke:#000000;stroke-width:1.0;"/><polygon fill="#000000" points="188.41,1022.5682,193.1486,1013.9343,188.8281,1017.5858,185.1767,1013.2653,188.41,1022.5682" style="stroke:#000000;stroke-width:1.0;"/><text fill="#000000" font-family="sans-serif" font-size="14" lengthAdjust="spacing" textLength="80" x="193" y="988.6934">JSON object</text></g><!--link wf to return--><g id="link_wf_return"><path d="M185,1105.8482 C185,1138.2782 185,1174.6282 185,1189.3682 " fill="none" id="wf-to-return" style="stroke:#000000;stroke-width:1.0;"/><polygon fill="#000000" points="185,1195.3682,189,1186.3682,185,1190.3682,181,1186.3682,185,1195.3682" style="stroke:#000000;stroke-width:1.0;"/><text fill="#000000" font-family="sans-serif" font-size="14" lengthAdjust="spacing" textLength="78" x="186" y="1149.6934">path object</text></g><!--SRC=[VP9DRzim38Rl_XLSBjk0fha7HG2Z2OfzO3MQRQS1XcBJiJfRyYIgNZ3ilu-IxDahl5uiWtp9zw74LrHZYs0Hoq9OXChe5cgYpcut6oFwwxEasfsSHLDeHQZekj3jPjIlEwCViQ0f4FfjMY5LabWIXB0g3FAPixH3Gn9jJjXs3SVUl5s1i51q1ByI2ESMrl20FvmqM88mvorqWceW3NsD1lsF5KyCAXjCk2Pwi11kRfZEN38j5UrsKswrJp-dUPRUVaZl3lanEzpcNnu-1cDd6c2TFxplLs6aE3K8kWAU0rZc_VZtcmBO2nAGYUAxE2CSEonc5hOmeiES6mqZMUUJRc4SraofUqUTeosyFzv_cgB7qCq61fy1PwKwGuydIBDt0_1wlOjwIuQpCvYIBtgyxKjUIMpAWQhiAfRnTu7hqMfr1K4zqpm37CDxxWv2NQBUCXgKMhqc9iKuXyUBwZ21FlarcK5YAMaP4WCa_X_IFqOek88dqJYSgP_XZk43cyMIMC5NgtsN4YlX6WhyaTmZUtHy0RqtajVPB-10t7lWVeatlWtVL1dMU9ADe4FKxw-t3Tcmy8DhdE5lQX7883cZ_Fx_b3HR_puM3kb_-_vE_W00]--></g></svg>