<?xml version="1.0" encoding="us-ascii" standalone="no"?><svg xmlns="http://www.w3.org/2000/svg" xmlns:xlink="http://www.w3.org/1999/xlink" contentStyleType="text/css" height="1403px" preserveAspectRatio="none" style="width:646px;height:1403px;background:#FFFFFF;" version="1.1" viewBox="0 0 646 1403" width="646px" zoomAndPan="magnify"><defs/><g><!--cluster crs--><g id="cluster_crs"><path d="M55.5,256 L432.5,256 A12.5,12.5 0 0 1 445,268.5 L445,307.9063 L43,307.9063 L43,268.5 A12.5,12.5 0 0 1 55.5,256 " fill="#F2F2F2" style="stroke:#F2F2F2;stroke-width:1.0;"/><rect fill="none" height="804" rx="12.5" ry="12.5" style="stroke:#000000;stroke-width:0.5;" width="402" x="43" y="256"/><line style="stroke:#000000;stroke-width:0.5;" x1="43" x2="445" y1="307.9063" y2="307.9063"/><line style="stroke:#000000;stroke-width:0.5;" x1="43" x2="445" y1="281.9531" y2="281.9531"/><text fill="#000000" font-family="Fira Code" font-size="18" lengthAdjust="spacing" textLength="245" x="121.5" y="277.708">create_resource_structure()</text><text fill="#000000" font-family="Fira Code" font-size="18" lengthAdjust="spacing" textLength="237" x="48" y="301.1611">- Required argument: path</text></g><text fill="#000000" font-family="Fira Code" font-size="18" lengthAdjust="spacing" textLength="29" x="229.5" y="233.7549">arg</text><ellipse cx="244" cy="256" fill="#F2F2F2" rx="6" ry="6" style="stroke:#000000;stroke-width:1.5;"/><g id="crs.vid"><rect fill="#F2F2F2" height="82.8594" rx="12.5" ry="12.5" style="stroke:#000000;stroke-width:0.5;" width="209" x="139.5" y="327"/><line style="stroke:#000000;stroke-width:0.5;" x1="139.5" x2="348.5" y1="357.9531" y2="357.9531"/><text fill="#000000" font-family="Fira Code" font-size="18" lengthAdjust="spacing" textLength="178" x="155" y="348.708">verify_is_directory()</text><text fill="#000000" font-family="Fira Code" font-size="18" lengthAdjust="spacing" textLength="167" x="144.5" y="379.6611">Required arg: path</text><text fill="#000000" font-family="Fira Code" font-size="18" lengthAdjust="spacing" textLength="189" x="144.5" y="400.6143">Output: path or Error</text></g><g id="crs.gri"><rect fill="#F2F2F2" height="82.8594" rx="12.5" ry="12.5" style="stroke:#000000;stroke-width:0.5;" width="360" x="64" y="470"/><line style="stroke:#000000;stroke-width:0.5;" x1="64" x2="424" y1="500.9531" y2="500.9531"/><text fill="#000000" font-family="Fira Code" font-size="18" lengthAdjust="spacing" textLength="162" x="163" y="491.708">get_resource_ids()</text><text fill="#000000" font-family="Fira Code" font-size="18" lengthAdjust="spacing" textLength="340" x="69" y="522.6611">Required arg: path to resources folder</text><text fill="#000000" font-family="Fira Code" font-size="18" lengthAdjust="spacing" textLength="322" x="69" y="543.6143">Output: list of existing IDs (or None)</text></g><g id="crs.cri"><rect fill="#F2F2F2" height="82.8594" rx="12.5" ry="12.5" style="stroke:#000000;stroke-width:0.5;" width="305" x="91.5" y="613"/><line style="stroke:#000000;stroke-width:0.5;" x1="91.5" x2="396.5" y1="643.9531" y2="643.9531"/><text fill="#000000" font-family="Fira Code" font-size="18" lengthAdjust="spacing" textLength="181" x="153.5" y="634.708">create_resource_id()</text><text fill="#000000" font-family="Fira Code" font-size="18" lengthAdjust="spacing" textLength="285" x="96.5" y="665.6611">Required arg: list of existing IDs</text><text fill="#000000" font-family="Fira Code" font-size="18" lengthAdjust="spacing" textLength="93" x="96.5" y="686.6143">Output: ID</text></g><g id="crs.crd"><rect fill="#F2F2F2" height="82.8594" rx="12.5" ry="12.5" style="stroke:#000000;stroke-width:0.5;" width="369" x="59.5" y="756"/><line style="stroke:#000000;stroke-width:0.5;" x1="59.5" x2="428.5" y1="786.9531" y2="786.9531"/><text fill="#000000" font-family="Fira Code" font-size="18" lengthAdjust="spacing" textLength="189" x="149.5" y="777.708">create_resource_dir()</text><text fill="#000000" font-family="Fira Code" font-size="18" lengthAdjust="spacing" textLength="349" x="64.5" y="808.6611">Required arg: ID to assign for directory</text><text fill="#000000" font-family="Fira Code" font-size="18" lengthAdjust="spacing" textLength="295" x="64.5" y="829.6143">Output: path of created directory</text></g><g id="crs.crrd"><rect fill="#F2F2F2" height="82.8594" rx="12.5" ry="12.5" style="stroke:#000000;stroke-width:0.5;" width="320" x="69" y="899"/><line style="stroke:#000000;stroke-width:0.5;" x1="69" x2="389" y1="929.9531" y2="929.9531"/><text fill="#000000" font-family="Fira Code" font-size="18" lengthAdjust="spacing" textLength="232" x="113" y="920.708">create_resource_raw_dir()</text><text fill="#000000" font-family="Fira Code" font-size="18" lengthAdjust="spacing" textLength="300" x="74" y="951.6611">Required arg: path to resource ID</text><text fill="#000000" font-family="Fira Code" font-size="18" lengthAdjust="spacing" textLength="295" x="74" y="972.6143">Output: path of created directory</text></g><text fill="#000000" font-family="Fira Code" font-size="18" lengthAdjust="spacing" textLength="56" x="291.5" y="1082.708">return</text><ellipse cx="319.5" cy="1060" fill="#F2F2F2" rx="6" ry="6" style="stroke:#000000;stroke-width:1.5;"/><line style="stroke:#000000;stroke-width:1.5;" x1="323.8891" x2="316.1109" y1="1064.3891" y2="1056.6109"/><line style="stroke:#000000;stroke-width:1.5;" x1="323.8891" x2="316.1109" y1="1056.6109" y2="1064.3891"/><path d="M133.5,7 L354.5,7 A12.5,12.5 0 0 1 367,19.5 L367,84.8594 L121,84.8594 L121,19.5 A12.5,12.5 0 0 1 133.5,7 " fill="#F2F2F2" style="stroke:#F2F2F2;stroke-width:1.0;"/><rect fill="none" height="182.7188" rx="12.5" ry="12.5" style="stroke:#000000;stroke-width:0.5;" width="246" x="121" y="7"/><line style="stroke:#000000;stroke-width:0.5;" x1="121" x2="367" y1="84.8594" y2="84.8594"/><line style="stroke:#000000;stroke-width:0.5;" x1="121" x2="367" y1="37.9531" y2="37.9531"/><text fill="#000000" font-family="Fira Code" font-size="18" lengthAdjust="spacing" textLength="46" x="221" y="28.708">Input</text><text fill="#000000" font-family="Fira Code" font-size="18" lengthAdjust="spacing" textLength="216" x="126" y="54.6611">'path_*()' functions assist</text><text fill="#000000" font-family="Fira Code" font-size="18" lengthAdjust="spacing" textLength="221" x="126" y="75.6143">with giving correct paths</text><g id="input.path"><rect fill="#F2F2F2" height="82.8594" rx="12.5" ry="12.5" style="stroke:#000000;stroke-width:0.5;" width="188" x="133" y="96.8594"/><line style="stroke:#000000;stroke-width:0.5;" x1="133" x2="321" y1="127.8125" y2="127.8125"/><text fill="#000000" font-family="Fira Code" font-size="18" lengthAdjust="spacing" textLength="39" x="207.5" y="118.5674">path</text><text fill="#000000" font-family="Fira Code" font-size="18" lengthAdjust="spacing" textLength="154" x="138" y="149.5205">Path to resources</text><text fill="#000000" font-family="Fira Code" font-size="18" lengthAdjust="spacing" textLength="168" x="138" y="170.4736">folder in a package</text></g><path d="M19.5,1138 L620.5,1138 A12.5,12.5 0 0 1 633,1150.5 L633,1215.8594 L7,1215.8594 L7,1150.5 A12.5,12.5 0 0 1 19.5,1138 " fill="#F2F2F2" style="stroke:#F2F2F2;stroke-width:1.0;"/><rect fill="none" height="259.7656" rx="12.5" ry="12.5" style="stroke:#000000;stroke-width:0.5;" width="626" x="7" y="1138"/><line style="stroke:#000000;stroke-width:0.5;" x1="7" x2="633" y1="1215.8594" y2="1215.8594"/><line style="stroke:#000000;stroke-width:0.5;" x1="7" x2="633" y1="1168.9531" y2="1168.9531"/><text fill="#000000" font-family="Fira Code" font-size="18" lengthAdjust="spacing" textLength="61" x="289.5" y="1159.708">Output</text><text fill="#000000" font-family="Fira Code" font-size="18" lengthAdjust="spacing" textLength="352" x="12" y="1185.6611">The package parent folder is shown as /</text><text fill="#000000" font-family="Fira Code" font-size="18" lengthAdjust="spacing" textLength="601" x="12" y="1206.6143">Output: list two paths, the resource path and the resource raw path</text><g id="output.folder_id"><rect fill="#F2F2F2" height="61.9063" rx="12.5" ry="12.5" style="stroke:#000000;stroke-width:0.5;" width="307" x="39.5" y="1227.8594"/><line style="stroke:#000000;stroke-width:0.5;" x1="39.5" x2="346.5" y1="1258.8125" y2="1258.8125"/><text fill="#000000" font-family="Fira Code" font-size="18" lengthAdjust="spacing" textLength="149" x="118.5" y="1249.5674">/resources/&lt;id&gt;/</text><text fill="#000000" font-family="Fira Code" font-size="18" lengthAdjust="spacing" textLength="287" x="44.5" y="1280.5205">Folder with assigned ID (e.g. '1')</text></g><g id="output.folder_raw"><rect fill="#F2F2F2" height="61.9063" rx="12.5" ry="12.5" style="stroke:#000000;stroke-width:0.5;" width="348" x="19" y="1325.8594"/><line style="stroke:#000000;stroke-width:0.5;" x1="19" x2="367" y1="1356.8125" y2="1356.8125"/><text fill="#000000" font-family="Fira Code" font-size="18" lengthAdjust="spacing" textLength="189" x="98.5" y="1347.5674">/resources/&lt;id&gt;/raw/</text><text fill="#000000" font-family="Fira Code" font-size="18" lengthAdjust="spacing" textLength="328" x="24" y="1378.5205">Raw folder with assigned ID (e.g. '1')</text></g><!--link folder_id to folder_raw--><!--link input to arg--><g id="link_input_arg"><path d="M244,190.4 C244,212.34 244,232.83 244,244.63 " fill="none" id="input-to-arg" style="stroke:#000000;stroke-width:1.0;"/><polygon fill="#000000" points="244,249.69,248,240.69,244,244.69,240,240.69,244,249.69" style="stroke:#000000;stroke-width:1.0;"/></g><!--link arg to vid--><g id="link_arg_vid"><path d="M244,262.04 C244,272.63 244,298.19 244,321.49 " fill="none" id="arg-to-vid" style="stroke:#000000;stroke-width:1.0;"/><polygon fill="#000000" points="244,326.73,248,317.73,244,321.73,240,317.73,244,326.73" style="stroke:#000000;stroke-width:1.0;"/></g><!--link vid to gri--><g id="link_vid_gri"><path d="M244,410.28 C244,427.24 244,447 244,464.47 " fill="none" id="vid-to-gri" style="stroke:#000000;stroke-width:1.0;"/><polygon fill="#000000" points="244,469.81,248,460.81,244,464.81,240,460.81,244,469.81" style="stroke:#000000;stroke-width:1.0;"/></g><!--link gri to cri--><g id="link_gri_cri"><path d="M244,553.28 C244,570.24 244,590 244,607.47 " fill="none" id="gri-to-cri" style="stroke:#000000;stroke-width:1.0;"/><polygon fill="#000000" points="244,612.81,248,603.81,244,607.81,240,603.81,244,612.81" style="stroke:#000000;stroke-width:1.0;"/></g><!--link cri to crd--><g id="link_cri_crd"><path d="M244,696.28 C244,713.24 244,733 244,750.47 " fill="none" id="cri-to-crd" style="stroke:#000000;stroke-width:1.0;"/><polygon fill="#000000" points="244,755.81,248,746.81,244,750.81,240,746.81,244,755.81" style="stroke:#000000;stroke-width:1.0;"/></g><!--link crd to crrd--><g id="link_crd_crrd"><path d="M239.66,839.28 C237.86,856.24 235.76,876 233.9,893.47 " fill="none" id="crd-to-crrd" style="stroke:#000000;stroke-width:1.0;"/><polygon fill="#000000" points="233.33,898.81,238.2591,890.2833,233.8586,893.838,230.304,889.4375,233.33,898.81" style="stroke:#000000;stroke-width:1.0;"/></g><!--link crrd to return--><g id="link_crrd_return"><path d="M260.57,982.27 C279.37,1006.53 301.67,1035.33 312.85,1049.77 " fill="none" id="crrd-to-return" style="stroke:#000000;stroke-width:1.0;"/><polygon fill="#000000" points="315.95,1053.77,313.5964,1044.2065,312.8862,1049.8186,307.2741,1049.1085,315.95,1053.77" style="stroke:#000000;stroke-width:1.0;"/></g><!--link crd to return--><g id="link_crd_return"><path d="M344.89,839.05 C369.56,854.05 392.9,873.75 407,899 C426.71,934.31 424.6,953.58 407,990 C390.9,1023.32 350.03,1045.46 330.59,1054.46 " fill="none" id="crd-to-return" style="stroke:#000000;stroke-width:1.0;"/><polygon fill="#000000" points="325.71,1056.65,335.5588,1056.6185,330.2725,1054.6047,332.2864,1049.3185,325.71,1056.65" style="stroke:#000000;stroke-width:1.0;"/></g><!--link return to output--><g id="link_return_output"><path d="M320,1066.09 C320,1076.72 320,1102.79 320,1132.75 " fill="none" id="return-to-output" style="stroke:#000000;stroke-width:1.0;"/><polygon fill="#000000" points="320,1137.99,324,1128.99,320,1132.99,316,1128.99,320,1137.99" style="stroke:#000000;stroke-width:1.0;"/></g><!--SRC=[ZPJ1Rjim38RlUGgkboJ376DNemWmj0kGIrTqkwr3e4gqhJMHCafEMWnxzr6oBJjjrow7I14f_fz-KNddQzmXE4GbXKCeoUwWzdxlYZmdSLnKsjVDNUEGf3KUZLz8kylx_6nFzYTAFop4UlbEQ3EPk7jjzeB43hvwuN751IxirXBSROMyVoby9HXcfKd0XLN85K80pjPct_Wp40vqcC7l2NIp0gPxuUlD-zby2cLZfDVMECvqslbRSsHwgFH1cmga9M9K2FbkCeLFL3KxFf23B7ouP8XmnUimU0k4pZOaqTsQqcuL4ck2u2nvBogS_4buNnhVyzauZO3Tj81lDVQRU2IMXBwU0rVRemaxy_6Mjc81Mpu5-ADjeJy0kvkmMbnXrEagNrgCSBaEBqy7oS-rMkOHj2NOQCLvQSxAgvOi6XTSh0mgM5_231VL0gOVf_F9lokpzabr_ZsK3s05tF1t-RR662hBljTQAJG_bkF2W_-IaCTD3xDndXhf6yBPFD98Sl56mbX01ZVugz74cg9hWQ9rB1sCr-7yd0FqU6srySjbQhWiMuRmo8G3aYuVDzfjb0uDPkcnqpr4Tm_Hrx5cqLzG6-elEzudluxFH9Ou6YY2N2Wpo5NeXvDgvJgjYZJdyFUBMYVjt9cOqa-QpPQ03pm9BsPzwM36G5VMu1mwta0Kn0QYf_PhbNpNqVNdJ2z9fTIUPttP8GP9-QeaEvyqLIpqt7DkC7QXxJUsW21TLzfmUXCbj3BgIMOFf5u1uWOzWUgeIBrvFUsnkzJ_0r8Tq9Y8a1-02LtyeFtGnB5ko6xZe-rfeTiPrjh_8tvfVm40]--></g></svg>