<?xml version="1.0" encoding="us-ascii" standalone="no"?><svg xmlns="http://www.w3.org/2000/svg" xmlns:xlink="http://www.w3.org/1999/xlink" contentStyleType="text/css" height="1733px" preserveAspectRatio="none" style="width:514px;height:1733px;background:#FFFFFF;" version="1.1" viewBox="0 0 514 1733" width="514px" zoomAndPan="magnify"><defs/><g><!--cluster crs--><g id="cluster_crs"><path d="M19.5,256 L440.5,256 A12.5,12.5 0 0 1 453,268.5 L453,307.9063 L7,307.9063 L7,268.5 A12.5,12.5 0 0 1 19.5,256 " fill="#F2F2F2" style="stroke:#F2F2F2;stroke-width:1.0;"/><rect fill="none" height="1113" rx="12.5" ry="12.5" style="stroke:#000000;stroke-width:0.5;" width="446" x="7" y="256"/><line style="stroke:#000000;stroke-width:0.5;" x1="7" x2="453" y1="307.9063" y2="307.9063"/><line style="stroke:#000000;stroke-width:0.5;" x1="7" x2="453" y1="281.9531" y2="281.9531"/><text fill="#000000" font-family="Fira Code" font-size="18" lengthAdjust="spacing" textLength="245" x="107.5" y="277.708">create_resource_structure()</text><text fill="#000000" font-family="Fira Code" font-size="18" lengthAdjust="spacing" textLength="237" x="12" y="301.1611">- Required argument: path</text></g><text fill="#000000" font-family="Fira Code" font-size="18" lengthAdjust="spacing" textLength="29" x="354.5" y="233.7549">arg</text><ellipse cx="369" cy="256" fill="#F2F2F2" rx="6" ry="6" style="stroke:#000000;stroke-width:1.5;"/><g id="crs.vid"><rect fill="#F2F2F2" height="82.8594" rx="12.5" ry="12.5" style="stroke:#000000;stroke-width:0.5;" width="222" x="130" y="388"/><line style="stroke:#000000;stroke-width:0.5;" x1="130" x2="352" y1="418.9531" y2="418.9531"/><text fill="#000000" font-family="Fira Code" font-size="18" lengthAdjust="spacing" textLength="178" x="152" y="409.708">verify_is_directory()</text><text fill="#000000" font-family="Fira Code" font-size="18" lengthAdjust="spacing" textLength="180" x="135" y="440.6611">- Required arg: path</text><text fill="#000000" font-family="Fira Code" font-size="18" lengthAdjust="spacing" textLength="202" x="135" y="461.6143">- Output: path or Error</text></g><g id="crs.gi"><rect fill="#F2F2F2" height="124.7656" rx="12.5" ry="12.5" style="stroke:#000000;stroke-width:0.5;" width="229" x="113.5" y="531"/><line style="stroke:#000000;stroke-width:0.5;" x1="113.5" x2="342.5" y1="561.9531" y2="561.9531"/><text fill="#000000" font-family="Fira Code" font-size="18" lengthAdjust="spacing" textLength="76" x="190" y="552.708">get_ids()</text><text fill="#000000" font-family="Fira Code" font-size="18" lengthAdjust="spacing" textLength="204" x="118.5" y="583.6611">- Required arg: path to</text><text fill="#000000" font-family="Fira Code" font-size="18" lengthAdjust="spacing" textLength="143" x="130.5" y="604.6143">resources folder</text><text fill="#000000" font-family="Fira Code" font-size="18" lengthAdjust="spacing" textLength="209" x="118.5" y="625.5674">- Output: list of existing</text><text fill="#000000" font-family="Fira Code" font-size="18" lengthAdjust="spacing" textLength="196" x="130.5" y="646.5205">IDs (or the empty list)</text></g><g id="crs.cni"><rect fill="#F2F2F2" height="82.8594" rx="12.5" ry="12.5" style="stroke:#000000;stroke-width:0.5;" width="318" x="47" y="716"/><line style="stroke:#000000;stroke-width:0.5;" x1="47" x2="365" y1="746.9531" y2="746.9531"/><text fill="#000000" font-family="Fira Code" font-size="18" lengthAdjust="spacing" textLength="144" x="134" y="737.708">create_next_id()</text><text fill="#000000" font-family="Fira Code" font-size="18" lengthAdjust="spacing" textLength="298" x="52" y="768.6611">- Required arg: list of existing IDs</text><text fill="#000000" font-family="Fira Code" font-size="18" lengthAdjust="spacing" textLength="106" x="52" y="789.6143">- Output: ID</text></g><g id="crs.crp"><rect fill="#F2F2F2" height="103.8125" rx="12.5" ry="12.5" style="stroke:#000000;stroke-width:0.5;" width="414" x="23" y="859"/><line style="stroke:#000000;stroke-width:0.5;" x1="23" x2="437" y1="889.9531" y2="889.9531"/><text fill="#000000" font-family="Fira Code" font-size="18" lengthAdjust="spacing" textLength="204" x="128" y="880.708">create_resource_path()</text><text fill="#000000" font-family="Fira Code" font-size="18" lengthAdjust="spacing" textLength="361" x="28" y="911.6611">- Required args: path to resources folder</text><text fill="#000000" font-family="Fira Code" font-size="18" lengthAdjust="spacing" textLength="230" x="40" y="932.6143">and ID to assign for folder</text><text fill="#000000" font-family="Fira Code" font-size="18" lengthAdjust="spacing" textLength="394" x="28" y="953.5674">- Output: path to directory for new resource</text></g><g id="crs.crrp"><rect fill="#F2F2F2" height="82.8594" rx="12.5" ry="12.5" style="stroke:#000000;stroke-width:0.5;" width="333" x="43.5" y="1023"/><line style="stroke:#000000;stroke-width:0.5;" x1="43.5" x2="376.5" y1="1053.9531" y2="1053.9531"/><text fill="#000000" font-family="Fira Code" font-size="18" lengthAdjust="spacing" textLength="247" x="86.5" y="1044.708">create_resource_raw_path()</text><text fill="#000000" font-family="Fira Code" font-size="18" lengthAdjust="spacing" textLength="313" x="48.5" y="1075.6611">- Required arg: path to resource ID</text><text fill="#000000" font-family="Fira Code" font-size="18" lengthAdjust="spacing" textLength="247" x="48.5" y="1096.6143">- Output: path to raw folder</text></g><g id="crs.cd"><rect fill="#F2F2F2" height="124.7656" rx="12.5" ry="12.5" style="stroke:#000000;stroke-width:0.5;" width="303" x="95.5" y="1166"/><line style="stroke:#000000;stroke-width:0.5;" x1="95.5" x2="398.5" y1="1196.9531" y2="1196.9531"/><text fill="#000000" font-family="Fira Code" font-size="18" lengthAdjust="spacing" textLength="111" x="191.5" y="1187.708">create_dirs()</text><text fill="#000000" font-family="Fira Code" font-size="18" lengthAdjust="spacing" textLength="265" x="100.5" y="1218.6611">- Required arg: list of paths of</text><text fill="#000000" font-family="Fira Code" font-size="18" lengthAdjust="spacing" textLength="180" x="112.5" y="1239.6143">directories to create</text><text fill="#000000" font-family="Fira Code" font-size="18" lengthAdjust="spacing" textLength="283" x="100.5" y="1260.5674">- Output: list of paths of created</text><text fill="#000000" font-family="Fira Code" font-size="18" lengthAdjust="spacing" textLength="94" x="112.5" y="1281.5205">directories</text></g><text fill="#000000" font-family="Fira Code" font-size="18" lengthAdjust="spacing" textLength="56" x="218.5" y="1391.708">return</text><ellipse cx="246.5" cy="1369" fill="#F2F2F2" rx="6" ry="6" style="stroke:#000000;stroke-width:1.5;"/><line style="stroke:#000000;stroke-width:1.5;" x1="250.8891" x2="243.1109" y1="1373.3891" y2="1365.6109"/><line style="stroke:#000000;stroke-width:1.5;" x1="250.8891" x2="243.1109" y1="1365.6109" y2="1373.3891"/><path d="M249.5,7 L488.5,7 A12.5,12.5 0 0 1 501,19.5 L501,84.8594 L237,84.8594 L237,19.5 A12.5,12.5 0 0 1 249.5,7 " fill="#F2F2F2" style="stroke:#F2F2F2;stroke-width:1.0;"/><rect fill="none" height="182.7188" rx="12.5" ry="12.5" style="stroke:#000000;stroke-width:0.5;" width="264" x="237" y="7"/><line style="stroke:#000000;stroke-width:0.5;" x1="237" x2="501" y1="84.8594" y2="84.8594"/><line style="stroke:#000000;stroke-width:0.5;" x1="237" x2="501" y1="37.9531" y2="37.9531"/><text fill="#000000" font-family="Fira Code" font-size="18" lengthAdjust="spacing" textLength="46" x="346" y="28.708">Input</text><text fill="#000000" font-family="Fira Code" font-size="18" lengthAdjust="spacing" textLength="239" x="242" y="54.6611">- `path_*()` functions assist</text><text fill="#000000" font-family="Fira Code" font-size="18" lengthAdjust="spacing" textLength="221" x="254" y="75.6143">with giving correct paths</text><g id="input.path"><rect fill="#F2F2F2" height="82.8594" rx="12.5" ry="12.5" style="stroke:#000000;stroke-width:0.5;" width="200" x="249" y="96.8594"/><line style="stroke:#000000;stroke-width:0.5;" x1="249" x2="449" y1="127.8125" y2="127.8125"/><text fill="#000000" font-family="Fira Code" font-size="18" lengthAdjust="spacing" textLength="39" x="329.5" y="118.5674">path</text><text fill="#000000" font-family="Fira Code" font-size="18" lengthAdjust="spacing" textLength="167" x="254" y="149.5205">- Path to resources</text><text fill="#000000" font-family="Fira Code" font-size="18" lengthAdjust="spacing" textLength="168" x="266" y="170.4736">folder in a package</text></g><path d="M60.5,1447 L433.5,1447 A12.5,12.5 0 0 1 446,1459.5 L446,1545.8125 L48,1545.8125 L48,1459.5 A12.5,12.5 0 0 1 60.5,1447 " fill="#F2F2F2" style="stroke:#F2F2F2;stroke-width:1.0;"/><rect fill="none" height="280.7188" rx="12.5" ry="12.5" style="stroke:#000000;stroke-width:0.5;" width="398" x="48" y="1447"/><line style="stroke:#000000;stroke-width:0.5;" x1="48" x2="446" y1="1545.8125" y2="1545.8125"/><line style="stroke:#000000;stroke-width:0.5;" x1="48" x2="446" y1="1477.9531" y2="1477.9531"/><text fill="#000000" font-family="Fira Code" font-size="18" lengthAdjust="spacing" textLength="61" x="216.5" y="1468.708">Output</text><text fill="#000000" font-family="Fira Code" font-size="18" lengthAdjust="spacing" textLength="365" x="53" y="1494.6611">- The package parent folder is shown as /</text><text fill="#000000" font-family="Fira Code" font-size="18" lengthAdjust="spacing" textLength="373" x="53" y="1515.6143">- Output: list two paths, the resource path</text><text fill="#000000" font-family="Fira Code" font-size="18" lengthAdjust="spacing" textLength="235" x="65" y="1536.5674">and the resource raw path</text><g id="output.folder_id"><rect fill="#F2F2F2" height="61.9063" rx="12.5" ry="12.5" style="stroke:#000000;stroke-width:0.5;" width="307" x="80.5" y="1557.8125"/><line style="stroke:#000000;stroke-width:0.5;" x1="80.5" x2="387.5" y1="1588.7656" y2="1588.7656"/><text fill="#000000" font-family="Fira Code" font-size="18" lengthAdjust="spacing" textLength="149" x="159.5" y="1579.5205">/resources/&lt;id&gt;/</text><text fill="#000000" font-family="Fira Code" font-size="18" lengthAdjust="spacing" textLength="287" x="85.5" y="1610.4736">Folder with assigned ID (e.g. '1')</text></g><g id="output.folder_raw"><rect fill="#F2F2F2" height="61.9063" rx="12.5" ry="12.5" style="stroke:#000000;stroke-width:0.5;" width="348" x="60" y="1655.8125"/><line style="stroke:#000000;stroke-width:0.5;" x1="60" x2="408" y1="1686.7656" y2="1686.7656"/><text fill="#000000" font-family="Fira Code" font-size="18" lengthAdjust="spacing" textLength="189" x="139.5" y="1677.5205">/resources/&lt;id&gt;/raw/</text><text fill="#000000" font-family="Fira Code" font-size="18" lengthAdjust="spacing" textLength="328" x="65" y="1708.4736">Raw folder with assigned ID (e.g. '1')</text></g><!--link folder_id to folder_raw--><!--link input to arg--><g id="link_input_arg"><path d="M369,190.4 C369,212.34 369,232.83 369,244.63 " fill="none" id="input-to-arg" style="stroke:#000000;stroke-width:1.0;"/><polygon fill="#000000" points="369,249.69,373,240.69,369,244.69,365,240.69,369,249.69" style="stroke:#000000;stroke-width:1.0;"/></g><!--link arg to vid--><g id="link_arg_vid"><path d="M365.03,262.32 C351.5,280.45 306.27,341.05 274.35,383.82 " fill="none" id="arg-to-vid" style="stroke:#000000;stroke-width:1.0;"/><polygon fill="#000000" points="271.31,387.9,279.9018,383.0853,274.3032,383.8949,273.4936,378.2963,271.31,387.9" style="stroke:#000000;stroke-width:1.0;"/></g><!--link vid to gi--><g id="link_vid_gi"><path d="M237.72,471.38 C236.4,487.83 234.84,507.23 233.37,525.63 " fill="none" id="vid-to-gi" style="stroke:#000000;stroke-width:1.0;"/><polygon fill="#000000" points="232.95,530.79,237.6569,522.1387,233.3499,525.806,229.6826,521.4989,232.95,530.79" style="stroke:#000000;stroke-width:1.0;"/></g><!--link gi to cni--><g id="link_gi_cni"><path d="M219.62,656.21 C217.18,674.2 214.55,693.53 212.26,710.38 " fill="none" id="gi-to-cni" style="stroke:#000000;stroke-width:1.0;"/><polygon fill="#000000" points="211.56,715.53,216.7318,707.1483,212.2311,710.5752,208.8042,706.0746,211.56,715.53" style="stroke:#000000;stroke-width:1.0;"/></g><!--link cni to crp--><g id="link_cni_crp"><path d="M212.43,799.1 C215.1,815.92 218.23,835.72 221.11,853.9 " fill="none" id="cni-to-crp" style="stroke:#000000;stroke-width:1.0;"/><polygon fill="#000000" points="221.92,858.98,224.4532,849.4625,221.1328,854.0424,216.553,850.722,221.92,858.98" style="stroke:#000000;stroke-width:1.0;"/></g><!--link arg to crp--><g id="link_arg_crp"><path d="M370.72,262.27 C377.37,283.1 401,361.87 401,428.5 C401,428.5 401,428.5 401,594.5 C401,685.74 427.98,719.62 383,799 C370.41,821.22 351.34,840.18 330.89,855.82 " fill="none" id="arg-to-crp" style="stroke:#000000;stroke-width:1.0;"/><polygon fill="#000000" points="326.78,858.91,336.38,856.71,330.78,855.91,331.58,850.31,326.78,858.91" style="stroke:#000000;stroke-width:1.0;"/></g><!--link crp to crrp--><g id="link_crp_crrp"><path d="M223.23,963.29 C220.91,980.87 218.33,1000.42 216.07,1017.55 " fill="none" id="crp-to-crrp" style="stroke:#000000;stroke-width:1.0;"/><polygon fill="#000000" points="215.37,1022.79,220.518,1014.3937,216.0271,1017.8334,212.5874,1013.3424,215.37,1022.79" style="stroke:#000000;stroke-width:1.0;"/></g><!--link crp to cd--><g id="link_crp_cd"><path d="M338.1,963.1 C360.52,979 381.19,998.86 394,1023 C411.29,1055.58 409.71,1072.63 394,1106 C383.97,1127.3 368.17,1146.15 350.57,1162.26 " fill="none" id="crp-to-cd" style="stroke:#000000;stroke-width:1.0;"/><polygon fill="#000000" points="346.55,1165.86,355.9213,1162.8304,350.2728,1162.5223,350.5809,1156.8738,346.55,1165.86" style="stroke:#000000;stroke-width:1.0;"/></g><!--link crrp to cd--><g id="link_crrp_cd"><path d="M219.34,1106.38 C223.09,1122.83 227.53,1142.23 231.73,1160.63 " fill="none" id="crrp-to-cd" style="stroke:#000000;stroke-width:1.0;"/><polygon fill="#000000" points="232.91,1165.79,234.8025,1156.1247,231.7951,1160.9159,227.0039,1157.9085,232.91,1165.79" style="stroke:#000000;stroke-width:1.0;"/></g><!--link cd to return--><g id="link_cd_return"><path d="M247,1291.05 C247,1316.34 247,1343.01 247,1357.36 " fill="none" id="cd-to-return" style="stroke:#000000;stroke-width:1.0;"/><polygon fill="#000000" points="247,1362.71,251,1353.71,247,1357.71,243,1353.71,247,1362.71" style="stroke:#000000;stroke-width:1.0;"/></g><!--link return to output--><g id="link_return_output"><path d="M247,1375.35 C247,1386.06 247,1411.68 247,1441.53 " fill="none" id="return-to-output" style="stroke:#000000;stroke-width:1.0;"/><polygon fill="#000000" points="247,1446.75,251,1437.75,247,1441.75,243,1437.75,247,1446.75" style="stroke:#000000;stroke-width:1.0;"/></g><!--SRC=[XLHDRzim3BtxLt2zD1dc6Bi6HO01tO2SLXIxRKFgoeojhP4yIKuQ3Fll8_NbE6ct769PfDvxVAJyndMuGx28ZQWjmjRe7NJEzNPPLQO-B5hfkk5ni6Y4LWwLMmYzgr9-sHlz0uKRDpnUjQkbAWhhQeTmjLRzuAwWjY1v1RyBYAibbF3GrwxRl9tD7s0xAE6aLfPohRJkcm8u43-qSYzL2q8RGsJ09snn3HzCE-n8aeMIVmJB4OzwnmkdmQ3LWn5e6Mkhdneqn0qrPOgVTOl5doppy-2IJksNNcXSCkQN3jCnUXeYpeWMRASFYizMqqC1TGbFL0-uWmxYtm7vbCNvFHPOgsOQe0xu8656bLMkgBgHpQhoUeECZMmA6DT4_od8ynwofQt21jQtCCD5ku3hzzVpudLaufwWq_i8pyAMS4__s_zpd8egow-TR1fKtrUdm6CRX45wRfAOZNLc46umE9jxDS9OtnX-ii7t-6kGXZZhE0tBu5WkZFRXveO2vdYdfNAhLPw_ibnn-CI4FHgvFMwatJIIPqsRO-JTUtVttjSfwpArA0LJp_qqQWCVZT66ugo4AHbgf6pHaJ4sqhII8gryXOH6ckSaTofQE1wPZ9lU0ZxJWkuEdrhVMfYH79umtFNkwBFc49MpCc8VXSLEA7ncWSb-nGBf_mM5vwJCU9ASjArlWrucPBWBnjnxBZctlVTDxozuRRRcmfTqfsWSAHgcaq9cj2q1Jbf6kRdxFbtX8MF7WhnuhobrbTzUBuM6V5fEhEU5WYxh2PRbv7En9b_3M56Gyv8UgYjDck1v5iq_-kW_LRHW6vCXaimboW0t0fpFNJeQ4vipY5ETJIejlcND1kdQAxwxpzADLrU4KGtH0b8QxuNlBdrC_W80]--></g></svg>