<?xml version="1.0" encoding="us-ascii" standalone="no"?><svg xmlns="http://www.w3.org/2000/svg" xmlns:xlink="http://www.w3.org/1999/xlink" contentStyleType="text/css" height="1917px" preserveAspectRatio="none" style="width:1028px;height:1917px;background:#FFFFFF;" version="1.1" viewBox="0 0 1028 1917" width="1028px" zoomAndPan="magnify"><defs/><g><!--cluster cps--><g id="cluster_cps"><path d="M19.5,236 L1002.5,236 A12.5,12.5 0 0 1 1015,248.5 L1015,287.9063 L7,287.9063 L7,248.5 A12.5,12.5 0 0 1 19.5,236 " fill="#F2F2F2" style="stroke:#F2F2F2;stroke-width:1.0;"/><rect fill="none" height="1468" rx="12.5" ry="12.5" style="stroke:#000000;stroke-width:0.5;" width="1008" x="7" y="236"/><line style="stroke:#000000;stroke-width:0.5;" x1="7" x2="1015" y1="287.9063" y2="287.9063"/><line style="stroke:#000000;stroke-width:0.5;" x1="7" x2="1015" y1="261.9531" y2="261.9531"/><text fill="#000000" font-family="Fira Code" font-size="18" lengthAdjust="spacing" textLength="240" x="391" y="257.708">create_package_structure()</text><text fill="#000000" font-family="Fira Code" font-size="18" lengthAdjust="spacing" textLength="180" x="12" y="281.1611">- Required arg: path</text></g><text fill="#000000" font-family="Fira Code" font-size="18" lengthAdjust="spacing" textLength="29" x="503.5" y="213.7549">arg</text><ellipse cx="518" cy="236" fill="#F2F2F2" rx="6" ry="6" style="stroke:#000000;stroke-width:1.5;"/><g id="cps.vid"><rect fill="#F2F2F2" height="82.8594" rx="12.5" ry="12.5" style="stroke:#000000;stroke-width:0.5;" width="222" x="407" y="338"/><line style="stroke:#000000;stroke-width:0.5;" x1="407" x2="629" y1="368.9531" y2="368.9531"/><text fill="#000000" font-family="Fira Code" font-size="18" lengthAdjust="spacing" textLength="178" x="429" y="359.708">verify_is_directory()</text><text fill="#000000" font-family="Fira Code" font-size="18" lengthAdjust="spacing" textLength="180" x="412" y="390.6611">- Required arg: path</text><text fill="#000000" font-family="Fira Code" font-size="18" lengthAdjust="spacing" textLength="202" x="412" y="411.6143">- Output: path or Error</text></g><g id="cps.gi"><rect fill="#F2F2F2" height="103.8125" rx="12.5" ry="12.5" style="stroke:#000000;stroke-width:0.5;" width="263" x="386.5" y="482"/><line style="stroke:#000000;stroke-width:0.5;" x1="386.5" x2="649.5" y1="512.9531" y2="512.9531"/><text fill="#000000" font-family="Fira Code" font-size="18" lengthAdjust="spacing" textLength="76" x="480" y="503.708">get_ids()</text><text fill="#000000" font-family="Fira Code" font-size="18" lengthAdjust="spacing" textLength="180" x="391.5" y="534.6611">- Required arg: path</text><text fill="#000000" font-family="Fira Code" font-size="18" lengthAdjust="spacing" textLength="243" x="391.5" y="555.6143">- Output: list of existing IDs</text><text fill="#000000" font-family="Fira Code" font-size="18" lengthAdjust="spacing" textLength="223" x="403.5" y="576.5674">(otherwise an empty list)</text></g><g id="cps.cni"><rect fill="#F2F2F2" height="82.8594" rx="12.5" ry="12.5" style="stroke:#000000;stroke-width:0.5;" width="318" x="359" y="647"/><line style="stroke:#000000;stroke-width:0.5;" x1="359" x2="677" y1="677.9531" y2="677.9531"/><text fill="#000000" font-family="Fira Code" font-size="18" lengthAdjust="spacing" textLength="144" x="446" y="668.708">create_next_id()</text><text fill="#000000" font-family="Fira Code" font-size="18" lengthAdjust="spacing" textLength="298" x="364" y="699.6611">- Required arg: list of existing IDs</text><text fill="#000000" font-family="Fira Code" font-size="18" lengthAdjust="spacing" textLength="106" x="364" y="720.6143">- Output: ID</text></g><g id="cps.cpp"><rect fill="#F2F2F2" height="82.8594" rx="12.5" ry="12.5" style="stroke:#000000;stroke-width:0.5;" width="465" x="285.5" y="791"/><line style="stroke:#000000;stroke-width:0.5;" x1="285.5" x2="750.5" y1="821.9531" y2="821.9531"/><text fill="#000000" font-family="Fira Code" font-size="18" lengthAdjust="spacing" textLength="143" x="446.5" y="812.708">create_id_path()</text><text fill="#000000" font-family="Fira Code" font-size="18" lengthAdjust="spacing" textLength="445" x="290.5" y="843.6611">- Required arg: path and ID to assign for directory</text><text fill="#000000" font-family="Fira Code" font-size="18" lengthAdjust="spacing" textLength="308" x="290.5" y="864.6143">- Output: path of created directory</text></g><g id="cps.cd"><rect fill="#F2F2F2" height="103.8125" rx="12.5" ry="12.5" style="stroke:#000000;stroke-width:0.5;" width="280" x="23" y="935"/><line style="stroke:#000000;stroke-width:0.5;" x1="23" x2="303" y1="965.9531" y2="965.9531"/><text fill="#000000" font-family="Fira Code" font-size="18" lengthAdjust="spacing" textLength="111" x="107.5" y="956.708">create_dirs()</text><text fill="#000000" font-family="Fira Code" font-size="18" lengthAdjust="spacing" textLength="260" x="28" y="987.6611">- Required arg: A list of paths</text><text fill="#000000" font-family="Fira Code" font-size="18" lengthAdjust="spacing" textLength="205" x="28" y="1008.6143">- Output: A list of paths</text><text fill="#000000" font-family="Fira Code" font-size="18" lengthAdjust="spacing" textLength="190" x="40" y="1029.5674">of created directories</text></g><g id="cps.cppt"><rect fill="#F2F2F2" height="82.8594" rx="12.5" ry="12.5" style="stroke:#000000;stroke-width:0.5;" width="359" x="338.5" y="945.5"/><line style="stroke:#000000;stroke-width:0.5;" x1="338.5" x2="697.5" y1="976.4531" y2="976.4531"/><text fill="#000000" font-family="Fira Code" font-size="18" lengthAdjust="spacing" textLength="339" x="348.5" y="967.208">create_package_properties_template()</text><text fill="#000000" font-family="Fira Code" font-size="18" lengthAdjust="spacing" textLength="180" x="343.5" y="998.1611">- Required arg: path</text><text fill="#000000" font-family="Fira Code" font-size="18" lengthAdjust="spacing" textLength="191" x="343.5" y="1019.1143">- Output: JSON object</text></g><g id="cps.crt"><rect fill="#F2F2F2" height="82.8594" rx="12.5" ry="12.5" style="stroke:#000000;stroke-width:0.5;" width="266" x="371" y="1100"/><line style="stroke:#000000;stroke-width:0.5;" x1="371" x2="637" y1="1130.9531" y2="1130.9531"/><text fill="#000000" font-family="Fira Code" font-size="18" lengthAdjust="spacing" textLength="192" x="408" y="1121.708">create_readme_text()</text><text fill="#000000" font-family="Fira Code" font-size="18" lengthAdjust="spacing" textLength="246" x="376" y="1152.6611">- Required arg: JSON object</text><text fill="#000000" font-family="Fira Code" font-size="18" lengthAdjust="spacing" textLength="136" x="376" y="1173.6143">- Output: string</text></g><g id="cps.crp"><rect fill="#F2F2F2" height="82.8594" rx="12.5" ry="12.5" style="stroke:#000000;stroke-width:0.5;" width="252" x="71" y="1100"/><line style="stroke:#000000;stroke-width:0.5;" x1="71" x2="323" y1="1130.9531" y2="1130.9531"/><text fill="#000000" font-family="Fira Code" font-size="18" lengthAdjust="spacing" textLength="195" x="99.5" y="1121.708">create_readme_path()</text><text fill="#000000" font-family="Fira Code" font-size="18" lengthAdjust="spacing" textLength="180" x="76" y="1152.6611">- Required arg: path</text><text fill="#000000" font-family="Fira Code" font-size="18" lengthAdjust="spacing" textLength="232" x="76" y="1173.6143">- Output: path to README</text></g><g id="cps.cprop"><rect fill="#F2F2F2" height="82.8594" rx="12.5" ry="12.5" style="stroke:#000000;stroke-width:0.5;" width="266" x="733" y="945.5"/><line style="stroke:#000000;stroke-width:0.5;" x1="733" x2="999" y1="976.4531" y2="976.4531"/><text fill="#000000" font-family="Fira Code" font-size="18" lengthAdjust="spacing" textLength="218" x="757" y="967.208">create_properties_path()</text><text fill="#000000" font-family="Fira Code" font-size="18" lengthAdjust="spacing" textLength="180" x="738" y="998.1611">- Required arg: path</text><text fill="#000000" font-family="Fira Code" font-size="18" lengthAdjust="spacing" textLength="246" x="738" y="1019.1143">- Output: path to properties</text></g><g id="cps.wf"><rect fill="#F2F2F2" height="166.6719" rx="12.5" ry="12.5" style="stroke:#000000;stroke-width:0.5;" width="362" x="417" y="1372"/><line style="stroke:#000000;stroke-width:0.5;" x1="417" x2="779" y1="1402.9531" y2="1402.9531"/><text fill="#000000" font-family="Fira Code" font-size="18" lengthAdjust="spacing" textLength="97" x="549.5" y="1393.708">write_file()</text><text fill="#000000" font-family="Fira Code" font-size="18" lengthAdjust="spacing" textLength="342" x="422" y="1424.6611">- Required args: string (including JSON</text><text fill="#000000" font-family="Fira Code" font-size="18" lengthAdjust="spacing" textLength="180" x="434" y="1445.6143">as a string) and path</text><text fill="#000000" font-family="Fira Code" font-size="18" lengthAdjust="spacing" textLength="254" x="422" y="1466.5674">- Output: path of created file</text><text fill="#000000" font-family="Fira Code" font-size="18" lengthAdjust="spacing" textLength="317" x="422" y="1487.5205">- Only one string and path at a time</text><text fill="#000000" font-family="Fira Code" font-size="18" lengthAdjust="spacing" textLength="320" x="422" y="1508.4736">- Used multiple times for each write</text><text fill="#000000" font-family="Fira Code" font-size="18" lengthAdjust="spacing" textLength="85" x="434" y="1529.4268">operation</text></g><rect fill="#555555" height="8" style="stroke:none;stroke-width:1.0;" width="80" x="464" y="1257"/><rect fill="#555555" height="8" style="stroke:none;stroke-width:1.0;" width="80" x="672" y="1137.5"/><rect fill="#555555" height="8" style="stroke:none;stroke-width:1.0;" width="80" x="558" y="1617"/><text fill="#000000" font-family="Fira Code" font-size="18" lengthAdjust="spacing" textLength="56" x="569.5" y="1726.708">return</text><ellipse cx="597.5" cy="1704" fill="#F2F2F2" rx="6" ry="6" style="stroke:#000000;stroke-width:1.5;"/><line style="stroke:#000000;stroke-width:1.5;" x1="601.8891" x2="594.1109" y1="1708.3891" y2="1700.6109"/><line style="stroke:#000000;stroke-width:1.5;" x1="601.8891" x2="594.1109" y1="1700.6109" y2="1708.3891"/><path d="M346.5,7 L689.5,7 A12.5,12.5 0 0 1 702,19.5 L702,84.8594 L334,84.8594 L334,19.5 A12.5,12.5 0 0 1 346.5,7 " fill="#F2F2F2" style="stroke:#F2F2F2;stroke-width:1.0;"/><rect fill="none" height="161.7656" rx="12.5" ry="12.5" style="stroke:#000000;stroke-width:0.5;" width="368" x="334" y="7"/><line style="stroke:#000000;stroke-width:0.5;" x1="334" x2="702" y1="84.8594" y2="84.8594"/><line style="stroke:#000000;stroke-width:0.5;" x1="334" x2="702" y1="37.9531" y2="37.9531"/><text fill="#000000" font-family="Fira Code" font-size="18" lengthAdjust="spacing" textLength="46" x="495" y="28.708">Input</text><text fill="#000000" font-family="Fira Code" font-size="18" lengthAdjust="spacing" textLength="294" x="339" y="54.6611">- Use `path_*()` functions to help</text><text fill="#000000" font-family="Fira Code" font-size="18" lengthAdjust="spacing" textLength="178" x="339" y="75.6143">create correct paths</text><g id="input.path"><rect fill="#F2F2F2" height="61.9063" rx="12.5" ry="12.5" style="stroke:#000000;stroke-width:0.5;" width="342" x="346" y="96.8594"/><line style="stroke:#000000;stroke-width:0.5;" x1="346" x2="688" y1="127.8125" y2="127.8125"/><text fill="#000000" font-family="Fira Code" font-size="18" lengthAdjust="spacing" textLength="39" x="497.5" y="118.5674">path</text><text fill="#000000" font-family="Fira Code" font-size="18" lengthAdjust="spacing" textLength="322" x="351" y="149.5205">- Path to where packages are stored</text></g><path d="M293.5,1783 L902.5,1783 A12.5,12.5 0 0 1 915,1795.5 L915,1839.9063 L281,1839.9063 L281,1795.5 A12.5,12.5 0 0 1 293.5,1783 " fill="#F2F2F2" style="stroke:#F2F2F2;stroke-width:1.0;"/><rect fill="none" height="128.9063" rx="12.5" ry="12.5" style="stroke:#000000;stroke-width:0.5;" width="634" x="281" y="1783"/><line style="stroke:#000000;stroke-width:0.5;" x1="281" x2="915" y1="1839.9063" y2="1839.9063"/><line style="stroke:#000000;stroke-width:0.5;" x1="281" x2="915" y1="1813.9531" y2="1813.9531"/><text fill="#000000" font-family="Fira Code" font-size="18" lengthAdjust="spacing" textLength="61" x="567.5" y="1804.708">Output</text><text fill="#000000" font-family="Fira Code" font-size="18" lengthAdjust="spacing" textLength="365" x="286" y="1830.6611">- The package parent folder is shown as /</text><g id="output.properties_file"><rect fill="#F2F2F2" height="50" rx="12.5" ry="12.5" style="stroke:#000000;stroke-width:0.5;" width="315" x="293" y="1851.9063"/><line style="stroke:#000000;stroke-width:0.5;" x1="293" x2="608" y1="1882.8594" y2="1882.8594"/><text fill="#000000" font-family="Fira Code" font-size="18" lengthAdjust="spacing" textLength="295" x="303" y="1873.6143">/packages/&lt;id&gt;/datapackage.json</text></g><g id="output.readme"><rect fill="#F2F2F2" height="50" rx="12.5" ry="12.5" style="stroke:#000000;stroke-width:0.5;" width="275" x="626" y="1851.9063"/><line style="stroke:#000000;stroke-width:0.5;" x1="626" x2="901" y1="1882.8594" y2="1882.8594"/><text fill="#000000" font-family="Fira Code" font-size="18" lengthAdjust="spacing" textLength="255" x="636" y="1873.6143">/packages/&lt;id&gt;/README.md</text></g><!--link input to arg--><g id="link_input_arg"><path d="M518,169.26 C518,194.97 518,213.47 518,223.82 " fill="none" id="input-to-arg" style="stroke:#000000;stroke-width:1.0;"/><polygon fill="#000000" points="518,229.82,522,220.82,518,224.82,514,220.82,518,229.82" style="stroke:#000000;stroke-width:1.0;"/></g><!--link arg to vid--><g id="link_arg_vid"><path d="M518,242.04 C518,257.2 518,297.5 518,331.99 " fill="none" id="arg-to-vid" style="stroke:#000000;stroke-width:1.0;"/><polygon fill="#000000" points="518,337.99,522,328.99,518,332.99,514,328.99,518,337.99" style="stroke:#000000;stroke-width:1.0;"/></g><!--link vid to gi--><g id="link_vid_gi"><path d="M518,421.37 C518,439.98 518,456.21 518,475.92 " fill="none" id="vid-to-gi" style="stroke:#000000;stroke-width:1.0;"/><polygon fill="#000000" points="518,481.92,522,472.92,518,476.92,514,472.92,518,481.92" style="stroke:#000000;stroke-width:1.0;"/></g><!--link gi to cni--><g id="link_gi_cni"><path d="M518,586.2 C518,605.93 518,622.18 518,640.79 " fill="none" id="gi-to-cni" style="stroke:#000000;stroke-width:1.0;"/><polygon fill="#000000" points="518,646.79,522,637.79,518,641.79,514,637.79,518,646.79" style="stroke:#000000;stroke-width:1.0;"/></g><!--link cni to cpp--><g id="link_cni_cpp"><path d="M518,730.19 C518,749.2 518,765.79 518,784.8 " fill="none" id="cni-to-cpp" style="stroke:#000000;stroke-width:1.0;"/><polygon fill="#000000" points="518,790.8,522,781.8,518,785.8,514,781.8,518,790.8" style="stroke:#000000;stroke-width:1.0;"/></g><!--link cpp to cd--><g id="link_cpp_cd"><path d="M423.33,874.17 C379.89,892.83 333.4329,912.792 287.3829,932.572 " fill="none" id="cpp-to-cd" style="stroke:#000000;stroke-width:1.0;"/><polygon fill="#000000" points="281.87,934.94,291.7181,935.0633,286.4641,932.9667,288.5608,927.7127,281.87,934.94" style="stroke:#000000;stroke-width:1.0;"/></g><!--link cpp to cppt--><g id="link_cpp_cppt"><path d="M518,874.37 C518,896.34 518,917.34 518,939.28 " fill="none" id="cpp-to-cppt" style="stroke:#000000;stroke-width:1.0;"/><polygon fill="#000000" points="518,945.28,522,936.28,518,940.28,514,936.28,518,945.28" style="stroke:#000000;stroke-width:1.0;"/></g><!--link cppt to crt--><g id="link_cppt_crt"><path d="M514.25,1028.87 C512.23,1050.84 510.2974,1071.865 508.2874,1093.805 " fill="none" id="cppt-to-crt" style="stroke:#000000;stroke-width:1.0;"/><polygon fill="#000000" points="507.74,1099.78,512.5444,1091.1825,508.1962,1094.8009,504.5778,1090.4526,507.74,1099.78" style="stroke:#000000;stroke-width:1.0;"/></g><!--link cd to crp--><g id="link_cd_crp"><path d="M174.42,1039.2 C178.81,1058.93 182.4641,1075.3238 186.6141,1093.9338 " fill="none" id="cd-to-crp" style="stroke:#000000;stroke-width:1.0;"/><polygon fill="#000000" points="187.92,1099.79,189.8652,1090.1352,186.8317,1094.9099,182.057,1091.8764,187.92,1099.79" style="stroke:#000000;stroke-width:1.0;"/></g><!--link cpp to cprop--><g id="link_cpp_cprop"><path d="M610.8,874.17 C661.14,896.23 717.6644,921.002 767.9644,943.042 " fill="none" id="cpp-to-cprop" style="stroke:#000000;stroke-width:1.0;"/><polygon fill="#000000" points="773.46,945.45,766.822,938.1743,768.8803,943.4433,763.6113,945.5017,773.46,945.45" style="stroke:#000000;stroke-width:1.0;"/></g><!--link cppt to prop_input--><g id="link_cppt_prop_input"><path d="M569.73,1028.67 C619.57,1067.84 685.2432,1119.4617 703.0632,1133.4717 " fill="none" id="cppt-to-prop_input" style="stroke:#000000;stroke-width:1.0;"/><polygon fill="#000000" points="707.78,1137.18,703.177,1128.473,703.8493,1134.0897,698.2326,1134.762,707.78,1137.18" style="stroke:#000000;stroke-width:1.0;"/></g><!--link crt to readme_input--><g id="link_crt_readme_input"><path d="M504,1183.27 C504,1211.64 504,1240.2 504,1250.77 " fill="none" id="crt-to-readme_input" style="stroke:#000000;stroke-width:1.0;"/><polygon fill="#000000" points="504,1256.77,508,1247.77,504,1251.77,500,1247.77,504,1256.77" style="stroke:#000000;stroke-width:1.0;"/></g><!--link cprop to prop_input--><g id="link_cprop_prop_input"><path d="M824.73,1028.87 C785.17,1068.04 733.7137,1118.9986 719.6037,1132.9686 " fill="none" id="cprop-to-prop_input" style="stroke:#000000;stroke-width:1.0;"/><polygon fill="#000000" points="715.34,1137.19,724.5499,1133.7003,718.8931,1133.6721,718.9213,1128.0154,715.34,1137.19" style="stroke:#000000;stroke-width:1.0;"/></g><!--link crp to readme_input--><g id="link_crp_readme_input"><path d="M303.08,1183.1 C377.61,1211.62 463.0664,1244.3352 490.3164,1254.7652 " fill="none" id="crp-to-readme_input" style="stroke:#000000;stroke-width:1.0;"/><polygon fill="#000000" points="495.92,1256.91,488.9445,1249.9571,491.2504,1255.1227,486.0848,1257.4285,495.92,1256.91" style="stroke:#000000;stroke-width:1.0;"/></g><!--link prop_input to wf--><g id="link_prop_input_wf"><path d="M710.97,1145.56 C704.75,1164.04 671.48,1262.5 642,1342 C638.39,1351.73 636.6854,1356.3105 632.8054,1366.3905 " fill="none" id="prop_input-to-wf" style="stroke:#000000;stroke-width:1.0;"/><polygon fill="#000000" points="630.65,1371.99,637.616,1365.0277,632.4461,1367.3237,630.15,1362.1538,630.65,1371.99" style="stroke:#000000;stroke-width:1.0;"/><text fill="#000000" font-family="sans-serif" font-size="14" lengthAdjust="spacing" textLength="90" x="679" y="1257.9951">input to write</text><text fill="#000000" font-family="sans-serif" font-size="14" lengthAdjust="spacing" textLength="94" x="677" y="1274.292">properties file</text></g><!--link readme_input to wf--><g id="link_readme_input_wf"><path d="M505.48,1265.02 C511.58,1277.53 532.957,1321.2986 554.987,1366.4086 " fill="none" id="readme_input-to-wf" style="stroke:#000000;stroke-width:1.0;"/><polygon fill="#000000" points="557.62,1371.8,557.2648,1361.9575,555.4259,1367.3071,550.0763,1365.4682,557.62,1371.8" style="stroke:#000000;stroke-width:1.0;"/><text fill="#000000" font-family="sans-serif" font-size="14" lengthAdjust="spacing" textLength="90" x="543" y="1321.9951">input to write</text><text fill="#000000" font-family="sans-serif" font-size="14" lengthAdjust="spacing" textLength="76" x="550" y="1338.292">readme file</text></g><!--link wf to as_list--><g id="link_wf_as_list"><path d="M598,1539.21 C598,1573.11 598,1600.79 598,1610.93 " fill="none" id="wf-to-as_list" style="stroke:#000000;stroke-width:1.0;"/><polygon fill="#000000" points="598,1616.93,602,1607.93,598,1611.93,594,1607.93,598,1616.93" style="stroke:#000000;stroke-width:1.0;"/><text fill="#000000" font-family="sans-serif" font-size="14" lengthAdjust="spacing" textLength="95" x="599" y="1582.9951">Convert to list</text></g><!--link as_list to return--><g id="link_as_list_return"><path d="M598,1625.08 C598,1637.33 598,1676.73 598,1691.97 " fill="none" id="as_list-to-return" style="stroke:#000000;stroke-width:1.0;"/><polygon fill="#000000" points="598,1697.97,602,1688.97,598,1692.97,594,1688.97,598,1697.97" style="stroke:#000000;stroke-width:1.0;"/></g><!--link return to output--><g id="link_return_output"><path d="M598,1710.04 C598,1722 598,1747.35 598,1776.98 " fill="none" id="return-to-output" style="stroke:#000000;stroke-width:1.0;"/><polygon fill="#000000" points="598,1782.98,602,1773.98,598,1777.98,594,1773.98,598,1782.98" style="stroke:#000000;stroke-width:1.0;"/></g><!--SRC=[VLPDJzmm4BtlhvXoALHYzuvMIAXme58BekqDAJM9avWcTZfsM5PL_tjd_95asGGEkrxFntj-CsFpmTMobM2bB79X9PHeMgYTw-p5PeDYjwwKg_kdtahCZNPIktLksatoF-_GFClSZHi-twOLIgzMrWaduUHMTxqx0M51yGh-hY2iBk0SVXBehqwuEljqUlOBobxdJXbjmHcePTCzwXmbfyaD8Y41-zhLHxZ2gc-9ZuLp_gESR07EUSyBYj_L4YLjvxz59Iq8-c6TGLci_WtaxdgNs1c_zFJYafFzg8SKz8s42ALf2ecWBDZQx3J7RYWePjmamCrM5PURGZWHTzRFrcWFHR9r4fsIDYjL8nU37swkhh_UhDl2Hv4GHIidv8CqMOp9hCC-TptAqpFldtVMduQ_-IWFya-lwFYaH7NXvLeDoBG5sosT3lVtHcbtUPcgHFfUiddqFNcHgCfzfcnMA2wAmNs4V545kT7d4k1e3Cg7RJ08DuW6oSvC699JZP2LT9agR8If55agjGmIRGcZKTQ1AK6-qaBf2cwlxQC6E3NKhxXJr8H2Wsmxj_U-Pv4dyo2iaKPKNCjNffDqrao7FcVup25Fd1F1s-j0cW4vtH6YAZ8-sb3PpjUrMr20JbDGJXu2OQsgDFKimb2iIUnX5Ke8SCMXhux42FM863ccgkHS-tokz5U33c5y1xS4_yQ1QpD3XkObKlTqYcCsQHGc0-Qeh0tPHkbSIEAMssUm9dvVljzz0_F4TzsK0USwuX36b71VNS947uLpY6youo4kZJGrJMBaCN4PSjeXw3i4ktSEYJCjG1qJBfrGeu0uK_Q9m0TzITkUBNs_9syolyKUqnx8p5b72ZjKn80lpWYxAycuAuy0RH8GJfNEcxxW9GlE_KLn8fhF_Bn4SZ7Fqc34-pfvwMOFHik4a_A0S9JTgNRYIqzT0MtVEDKrqjki7qifyXhycNpRq_a5Fu4KE1mvrZVSnzljCztG_e8ELfPdoIPivYVho82INWhDT_whSkdAdpRQc3Ns9MzEYGo5dF7kvhpvZHwfieDN9lpazpfeCFP04llW-8jnmIl51DtzsnKbk83FHjFJvMDuXn-RQ0jiMH4FvwNXlV2F03sv_m40]--></g></svg>