<?xml version="1.0" encoding="us-ascii" standalone="no"?><svg xmlns="http://www.w3.org/2000/svg" xmlns:xlink="http://www.w3.org/1999/xlink" contentStyleType="text/css" height="1917px" preserveAspectRatio="none" style="width:677px;height:1917px;background:#FFFFFF;" version="1.1" viewBox="0 0 677 1917" width="677px" zoomAndPan="magnify"><defs/><g><!--cluster input--><g id="cluster_input"><path d="M99.5,7 L603.5,7 A12.5,12.5 0 0 1 616,19.5 L616,58.9063 L87,58.9063 L87,19.5 A12.5,12.5 0 0 1 99.5,7 " fill="#F2F2F2" style="stroke:#F2F2F2;stroke-width:1.0;"/><rect fill="none" height="164" rx="12.5" ry="12.5" style="stroke:#000000;stroke-width:0.5;" width="529" x="87" y="7"/><line style="stroke:#000000;stroke-width:0.5;" x1="87" x2="616" y1="58.9063" y2="58.9063"/><line style="stroke:#000000;stroke-width:0.5;" x1="87" x2="616" y1="32.9531" y2="32.9531"/><text fill="#000000" font-family="Fira Code" font-size="18" lengthAdjust="spacing" textLength="46" x="125" y="27.708">Input</text><text fill="#000000" font-family="Fira Code" font-size="18" lengthAdjust="spacing" textLength="453" x="92" y="52.1611">`path_*()` functions assist with giving correct paths</text></g><!--cluster crp--><g id="cluster_crp"><path d="M19.5,236 L651.5,236 A12.5,12.5 0 0 1 664,248.5 L664,329.8125 L7,329.8125 L7,248.5 A12.5,12.5 0 0 1 19.5,236 " fill="#F2F2F2" style="stroke:#F2F2F2;stroke-width:1.0;"/><rect fill="none" height="1419" rx="12.5" ry="12.5" style="stroke:#000000;stroke-width:0.5;" width="657" x="7" y="236"/><line style="stroke:#000000;stroke-width:0.5;" x1="7" x2="664" y1="329.8125" y2="329.8125"/><line style="stroke:#000000;stroke-width:0.5;" x1="7" x2="664" y1="261.9531" y2="261.9531"/><text fill="#000000" font-family="Fira Code" font-size="18" lengthAdjust="spacing" textLength="256" x="207.5" y="257.708">create_resource_properties()</text><text fill="#000000" font-family="Fira Code" font-size="18" lengthAdjust="spacing" textLength="180" x="12" y="281.1611">- Required arg: path</text><text fill="#000000" font-family="Fira Code" font-size="18" lengthAdjust="spacing" textLength="436" x="12" y="302.1143">- Conditional args: data_path or properties object</text><text fill="#000000" font-family="Fira Code" font-size="18" lengthAdjust="spacing" textLength="327" x="12" y="323.0674">- Needs user input if data_path given</text></g><g id="input.path"><rect fill="#F2F2F2" height="82.8594" rx="12.5" ry="12.5" style="stroke:#000000;stroke-width:0.5;" width="155" x="103.5" y="72"/><line style="stroke:#000000;stroke-width:0.5;" x1="103.5" x2="258.5" y1="102.9531" y2="102.9531"/><text fill="#000000" font-family="Fira Code" font-size="18" lengthAdjust="spacing" textLength="39" x="161.5" y="93.708">path</text><text fill="#000000" font-family="Fira Code" font-size="18" lengthAdjust="spacing" textLength="133" x="108.5" y="124.6611">Path to specific</text><text fill="#000000" font-family="Fira Code" font-size="18" lengthAdjust="spacing" textLength="135" x="108.5" y="145.6143">resource folder</text></g><g id="input.data_path"><rect fill="#F2F2F2" height="82.8594" rx="12.5" ry="12.5" style="stroke:#000000;stroke-width:0.5;" width="161" x="293.5" y="72"/><line style="stroke:#000000;stroke-width:0.5;" x1="293.5" x2="454.5" y1="102.9531" y2="102.9531"/><text fill="#000000" font-family="Fira Code" font-size="18" lengthAdjust="spacing" textLength="86" x="331" y="93.708">data_path</text><text fill="#000000" font-family="Fira Code" font-size="18" lengthAdjust="spacing" textLength="141" x="298.5" y="124.6611">Path to file with</text><text fill="#000000" font-family="Fira Code" font-size="18" lengthAdjust="spacing" textLength="78" x="298.5" y="145.6143">data in it</text></g><g id="input.properties"><rect fill="#F2F2F2" height="82.8594" rx="12.5" ry="12.5" style="stroke:#000000;stroke-width:0.5;" width="111" x="489.5" y="72"/><line style="stroke:#000000;stroke-width:0.5;" x1="489.5" x2="600.5" y1="102.9531" y2="102.9531"/><text fill="#000000" font-family="Fira Code" font-size="18" lengthAdjust="spacing" textLength="91" x="499.5" y="93.708">properties</text><text fill="#000000" font-family="Fira Code" font-size="18" lengthAdjust="spacing" textLength="68" x="494.5" y="124.6611">JSON of</text><text fill="#000000" font-family="Fira Code" font-size="18" lengthAdjust="spacing" textLength="91" x="494.5" y="145.6143">properties</text></g><text fill="#000000" font-family="Fira Code" font-size="18" lengthAdjust="spacing" textLength="77" x="142.5" y="213.7549">arg_path</text><ellipse cx="181" cy="236" fill="#F2F2F2" rx="6" ry="6" style="stroke:#000000;stroke-width:1.5;"/><text fill="#000000" font-family="Fira Code" font-size="18" lengthAdjust="spacing" textLength="124" x="332" y="213.7549">arg_data_path</text><ellipse cx="394" cy="236" fill="#F2F2F2" rx="6" ry="6" style="stroke:#000000;stroke-width:1.5;"/><text fill="#000000" font-family="Fira Code" font-size="18" lengthAdjust="spacing" textLength="129" x="476" y="213.7549">arg_properties</text><ellipse cx="540.5" cy="236" fill="#F2F2F2" rx="6" ry="6" style="stroke:#000000;stroke-width:1.5;"/><g id="crp.vid"><rect fill="#F2F2F2" height="82.8594" rx="12.5" ry="12.5" style="stroke:#000000;stroke-width:0.5;" width="222" x="70" y="1109"/><line style="stroke:#000000;stroke-width:0.5;" x1="70" x2="292" y1="1139.9531" y2="1139.9531"/><text fill="#000000" font-family="Fira Code" font-size="18" lengthAdjust="spacing" textLength="178" x="92" y="1130.708">verify_is_directory()</text><text fill="#000000" font-family="Fira Code" font-size="18" lengthAdjust="spacing" textLength="180" x="75" y="1161.6611">- Required arg: path</text><text fill="#000000" font-family="Fira Code" font-size="18" lengthAdjust="spacing" textLength="202" x="75" y="1182.6143">- Output: path or Error</text></g><g id="crp.papr"><rect fill="#F2F2F2" height="103.8125" rx="12.5" ry="12.5" style="stroke:#000000;stroke-width:0.5;" width="317" x="23.5" y="1295"/><line style="stroke:#000000;stroke-width:0.5;" x1="23.5" x2="340.5" y1="1325.9531" y2="1325.9531"/><text fill="#000000" font-family="Fira Code" font-size="18" lengthAdjust="spacing" textLength="202" x="81" y="1316.708">path_root_is_package()</text><text fill="#000000" font-family="Fira Code" font-size="18" lengthAdjust="spacing" textLength="260" x="28.5" y="1347.6611">- Required arg: absolute path</text><text fill="#000000" font-family="Fira Code" font-size="18" lengthAdjust="spacing" textLength="199" x="28.5" y="1368.6143">- Output: relative path</text><text fill="#000000" font-family="Fira Code" font-size="18" lengthAdjust="spacing" textLength="285" x="40.5" y="1389.5674">(e.g. `resource/1/data.parquet`)</text></g><g id="elem_condition"><polygon fill="#F1F1F1" points="441,516,453,528,441,540,429,528,441,516" style="stroke:#181818;stroke-width:0.5;"/></g><g id="crp.vrp"><rect fill="#F2F2F2" height="103.8125" rx="12.5" ry="12.5" style="stroke:#000000;stroke-width:0.5;" width="272" x="376" y="1295"/><line style="stroke:#000000;stroke-width:0.5;" x1="376" x2="648" y1="1325.9531" y2="1325.9531"/><text fill="#000000" font-family="Fira Code" font-size="18" lengthAdjust="spacing" textLength="252" x="386" y="1316.708">verify_resource_properties()</text><text fill="#000000" font-family="Fira Code" font-size="18" lengthAdjust="spacing" textLength="232" x="381" y="1347.6611">- Required arg: properties</text><text fill="#000000" font-family="Fira Code" font-size="18" lengthAdjust="spacing" textLength="208" x="381" y="1368.6143">- Output: JSON or Error</text><text fill="#000000" font-family="Fira Code" font-size="18" lengthAdjust="spacing" textLength="188" x="381" y="1389.5674">- Checks against spec</text></g><g id="crp.arp"><rect fill="#F2F2F2" height="82.8594" rx="12.5" ry="12.5" style="stroke:#000000;stroke-width:0.5;" width="252" x="224" y="1493"/><line style="stroke:#000000;stroke-width:0.5;" x1="224" x2="476" y1="1523.9531" y2="1523.9531"/><text fill="#000000" font-family="Fira Code" font-size="18" lengthAdjust="spacing" textLength="232" x="234" y="1514.708">add_resource_properties()</text><text fill="#000000" font-family="Fira Code" font-size="18" lengthAdjust="spacing" textLength="176" x="229" y="1545.6611">- Required arg: json</text><text fill="#000000" font-family="Fira Code" font-size="18" lengthAdjust="spacing" textLength="131" x="229" y="1566.6143">- Output: JSON</text></g><g id="crp.vif"><rect fill="#F2F2F2" height="82.8594" rx="12.5" ry="12.5" style="stroke:#000000;stroke-width:0.5;" width="222" x="373" y="618"/><line style="stroke:#000000;stroke-width:0.5;" x1="373" x2="595" y1="648.9531" y2="648.9531"/><text fill="#000000" font-family="Fira Code" font-size="18" lengthAdjust="spacing" textLength="124" x="422" y="639.708">verify_is_file()</text><text fill="#000000" font-family="Fira Code" font-size="18" lengthAdjust="spacing" textLength="180" x="378" y="670.6611">- Required arg: path</text><text fill="#000000" font-family="Fira Code" font-size="18" lengthAdjust="spacing" textLength="202" x="378" y="691.6143">- Output: path or Error</text></g><g id="crp.vsf"><rect fill="#F2F2F2" height="82.8594" rx="12.5" ry="12.5" style="stroke:#000000;stroke-width:0.5;" width="260" x="370" y="762"/><line style="stroke:#000000;stroke-width:0.5;" x1="370" x2="630" y1="792.9531" y2="792.9531"/><text fill="#000000" font-family="Fira Code" font-size="18" lengthAdjust="spacing" textLength="240" x="380" y="783.708">verify_supported_formats()</text><text fill="#000000" font-family="Fira Code" font-size="18" lengthAdjust="spacing" textLength="180" x="375" y="814.6611">- Required arg: path</text><text fill="#000000" font-family="Fira Code" font-size="18" lengthAdjust="spacing" textLength="202" x="375" y="835.6143">- Output: path or Error</text></g><g id="crp.erp"><rect fill="#F2F2F2" height="82.8594" rx="12.5" ry="12.5" style="stroke:#000000;stroke-width:0.5;" width="283" x="364.5" y="923"/><line style="stroke:#000000;stroke-width:0.5;" x1="364.5" x2="647.5" y1="953.9531" y2="953.9531"/><text fill="#000000" font-family="Fira Code" font-size="18" lengthAdjust="spacing" textLength="263" x="374.5" y="944.708">extract_resource_properties()</text><text fill="#000000" font-family="Fira Code" font-size="18" lengthAdjust="spacing" textLength="180" x="369.5" y="975.6611">- Required arg: path</text><text fill="#000000" font-family="Fira Code" font-size="18" lengthAdjust="spacing" textLength="131" x="369.5" y="996.6143">- Output: JSON</text></g><g id="crp.pcp"><rect fill="#F2F2F2" height="166.6719" rx="12.5" ry="12.5" style="stroke:#000000;stroke-width:0.5;" width="275" x="371.5" y="1067"/><line style="stroke:#000000;stroke-width:0.5;" x1="371.5" x2="646.5" y1="1097.9531" y2="1097.9531"/><text fill="#000000" font-family="Fira Code" font-size="18" lengthAdjust="spacing" textLength="255" x="381.5" y="1088.708">prompt_confirm_properties()</text><text fill="#000000" font-family="Fira Code" font-size="18" lengthAdjust="spacing" textLength="176" x="376.5" y="1119.6611">- Required arg: json</text><text fill="#000000" font-family="Fira Code" font-size="18" lengthAdjust="spacing" textLength="131" x="376.5" y="1140.6143">- Output: JSON</text><text fill="#000000" font-family="Fira Code" font-size="18" lengthAdjust="spacing" textLength="195" x="376.5" y="1161.5674">- Prompt user to fill in</text><text fill="#000000" font-family="Fira Code" font-size="18" lengthAdjust="spacing" textLength="128" x="388.5" y="1182.5205">missing details</text><text fill="#000000" font-family="Fira Code" font-size="18" lengthAdjust="spacing" textLength="174" x="376.5" y="1203.4736">- Likely has internal</text><text fill="#000000" font-family="Fira Code" font-size="18" lengthAdjust="spacing" textLength="99" x="388.5" y="1224.4268">verification</text></g><text fill="#000000" font-family="Fira Code" font-size="18" lengthAdjust="spacing" textLength="56" x="441.5" y="1677.708">return</text><ellipse cx="469.5" cy="1655" fill="#F2F2F2" rx="6" ry="6" style="stroke:#000000;stroke-width:1.5;"/><line style="stroke:#000000;stroke-width:1.5;" x1="473.8891" x2="466.1109" y1="1659.3891" y2="1651.6109"/><line style="stroke:#000000;stroke-width:1.5;" x1="473.8891" x2="466.1109" y1="1651.6109" y2="1659.3891"/><path d="M289,1734 L651,1734 A12.5,12.5 0 0 1 663.5,1746.5 L663.5,1764.9531 L276.5,1764.9531 L276.5,1746.5 A12.5,12.5 0 0 1 289,1734 " fill="#F2F2F2" style="stroke:#F2F2F2;stroke-width:1.0;"/><rect fill="none" height="177.7188" rx="12.5" ry="12.5" style="stroke:#000000;stroke-width:0.5;" width="387" x="276.5" y="1734"/><line style="stroke:#000000;stroke-width:0.5;" x1="276.5" x2="663.5" y1="1764.9531" y2="1764.9531"/><text fill="#000000" font-family="Fira Code" font-size="18" lengthAdjust="spacing" textLength="61" x="439.5" y="1755.708">Output</text><g id="output.json_output"><rect fill="#F2F2F2" height="124.7656" rx="12.5" ry="12.5" style="stroke:#000000;stroke-width:0.5;" width="366" x="288.5" y="1776.9531"/><line style="stroke:#000000;stroke-width:0.5;" x1="288.5" x2="654.5" y1="1807.9063" y2="1807.9063"/><text fill="#000000" font-family="Fira Code" font-size="18" lengthAdjust="spacing" textLength="45" x="449" y="1798.6611">JSON</text><text fill="#000000" font-family="Fira Code" font-size="18" lengthAdjust="spacing" textLength="346" x="293.5" y="1829.6143">- JSON object of the resource following</text><text fill="#000000" font-family="Fira Code" font-size="18" lengthAdjust="spacing" textLength="199" x="305.5" y="1850.5674">the Data Package spec</text><text fill="#000000" font-family="Fira Code" font-size="18" lengthAdjust="spacing" textLength="341" x="293.5" y="1871.5205">- Use `write_resource_properties()` to</text><text fill="#000000" font-family="Fira Code" font-size="18" lengthAdjust="spacing" textLength="285" x="305.5" y="1892.4736">save back to `datapackage.json`</text></g><!--link path to data_path--><!--link data_path to properties--><!--link path to arg_path--><g id="link_path_arg_path"><path d="M181,155.3 C181,179.89 181,209.33 181,224.62 " fill="none" id="path-to-arg_path" style="stroke:#000000;stroke-width:1.0;"/><polygon fill="#000000" points="181,229.92,185,220.92,181,224.92,177,220.92,181,229.92" style="stroke:#000000;stroke-width:1.0;"/></g><!--link data_path to arg_data_path--><g id="link_data_path_arg_data_path"><path d="M380.77,155.3 C384.85,179.89 389.74,209.33 392.28,224.62 " fill="none" id="data_path-to-arg_data_path" style="stroke:#000000;stroke-width:1.0;"/><polygon fill="#000000" points="393.16,229.92,395.6394,220.3883,392.345,224.9869,387.7464,221.6924,393.16,229.92" style="stroke:#000000;stroke-width:1.0;"/></g><!--link properties to arg_properties--><g id="link_properties_arg_properties"><path d="M543.65,155.3 C542.83,179.89 541.85,209.33 541.34,224.62 " fill="none" id="properties-to-arg_properties" style="stroke:#000000;stroke-width:1.0;"/><polygon fill="#000000" points="541.17,229.92,545.4769,221.0628,541.3418,224.923,537.4816,220.7879,541.17,229.92" style="stroke:#000000;stroke-width:1.0;"/></g><!--link arg_path to vid--><g id="link_arg_path_vid"><path d="M181,242.3 C181,254.9 181,287.65 181,315 C181,315 181,315 181,965.5 C181,1012.54 181,1066.35 181,1103.57 " fill="none" id="arg_path-to-vid" style="stroke:#000000;stroke-width:1.0;"/><polygon fill="#000000" points="181,1108.94,185,1099.94,181,1103.94,177,1099.94,181,1108.94" style="stroke:#000000;stroke-width:1.0;"/></g><!--link vid to papr--><g id="link_vid_papr"><path d="M181.21,1192.27 C181.35,1220.49 181.55,1258.43 181.71,1289.55 " fill="none" id="vid-to-papr" style="stroke:#000000;stroke-width:1.0;"/><polygon fill="#000000" points="181.74,1294.88,185.6885,1285.8573,181.7114,1289.8801,177.6886,1285.903,181.74,1294.88" style="stroke:#000000;stroke-width:1.0;"/></g><!--link arg_properties to condition--><g id="link_arg_properties_condition"><path d="M539.26,242.03 C527.83,275.19 463.23,462.53 445.5,513.94 " fill="none" id="arg_properties-to-condition" style="stroke:#000000;stroke-width:1.0;"/><polygon fill="#000000" points="443.84,518.75,450.5527,511.5431,445.4682,514.0225,442.9888,508.938,443.84,518.75" style="stroke:#000000;stroke-width:1.0;"/></g><!--link condition to vrp--><g id="link_condition_vrp"><path d="M434.92,534.02 C411.45,553.63 328,625.68 328,658.5 C328,658.5 328,658.5 328,1151.5 C328,1189.94 331.36,1202.93 354,1234 C370.22,1256.26 392.23,1275.74 414.67,1291.94 " fill="none" id="condition-to-vrp" style="stroke:#000000;stroke-width:1.0;"/><polygon fill="#000000" points="418.86,1294.92,413.8501,1286.4406,414.7875,1292.0192,409.2088,1292.9566,418.86,1294.92" style="stroke:#000000;stroke-width:1.0;"/><text fill="#000000" font-family="sans-serif" font-size="14" lengthAdjust="spacing" textLength="123" x="329" y="888.9951">If properties given</text></g><!--link papr to arp--><g id="link_papr_arp"><path d="M228.35,1399.18 C253.81,1427.29 285.08,1461.82 309.54,1488.83 " fill="none" id="papr-to-arp" style="stroke:#000000;stroke-width:1.0;"/><polygon fill="#000000" points="313.1,1492.76,310.0147,1483.4069,309.7402,1489.0571,304.09,1488.7826,313.1,1492.76" style="stroke:#000000;stroke-width:1.0;"/><text fill="#000000" font-family="sans-serif" font-size="14" lengthAdjust="spacing" textLength="76" x="286" y="1442.9951">Add `path`</text><text fill="#000000" font-family="sans-serif" font-size="14" lengthAdjust="spacing" textLength="58" x="295" y="1459.292">property</text></g><!--link vrp to arp--><g id="link_vrp_arp"><path d="M460.63,1399.11 C451.26,1408.87 441.7,1419.12 433,1429 C416.27,1447.99 398.71,1469.8 384.07,1488.57 " fill="none" id="vrp-to-arp" style="stroke:#000000;stroke-width:1.0;"/><polygon fill="#000000" points="380.8,1492.77,389.4782,1488.1129,383.8658,1488.8202,383.1585,1483.2077,380.8,1492.77" style="stroke:#000000;stroke-width:1.0;"/></g><!--link arg_data_path to condition--><g id="link_arg_data_path_condition"><path d="M394.91,242 C398.75,263.17 413.96,347.47 425,417 C430.39,450.94 436.02,490.89 438.95,512.07 " fill="none" id="arg_data_path-to-condition" style="stroke:#000000;stroke-width:1.0;"/><polygon fill="#000000" points="439.67,517.28,442.3953,507.8157,438.9829,512.3274,434.4712,508.915,439.67,517.28" style="stroke:#000000;stroke-width:1.0;"/></g><!--link condition to vif--><g id="link_condition_vif"><path d="M443.82,537.5 C448.85,552.65 459.7,585.32 468.86,612.91 " fill="none" id="condition-to-vif" style="stroke:#000000;stroke-width:1.0;"/><polygon fill="#000000" points="470.55,617.99,471.4898,608.1861,468.9646,613.248,463.9026,610.7228,470.55,617.99" style="stroke:#000000;stroke-width:1.0;"/><text fill="#000000" font-family="sans-serif" font-size="14" lengthAdjust="spacing" textLength="120" x="460" y="583.9951">If data_path given</text></g><!--link vif to vsf--><g id="link_vif_vsf"><path d="M488.58,701.19 C490.54,718.57 492.84,738.93 494.85,756.83 " fill="none" id="vif-to-vsf" style="stroke:#000000;stroke-width:1.0;"/><polygon fill="#000000" points="495.41,761.8,498.3798,752.4096,494.8516,756.8313,490.4298,753.3031,495.41,761.8" style="stroke:#000000;stroke-width:1.0;"/></g><!--link vsf to erp--><g id="link_vsf_erp"><path d="M501.53,845.03 C502.37,867.19 503.4,894.71 504.27,917.64 " fill="none" id="vsf-to-erp" style="stroke:#000000;stroke-width:1.0;"/><polygon fill="#000000" points="504.46,922.76,508.1222,913.6173,504.2739,917.7635,500.1278,913.9151,504.46,922.76" style="stroke:#000000;stroke-width:1.0;"/></g><!--link erp to pcp--><g id="link_erp_pcp"><path d="M506.67,1006.34 C506.93,1022.69 507.25,1042.21 507.57,1061.49 " fill="none" id="erp-to-pcp" style="stroke:#000000;stroke-width:1.0;"/><polygon fill="#000000" points="507.65,1066.92,511.521,1057.8638,507.5786,1061.9205,503.5218,1057.9781,507.65,1066.92" style="stroke:#000000;stroke-width:1.0;"/></g><!--link pcp to vrp--><g id="link_pcp_vrp"><path d="M510.28,1234.27 C510.56,1252.91 510.86,1272.29 511.13,1289.56 " fill="none" id="pcp-to-vrp" style="stroke:#000000;stroke-width:1.0;"/><polygon fill="#000000" points="511.21,1294.85,515.081,1285.7938,511.1386,1289.8505,507.0818,1285.9081,511.21,1294.85" style="stroke:#000000;stroke-width:1.0;"/></g><!--link vrp to return--><g id="link_vrp_return"><path d="M511.83,1399.16 C510.79,1447.31 506.94,1521.22 494,1584 C489.47,1605.99 479.94,1630.59 474.34,1643.98 " fill="none" id="vrp-to-return" style="stroke:#000000;stroke-width:1.0;"/><polygon fill="#000000" points="472.35,1648.69,479.5542,1641.9744,474.3075,1644.0891,472.1928,1638.8424,472.35,1648.69" style="stroke:#000000;stroke-width:1.0;"/></g><!--link arp to return--><g id="link_arp_return"><path d="M391.3,1576.28 C416.33,1601 446.2,1630.49 460.9,1645.01 " fill="none" id="arp-to-return" style="stroke:#000000;stroke-width:1.0;"/><polygon fill="#000000" points="464.63,1648.7,461.0388,1639.5292,461.0731,1645.186,455.4164,1645.2202,464.63,1648.7" style="stroke:#000000;stroke-width:1.0;"/></g><!--link return to output--><g id="link_return_output"><path d="M470,1661.15 C470,1672.22 470,1699.65 470,1728.79 " fill="none" id="return-to-output" style="stroke:#000000;stroke-width:1.0;"/><polygon fill="#000000" points="470,1733.86,474,1724.86,470,1728.86,466,1724.86,470,1733.86" style="stroke:#000000;stroke-width:1.0;"/></g><!--SRC=[VLPHRziu37xFhz3wSji1IN2lnL1WwDs03aDNt71Fwy5HP3hHQaiQ9QSBXlttaR9aArdgFYIkI94VFtva_2hieGFX0MebFOW6RIVs8JX_lLwZV5xjTDZtszu3Aci2cB1Ijbjd_wL3-nLKc0vYl7KdjLai_9CsJgBinESW0xod0BUsjIYshLHFbyptai2yroZ5hQs18h11NDqPruSh8RtG_2H-B4HwkXOR9yE- -lFrcureUgE2jiQJfzS-Y6S2BtRweCrEA8j8I0Mx-yKVuXtk-exgyMB9VnIHBHJmWR-25Tw1qerMZmR1snuLiMFR6f1SQnbaTURVw1PYnaV3PW8eTE2mQ1rWqE39-SFdJ_V2DezcEisPbr_skgx1_7ypXJz9LJWKjt-EB7tgGwR9niV8Kp9oucZwwgsf1ZjPY_y8tJBXst9F2QQWRego-jO-4vUFHaJBtrpc0xLIxY3ITI7WVoIgpJFg05KEL4tekMl1SZml3o2s58kft73HRWYyueYReao585-A5YjKw6Bb_CqG_eLllKQeXSJTjKYqPkEjDRLcqSYMxVww89oKMZHlOAMuUa-Qzu978ubHDyLbaXtG3EG6KEpX_ErR4XqU7wmsuURcn3vTdd4g49rvZK9QtepfJWMK3AMyYd3ZlKbSatuEWBevLjfNjUOvidXCT1zqJMxq-JBPsJWeT3XcTlz1j3nE8paCWUDDUUDqexM1KoT9fCHEEemrExoGMcwzRNiA4GENVXa5GYi3TIbwi0PVmsgt4fkihFLVQsPgHJlgMmzXyoPLmY1ZxX6boYAYbgYzrGfYqyxQnVT6JpB_HkxBaZwWu-IN1LrkakoIQnpcUM8wss_te9veJ-veKTEYJCCxrH4R4Ntlcb8ZPwg-adKz0rj6sF8YR1vhKLXBnBbRWoBP_gwkXqs_6LVdCPMJd1Q9y5EvJtnVaZAlx575JMnlCwVYPbR5P-n5xxkPbP21-DuvYm7ggh7OoJ0stKT8VWwIduV4828O2ZNbXUy1fGepZOFOE9XRe72vRuo8CyBGaJp5z5hXGaKCDHgxt_CvnVdeymMX5CPpdQJZXvXXsCR3Zt5BMvcdkjFqCa0l03K4gLjVtFcedw0zYdryhmY0z1l05s9Rj99fJ25fRCAOXgEe3o7qQAvu8t_NOLhRMP-3FQdzv61uY6VfH_ddBm00]--></g></svg>