<svg xmlns="http://www.w3.org/2000/svg" xmlns:xlink="http://www.w3.org/1999/xlink" contentStyleType="text/css" height="1677px" preserveAspectRatio="none" style="width:532px;height:1677px;background:#FFFFFF;" version="1.1" viewBox="0 0 532 1677" width="532px" zoomAndPan="magnify"><defs/><g><!--cluster crs--><g id="cluster_crs"><path d="M19.5,256 L462.5,256 A12.5,12.5 0 0 1 475,268.5 L475,307.9063 L7,307.9063 L7,268.5 A12.5,12.5 0 0 1 19.5,256 " fill="#F2F2F2" style="stroke:#F2F2F2;stroke-width:1.0;"/><rect fill="none" height="1057" rx="12.5" ry="12.5" style="stroke:#000000;stroke-width:0.5;" width="468" x="7" y="256"/><line style="stroke:#000000;stroke-width:0.5;" x1="7" x2="475" y1="307.9063" y2="307.9063"/><line style="stroke:#000000;stroke-width:0.5;" x1="7" x2="475" y1="281.9531" y2="281.9531"/><text fill="#000000" font-family="Fira Code" font-size="18" lengthAdjust="spacing" textLength="250.3037" x="115.8481" y="277.708">create_resource_structure()</text><text fill="#000000" font-family="Fira Code" font-size="18" lengthAdjust="spacing" textLength="240.3018" x="12" y="301.1611">- Required argument: path</text></g><text fill="#000000" font-family="Fira Code" font-size="18" lengthAdjust="spacing" textLength="29.8564" x="226.0718" y="233.7549">arg</text><ellipse cx="241" cy="256" fill="#F2F2F2" rx="6" ry="6" style="stroke:#000000;stroke-width:1.5;"/><g id="crs.vid"><rect fill="#F2F2F2" height="82.8594" rx="12.5" ry="12.5" style="stroke:#000000;stroke-width:0.5;" width="221.8936" x="130" y="327"/><line style="stroke:#000000;stroke-width:0.5;" x1="130" x2="351.8936" y1="357.9531" y2="357.9531"/><text fill="#000000" font-family="Fira Code" font-size="18" lengthAdjust="spacing" textLength="178.4619" x="151.7158" y="348.708">verify_is_directory()</text><text fill="#000000" font-family="Fira Code" font-size="18" lengthAdjust="spacing" textLength="181.8193" x="135" y="379.6611">- Required arg: path</text><text fill="#000000" font-family="Fira Code" font-size="18" lengthAdjust="spacing" textLength="201.8936" x="135" y="400.6143">- Output: path or Error</text></g><g id="crs.gi"><rect fill="#F2F2F2" height="82.8594" rx="12.5" ry="12.5" style="stroke:#000000;stroke-width:0.5;" width="436.0918" x="23" y="470"/><line style="stroke:#000000;stroke-width:0.5;" x1="23" x2="459.0918" y1="500.9531" y2="500.9531"/><text fill="#000000" font-family="Fira Code" font-size="18" lengthAdjust="spacing" textLength="78.4072" x="201.8423" y="491.708">get_ids()</text><text fill="#000000" font-family="Fira Code" font-size="18" lengthAdjust="spacing" textLength="357.3281" x="28" y="522.6611">- Required arg: path to resources folder</text><text fill="#000000" font-family="Fira Code" font-size="18" lengthAdjust="spacing" textLength="416.0918" x="28" y="543.6143">- Output: list of existing IDs (or the empty list)</text></g><g id="crs.cni"><rect fill="#F2F2F2" height="82.8594" rx="12.5" ry="12.5" style="stroke:#000000;stroke-width:0.5;" width="321.3945" x="80.5" y="613"/><line style="stroke:#000000;stroke-width:0.5;" x1="80.5" x2="401.8945" y1="643.9531" y2="643.9531"/><text fill="#000000" font-family="Fira Code" font-size="18" lengthAdjust="spacing" textLength="146.1973" x="168.0986" y="634.708">create_next_id()</text><text fill="#000000" font-family="Fira Code" font-size="18" lengthAdjust="spacing" textLength="301.3945" x="85.5" y="665.6611">- Required arg: list of existing IDs</text><text fill="#000000" font-family="Fira Code" font-size="18" lengthAdjust="spacing" textLength="105.6973" x="85.5" y="686.6143">- Output: ID</text></g><g id="crs.crp"><rect fill="#F2F2F2" height="124.7656" rx="12.5" ry="12.5" style="stroke:#000000;stroke-width:0.5;" width="415.6484" x="33" y="756"/><line style="stroke:#000000;stroke-width:0.5;" x1="33" x2="448.6484" y1="786.9531" y2="786.9531"/><text fill="#000000" font-family="Fira Code" font-size="18" lengthAdjust="spacing" textLength="209.1445" x="136.252" y="777.708">create_resource_path()</text><text fill="#000000" font-family="Fira Code" font-size="18" lengthAdjust="spacing" textLength="144.5537" x="38" y="808.6611">- Required args:</text><text fill="#000000" font-family="Fira Code" font-size="18" lengthAdjust="spacing" textLength="235.6348" x="60.8867" y="829.6143">- ID to assign for directory</text><text fill="#000000" font-family="Fira Code" font-size="18" lengthAdjust="spacing" textLength="228.6475" x="60.8867" y="850.5674">- path to resources folder</text><text fill="#000000" font-family="Fira Code" font-size="18" lengthAdjust="spacing" textLength="395.6484" x="38" y="871.5205">- Output: path to directory for new resource</text></g><g id="crs.cd"><rect fill="#F2F2F2" height="82.8594" rx="12.5" ry="12.5" style="stroke:#000000;stroke-width:0.5;" width="399.3008" x="41.5" y="941"/><line style="stroke:#000000;stroke-width:0.5;" x1="41.5" x2="440.8008" y1="971.9531" y2="971.9531"/><text fill="#000000" font-family="Fira Code" font-size="18" lengthAdjust="spacing" textLength="104.4053" x="188.9478" y="962.708">create_dir()</text><text fill="#000000" font-family="Fira Code" font-size="18" lengthAdjust="spacing" textLength="379.3008" x="46.5" y="993.6611">- Required arg: path to directory to create</text><text fill="#000000" font-family="Fira Code" font-size="18" lengthAdjust="spacing" textLength="312.5654" x="46.5" y="1014.6143">- Output: path to created directory</text></g><g id="crs.crrd"><rect fill="#F2F2F2" height="82.8594" rx="12.5" ry="12.5" style="stroke:#000000;stroke-width:0.5;" width="334.8682" x="48.5" y="1084"/><line style="stroke:#000000;stroke-width:0.5;" x1="48.5" x2="383.3682" y1="1114.9531" y2="1114.9531"/><text fill="#000000" font-family="Fira Code" font-size="18" lengthAdjust="spacing" textLength="234.2021" x="98.833" y="1105.708">create_resource_raw_dir()</text><text fill="#000000" font-family="Fira Code" font-size="18" lengthAdjust="spacing" textLength="314.8682" x="53.5" y="1136.6611">- Required arg: path to resource ID</text><text fill="#000000" font-family="Fira Code" font-size="18" lengthAdjust="spacing" textLength="311.8447" x="53.5" y="1157.6143">- Output: path of created directory</text></g><rect fill="#555555" height="8" style="stroke:none;stroke-width:1.0;" width="80" x="277" y="1227"/><text fill="#000000" font-family="Fira Code" font-size="18" lengthAdjust="spacing" textLength="55.749" x="288.6255" y="1335.708">return</text><ellipse cx="316.5" cy="1313" fill="#F2F2F2" rx="6" ry="6" style="stroke:#000000;stroke-width:1.5;"/><line style="stroke:#000000;stroke-width:1.5;" x1="320.8891" x2="313.1109" y1="1317.3891" y2="1309.6109"/><line style="stroke:#000000;stroke-width:1.5;" x1="320.8891" x2="313.1109" y1="1309.6109" y2="1317.3891"/><path d="M116.5,7 L365.2568,7 A12.5,12.5 0 0 1 377.7568,19.5 L377.7568,84.8594 L104,84.8594 L104,19.5 A12.5,12.5 0 0 1 116.5,7 " fill="#F2F2F2" style="stroke:#F2F2F2;stroke-width:1.0;"/><rect fill="none" height="182.7188" rx="12.5" ry="12.5" style="stroke:#000000;stroke-width:0.5;" width="273.7568" x="104" y="7"/><line style="stroke:#000000;stroke-width:0.5;" x1="104" x2="377.7568" y1="84.8594" y2="84.8594"/><line style="stroke:#000000;stroke-width:0.5;" x1="104" x2="377.7568" y1="37.9531" y2="37.9531"/><text fill="#000000" font-family="Fira Code" font-size="18" lengthAdjust="spacing" textLength="46.6084" x="217.5742" y="28.708">Input</text><text fill="#000000" font-family="Fira Code" font-size="18" lengthAdjust="spacing" textLength="248.7568" x="109" y="54.6611">- `path_*()` functions assist</text><text fill="#000000" font-family="Fira Code" font-size="18" lengthAdjust="spacing" textLength="224.3057" x="120.4434" y="75.6143">with giving correct paths</text><g id="input.path"><rect fill="#F2F2F2" height="82.8594" rx="12.5" ry="12.5" style="stroke:#000000;stroke-width:0.5;" width="204.6055" x="116" y="96.8594"/><line style="stroke:#000000;stroke-width:0.5;" x1="116" x2="320.6055" y1="127.8125" y2="127.8125"/><text fill="#000000" font-family="Fira Code" font-size="18" lengthAdjust="spacing" textLength="40.9219" x="197.8418" y="118.5674">path</text><text fill="#000000" font-family="Fira Code" font-size="18" lengthAdjust="spacing" textLength="170.1035" x="121" y="149.5205">- Path to resources</text><text fill="#000000" font-family="Fira Code" font-size="18" lengthAdjust="spacing" textLength="173.1621" x="132.4434" y="170.4736">folder in a package</text></g><path d="M127.5,1391 L506.9941,1391 A12.5,12.5 0 0 1 519.4941,1403.5 L519.4941,1489.8125 L115,1489.8125 L115,1403.5 A12.5,12.5 0 0 1 127.5,1391 " fill="#F2F2F2" style="stroke:#F2F2F2;stroke-width:1.0;"/><rect fill="none" height="280.7188" rx="12.5" ry="12.5" style="stroke:#000000;stroke-width:0.5;" width="404.4941" x="115" y="1391"/><line style="stroke:#000000;stroke-width:0.5;" x1="115" x2="519.4941" y1="1489.8125" y2="1489.8125"/><line style="stroke:#000000;stroke-width:0.5;" x1="115" x2="519.4941" y1="1421.9531" y2="1421.9531"/><text fill="#000000" font-family="Fira Code" font-size="18" lengthAdjust="spacing" textLength="62.5254" x="285.9844" y="1412.708">Output</text><text fill="#000000" font-family="Fira Code" font-size="18" lengthAdjust="spacing" textLength="372.4805" x="120" y="1438.6611">- The package parent folder is shown as /</text><text fill="#000000" font-family="Fira Code" font-size="18" lengthAdjust="spacing" textLength="379.4941" x="120" y="1459.6143">- Output: list two paths, the resource path</text><text fill="#000000" font-family="Fira Code" font-size="18" lengthAdjust="spacing" textLength="239.0098" x="131.4434" y="1480.5674">and the resource raw path</text><g id="output.folder_id"><rect fill="#F2F2F2" height="61.9063" rx="12.5" ry="12.5" style="stroke:#000000;stroke-width:0.5;" width="311.6914" x="147" y="1501.8125"/><line style="stroke:#000000;stroke-width:0.5;" x1="147" x2="458.6914" y1="1532.7656" y2="1532.7656"/><text fill="#000000" font-family="Fira Code" font-size="18" lengthAdjust="spacing" textLength="152.8066" x="226.4424" y="1523.5205">/resources/&lt;id&gt;/</text><text fill="#000000" font-family="Fira Code" font-size="18" lengthAdjust="spacing" textLength="291.6914" x="152" y="1554.4736">Folder with assigned ID (e.g. '1')</text></g><g id="output.folder_raw"><rect fill="#F2F2F2" height="61.9063" rx="12.5" ry="12.5" style="stroke:#000000;stroke-width:0.5;" width="351.6553" x="127" y="1599.8125"/><line style="stroke:#000000;stroke-width:0.5;" x1="127" x2="478.6553" y1="1630.7656" y2="1630.7656"/><text fill="#000000" font-family="Fira Code" font-size="18" lengthAdjust="spacing" textLength="192.0234" x="206.8159" y="1621.5205">/resources/&lt;id&gt;/raw/</text><text fill="#000000" font-family="Fira Code" font-size="18" lengthAdjust="spacing" textLength="331.6553" x="132" y="1652.4736">Raw folder with assigned ID (e.g. '1')</text></g><!--link folder_id to folder_raw--><!--link input to arg--><g id="link_input_arg"><path d="M241,190.4 C241,215.93 241,233.5 241,243.69 " fill="none" id="input-to-arg" style="stroke:#000000;stroke-width:1.0;"/><polygon fill="#000000" points="241,249.69,245,240.69,241,244.69,237,240.69,241,249.69" style="stroke:#000000;stroke-width:1.0;"/></g><!--link arg to vid--><g id="link_arg_vid"><path d="M241,262.04 C241,273.43 241,296.14 241,320.73 " fill="none" id="arg-to-vid" style="stroke:#000000;stroke-width:1.0;"/><polygon fill="#000000" points="241,326.73,245,317.73,241,321.73,237,317.73,241,326.73" style="stroke:#000000;stroke-width:1.0;"/></g><!--link vid to gi--><g id="link_vid_gi"><path d="M241,410.28 C241,428.99 241,445.11 241,463.81 " fill="none" id="vid-to-gi" style="stroke:#000000;stroke-width:1.0;"/><polygon fill="#000000" points="241,469.81,245,460.81,241,464.81,237,460.81,241,469.81" style="stroke:#000000;stroke-width:1.0;"/></g><!--link gi to cni--><g id="link_gi_cni"><path d="M241,553.28 C241,571.99 241,588.11 241,606.81 " fill="none" id="gi-to-cni" style="stroke:#000000;stroke-width:1.0;"/><polygon fill="#000000" points="241,612.81,245,603.81,241,607.81,237,603.81,241,612.81" style="stroke:#000000;stroke-width:1.0;"/></g><!--link cni to crp--><g id="link_cni_crp"><path d="M241,696.38 C241,714.38 241,729.91 241,749.79 " fill="none" id="cni-to-crp" style="stroke:#000000;stroke-width:1.0;"/><polygon fill="#000000" points="241,755.79,245,746.79,241,750.79,237,746.79,241,755.79" style="stroke:#000000;stroke-width:1.0;"/></g><!--link crp to cd--><g id="link_crp_cd"><path d="M241,881.21 C241,901.06 241,916.55 241,934.53 " fill="none" id="crp-to-cd" style="stroke:#000000;stroke-width:1.0;"/><polygon fill="#000000" points="241,940.53,245,931.53,241,935.53,237,931.53,241,940.53" style="stroke:#000000;stroke-width:1.0;"/></g><!--link cd to crrd--><g id="link_cd_crrd"><path d="M233.77,1024.28 C230.45,1042.99 227.5788,1059.2024 224.2588,1077.9024 " fill="none" id="cd-to-crrd" style="stroke:#000000;stroke-width:1.0;"/><polygon fill="#000000" points="223.21,1083.81,228.7217,1075.6478,224.084,1078.887,220.8448,1074.2493,223.21,1083.81" style="stroke:#000000;stroke-width:1.0;"/></g><!--link crrd to join--><g id="link_crrd_join"><path d="M255.63,1167.11 C278.62,1190.67 300.5689,1213.1664 309.5689,1222.3864 " fill="none" id="crrd-to-join" style="stroke:#000000;stroke-width:1.0;"/><polygon fill="#000000" points="313.76,1226.68,310.3357,1217.4456,310.2674,1223.102,304.611,1223.0337,313.76,1226.68" style="stroke:#000000;stroke-width:1.0;"/></g><!--link cd to join--><g id="link_cd_join"><path d="M339.65,1024.15 C364.03,1039.19 387.11,1058.88 401,1084 C418.85,1116.28 417.5,1134.01 401,1167 C384.7,1199.61 348.1507,1217.4418 330.5107,1224.6818 " fill="none" id="cd-to-join" style="stroke:#000000;stroke-width:1.0;"/><polygon fill="#000000" points="324.96,1226.96,334.8048,1227.2432,329.5856,1225.0615,331.7672,1219.8423,324.96,1226.96" style="stroke:#000000;stroke-width:1.0;"/></g><!--link join to return--><g id="link_join_return"><path d="M317,1235.04 C317,1247.03 317,1285.13 317,1300.6 " fill="none" id="join-to-return" style="stroke:#000000;stroke-width:1.0;"/><polygon fill="#000000" points="317,1306.6,321,1297.6,317,1301.6,313,1297.6,317,1306.6" style="stroke:#000000;stroke-width:1.0;"/></g><!--link return to output--><g id="link_return_output"><path d="M317,1319.35 C317,1330.68 317,1352.7 317,1384.75 " fill="none" id="return-to-output" style="stroke:#000000;stroke-width:1.0;"/><polygon fill="#000000" points="317,1390.75,321,1381.75,317,1385.75,313,1381.75,317,1390.75" style="stroke:#000000;stroke-width:1.0;"/></g><!--SRC=[ZLHDRzim3BtxLt2zD1dc6Bi6HO2XNO5SjgBRRHjIrP9jjR7aKNBIODX_7odBThoctNA8FaY-zyGFl_6LgXKufMGkd882RGsLzurRPXcA_QBKlchlMwSmjyOhunUvhRFUFstGFgZSZnS1Bwk5DadY7hLf18eQldZXrJK1NDgjHRZVYlpnbFcJ837N6WLSMga8WGrmjZPDwyz0ED2yWry9nDqIKhXhXAysRsVpEoXQatjjZIDVfvt_RW3sz08ezKwR4dABI7A18rno3X-mR6jwb8EKVmJBbe1wmnjl0PMpBURACLPXjr8XSOCWp_nHb2hvFSZytFfUfmtR83Hk6VDhfVemMf681qG7hh9xmx7PDAX3NSAMtWD-Rplnxu0oFOWBTonG63arK0s3aJ2ZocnuKNQXvIeBUZiP6oqJ6FT4Vzt92pdab9P6ILXVmKmjoWMSlp-V9oyZ4_S4dSuZF0jRmYtz5__cE1QLfjygBQKoFrR7m6CPSbIqRden6-UnpNsBQZOFQd9qeJ2ySe9lrSzM8t6As0tBBcF3m-WUBYx8W8SRgurVhOR-IzCLcu-Ii5EeYyD6kutKt6iM3v5t5xAx2tcTiYxx4lN6lkQX6sbWFY9Q93ihOKg66YbBvIanBjAKcYobVe5aqj8nVwF_fDTi0Ug9DZmuwoi7CnB2lQNgnX-2onoYPjP4lAEaM0EZdbXQdtZ3qkZ_XBPJZ4VElR3rLIUM2Hdk6UDGTNxiKF0cbBjvnkkMF3H0jzHlb9ck_IWj24FrUezNijT3Jyf6hWD6G3HgFmJ7fuLdaBfdpw38NZmtJIvVAUV8GeSkVWpvMr9dbsDGb1-Ko5VoIJDsh0enwABbFngjAzlWFEtkuhGc6PE3Hw8UQFfe4da9CzZTegBXvdlg7JyEQA1Z37OV4UCfGF6vYwQR2CDttTUNFYb_0000]--></g></svg>