<?xml version="1.0" encoding="us-ascii" standalone="no"?><svg xmlns="http://www.w3.org/2000/svg" xmlns:xlink="http://www.w3.org/1999/xlink" contentStyleType="text/css" height="1151px" preserveAspectRatio="none" style="width:709px;height:1151px;background:#FFFFFF;" version="1.1" viewBox="0 0 709 1151" width="709px" zoomAndPan="magnify"><defs/><g><!--cluster input--><g id="cluster_input"><path d="M19.5,7 L683.5,7 A12.5,12.5 0 0 1 696,19.5 L696,58.9063 L7,58.9063 L7,19.5 A12.5,12.5 0 0 1 19.5,7 " fill="#F2F2F2" style="stroke:#F2F2F2;stroke-width:1.0;"/><rect fill="none" height="164" rx="12.5" ry="12.5" style="stroke:#000000;stroke-width:0.5;" width="689" x="7" y="7"/><line style="stroke:#000000;stroke-width:0.5;" x1="7" x2="696" y1="58.9063" y2="58.9063"/><line style="stroke:#000000;stroke-width:0.5;" x1="7" x2="696" y1="32.9531" y2="32.9531"/><text fill="#000000" font-family="Fira Code" font-size="18" lengthAdjust="spacing" textLength="46" x="118.5" y="27.708">Input</text><text fill="#000000" font-family="Fira Code" font-size="18" lengthAdjust="spacing" textLength="466" x="12" y="52.1611">- `path_*()` functions assist with giving correct paths</text></g><!--cluster cps--><g id="cluster_cps"><path d="M117.5,236 L627.5,236 A12.5,12.5 0 0 1 640,248.5 L640,287.9063 L105,287.9063 L105,248.5 A12.5,12.5 0 0 1 117.5,236 " fill="#F2F2F2" style="stroke:#F2F2F2;stroke-width:1.0;"/><rect fill="none" height="653" rx="12.5" ry="12.5" style="stroke:#000000;stroke-width:0.5;" width="535" x="105" y="236"/><line style="stroke:#000000;stroke-width:0.5;" x1="105" x2="640" y1="287.9063" y2="287.9063"/><line style="stroke:#000000;stroke-width:0.5;" x1="105" x2="640" y1="261.9531" y2="261.9531"/><text fill="#000000" font-family="Fira Code" font-size="18" lengthAdjust="spacing" textLength="251" x="247" y="257.708">create_package_properties()</text><text fill="#000000" font-family="Fira Code" font-size="18" lengthAdjust="spacing" textLength="315" x="110" y="281.1611">- Required arg: path and properties</text></g><g id="input.path"><rect fill="#F2F2F2" height="82.8594" rx="12.5" ry="12.5" style="stroke:#000000;stroke-width:0.5;" width="304" x="23" y="72"/><line style="stroke:#000000;stroke-width:0.5;" x1="23" x2="327" y1="102.9531" y2="102.9531"/><text fill="#000000" font-family="Fira Code" font-size="18" lengthAdjust="spacing" textLength="39" x="155.5" y="93.708">path</text><text fill="#000000" font-family="Fira Code" font-size="18" lengthAdjust="spacing" textLength="284" x="28" y="124.6611">- Path to `datapackage.json` file</text><text fill="#000000" font-family="Fira Code" font-size="18" lengthAdjust="spacing" textLength="257" x="40" y="145.6143">in the package `&lt;id&gt;` folder</text></g><g id="input.properties"><rect fill="#F2F2F2" height="82.8594" rx="12.5" ry="12.5" style="stroke:#000000;stroke-width:0.5;" width="318" x="362" y="72"/><line style="stroke:#000000;stroke-width:0.5;" x1="362" x2="680" y1="102.9531" y2="102.9531"/><text fill="#000000" font-family="Fira Code" font-size="18" lengthAdjust="spacing" textLength="91" x="475.5" y="93.708">properties</text><text fill="#000000" font-family="Fira Code" font-size="18" lengthAdjust="spacing" textLength="254" x="367" y="124.6611">- JSON object of the package</text><text fill="#000000" font-family="Fira Code" font-size="18" lengthAdjust="spacing" textLength="286" x="379" y="145.6143">following the Data Package spec</text></g><text fill="#000000" font-family="Fira Code" font-size="18" lengthAdjust="spacing" textLength="77" x="140.5" y="213.7549">arg_path</text><ellipse cx="179" cy="236" fill="#F2F2F2" rx="6" ry="6" style="stroke:#000000;stroke-width:1.5;"/><text fill="#000000" font-family="Fira Code" font-size="18" lengthAdjust="spacing" textLength="129" x="454" y="213.7549">arg_properties</text><ellipse cx="518.5" cy="236" fill="#F2F2F2" rx="6" ry="6" style="stroke:#000000;stroke-width:1.5;"/><g id="cps.vif"><rect fill="#F2F2F2" height="82.8594" rx="12.5" ry="12.5" style="stroke:#000000;stroke-width:0.5;" width="222" x="121" y="367"/><line style="stroke:#000000;stroke-width:0.5;" x1="121" x2="343" y1="397.9531" y2="397.9531"/><text fill="#000000" font-family="Fira Code" font-size="18" lengthAdjust="spacing" textLength="124" x="170" y="388.708">verify_is_file()</text><text fill="#000000" font-family="Fira Code" font-size="18" lengthAdjust="spacing" textLength="180" x="126" y="419.6611">- Required arg: path</text><text fill="#000000" font-family="Fira Code" font-size="18" lengthAdjust="spacing" textLength="202" x="126" y="440.6143">- Output: path or Error</text></g><g id="cps.vpp"><rect fill="#F2F2F2" height="103.8125" rx="12.5" ry="12.5" style="stroke:#000000;stroke-width:0.5;" width="267" x="356.5" y="528"/><line style="stroke:#000000;stroke-width:0.5;" x1="356.5" x2="623.5" y1="558.9531" y2="558.9531"/><text fill="#000000" font-family="Fira Code" font-size="18" lengthAdjust="spacing" textLength="247" x="366.5" y="549.708">verify_package_properties()</text><text fill="#000000" font-family="Fira Code" font-size="18" lengthAdjust="spacing" textLength="232" x="361.5" y="580.6611">- Required arg: properties</text><text fill="#000000" font-family="Fira Code" font-size="18" lengthAdjust="spacing" textLength="208" x="361.5" y="601.6143">- Output: JSON or Error</text><text fill="#000000" font-family="Fira Code" font-size="18" lengthAdjust="spacing" textLength="188" x="361.5" y="622.5674">- Checks against spec</text></g><g id="cps.rp"><rect fill="#F2F2F2" height="82.8594" rx="12.5" ry="12.5" style="stroke:#000000;stroke-width:0.5;" width="200" x="121" y="538.5"/><line style="stroke:#000000;stroke-width:0.5;" x1="121" x2="321" y1="569.4531" y2="569.4531"/><text fill="#000000" font-family="Fira Code" font-size="18" lengthAdjust="spacing" textLength="154" x="144" y="560.208">read_properties()</text><text fill="#000000" font-family="Fira Code" font-size="18" lengthAdjust="spacing" textLength="180" x="126" y="591.1611">- Required arg: path</text><text fill="#000000" font-family="Fira Code" font-size="18" lengthAdjust="spacing" textLength="131" x="126" y="612.1143">- Output: JSON</text></g><g id="cps.jp"><rect fill="#F2F2F2" height="82.8594" rx="12.5" ry="12.5" style="stroke:#000000;stroke-width:0.5;" width="316" x="181" y="710"/><line style="stroke:#000000;stroke-width:0.5;" x1="181" x2="497" y1="740.9531" y2="740.9531"/><text fill="#000000" font-family="Fira Code" font-size="18" lengthAdjust="spacing" textLength="146" x="266" y="731.708">join_properties()</text><text fill="#000000" font-family="Fira Code" font-size="18" lengthAdjust="spacing" textLength="296" x="186" y="762.6611">- Required args: current and new</text><text fill="#000000" font-family="Fira Code" font-size="18" lengthAdjust="spacing" textLength="131" x="186" y="783.6143">- Output: JSON</text></g><text fill="#000000" font-family="Fira Code" font-size="18" lengthAdjust="spacing" textLength="56" x="310.5" y="911.708">return</text><ellipse cx="338.5" cy="889" fill="#F2F2F2" rx="6" ry="6" style="stroke:#000000;stroke-width:1.5;"/><line style="stroke:#000000;stroke-width:1.5;" x1="342.8891" x2="335.1109" y1="893.3891" y2="885.6109"/><line style="stroke:#000000;stroke-width:1.5;" x1="342.8891" x2="335.1109" y1="885.6109" y2="893.3891"/><path d="M160.5,968 L517.5,968 A12.5,12.5 0 0 1 530,980.5 L530,998.9531 L148,998.9531 L148,980.5 A12.5,12.5 0 0 1 160.5,968 " fill="#F2F2F2" style="stroke:#F2F2F2;stroke-width:1.0;"/><rect fill="none" height="177.7188" rx="12.5" ry="12.5" style="stroke:#000000;stroke-width:0.5;" width="382" x="148" y="968"/><line style="stroke:#000000;stroke-width:0.5;" x1="148" x2="530" y1="998.9531" y2="998.9531"/><text fill="#000000" font-family="Fira Code" font-size="18" lengthAdjust="spacing" textLength="61" x="308.5" y="989.708">Output</text><g id="output.json_output"><rect fill="#F2F2F2" height="124.7656" rx="12.5" ry="12.5" style="stroke:#000000;stroke-width:0.5;" width="361" x="160" y="1010.9531"/><line style="stroke:#000000;stroke-width:0.5;" x1="160" x2="521" y1="1041.9063" y2="1041.9063"/><text fill="#000000" font-family="Fira Code" font-size="18" lengthAdjust="spacing" textLength="45" x="318" y="1032.6611">JSON</text><text fill="#000000" font-family="Fira Code" font-size="18" lengthAdjust="spacing" textLength="341" x="165" y="1063.6143">- JSON object of the package following</text><text fill="#000000" font-family="Fira Code" font-size="18" lengthAdjust="spacing" textLength="199" x="177" y="1084.5674">the Data Package spec</text><text fill="#000000" font-family="Fira Code" font-size="18" lengthAdjust="spacing" textLength="336" x="165" y="1105.5205">- Use `write_package_properties()` to</text><text fill="#000000" font-family="Fira Code" font-size="18" lengthAdjust="spacing" textLength="285" x="177" y="1126.4736">save back to `datapackage.json`</text></g><!--link path to arg_path--><g id="link_path_arg_path"><path d="M176.35,155.3 C177.17,179.89 178.15,209.33 178.66,224.62 " fill="none" id="path-to-arg_path" style="stroke:#000000;stroke-width:1.0;"/><polygon fill="#000000" points="178.83,229.92,182.5184,220.7879,178.6582,224.923,174.5231,221.0628,178.83,229.92" style="stroke:#000000;stroke-width:1.0;"/></g><!--link properties to arg_properties--><g id="link_properties_arg_properties"><path d="M520.32,155.3 C519.91,179.89 519.43,209.33 519.17,224.62 " fill="none" id="properties-to-arg_properties" style="stroke:#000000;stroke-width:1.0;"/><polygon fill="#000000" points="519.08,229.92,523.2337,220.9899,519.1657,224.9207,515.2349,220.8528,519.08,229.92" style="stroke:#000000;stroke-width:1.0;"/></g><!--link arg_path to vif--><g id="link_arg_path_vif"><path d="M180.64,242.29 C186.2,260.15 204.64,319.47 217.83,361.92 " fill="none" id="arg_path-to-vif" style="stroke:#000000;stroke-width:1.0;"/><polygon fill="#000000" points="219.33,366.75,220.4735,356.9677,217.8435,361.9761,212.8352,359.3461,219.33,366.75" style="stroke:#000000;stroke-width:1.0;"/><text fill="#000000" font-family="sans-serif" font-size="14" lengthAdjust="spacing" textLength="78" x="200" y="297.9951">path object</text></g><!--link arg_properties to vpp--><g id="link_arg_properties_vpp"><path d="M518.57,242.1 C515.96,272.85 502.19,435.2 494.76,522.82 " fill="none" id="arg_properties-to-vpp" style="stroke:#000000;stroke-width:1.0;"/><polygon fill="#000000" points="494.33,527.96,499.0882,519.3368,494.7594,522.9785,491.1178,518.6497,494.33,527.96" style="stroke:#000000;stroke-width:1.0;"/><text fill="#000000" font-family="sans-serif" font-size="14" lengthAdjust="spacing" textLength="80" x="513" y="413.4951">JSON object</text></g><!--link vif to rp--><g id="link_vif_rp"><path d="M176.4,450.37 C168.1,459.15 160.75,469.11 156,480 C147.81,498.76 155.83,517.91 168.68,534.29 " fill="none" id="vif-to-rp" style="stroke:#000000;stroke-width:1.0;"/><polygon fill="#000000" points="172.04,538.4,169.4138,528.9077,168.8645,534.5379,163.2343,533.9886,172.04,538.4" style="stroke:#000000;stroke-width:1.0;"/><text fill="#000000" font-family="sans-serif" font-size="14" lengthAdjust="spacing" textLength="78" x="157" y="493.9951">path object</text></g><!--link rp to jp--><g id="link_rp_jp"><path d="M249.26,621.6 C266.93,646.98 289.7,679.69 307.89,705.81 " fill="none" id="rp-to-jp" style="stroke:#000000;stroke-width:1.0;"/><polygon fill="#000000" points="310.76,709.94,308.8961,700.2691,307.9013,705.8378,302.3326,704.843,310.76,709.94" style="stroke:#000000;stroke-width:1.0;"/><text fill="#000000" font-family="sans-serif" font-size="14" lengthAdjust="spacing" textLength="80" x="288" y="675.9951">JSON object</text></g><!--link vpp to jp--><g id="link_vpp_jp"><path d="M444.29,632.32 C423.36,655.8 398.8,683.37 378.67,705.97 " fill="none" id="vpp-to-jp" style="stroke:#000000;stroke-width:1.0;"/><polygon fill="#000000" points="375.22,709.84,384.1976,705.7899,378.5498,706.1101,378.2297,700.4623,375.22,709.84" style="stroke:#000000;stroke-width:1.0;"/></g><!--link jp to return--><g id="link_jp_return"><path d="M339,793.15 C339,822.29 339,859.43 339,877.36 " fill="none" id="jp-to-return" style="stroke:#000000;stroke-width:1.0;"/><polygon fill="#000000" points="339,882.67,343,873.67,339,877.67,335,873.67,339,882.67" style="stroke:#000000;stroke-width:1.0;"/><text fill="#000000" font-family="sans-serif" font-size="14" lengthAdjust="spacing" textLength="80" x="340" y="836.9951">JSON object</text></g><!--link return to output--><g id="link_return_output"><path d="M339,895.15 C339,906.22 339,933.65 339,962.79 " fill="none" id="return-to-output" style="stroke:#000000;stroke-width:1.0;"/><polygon fill="#000000" points="339,967.86,343,958.86,339,962.86,335,958.86,339,967.86" style="stroke:#000000;stroke-width:1.0;"/></g><!--SRC=[VLHDZzem4BtdLqovz4C2xWWXLTiUsaDtrQgtIi4uGt0MRDUUG5VL_lVEE2491Ce1GjxBUsy-d3UqmmD2H2oqYWZRu0wm8_9nCPy7TPgLXdRrfeuOjBE4bcRQ7UPd_jG7Lw6c_aRIcn-KiLaMIH72v8lrDKr0HJ1o1NypQAyMC8MrLxJBFxnxluPjRJKPPoDpeua49pQ7qXoDBK6x4DW9X1wpj_0nbFM1yqIOoeSr1KcIJt913jQ58kMLVbObpgheB5kOFVwouW-S55eGrajJh1Xr-mA3I0NdCP31A7fVVpn-0xUHGi5jXm-A53-qToU9AC0djkG0ZMpqgBFNhX6FDPqxuT9bQaKBYac296ZUu8mE_i7_i_H19DNjB6EzdppqzIaOmhpLoVlYPIZaH2wg8yA62RVxEYXI1rHtn59vsiTKjlnAWE_ukpO12r2XN3GpLBOOJ23hUiICF16MInvyU7bonj9gTObtprsppXiodQuwfOjHzyWDxyaHWzc-v2RciaDjCKUpPGP_tobb03R3Rojq0Jw7u6JLkgB4lI4tb3JZSO2xZJrwBtRUtyhILzHJpecQbUeJdV677UfdFeib7sO-ZEq2NJKvfKuF33Ppa9gteHXd3H8r-FjT2-E8RI_5CA6tkrJnjCT-bVXLOpy-thhczugbj7GMJptlofiznRgwBhNfLmDTr4rri1DPmZ-6-asj6cu3ZwJQsy9etm2lsJy0]--></g></svg>