<?xml version="1.0" encoding="us-ascii" standalone="no"?><svg xmlns="http://www.w3.org/2000/svg" xmlns:xlink="http://www.w3.org/1999/xlink" contentStyleType="text/css" height="1232px" preserveAspectRatio="none" style="width:422px;height:1232px;background:#FFFFFF;" version="1.1" viewBox="0 0 422 1232" width="422px" zoomAndPan="magnify"><defs/><g><!--cluster cpt--><g id="cluster_cpt"><path d="M19.5,47.6982 L396.5,47.6982 A12.5,12.5 0 0 1 409,60.1982 L409,99.6045 L7,99.6045 L7,60.1982 A12.5,12.5 0 0 1 19.5,47.6982 " fill="#F2F2F2" style="stroke:#F2F2F2;stroke-width:1.0;"/><rect fill="none" height="1154" rx="12.5" ry="12.5" style="stroke:#000000;stroke-width:0.5;" width="402" x="7" y="47.6982"/><line style="stroke:#000000;stroke-width:0.5;" x1="7" x2="409" y1="99.6045" y2="99.6045"/><line style="stroke:#000000;stroke-width:0.5;" x1="7" x2="409" y1="73.6514" y2="73.6514"/><text fill="#000000" font-family="Fira Code" font-size="18" lengthAdjust="spacing" textLength="258" x="79" y="69.4063">create_properties_template()</text><text fill="#000000" font-family="Fira Code" font-size="18" lengthAdjust="spacing" textLength="370" x="12" y="92.8594">- Required arg: path to where to save file</text></g><text fill="#000000" font-family="Fira Code" font-size="18" lengthAdjust="spacing" textLength="29" x="35.5" y="25.4531">arg</text><ellipse cx="50" cy="47.6982" fill="#F2F2F2" rx="6" ry="6" style="stroke:#000000;stroke-width:1.5;"/><g id="cpt.url"><rect fill="#F2F2F2" height="82.8594" rx="12.5" ry="12.5" style="stroke:#000000;stroke-width:0.5;" width="265" x="101.5" y="273.6982"/><line style="stroke:#000000;stroke-width:0.5;" x1="101.5" x2="366.5" y1="304.6514" y2="304.6514"/><text fill="#000000" font-family="Fira Code" font-size="18" lengthAdjust="spacing" textLength="245" x="111.5" y="295.4063">DATA_PACKAGE_SPEC_URL</text><text fill="#000000" font-family="Fira Code" font-size="18" lengthAdjust="spacing" textLength="245" x="106.5" y="326.3594">- Variable of the URL to the</text><text fill="#000000" font-family="Fira Code" font-size="18" lengthAdjust="spacing" textLength="167" x="118.5" y="347.3125">Data Package Spec</text></g><g id="cpt.su"><rect fill="#F2F2F2" height="103.8125" rx="12.5" ry="12.5" style="stroke:#000000;stroke-width:0.5;" width="318" x="75" y="434.6982"/><line style="stroke:#000000;stroke-width:0.5;" x1="75" x2="393" y1="465.6514" y2="465.6514"/><text fill="#000000" font-family="Fira Code" font-size="18" lengthAdjust="spacing" textLength="104" x="182" y="456.4063">scrape_url()</text><text fill="#000000" font-family="Fira Code" font-size="18" lengthAdjust="spacing" textLength="165" x="80" y="487.3594">- Required arg: url</text><text fill="#000000" font-family="Fira Code" font-size="18" lengthAdjust="spacing" textLength="131" x="80" y="508.3125">- Output: JSON</text><text fill="#000000" font-family="Fira Code" font-size="18" lengthAdjust="spacing" textLength="298" x="80" y="529.2656">- Scrapes the JSON using web API</text></g><g id="cpt.dpf"><rect fill="#F2F2F2" height="103.8125" rx="12.5" ry="12.5" style="stroke:#000000;stroke-width:0.5;" width="302" x="79" y="616.6982"/><line style="stroke:#000000;stroke-width:0.5;" x1="79" x2="381" y1="647.6514" y2="647.6514"/><text fill="#000000" font-family="Fira Code" font-size="18" lengthAdjust="spacing" textLength="189" x="135.5" y="638.4063">drop_property_field()</text><text fill="#000000" font-family="Fira Code" font-size="18" lengthAdjust="spacing" textLength="282" x="84" y="669.3594">- Required arg: properties, field</text><text fill="#000000" font-family="Fira Code" font-size="18" lengthAdjust="spacing" textLength="131" x="84" y="690.3125">- Output: JSON</text><text fill="#000000" font-family="Fira Code" font-size="18" lengthAdjust="spacing" textLength="266" x="84" y="711.2656">- Drop any fields we don't use</text></g><g id="cpt.epf"><rect fill="#F2F2F2" height="145.7188" rx="12.5" ry="12.5" style="stroke:#000000;stroke-width:0.5;" width="258" x="88" y="798.6982"/><line style="stroke:#000000;stroke-width:0.5;" x1="88" x2="346" y1="829.6514" y2="829.6514"/><text fill="#000000" font-family="Fira Code" font-size="18" lengthAdjust="spacing" textLength="182" x="126" y="820.4063">edit_property_field()</text><text fill="#000000" font-family="Fira Code" font-size="18" lengthAdjust="spacing" textLength="238" x="93" y="851.3594">- Required arg: properties,</text><text fill="#000000" font-family="Fira Code" font-size="18" lengthAdjust="spacing" textLength="98" x="105" y="872.3125">field, value</text><text fill="#000000" font-family="Fira Code" font-size="18" lengthAdjust="spacing" textLength="131" x="93" y="893.2656">- Output: JSON</text><text fill="#000000" font-family="Fira Code" font-size="18" lengthAdjust="spacing" textLength="177" x="93" y="914.2188">- Edit field values to</text><text fill="#000000" font-family="Fira Code" font-size="18" lengthAdjust="spacing" textLength="138" x="105" y="935.1719">defaults we use</text></g><g id="cpt.wf"><rect fill="#F2F2F2" height="82.8594" rx="12.5" ry="12.5" style="stroke:#000000;stroke-width:0.5;" width="294" x="46" y="1022.6982"/><line style="stroke:#000000;stroke-width:0.5;" x1="46" x2="340" y1="1053.6514" y2="1053.6514"/><text fill="#000000" font-family="Fira Code" font-size="18" lengthAdjust="spacing" textLength="97" x="144.5" y="1044.4063">write_file()</text><text fill="#000000" font-family="Fira Code" font-size="18" lengthAdjust="spacing" textLength="274" x="51" y="1075.3594">- Required arg: string and path</text><text fill="#000000" font-family="Fira Code" font-size="18" lengthAdjust="spacing" textLength="125" x="51" y="1096.3125">- Output: path</text></g><text fill="#000000" font-family="Fira Code" font-size="18" lengthAdjust="spacing" textLength="56" x="164.5" y="1224.4063">return</text><ellipse cx="192.5" cy="1201.6982" fill="#F2F2F2" rx="6" ry="6" style="stroke:#000000;stroke-width:1.5;"/><line style="stroke:#000000;stroke-width:1.5;" x1="196.8891" x2="189.1109" y1="1206.0873" y2="1198.3092"/><line style="stroke:#000000;stroke-width:1.5;" x1="196.8891" x2="189.1109" y1="1198.3092" y2="1206.0873"/><!--link url to su--><g id="link_url_su"><path d="M234,356.7982 C234,380.1082 234,403.5982 234,428.4882 " fill="none" id="url-to-su" style="stroke:#000000;stroke-width:1.0;"/><polygon fill="#000000" points="234,434.4882,238,425.4882,234,429.4882,230,425.4882,234,434.4882" style="stroke:#000000;stroke-width:1.0;"/><text fill="#000000" font-family="sans-serif" font-size="14" lengthAdjust="spacing" textLength="39" x="235" y="400.6934">string</text></g><!--link su to dpf--><g id="link_su_dpf"><path d="M232.86,538.7982 C232.32,563.1182 231.8131,586.1397 231.2731,610.4697 " fill="none" id="su-to-dpf" style="stroke:#000000;stroke-width:1.0;"/><polygon fill="#000000" points="231.14,616.4682,235.3387,607.5592,231.2509,611.4695,227.3407,607.3817,231.14,616.4682" style="stroke:#000000;stroke-width:1.0;"/><text fill="#000000" font-family="sans-serif" font-size="14" lengthAdjust="spacing" textLength="80" x="233" y="582.6934">JSON object</text></g><!--link dpf to epf--><g id="link_dpf_epf"><path d="M226.69,720.9382 C225.16,744.5482 223.7064,766.9907 222.0464,792.7107 " fill="none" id="dpf-to-epf" style="stroke:#000000;stroke-width:1.0;"/><polygon fill="#000000" points="221.66,798.6982,226.2314,789.9746,221.982,793.7086,218.248,789.4593,221.66,798.6982" style="stroke:#000000;stroke-width:1.0;"/><text fill="#000000" font-family="sans-serif" font-size="14" lengthAdjust="spacing" textLength="80" x="225" y="764.6934">JSON object</text></g><!--link arg to wf--><g id="link_arg_wf"><path d="M50,53.8282 C50,64.9382 50,92.0082 50,114.6982 C50,114.6982 50,114.6982 50,316.1982 C50,432.0782 39,460.8182 39,576.6982 C39,576.6982 39,576.6982 39,872.6982 C39,934.9982 84.731,984.6574 127.881,1018.9174 " fill="none" id="arg-to-wf" style="stroke:#000000;stroke-width:1.0;"/><polygon fill="#000000" points="132.58,1022.6482,128.0188,1013.9193,128.6642,1019.5392,123.0443,1020.1846,132.58,1022.6482" style="stroke:#000000;stroke-width:1.0;"/><text fill="#000000" font-family="sans-serif" font-size="14" lengthAdjust="spacing" textLength="78" x="49" y="400.6934">path object</text></g><!--link epf to wf--><g id="link_epf_wf"><path d="M207.93,944.7182 C204.61,971.0582 201.7194,993.9752 198.8694,1016.6152 " fill="none" id="epf-to-wf" style="stroke:#000000;stroke-width:1.0;"/><polygon fill="#000000" points="198.12,1022.5682,203.2128,1014.1383,198.7445,1017.6074,195.2754,1013.1391,198.12,1022.5682" style="stroke:#000000;stroke-width:1.0;"/><text fill="#000000" font-family="sans-serif" font-size="14" lengthAdjust="spacing" textLength="80" x="204" y="988.6934">JSON object</text></g><!--link wf to return--><g id="link_wf_return"><path d="M193,1105.8482 C193,1138.2782 193,1174.6282 193,1189.3682 " fill="none" id="wf-to-return" style="stroke:#000000;stroke-width:1.0;"/><polygon fill="#000000" points="193,1195.3682,197,1186.3682,193,1190.3682,189,1186.3682,193,1195.3682" style="stroke:#000000;stroke-width:1.0;"/><text fill="#000000" font-family="sans-serif" font-size="14" lengthAdjust="spacing" textLength="78" x="194" y="1149.6934">path object</text></g><!--SRC=[XPDHRzGm3CVV-odClG3IRlT-cawgTgTfW5Yr0vwGgbphNWDj4n9dvOJuxZX9kvQfWfUcil-sVtQSLrHZYs0Hoq9OXCge5ceYRRURZH7zzLbIxKxEeYbKHzZHTQ7QpQXVQwE-OK6J8UJRj49sIM994CAgCCXdpbADXYJQdB3L3TlUl5s1i51eWby9X7CBQtZ47quQB46OynQqe1f8GL-ZGVzZnHE3oWOJZearM0WtDqndBfcI7Ursas-rJp-bUPRUla_l3lanEzpcdny_XCBEDC0wV_YwNuIHujGWg0gu3s2PhyU_Npk0lI01cIY-YpF2KMCnAs4B8pJcd6XeoJhlT0lji6PoFJZIZhRmxlZmSR8UGpOR6Bm7d9NT6NeyGPhT3y3hzIxgBHdspc1A7lGuxKjUIMpAWQhK5SlukpJcv-kvWX0pKxx07Crx3W7HNQBUCY2KgdjDp8kn6myPrQ4FTVBBCaF5Kj8oAWPK_1-glvWGTWLFed4uYta1FPeFN3A6n0WUi_9PIgo4QoXq4Vazk6y0_z50RoIljb_6WRltsFqITRmddbSPLdgIZQ23rU-oBnkyOVc7gh67PzSYa45oflDluQUasLFeO-3W_Zllx-GF]--></g></svg>