<?xml version="1.0" encoding="us-ascii" standalone="no"?><svg xmlns="http://www.w3.org/2000/svg" xmlns:xlink="http://www.w3.org/1999/xlink" contentStyleType="text/css" height="979px" preserveAspectRatio="none" style="width:738px;height:979px;background:#FFFFFF;" version="1.1" viewBox="0 0 738 979" width="738px" zoomAndPan="magnify"><defs/><g><!--cluster crp--><g id="cluster_crp"><path d="M19.5,47.6982 L712.5,47.6982 A12.5,12.5 0 0 1 725,60.1982 L725,99.6045 L7,99.6045 L7,60.1982 A12.5,12.5 0 0 1 19.5,47.6982 " fill="#F2F2F2" style="stroke:#F2F2F2;stroke-width:1.0;"/><rect fill="none" height="669" rx="12.5" ry="12.5" style="stroke:#000000;stroke-width:0.5;" width="718" x="7" y="47.6982"/><line style="stroke:#000000;stroke-width:0.5;" x1="7" x2="725" y1="99.6045" y2="99.6045"/><line style="stroke:#000000;stroke-width:0.5;" x1="7" x2="725" y1="73.6514" y2="73.6514"/><text fill="#000000" font-family="Fira Code" font-size="18" lengthAdjust="spacing" textLength="256" x="238" y="69.4063">create_resource_properties()</text><text fill="#000000" font-family="Fira Code" font-size="18" lengthAdjust="spacing" textLength="375" x="12" y="92.8594">- Required arg: path and properties object</text></g><text fill="#000000" font-family="Fira Code" font-size="18" lengthAdjust="spacing" textLength="39" x="500.5" y="25.4531">path</text><ellipse cx="520" cy="47.6982" fill="#F2F2F2" rx="6" ry="6" style="stroke:#000000;stroke-width:1.5;"/><text fill="#000000" font-family="Fira Code" font-size="18" lengthAdjust="spacing" textLength="91" x="113.5" y="25.4531">properties</text><ellipse cx="159" cy="47.6982" fill="#F2F2F2" rx="6" ry="6" style="stroke:#000000;stroke-width:1.5;"/><g id="crp.vid"><rect fill="#F2F2F2" height="82.8594" rx="12.5" ry="12.5" style="stroke:#000000;stroke-width:0.5;" width="222" x="409" y="178.6982"/><line style="stroke:#000000;stroke-width:0.5;" x1="409" x2="631" y1="209.6514" y2="209.6514"/><text fill="#000000" font-family="Fira Code" font-size="18" lengthAdjust="spacing" textLength="121" x="459.5" y="200.4063">verify_is_dir()</text><text fill="#000000" font-family="Fira Code" font-size="18" lengthAdjust="spacing" textLength="180" x="414" y="231.3594">- Required arg: path</text><text fill="#000000" font-family="Fira Code" font-size="18" lengthAdjust="spacing" textLength="202" x="414" y="252.3125">- Output: path or Error</text></g><g id="crp.crrdp"><rect fill="#F2F2F2" height="103.8125" rx="12.5" ry="12.5" style="stroke:#000000;stroke-width:0.5;" width="379" x="330.5" y="339.6982"/><line style="stroke:#000000;stroke-width:0.5;" x1="330.5" x2="709.5" y1="370.6514" y2="370.6514"/><text fill="#000000" font-family="Fira Code" font-size="18" lengthAdjust="spacing" textLength="328" x="356" y="361.4063">create_relative_resource_data_path()</text><text fill="#000000" font-family="Fira Code" font-size="18" lengthAdjust="spacing" textLength="359" x="335.5" y="392.3594">- Required arg: absolute path from input</text><text fill="#000000" font-family="Fira Code" font-size="18" lengthAdjust="spacing" textLength="199" x="335.5" y="413.3125">- Output: relative path</text><text fill="#000000" font-family="Fira Code" font-size="18" lengthAdjust="spacing" textLength="293" x="347.5" y="434.2656">(e.g. `resources/1/data.parquet`)</text></g><g id="crp.vrp"><rect fill="#F2F2F2" height="103.8125" rx="12.5" ry="12.5" style="stroke:#000000;stroke-width:0.5;" width="272" x="23" y="339.6982"/><line style="stroke:#000000;stroke-width:0.5;" x1="23" x2="295" y1="370.6514" y2="370.6514"/><text fill="#000000" font-family="Fira Code" font-size="18" lengthAdjust="spacing" textLength="252" x="33" y="361.4063">verify_resource_properties()</text><text fill="#000000" font-family="Fira Code" font-size="18" lengthAdjust="spacing" textLength="232" x="28" y="392.3594">- Required arg: properties</text><text fill="#000000" font-family="Fira Code" font-size="18" lengthAdjust="spacing" textLength="208" x="28" y="413.3125">- Output: JSON or Error</text><text fill="#000000" font-family="Fira Code" font-size="18" lengthAdjust="spacing" textLength="188" x="28" y="434.2656">- Checks against spec</text></g><g id="crp.erpf"><rect fill="#F2F2F2" height="82.8594" rx="12.5" ry="12.5" style="stroke:#000000;stroke-width:0.5;" width="370" x="119" y="537.6982"/><line style="stroke:#000000;stroke-width:0.5;" x1="119" x2="489" y1="568.6514" y2="568.6514"/><text fill="#000000" font-family="Fira Code" font-size="18" lengthAdjust="spacing" textLength="281" x="163.5" y="559.4063">edit_resource_properties_field()</text><text fill="#000000" font-family="Fira Code" font-size="18" lengthAdjust="spacing" textLength="350" x="124" y="590.3594">- Required args: properties, field, value</text><text fill="#000000" font-family="Fira Code" font-size="18" lengthAdjust="spacing" textLength="131" x="124" y="611.3125">- Output: JSON</text></g><text fill="#000000" font-family="Fira Code" font-size="18" lengthAdjust="spacing" textLength="56" x="275.5" y="739.4063">return</text><ellipse cx="303.5" cy="716.6982" fill="#F2F2F2" rx="6" ry="6" style="stroke:#000000;stroke-width:1.5;"/><line style="stroke:#000000;stroke-width:1.5;" x1="307.8891" x2="300.1109" y1="721.0873" y2="713.3092"/><line style="stroke:#000000;stroke-width:1.5;" x1="307.8891" x2="300.1109" y1="713.3092" y2="721.0873"/><path d="M123,795.6982 L485,795.6982 A12.5,12.5 0 0 1 497.5,808.1982 L497.5,826.6514 L110.5,826.6514 L110.5,808.1982 A12.5,12.5 0 0 1 123,795.6982 " fill="#F2F2F2" style="stroke:#F2F2F2;stroke-width:1.0;"/><rect fill="none" height="177.7188" rx="12.5" ry="12.5" style="stroke:#000000;stroke-width:0.5;" width="387" x="110.5" y="795.6982"/><line style="stroke:#000000;stroke-width:0.5;" x1="110.5" x2="497.5" y1="826.6514" y2="826.6514"/><text fill="#000000" font-family="Fira Code" font-size="18" lengthAdjust="spacing" textLength="61" x="273.5" y="817.4063">Output</text><g id="output.json_output"><rect fill="#F2F2F2" height="124.7656" rx="12.5" ry="12.5" style="stroke:#000000;stroke-width:0.5;" width="366" x="122.5" y="838.6514"/><line style="stroke:#000000;stroke-width:0.5;" x1="122.5" x2="488.5" y1="869.6045" y2="869.6045"/><text fill="#000000" font-family="Fira Code" font-size="18" lengthAdjust="spacing" textLength="45" x="283" y="860.3594">JSON</text><text fill="#000000" font-family="Fira Code" font-size="18" lengthAdjust="spacing" textLength="346" x="127.5" y="891.3125">- JSON object of the resource following</text><text fill="#000000" font-family="Fira Code" font-size="18" lengthAdjust="spacing" textLength="199" x="139.5" y="912.2656">the Data Package spec</text><text fill="#000000" font-family="Fira Code" font-size="18" lengthAdjust="spacing" textLength="341" x="127.5" y="933.2188">- Use `write_resource_properties()` to</text><text fill="#000000" font-family="Fira Code" font-size="18" lengthAdjust="spacing" textLength="285" x="139.5" y="954.1719">save back to `datapackage.json`</text></g><!--link path to vid--><g id="link_path_vid"><path d="M520,53.9882 C520,72.5382 520,129.8082 520,172.4482 " fill="none" id="path-to-vid" style="stroke:#000000;stroke-width:1.0;"/><polygon fill="#000000" points="520,178.4482,524,169.4482,520,173.4482,516,169.4482,520,178.4482" style="stroke:#000000;stroke-width:1.0;"/><text fill="#000000" font-family="sans-serif" font-size="14" lengthAdjust="spacing" textLength="78" x="521" y="109.6934">path object</text></g><!--link vid to crrdp--><g id="link_vid_crrdp"><path d="M520,261.7982 C520,285.1082 520,308.5982 520,333.4882 " fill="none" id="vid-to-crrdp" style="stroke:#000000;stroke-width:1.0;"/><polygon fill="#000000" points="520,339.4882,524,330.4882,520,334.4882,516,330.4882,520,339.4882" style="stroke:#000000;stroke-width:1.0;"/><text fill="#000000" font-family="sans-serif" font-size="14" lengthAdjust="spacing" textLength="78" x="521" y="305.6934">path object</text></g><!--link properties to vrp--><g id="link_properties_vrp"><path d="M159,53.7982 C159,85.1682 159,247.4282 159,333.6582 " fill="none" id="properties-to-vrp" style="stroke:#000000;stroke-width:1.0;"/><polygon fill="#000000" points="159,339.6582,163,330.6582,159,334.6582,155,330.6582,159,339.6582" style="stroke:#000000;stroke-width:1.0;"/><text fill="#000000" font-family="sans-serif" font-size="14" lengthAdjust="spacing" textLength="80" x="160" y="225.1934">JSON object</text></g><!--link crrdp to erpf--><g id="link_crrdp_erpf"><path d="M460.41,443.8782 C426.07,473.3682 388.0414,506.0187 355.9914,533.5487 " fill="none" id="crrdp-to-erpf" style="stroke:#000000;stroke-width:1.0;"/><polygon fill="#000000" points="351.44,537.4582,360.8735,534.6282,355.2329,534.2003,355.6608,528.5596,351.44,537.4582" style="stroke:#000000;stroke-width:1.0;"/><text fill="#000000" font-family="sans-serif" font-size="14" lengthAdjust="spacing" textLength="99" x="425" y="487.6934">Update `path`</text><text fill="#000000" font-family="sans-serif" font-size="14" lengthAdjust="spacing" textLength="58" x="445.5" y="503.9902">property</text></g><!--link vrp to erpf--><g id="link_vrp_erpf"><path d="M199.01,443.8782 C222.06,473.3682 246.9459,505.2003 268.4559,532.7303 " fill="none" id="vrp-to-erpf" style="stroke:#000000;stroke-width:1.0;"/><polygon fill="#000000" points="272.15,537.4582,269.7608,527.9036,269.0716,533.5183,263.4569,532.829,272.15,537.4582" style="stroke:#000000;stroke-width:1.0;"/><text fill="#000000" font-family="sans-serif" font-size="14" lengthAdjust="spacing" textLength="80" x="249" y="495.6934">JSON object</text></g><!--link erpf to return--><g id="link_erpf_return"><path d="M304,620.8482 C304,653.2782 304,689.6282 304,704.3682 " fill="none" id="erpf-to-return" style="stroke:#000000;stroke-width:1.0;"/><polygon fill="#000000" points="304,710.3682,308,701.3682,304,705.3682,300,701.3682,304,710.3682" style="stroke:#000000;stroke-width:1.0;"/><text fill="#000000" font-family="sans-serif" font-size="14" lengthAdjust="spacing" textLength="80" x="305" y="664.6934">JSON object</text></g><!--link return to output--><g id="link_return_output"><path d="M304,722.8482 C304,734.5582 304,758.5782 304,789.5582 " fill="none" id="return-to-output" style="stroke:#000000;stroke-width:1.0;"/><polygon fill="#000000" points="304,795.5582,308,786.5582,304,790.5582,300,786.5582,304,795.5582" style="stroke:#000000;stroke-width:1.0;"/></g><!--SRC=[TLInRjim4Dtz5LTF2H1Bw6e4Njek7PeWGRO04YsTPIOooHnFSeqY_rwIeYp2aHVJrBrxVEyTfM-ynmE2HQmhOH5sf0-mPpPsdUSaZbaZUTzjEujKQSMeEAlq8H_nAqFw3IkU7WI-_22aMYmi2qPOFdHiEbw2iA33N_Yt08Z5tyyFVqBfpMfL37LNJNQmXXLu6EYjFmlq3jmfG6XrHvNJhDjM7wLgNXM4oa_10Xv5zIuQPyrWDKFuuioMHvACnKXKE3C6YINQcziIM7i-Atg4hUDoUoXhnsm6uimpbelFiysAK5nZ2muhCi6vNxs49_pe964DWfer6C5x4Ag6gIyQNfpJ2fZxUpS5EZrggNYpcMfJsmLY2hj7ahjJ8MrHIuggUbaxWFkzeYaf3eECKZN1Bo9DhXxsgzKc0eVoXVGfdbQmx9ESVAQ5xpd7HBK9CRbrHfJOMjrsOnhXmaert9gfPPGw7XV0Vfutc3KPbEFfDl-UUm6P4VJH8PUtqQ-tCzBD6ufXNfztJzv6Fp_jCpY1ZAA7opxbEzP_xB5wjo0QztPP7czsClWmWm1EtfT4CjQIvmGNEubj7MKZcPrhySiNuJPLVWUXxGvwqNQOjgH6pcFnuYBYnTHUJ-c3BLzLf3n5gmbmtWOXTwIM_fx_bJoz2A79Tm-0YtuO7tj4_D1y_WS0]--></g></svg>